<svg width="150" height="225" viewBox="0 0 150 225" fill="none" xmlns="http://www.w3.org/2000/svg">
<path d="M3.30397 171.944C1.7987 176.58 1.21186 181.485 1.57877 186.362C1.94569 191.24 3.25877 195.991 5.43897 200.327C9.7809 208.839 16.8043 215.543 25.334 219.318C32.7549 222.718 42.8789 225.58 51.3156 221.483C51.3156 221.483 57.755 219.327 65.5633 211.867C65.5633 211.867 81.5672 192.062 73.5523 170.414C73.5523 170.414 72.5278 164.206 63.962 154.688C63.4799 154.152 54.6558 147.926 54.0188 147.622C46.8476 144.258 34.8296 144.222 19.7727 151.62C11.7837 155.547 6.00715 163.187 3.30397 171.944Z" fill="#7F1C80" stroke="black" stroke-miterlimit="10"/>
<path d="M82.8326 124.641C76.8925 134.687 67.1817 159.036 94.9969 180.996C94.9969 180.996 122.778 196.695 133.978 180.907C133.978 180.907 153.778 164.296 148.613 138.81C148.613 138.81 144.197 122.709 125.033 111.885C124.491 111.581 123.931 111.277 123.415 110.919C121.512 109.64 112.077 104.89 90.064 117.53C87.1026 119.211 84.6111 121.661 82.8326 124.641Z" fill="#7F1C80" stroke="black" stroke-miterlimit="10"/>
<path d="M13.3075 144.157C13.3075 144.157 18.9122 160.351 25.5109 161.718C26.4536 161.262 27.9512 161.262 28.4541 159.463C28.5013 158.657 28.3269 157.853 27.9512 157.146C24.4044 150.097 11.5944 122.903 15.322 105.621C15.322 105.621 22.2091 59.2755 28.0373 56.8244C28.0373 56.8244 32.9103 59.4377 39.651 67.8552C46.3917 76.2727 70.3181 92.7422 76.8867 95.6494C81.6388 97.7337 87.622 103.015 91.9695 107.496C93.346 108.923 95.4599 115.257 96.3659 117.044L97.287 118.833C97.9934 120.275 99.1698 121.409 100.606 122.033C102.043 122.658 103.646 122.731 105.13 122.241C106.628 121.705 107.583 120.622 106.653 118.511C104.277 113.144 99.1809 96.47 77.9687 87.8914C77.9687 87.8914 53.356 76.7635 44.8418 63.4439L31.1795 45.5713L38.6434 41.4832C38.6434 41.4832 61.3325 61.9319 82.5427 58.2867C82.5427 58.2867 105.973 53.1211 108.565 35.9193L117.268 8.40352C117.268 8.40352 105.167 8.83968 97.1542 6.7993C97.1542 6.7993 83.9567 -5.04768 59.7265 4.28868C59.7265 4.28868 34.6747 16.8926 37.8686 36.4291L29.5697 40.9644L27.1506 38.9875L20.2635 42.7714L21.6754 50.4375C21.6754 50.4375 12.0593 68.507 9.92426 87.2921C7.78926 106.077 5.15495 128.074 13.3075 144.157Z" fill="#619154" stroke="black" stroke-miterlimit="10"/>
</svg>
