<svg width="285" height="356" viewBox="0 0 285 356" fill="none" xmlns="http://www.w3.org/2000/svg">
<path d="M104.735 59.3121C104.735 59.3121 123.202 77.1395 127.051 90.7344C131.267 105.576 157.473 132 157.473 132C157.473 132 210.909 163.987 228.658 185.274C246.406 206.56 284.949 258.626 261.384 301.094C237.819 343.562 209.49 346.443 209.49 346.443C209.49 346.443 152.069 363.258 116.916 319.905C81.7629 276.551 32.2219 201.186 20.119 138.167C20.119 138.167 12.2791 88.1981 19.5804 80.6486C26.1153 73.8961 54.3221 61.3214 70.6057 52.8677C74.5168 50.8435 78.8844 49.8637 83.2854 50.0232C87.6864 50.1827 91.9716 51.4761 95.7259 53.7782L104.735 59.3121Z" fill="#534B6A" stroke="#020100" stroke-miterlimit="10"/>
<path d="M109.052 71.1216C109.052 71.1216 84.0229 82.119 77.4248 76.1634C77.4248 76.1634 80.8257 100.493 75.2681 108.171C75.2681 108.171 51.5175 105.234 47.2174 87.9822C47.2174 87.9822 33.005 109.436 24.938 112.275C16.871 115.113 7.01029 66.4343 42.8152 54.875L32.4672 7.60111L52.406 2.85406L57.3247 49.8788C57.3247 49.8788 102.651 37.5752 109.052 71.1216Z" fill="#619154" stroke="#020100" stroke-miterlimit="10"/>
</svg>
