<svg width="299" height="299" viewBox="0 0 299 299" fill="none" xmlns="http://www.w3.org/2000/svg">
<path d="M27.0369 90.7829C26.9363 90.7356 26.8436 90.6921 26.7589 90.6524L87.1469 29.179C87.1879 29.2628 87.233 29.3545 87.2819 29.4539C87.5751 30.0494 88.0093 30.9229 88.5737 32.0364C89.7026 34.2635 91.3527 37.451 93.4388 41.2951C97.6105 48.9824 103.528 59.2994 110.508 69.8135C117.487 80.325 125.539 91.0476 133.98 99.5377C142.408 108.015 151.286 114.328 159.924 115.914C176.835 119.018 202.242 128.31 223.455 136.844C234.054 141.108 243.594 145.178 250.484 148.181C253.929 149.683 256.711 150.918 258.632 151.778C259.592 152.208 260.337 152.544 260.842 152.772C261.094 152.886 261.286 152.974 261.416 153.033L261.562 153.099L261.598 153.116L261.608 153.12L261.61 153.121C261.61 153.121 261.611 153.121 261.818 152.667L261.611 153.121L261.648 153.138L261.688 153.149L261.689 153.15L261.694 153.151L261.717 153.157C261.737 153.163 261.769 153.172 261.81 153.184C261.893 153.208 262.016 153.245 262.177 153.295C262.498 153.395 262.966 153.549 263.549 153.762C264.717 154.188 266.343 154.849 268.173 155.786C271.838 157.665 276.292 160.64 279.527 165.037C282.751 169.42 284.778 175.234 283.583 182.849C282.386 190.479 277.946 199.956 268.146 211.625L212.513 268.288C201.02 278.294 191.621 282.902 184.01 284.235C176.413 285.565 170.558 283.64 166.113 280.493C161.654 277.337 158.595 272.935 156.648 269.303C155.676 267.489 154.984 265.875 154.537 264.715C154.313 264.136 154.15 263.67 154.044 263.351C153.991 263.191 153.952 263.068 153.926 262.986C153.913 262.945 153.904 262.914 153.898 262.893L153.891 262.871L153.89 262.866L153.889 262.865L153.878 262.825L153.86 262.788L153.409 263.004C153.86 262.788 153.86 262.788 153.86 262.788L153.859 262.785L153.854 262.776L153.837 262.74L153.768 262.595C153.707 262.467 153.616 262.276 153.497 262.026C153.26 261.525 152.911 260.786 152.464 259.834C151.571 257.929 150.287 255.169 148.724 251.752C145.599 244.918 141.361 235.454 136.91 224.937C128.001 203.887 118.259 178.665 114.852 161.841C113.111 153.248 106.635 144.493 98.0017 136.223C89.3553 127.94 78.4818 120.084 67.8386 113.293C57.1928 106.501 46.7631 100.767 38.996 96.731C35.1121 94.7129 31.893 93.119 29.6442 92.0293C28.5198 91.4845 27.638 91.0657 27.0369 90.7829Z" stroke="black"/>
</svg>
