<svg width="633" height="645" viewBox="0 0 633 645" fill="none" xmlns="http://www.w3.org/2000/svg">
<path d="M251.921 168.129C280.044 170.849 304.931 151.452 307.509 124.805C310.086 98.157 289.378 74.3497 261.255 71.6295C233.132 68.9093 208.244 88.3062 205.667 114.954C203.089 141.601 223.798 165.409 251.921 168.129Z" fill="#534B6A" stroke="black" stroke-miterlimit="10"/>
<path d="M410.172 180.94L393.26 191.56L380.985 172.013C380.985 172.013 405.267 108.521 456.975 85.6153L466.218 86.7864L487.444 93.7882C487.444 93.7882 539.939 61.9037 561.977 112.844C561.977 112.844 591.966 182.131 554.486 240.94C554.486 240.94 460.794 182.686 480.629 102.876L457.999 98.01C457.999 98.01 402.233 117.019 410.172 180.94Z" fill="#619154" stroke="black" stroke-miterlimit="10"/>
<path d="M189.306 239.897C217.09 242.585 241.677 223.424 244.223 197.1C246.769 170.776 226.31 147.257 198.527 144.57C170.744 141.883 146.157 161.044 143.61 187.368C141.064 213.692 161.523 237.21 189.306 239.897Z" fill="#534B6A" stroke="black" stroke-miterlimit="10"/>
<path d="M44.3106 592.989C68.23 595.303 89.3981 578.801 91.5909 556.131C93.7837 533.461 76.1708 513.207 52.2513 510.894C28.3319 508.58 7.1638 525.082 4.97102 547.752C2.77823 570.422 20.3911 590.676 44.3106 592.989Z" fill="#534B6A" stroke="black" stroke-miterlimit="10"/>
<path d="M74.5941 519.559C96.4609 521.675 115.812 506.594 117.816 485.876C119.82 465.158 103.718 446.648 81.8511 444.533C59.9843 442.418 40.6333 457.499 38.6293 478.217C36.6254 498.935 52.7274 517.444 74.5941 519.559Z" fill="#534B6A" stroke="black" stroke-miterlimit="10"/>
<path d="M134.598 385.539C159.228 387.922 181.025 370.932 183.283 347.592C185.541 324.252 167.404 303.4 142.773 301.018C118.143 298.635 96.3456 315.625 94.0881 338.965C91.8305 362.305 109.967 383.157 134.598 385.539Z" fill="#534B6A" stroke="black" stroke-miterlimit="10"/>
<path d="M322.018 253.156C361.241 256.95 395.951 229.898 399.546 192.734C403.14 155.57 374.258 122.367 335.036 118.573C295.814 114.78 261.103 141.831 257.509 178.995C253.914 216.159 282.796 249.362 322.018 253.156Z" fill="#534B6A" stroke="black" stroke-miterlimit="10"/>
<path d="M152.496 319.032C180.937 321.783 206.165 301.549 208.845 273.839C211.525 246.129 190.643 221.436 162.203 218.685C133.762 215.934 108.534 236.167 105.854 263.877C103.174 291.587 124.056 316.281 152.496 319.032Z" fill="#534B6A" stroke="black" stroke-miterlimit="10"/>
<path d="M225.016 482.664C252.174 484.169 275.397 463.591 276.887 436.703C278.376 409.815 257.569 386.798 230.411 385.294C203.254 383.789 180.031 404.366 178.541 431.254C177.051 458.142 197.859 481.159 225.016 482.664Z" fill="#534B6A" stroke="black" stroke-miterlimit="10"/>
<path d="M217.471 354.165C249.211 357.235 277.3 335.345 280.208 305.272C283.117 275.2 259.745 248.333 228.005 245.262C196.265 242.192 168.177 264.082 165.268 294.155C162.36 324.227 185.732 351.095 217.471 354.165Z" fill="#534B6A" stroke="black" stroke-miterlimit="10"/>
<path d="M93.7413 455.722C124.526 458.699 151.77 437.468 154.591 408.3C157.412 379.132 134.743 353.073 103.958 350.095C73.173 347.118 45.9297 368.349 43.1084 397.517C40.2871 426.685 62.9562 452.744 93.7413 455.722Z" fill="#534B6A" stroke="black" stroke-miterlimit="10"/>
<path d="M100.861 568.048C126.741 570.551 149.645 552.699 152.017 528.175C154.389 503.65 135.332 481.74 109.451 479.236C83.5702 476.733 60.6668 494.585 58.2947 519.109C55.9225 543.634 74.9799 565.544 100.861 568.048Z" fill="#534B6A" stroke="black" stroke-miterlimit="10"/>
<path d="M155.272 504.874C180.827 507.346 203.442 489.718 205.784 465.502C208.126 441.286 189.309 419.652 163.754 417.18C138.199 414.708 115.584 432.335 113.241 456.551C110.899 480.767 129.717 502.402 155.272 504.874Z" fill="#534B6A" stroke="black" stroke-miterlimit="10"/>
<path d="M267.953 264.222C294.437 266.784 317.873 248.516 320.301 223.421C322.728 198.325 303.227 175.904 276.744 173.342C250.26 170.781 226.823 189.048 224.396 214.144C221.968 239.24 241.47 261.661 267.953 264.222Z" fill="#534B6A" stroke="black" stroke-miterlimit="10"/>
<path d="M339.953 332.222C366.437 334.784 389.873 316.516 392.301 291.42C394.728 266.324 375.227 243.904 348.744 241.342C322.26 238.78 298.823 257.048 296.396 282.144C293.968 307.239 313.47 329.66 339.953 332.222Z" fill="#534B6A" stroke="black" stroke-miterlimit="10"/>
<path d="M390.953 399.222C417.437 401.784 440.873 383.516 443.301 358.42C445.728 333.324 426.227 310.904 399.744 308.342C373.26 305.78 349.823 324.048 347.396 349.144C344.968 374.239 364.47 396.66 390.953 399.222Z" fill="#534B6A" stroke="black" stroke-miterlimit="10"/>
<path d="M307.953 435.222C334.437 437.784 357.873 419.516 360.301 394.42C362.728 369.324 343.227 346.904 316.744 344.342C290.26 341.78 266.823 360.048 264.396 385.144C261.968 410.239 281.47 432.66 307.953 435.222Z" fill="#534B6A" stroke="black" stroke-miterlimit="10"/>
<path d="M452.25 370.684C487.183 374.063 518.096 349.97 521.298 316.871C524.499 283.772 498.776 254.201 463.844 250.822C428.912 247.443 397.998 271.536 394.797 304.635C391.595 337.734 417.318 367.305 452.25 370.684Z" fill="#534B6A" stroke="black" stroke-miterlimit="10"/>
<path d="M281.514 382.246C313.831 385.372 342.43 363.084 345.391 332.465C348.353 301.846 324.556 274.49 292.239 271.364C259.923 268.238 231.324 290.526 228.362 321.145C225.4 351.764 249.197 379.12 281.514 382.246Z" fill="#534B6A" stroke="black" stroke-miterlimit="10"/>
<path d="M195.068 432.381C225.481 435.322 252.395 414.347 255.182 385.532C257.97 356.717 235.575 330.972 205.161 328.031C174.748 325.089 147.834 346.064 145.047 374.879C142.26 403.694 164.655 429.439 195.068 432.381Z" fill="#534B6A" stroke="black" stroke-miterlimit="10"/>
<path d="M396.068 291.381C426.481 294.322 453.395 273.347 456.182 244.532C458.97 215.717 436.575 189.972 406.161 187.031C375.748 184.089 348.834 205.064 346.047 233.879C343.26 262.694 365.655 288.439 396.068 291.381Z" fill="#534B6A" stroke="black" stroke-miterlimit="10"/>
</svg>
