<svg width="617" height="553" viewBox="0 0 617 553" fill="none" xmlns="http://www.w3.org/2000/svg">
<path d="M409.362 136.86L392.483 147.529L380.233 127.892C380.233 127.892 404.467 64.1091 456.073 41.0987L465.297 42.2751L486.481 49.309C486.481 49.309 538.873 17.2784 560.868 68.4518C560.868 68.4518 590.798 138.056 553.391 197.135C553.391 197.135 459.884 138.614 479.681 58.4388L457.095 53.5501C457.095 53.5501 401.438 72.6458 409.362 136.86Z" fill="#619154" stroke="black" stroke-miterlimit="10"/>
<mask id="mask0" mask-type="alpha" maskUnits="userSpaceOnUse" x="3" y="466" width="87" height="84">
<ellipse cx="46.9073" cy="507.855" rx="42.9151" ry="41.7244" fill="#C4C4C4"/>
</mask>
<g mask="url(#mask0)">
<rect x="-136.459" y="368.268" width="363.349" height="279.174" fill="#BCB4D2" fill-opacity="0.59"/>
<rect x="-3.25391" y="458.794" width="22.4103" height="26.2715" fill="#534B6A" fill-opacity="0.53"/>
<rect x="-14.8379" y="485.065" width="22.4103" height="26.2715" fill="#534B6A" fill-opacity="0.53"/>
<rect x="15.377" y="485.065" width="22.4103" height="26.2715" fill="#534B6A" fill-opacity="0.53"/>
<rect x="31.9961" y="458.794" width="22.4103" height="26.2715" fill="#534B6A" fill-opacity="0.53"/>
<rect x="60.959" y="458.794" width="22.4103" height="26.2715" fill="#534B6A" fill-opacity="0.53"/>
<rect x="80.5938" y="485.065" width="22.4103" height="26.2715" fill="#534B6A" fill-opacity="0.53"/>
<rect x="47.1035" y="485.065" width="22.4103" height="26.2715" fill="#534B6A" fill-opacity="0.53"/>
<rect x="41.9746" y="537.434" width="22.4103" height="26.2715" fill="#534B6A" fill-opacity="0.53"/>
<rect x="72.9434" y="537.434" width="22.4103" height="26.2715" fill="#534B6A" fill-opacity="0.53"/>
<rect x="61.6172" y="511.163" width="22.4103" height="26.2715" fill="#534B6A" fill-opacity="0.53"/>
<rect x="28.125" y="511.163" width="22.4103" height="26.2715" fill="#534B6A" fill-opacity="0.53"/>
<rect x="-15.1855" y="537.434" width="22.4103" height="26.2715" fill="#534B6A" fill-opacity="0.53"/>
<rect x="1.17969" y="511.163" width="22.4103" height="26.2715" fill="#534B6A" fill-opacity="0.53"/>
<rect x="14.0234" y="537.434" width="22.4103" height="26.2715" fill="#534B6A" fill-opacity="0.53"/>
</g>
<path d="M43.2251 548.792C67.0973 551.116 88.2237 534.538 90.4121 511.764C92.6006 488.99 75.0225 468.644 51.1502 466.32C27.278 463.995 6.15168 480.573 3.96323 503.347C1.77477 526.121 19.3529 546.467 43.2251 548.792Z" fill="#534B6A" fill-opacity="0.1" stroke="black" stroke-miterlimit="10"/>
<mask id="mask1" mask-type="alpha" maskUnits="userSpaceOnUse" x="92" y="256" width="91" height="85">
<ellipse cx="137.73" cy="298.365" rx="44.9112" ry="42.1925" fill="#C4C4C4"/>
</mask>
<g mask="url(#mask1)">
<rect x="-54.1621" y="157.211" width="380.249" height="282.306" fill="#BCB4D2" fill-opacity="0.59"/>
<rect x="85.2344" y="248.752" width="23.4527" height="26.5662" fill="#534B6A" fill-opacity="0.53"/>
<rect x="73.1152" y="275.318" width="23.4527" height="26.5662" fill="#534B6A" fill-opacity="0.53"/>
<rect x="104.732" y="275.318" width="23.4527" height="26.5662" fill="#534B6A" fill-opacity="0.53"/>
<rect x="122.127" y="248.752" width="23.4527" height="26.5662" fill="#534B6A" fill-opacity="0.53"/>
<rect x="152.436" y="248.752" width="23.4527" height="26.5662" fill="#534B6A" fill-opacity="0.53"/>
<rect x="172.986" y="275.318" width="23.4527" height="26.5662" fill="#534B6A" fill-opacity="0.53"/>
<rect x="137.939" y="275.318" width="23.4527" height="26.5662" fill="#534B6A" fill-opacity="0.53"/>
<rect x="132.568" y="328.275" width="23.4527" height="26.5662" fill="#534B6A" fill-opacity="0.53"/>
<rect x="164.979" y="328.275" width="23.4527" height="26.5662" fill="#534B6A" fill-opacity="0.53"/>
<rect x="153.121" y="301.709" width="23.4527" height="26.5662" fill="#534B6A" fill-opacity="0.53"/>
<rect x="118.076" y="301.709" width="23.4527" height="26.5662" fill="#534B6A" fill-opacity="0.53"/>
<rect x="72.752" y="328.275" width="23.4527" height="26.5662" fill="#534B6A" fill-opacity="0.53"/>
<rect x="89.8789" y="301.709" width="23.4527" height="26.5662" fill="#534B6A" fill-opacity="0.53"/>
<rect x="103.316" y="328.275" width="23.4527" height="26.5662" fill="#534B6A" fill-opacity="0.53"/>
</g>
<path d="M133.338 341.397C157.92 343.79 179.674 326.723 181.928 303.276C184.181 279.829 166.08 258.881 141.498 256.488C116.916 254.094 95.1618 271.162 92.9086 294.609C90.6555 318.056 108.757 339.003 133.338 341.397Z" fill="#534B6A" fill-opacity="0.1" stroke="black" stroke-miterlimit="10"/>
<mask id="mask2" mask-type="alpha" maskUnits="userSpaceOnUse" x="36" y="400" width="81" height="78">
<ellipse cx="76.8488" cy="439.364" rx="39.9211" ry="38.5319" fill="#C4C4C4"/>
</mask>
<g mask="url(#mask2)">
<rect x="-93.7266" y="310.458" width="337.999" height="257.814" fill="#BCB4D2" fill-opacity="0.59"/>
<rect x="30.1836" y="394.057" width="20.8468" height="24.2614" fill="#534B6A" fill-opacity="0.53"/>
<rect x="19.4102" y="418.319" width="20.8468" height="24.2614" fill="#534B6A" fill-opacity="0.53"/>
<rect x="47.5156" y="418.319" width="20.8468" height="24.2614" fill="#534B6A" fill-opacity="0.53"/>
<rect x="62.9766" y="394.057" width="20.8468" height="24.2614" fill="#534B6A" fill-opacity="0.53"/>
<rect x="89.9199" y="394.057" width="20.8468" height="24.2614" fill="#534B6A" fill-opacity="0.53"/>
<rect x="108.188" y="418.319" width="20.8468" height="24.2614" fill="#534B6A" fill-opacity="0.53"/>
<rect x="77.0312" y="418.319" width="20.8468" height="24.2614" fill="#534B6A" fill-opacity="0.53"/>
<rect x="72.2578" y="466.681" width="20.8468" height="24.2614" fill="#534B6A" fill-opacity="0.53"/>
<rect x="101.068" y="466.681" width="20.8468" height="24.2614" fill="#534B6A" fill-opacity="0.53"/>
<rect x="90.5254" y="442.419" width="20.8468" height="24.2614" fill="#534B6A" fill-opacity="0.53"/>
<rect x="59.3789" y="442.419" width="20.8468" height="24.2614" fill="#534B6A" fill-opacity="0.53"/>
<rect x="19.0879" y="466.681" width="20.8468" height="24.2614" fill="#534B6A" fill-opacity="0.53"/>
<rect x="34.3145" y="442.419" width="20.8468" height="24.2614" fill="#534B6A" fill-opacity="0.53"/>
<rect x="46.2578" y="466.681" width="20.8468" height="24.2614" fill="#534B6A" fill-opacity="0.53"/>
</g>
<path d="M73.4483 477.036C95.2719 479.16 114.585 464.011 116.585 443.198C118.585 422.385 102.515 403.79 80.6909 401.666C58.8673 399.541 39.5545 414.69 37.5545 435.503C35.5544 456.316 51.6247 474.911 73.4483 477.036Z" fill="#534B6A" fill-opacity="0.1" stroke="black" stroke-miterlimit="10"/>
<mask id="mask3" mask-type="alpha" maskUnits="userSpaceOnUse" x="56" y="435" width="95" height="91">
<ellipse cx="103.794" cy="480.811" rx="46.9072" ry="44.814" fill="#C4C4C4"/>
</mask>
<g mask="url(#mask3)">
<rect x="-96.627" y="330.888" width="397.149" height="299.846" fill="#BCB4D2" fill-opacity="0.59"/>
<rect x="48.9668" y="428.117" width="24.495" height="28.2168" fill="#534B6A" fill-opacity="0.53"/>
<rect x="36.3086" y="456.333" width="24.495" height="28.2168" fill="#534B6A" fill-opacity="0.53"/>
<rect x="69.3301" y="456.333" width="24.495" height="28.2168" fill="#534B6A" fill-opacity="0.53"/>
<rect x="87.498" y="428.117" width="24.495" height="28.2168" fill="#534B6A" fill-opacity="0.53"/>
<rect x="119.152" y="428.117" width="24.495" height="28.2168" fill="#534B6A" fill-opacity="0.53"/>
<rect x="140.619" y="456.333" width="24.495" height="28.2168" fill="#534B6A" fill-opacity="0.53"/>
<rect x="104.01" y="456.333" width="24.495" height="28.2168" fill="#534B6A" fill-opacity="0.53"/>
<rect x="98.4043" y="512.58" width="24.495" height="28.2168" fill="#534B6A" fill-opacity="0.53"/>
<rect x="132.254" y="512.58" width="24.495" height="28.2168" fill="#534B6A" fill-opacity="0.53"/>
<rect x="119.871" y="484.363" width="24.495" height="28.2168" fill="#534B6A" fill-opacity="0.53"/>
<rect x="83.2676" y="484.363" width="24.495" height="28.2168" fill="#534B6A" fill-opacity="0.53"/>
<rect x="35.9277" y="512.58" width="24.495" height="28.2168" fill="#534B6A" fill-opacity="0.53"/>
<rect x="53.8145" y="484.363" width="24.495" height="28.2168" fill="#534B6A" fill-opacity="0.53"/>
<rect x="67.8516" y="512.58" width="24.495" height="28.2168" fill="#534B6A" fill-opacity="0.53"/>
</g>
<path d="M99.6639 524.746C125.493 527.261 148.352 509.327 150.719 484.69C153.087 460.053 134.067 438.042 108.237 435.528C82.4077 433.013 59.5495 450.946 57.182 475.583C54.8145 500.22 73.8343 522.231 99.6639 524.746Z" fill="#534B6A" fill-opacity="0.1" stroke="black" stroke-miterlimit="10"/>
<mask id="mask4" mask-type="alpha" maskUnits="userSpaceOnUse" x="41" y="306" width="112" height="107">
<ellipse cx="97.2941" cy="359.645" rx="55.3742" ry="53.2429" fill="#C4C4C4"/>
</mask>
<g mask="url(#mask4)">
<rect x="-139.305" y="181.523" width="468.836" height="356.243" fill="#BCB4D2" fill-opacity="0.59"/>
<rect x="32.5723" y="297.041" width="28.9164" height="33.524" fill="#534B6A" fill-opacity="0.53"/>
<rect x="17.623" y="330.565" width="28.9164" height="33.524" fill="#534B6A" fill-opacity="0.53"/>
<rect x="56.6133" y="330.565" width="28.9164" height="33.524" fill="#534B6A" fill-opacity="0.53"/>
<rect x="78.0547" y="297.041" width="28.9164" height="33.524" fill="#534B6A" fill-opacity="0.53"/>
<rect x="115.424" y="297.041" width="28.9164" height="33.524" fill="#534B6A" fill-opacity="0.53"/>
<rect x="140.762" y="330.565" width="28.9164" height="33.524" fill="#534B6A" fill-opacity="0.53"/>
<rect x="97.5508" y="330.565" width="28.9164" height="33.524" fill="#534B6A" fill-opacity="0.53"/>
<rect x="90.9277" y="397.391" width="28.9164" height="33.524" fill="#534B6A" fill-opacity="0.53"/>
<rect x="130.893" y="397.391" width="28.9164" height="33.524" fill="#534B6A" fill-opacity="0.53"/>
<rect x="116.27" y="363.866" width="28.9164" height="33.524" fill="#534B6A" fill-opacity="0.53"/>
<rect x="73.0586" y="363.866" width="28.9164" height="33.524" fill="#534B6A" fill-opacity="0.53"/>
<rect x="17.1738" y="397.391" width="28.9164" height="33.524" fill="#534B6A" fill-opacity="0.53"/>
<rect x="38.293" y="363.866" width="28.9164" height="33.524" fill="#534B6A" fill-opacity="0.53"/>
<rect x="54.8672" y="397.391" width="28.9164" height="33.524" fill="#534B6A" fill-opacity="0.53"/>
</g>
<path d="M92.5596 412.906C123.284 415.898 150.474 394.569 153.289 365.267C156.105 335.966 133.481 309.787 102.756 306.796C72.032 303.804 44.8424 325.133 42.0267 354.435C39.2109 383.736 61.8353 409.915 92.5596 412.906Z" fill="#534B6A" fill-opacity="0.1" stroke="black" stroke-miterlimit="10"/>
<mask id="mask5" mask-type="alpha" maskUnits="userSpaceOnUse" x="141" y="99" width="102" height="98">
<ellipse cx="192.125" cy="148.183" rx="50.4003" ry="48.7223" fill="#C4C4C4"/>
</mask>
<g mask="url(#mask5)">
<rect x="-23.2246" y="-14.8135" width="426.724" height="325.996" fill="#BCB4D2" fill-opacity="0.59"/>
<rect x="133.211" y="90.894" width="26.3191" height="30.6777" fill="#534B6A" fill-opacity="0.53"/>
<rect x="119.609" y="121.572" width="26.3191" height="30.6777" fill="#534B6A" fill-opacity="0.53"/>
<rect x="155.092" y="121.572" width="26.3191" height="30.6777" fill="#534B6A" fill-opacity="0.53"/>
<rect x="174.613" y="90.894" width="26.3191" height="30.6777" fill="#534B6A" fill-opacity="0.53"/>
<rect x="208.623" y="90.894" width="26.3191" height="30.6777" fill="#534B6A" fill-opacity="0.53"/>
<rect x="231.688" y="121.572" width="26.3191" height="30.6777" fill="#534B6A" fill-opacity="0.53"/>
<rect x="192.352" y="121.572" width="26.3191" height="30.6777" fill="#534B6A" fill-opacity="0.53"/>
<rect x="186.326" y="182.724" width="26.3191" height="30.6777" fill="#534B6A" fill-opacity="0.53"/>
<rect x="222.705" y="182.724" width="26.3191" height="30.6777" fill="#534B6A" fill-opacity="0.53"/>
<rect x="209.396" y="152.046" width="26.3191" height="30.6777" fill="#534B6A" fill-opacity="0.53"/>
<rect x="170.066" y="152.046" width="26.3191" height="30.6777" fill="#534B6A" fill-opacity="0.53"/>
<rect x="119.199" y="182.724" width="26.3191" height="30.6777" fill="#534B6A" fill-opacity="0.53"/>
<rect x="138.422" y="152.046" width="26.3191" height="30.6777" fill="#534B6A" fill-opacity="0.53"/>
<rect x="153.506" y="182.724" width="26.3191" height="30.6777" fill="#534B6A" fill-opacity="0.53"/>
</g>
<path d="M187.938 196.095C215.667 198.795 240.205 179.546 242.746 153.101C245.288 126.657 224.869 103.031 197.141 100.331C169.412 97.6314 144.874 116.88 142.332 143.325C139.791 169.77 160.21 193.396 187.938 196.095Z" fill="#534B6A" fill-opacity="0.1" stroke="black" stroke-miterlimit="10"/>
<mask id="mask6" mask-type="alpha" maskUnits="userSpaceOnUse" x="102" y="173" width="105" height="103">
<ellipse cx="154.692" cy="224.535" rx="51.8974" ry="50.7383" fill="#C4C4C4"/>
</mask>
<g mask="url(#mask6)">
<rect x="-67.0527" y="54.7915" width="439.399" height="339.485" fill="#BCB4D2" fill-opacity="0.59"/>
<rect x="94.0312" y="164.875" width="27.1009" height="31.9471" fill="#534B6A" fill-opacity="0.53"/>
<rect x="80.0234" y="196.822" width="27.1009" height="31.9471" fill="#534B6A" fill-opacity="0.53"/>
<rect x="116.562" y="196.822" width="27.1009" height="31.9471" fill="#534B6A" fill-opacity="0.53"/>
<rect x="136.662" y="164.875" width="27.1009" height="31.9471" fill="#534B6A" fill-opacity="0.53"/>
<rect x="171.684" y="164.875" width="27.1009" height="31.9471" fill="#534B6A" fill-opacity="0.53"/>
<rect x="195.43" y="196.822" width="27.1009" height="31.9471" fill="#534B6A" fill-opacity="0.53"/>
<rect x="154.932" y="196.822" width="27.1009" height="31.9471" fill="#534B6A" fill-opacity="0.53"/>
<rect x="148.729" y="260.505" width="27.1009" height="31.9471" fill="#534B6A" fill-opacity="0.53"/>
<rect x="186.178" y="260.505" width="27.1009" height="31.9471" fill="#534B6A" fill-opacity="0.53"/>
<rect x="172.477" y="228.557" width="27.1009" height="31.9471" fill="#534B6A" fill-opacity="0.53"/>
<rect x="131.98" y="228.557" width="27.1009" height="31.9471" fill="#534B6A" fill-opacity="0.53"/>
<rect x="79.6035" y="260.505" width="27.1009" height="31.9471" fill="#534B6A" fill-opacity="0.53"/>
<rect x="99.3984" y="228.557" width="27.1009" height="31.9471" fill="#534B6A" fill-opacity="0.53"/>
<rect x="114.928" y="260.505" width="27.1009" height="31.9471" fill="#534B6A" fill-opacity="0.53"/>
</g>
<path d="M150.199 275.589C178.583 278.352 203.761 258.026 206.436 230.189C209.111 202.352 188.27 177.546 159.886 174.782C131.502 172.019 106.324 192.345 103.649 220.182C100.974 248.019 121.815 272.825 150.199 275.589Z" fill="#534B6A" fill-opacity="0.1" stroke="black" stroke-miterlimit="10"/>
<mask id="mask7" mask-type="alpha" maskUnits="userSpaceOnUse" x="176" y="341" width="100" height="98">
<ellipse cx="226.055" cy="390.214" rx="49.4023" ry="48.6466" fill="#C4C4C4"/>
</mask>
<g mask="url(#mask7)">
<rect x="14.9707" y="227.468" width="418.274" height="325.49" fill="#BCB4D2" fill-opacity="0.59"/>
<rect x="168.307" y="333.013" width="25.7979" height="30.63" fill="#534B6A" fill-opacity="0.53"/>
<rect x="154.975" y="363.643" width="25.7979" height="30.63" fill="#534B6A" fill-opacity="0.53"/>
<rect x="189.754" y="363.643" width="25.7979" height="30.63" fill="#534B6A" fill-opacity="0.53"/>
<rect x="208.889" y="333.013" width="25.7979" height="30.63" fill="#534B6A" fill-opacity="0.53"/>
<rect x="242.227" y="333.013" width="25.7979" height="30.63" fill="#534B6A" fill-opacity="0.53"/>
<rect x="264.834" y="363.643" width="25.7979" height="30.63" fill="#534B6A" fill-opacity="0.53"/>
<rect x="226.283" y="363.643" width="25.7979" height="30.63" fill="#534B6A" fill-opacity="0.53"/>
<rect x="220.371" y="424.7" width="25.7979" height="30.63" fill="#534B6A" fill-opacity="0.53"/>
<rect x="256.023" y="424.7" width="25.7979" height="30.63" fill="#534B6A" fill-opacity="0.53"/>
<rect x="242.982" y="394.07" width="25.7979" height="30.63" fill="#534B6A" fill-opacity="0.53"/>
<rect x="204.434" y="394.07" width="25.7979" height="30.63" fill="#534B6A" fill-opacity="0.53"/>
<rect x="154.574" y="424.7" width="25.7979" height="30.63" fill="#534B6A" fill-opacity="0.53"/>
<rect x="173.418" y="394.07" width="25.7979" height="30.63" fill="#534B6A" fill-opacity="0.53"/>
<rect x="188.195" y="424.7" width="25.7979" height="30.63" fill="#534B6A" fill-opacity="0.53"/>
</g>
<path d="M223.731 439.106C250.834 440.617 274.012 419.946 275.499 392.934C276.985 365.923 256.219 342.801 229.115 341.289C202.011 339.778 178.834 360.449 177.347 387.46C175.86 414.472 196.627 437.594 223.731 439.106Z" fill="#534B6A" fill-opacity="0.1" stroke="black" stroke-miterlimit="10"/>
<mask id="mask8" mask-type="alpha" maskUnits="userSpaceOnUse" x="110" y="372" width="94" height="90">
<ellipse cx="157.189" cy="417.02" rx="46.4082" ry="44.3117" fill="#C4C4C4"/>
</mask>
<g mask="url(#mask8)">
<rect x="-41.1016" y="268.777" width="392.924" height="296.486" fill="#BCB4D2" fill-opacity="0.59"/>
<rect x="102.943" y="364.916" width="24.2344" height="27.9006" fill="#534B6A" fill-opacity="0.53"/>
<rect x="90.4199" y="392.817" width="24.2344" height="27.9006" fill="#534B6A" fill-opacity="0.53"/>
<rect x="123.094" y="392.817" width="24.2344" height="27.9006" fill="#534B6A" fill-opacity="0.53"/>
<rect x="141.064" y="364.916" width="24.2344" height="27.9006" fill="#534B6A" fill-opacity="0.53"/>
<rect x="172.385" y="364.916" width="24.2344" height="27.9006" fill="#534B6A" fill-opacity="0.53"/>
<rect x="193.619" y="392.817" width="24.2344" height="27.9006" fill="#534B6A" fill-opacity="0.53"/>
<rect x="157.402" y="392.817" width="24.2344" height="27.9006" fill="#534B6A" fill-opacity="0.53"/>
<rect x="151.854" y="448.434" width="24.2344" height="27.9006" fill="#534B6A" fill-opacity="0.53"/>
<rect x="185.346" y="448.434" width="24.2344" height="27.9006" fill="#534B6A" fill-opacity="0.53"/>
<rect x="173.092" y="420.533" width="24.2344" height="27.9006" fill="#534B6A" fill-opacity="0.53"/>
<rect x="136.879" y="420.533" width="24.2344" height="27.9006" fill="#534B6A" fill-opacity="0.53"/>
<rect x="90.0469" y="448.434" width="24.2344" height="27.9006" fill="#534B6A" fill-opacity="0.53"/>
<rect x="107.742" y="420.533" width="24.2344" height="27.9006" fill="#534B6A" fill-opacity="0.53"/>
<rect x="121.629" y="448.434" width="24.2344" height="27.9006" fill="#534B6A" fill-opacity="0.53"/>
</g>
<path d="M152.968 461.282C178.473 463.765 201.044 446.057 203.381 421.73C205.719 397.403 186.939 375.669 161.434 373.186C135.929 370.703 113.359 388.411 111.021 412.738C108.683 437.065 127.464 458.799 152.968 461.282Z" fill="#534B6A" fill-opacity="0.1" stroke="black" stroke-miterlimit="10"/>
<mask id="mask9" mask-type="alpha" maskUnits="userSpaceOnUse" x="295" y="195" width="98" height="94">
<ellipse cx="343.824" cy="242.108" rx="48.4043" ry="46.2108" fill="#C4C4C4"/>
</mask>
<g mask="url(#mask9)">
<rect x="137.002" y="87.5127" width="409.824" height="309.192" fill="#BCB4D2" fill-opacity="0.59"/>
<rect x="287.24" y="187.772" width="25.2768" height="29.0963" fill="#534B6A" fill-opacity="0.53"/>
<rect x="274.178" y="216.869" width="25.2768" height="29.0963" fill="#534B6A" fill-opacity="0.53"/>
<rect x="308.258" y="216.869" width="25.2768" height="29.0963" fill="#534B6A" fill-opacity="0.53"/>
<rect x="327.002" y="187.772" width="25.2768" height="29.0963" fill="#534B6A" fill-opacity="0.53"/>
<rect x="359.668" y="187.772" width="25.2768" height="29.0963" fill="#534B6A" fill-opacity="0.53"/>
<rect x="381.82" y="216.869" width="25.2768" height="29.0963" fill="#534B6A" fill-opacity="0.53"/>
<rect x="344.043" y="216.869" width="25.2768" height="29.0963" fill="#534B6A" fill-opacity="0.53"/>
<rect x="338.256" y="274.868" width="25.2768" height="29.0963" fill="#534B6A" fill-opacity="0.53"/>
<rect x="373.191" y="274.868" width="25.2768" height="29.0963" fill="#534B6A" fill-opacity="0.53"/>
<rect x="360.408" y="245.772" width="25.2768" height="29.0963" fill="#534B6A" fill-opacity="0.53"/>
<rect x="322.639" y="245.772" width="25.2768" height="29.0963" fill="#534B6A" fill-opacity="0.53"/>
<rect x="273.785" y="274.868" width="25.2768" height="29.0963" fill="#534B6A" fill-opacity="0.53"/>
<rect x="292.248" y="245.772" width="25.2768" height="29.0963" fill="#534B6A" fill-opacity="0.53"/>
<rect x="306.732" y="274.868" width="25.2768" height="29.0963" fill="#534B6A" fill-opacity="0.53"/>
</g>
<path d="M339.288 287.835C365.719 290.409 389.11 272.058 391.532 246.847C393.955 221.636 374.492 199.112 348.061 196.539C321.63 193.966 298.239 212.317 295.817 237.528C293.394 262.738 312.857 285.262 339.288 287.835Z" fill="#534B6A" fill-opacity="0.1" stroke="black" stroke-miterlimit="10"/>
<mask id="mask10" mask-type="alpha" maskUnits="userSpaceOnUse" x="346" y="264" width="97" height="93">
<ellipse cx="394.228" cy="310.42" rx="47.9053" ry="46.2108" fill="#C4C4C4"/>
</mask>
<g mask="url(#mask10)">
<rect x="189.537" y="155.824" width="405.599" height="309.192" fill="#BCB4D2" fill-opacity="0.59"/>
<rect x="338.229" y="256.083" width="25.0162" height="29.0963" fill="#534B6A" fill-opacity="0.53"/>
<rect x="325.297" y="285.18" width="25.0162" height="29.0963" fill="#534B6A" fill-opacity="0.53"/>
<rect x="359.023" y="285.18" width="25.0162" height="29.0963" fill="#534B6A" fill-opacity="0.53"/>
<rect x="377.58" y="256.083" width="25.0162" height="29.0963" fill="#534B6A" fill-opacity="0.53"/>
<rect x="409.908" y="256.083" width="25.0162" height="29.0963" fill="#534B6A" fill-opacity="0.53"/>
<rect x="431.83" y="285.18" width="25.0162" height="29.0963" fill="#534B6A" fill-opacity="0.53"/>
<rect x="394.443" y="285.18" width="25.0162" height="29.0963" fill="#534B6A" fill-opacity="0.53"/>
<rect x="388.715" y="343.18" width="25.0162" height="29.0963" fill="#534B6A" fill-opacity="0.53"/>
<rect x="423.291" y="343.18" width="25.0162" height="29.0963" fill="#534B6A" fill-opacity="0.53"/>
<rect x="410.641" y="314.083" width="25.0162" height="29.0963" fill="#534B6A" fill-opacity="0.53"/>
<rect x="373.258" y="314.083" width="25.0162" height="29.0963" fill="#534B6A" fill-opacity="0.53"/>
<rect x="324.91" y="343.18" width="25.0162" height="29.0963" fill="#534B6A" fill-opacity="0.53"/>
<rect x="343.184" y="314.083" width="25.0162" height="29.0963" fill="#534B6A" fill-opacity="0.53"/>
<rect x="357.518" y="343.18" width="25.0162" height="29.0963" fill="#534B6A" fill-opacity="0.53"/>
</g>
<path d="M390.188 356.146C416.619 358.72 440.01 340.369 442.433 315.158C444.855 289.947 425.393 267.423 398.961 264.85C372.53 262.277 349.14 280.628 346.717 305.839C344.294 331.05 363.757 353.573 390.188 356.146Z" fill="#534B6A" fill-opacity="0.1" stroke="black" stroke-miterlimit="10"/>
<mask id="mask11" mask-type="alpha" maskUnits="userSpaceOnUse" x="163" y="200" width="116" height="111">
<ellipse cx="221.085" cy="255.67" rx="57.4068" ry="54.7498" fill="#C4C4C4"/>
</mask>
<g mask="url(#mask11)">
<rect x="-24.2012" y="72.5078" width="486.046" height="366.326" fill="#BCB4D2" fill-opacity="0.59"/>
<rect x="153.982" y="191.293" width="29.9779" height="34.4728" fill="#534B6A" fill-opacity="0.53"/>
<rect x="138.488" y="225.767" width="29.9779" height="34.4728" fill="#534B6A" fill-opacity="0.53"/>
<rect x="178.904" y="225.767" width="29.9779" height="34.4728" fill="#534B6A" fill-opacity="0.53"/>
<rect x="201.139" y="191.293" width="29.9779" height="34.4728" fill="#534B6A" fill-opacity="0.53"/>
<rect x="239.877" y="191.293" width="29.9779" height="34.4728" fill="#534B6A" fill-opacity="0.53"/>
<rect x="266.146" y="225.767" width="29.9779" height="34.4728" fill="#534B6A" fill-opacity="0.53"/>
<rect x="221.352" y="225.767" width="29.9779" height="34.4728" fill="#534B6A" fill-opacity="0.53"/>
<rect x="214.482" y="294.484" width="29.9779" height="34.4728" fill="#534B6A" fill-opacity="0.53"/>
<rect x="255.91" y="294.484" width="29.9779" height="34.4728" fill="#534B6A" fill-opacity="0.53"/>
<rect x="240.758" y="260.011" width="29.9779" height="34.4728" fill="#534B6A" fill-opacity="0.53"/>
<rect x="195.957" y="260.011" width="29.9779" height="34.4728" fill="#534B6A" fill-opacity="0.53"/>
<rect x="138.023" y="294.484" width="29.9779" height="34.4728" fill="#534B6A" fill-opacity="0.53"/>
<rect x="159.92" y="260.011" width="29.9779" height="34.4728" fill="#534B6A" fill-opacity="0.53"/>
<rect x="177.094" y="294.484" width="29.9779" height="34.4728" fill="#534B6A" fill-opacity="0.53"/>
</g>
<path d="M216.045 310.883C247.722 313.967 275.755 291.977 278.658 261.767C281.561 231.556 258.235 204.566 226.558 201.482C194.881 198.398 166.848 220.388 163.945 250.598C161.042 280.808 184.368 307.799 216.045 310.883Z" fill="#534B6A" fill-opacity="0.1" stroke="black" stroke-miterlimit="10"/>
<mask id="mask12" mask-type="alpha" maskUnits="userSpaceOnUse" x="262" y="300" width="98" height="92">
<ellipse cx="310.887" cy="346.078" rx="48.4043" ry="45.6948" fill="#C4C4C4"/>
</mask>
<g mask="url(#mask12)">
<rect x="104.064" y="193.208" width="409.824" height="305.74" fill="#BCB4D2" fill-opacity="0.59"/>
<rect x="254.307" y="292.347" width="25.2768" height="28.7714" fill="#534B6A" fill-opacity="0.53"/>
<rect x="241.24" y="321.12" width="25.2768" height="28.7714" fill="#534B6A" fill-opacity="0.53"/>
<rect x="275.318" y="321.12" width="25.2768" height="28.7714" fill="#534B6A" fill-opacity="0.53"/>
<rect x="294.068" y="292.347" width="25.2768" height="28.7714" fill="#534B6A" fill-opacity="0.53"/>
<rect x="326.734" y="292.347" width="25.2768" height="28.7714" fill="#534B6A" fill-opacity="0.53"/>
<rect x="348.883" y="321.12" width="25.2768" height="28.7714" fill="#534B6A" fill-opacity="0.53"/>
<rect x="311.107" y="321.12" width="25.2768" height="28.7714" fill="#534B6A" fill-opacity="0.53"/>
<rect x="305.316" y="378.471" width="25.2768" height="28.7714" fill="#534B6A" fill-opacity="0.53"/>
<rect x="340.252" y="378.471" width="25.2768" height="28.7714" fill="#534B6A" fill-opacity="0.53"/>
<rect x="327.473" y="349.7" width="25.2768" height="28.7714" fill="#534B6A" fill-opacity="0.53"/>
<rect x="289.699" y="349.7" width="25.2768" height="28.7714" fill="#534B6A" fill-opacity="0.53"/>
<rect x="240.848" y="378.471" width="25.2768" height="28.7714" fill="#534B6A" fill-opacity="0.53"/>
<rect x="259.311" y="349.7" width="25.2768" height="28.7714" fill="#534B6A" fill-opacity="0.53"/>
<rect x="273.795" y="378.471" width="25.2768" height="28.7714" fill="#534B6A" fill-opacity="0.53"/>
</g>
<path d="M306.35 391.316C332.782 393.889 356.172 375.538 358.595 350.327C361.017 325.116 341.555 302.593 315.123 300.019C288.692 297.446 265.302 315.797 262.879 341.008C260.456 366.219 279.919 388.743 306.35 391.316Z" fill="#534B6A" fill-opacity="0.1" stroke="black" stroke-miterlimit="10"/>
<mask id="mask13" mask-type="alpha" maskUnits="userSpaceOnUse" x="226" y="226" width="119" height="113">
<ellipse cx="285.434" cy="282.287" rx="58.8836" ry="56.2566" fill="#C4C4C4"/>
</mask>
<g mask="url(#mask13)">
<rect x="33.8359" y="94.083" width="498.549" height="376.408" fill="#BCB4D2" fill-opacity="0.59"/>
<rect x="216.605" y="216.139" width="30.749" height="35.4216" fill="#534B6A" fill-opacity="0.53"/>
<rect x="200.715" y="251.56" width="30.749" height="35.4216" fill="#534B6A" fill-opacity="0.53"/>
<rect x="242.166" y="251.56" width="30.749" height="35.4216" fill="#534B6A" fill-opacity="0.53"/>
<rect x="264.975" y="216.139" width="30.749" height="35.4216" fill="#534B6A" fill-opacity="0.53"/>
<rect x="304.707" y="216.139" width="30.749" height="35.4216" fill="#534B6A" fill-opacity="0.53"/>
<rect x="331.658" y="251.56" width="30.749" height="35.4216" fill="#534B6A" fill-opacity="0.53"/>
<rect x="285.707" y="251.56" width="30.749" height="35.4216" fill="#534B6A" fill-opacity="0.53"/>
<rect x="278.66" y="322.169" width="30.749" height="35.4216" fill="#534B6A" fill-opacity="0.53"/>
<rect x="321.16" y="322.169" width="30.749" height="35.4216" fill="#534B6A" fill-opacity="0.53"/>
<rect x="305.607" y="286.747" width="30.749" height="35.4216" fill="#534B6A" fill-opacity="0.53"/>
<rect x="259.662" y="286.747" width="30.749" height="35.4216" fill="#534B6A" fill-opacity="0.53"/>
<rect x="200.236" y="322.169" width="30.749" height="35.4216" fill="#534B6A" fill-opacity="0.53"/>
<rect x="222.695" y="286.747" width="30.749" height="35.4216" fill="#534B6A" fill-opacity="0.53"/>
<rect x="240.312" y="322.169" width="30.749" height="35.4216" fill="#534B6A" fill-opacity="0.53"/>
</g>
<path d="M279.959 338.084C312.212 341.224 340.754 318.834 343.71 288.074C346.666 257.315 322.916 229.834 290.663 226.694C258.41 223.553 229.868 245.943 226.912 276.703C223.956 307.462 247.706 334.943 279.959 338.084Z" fill="#534B6A" fill-opacity="0.1" stroke="black" stroke-miterlimit="10"/>
<mask id="mask14" mask-type="alpha" maskUnits="userSpaceOnUse" x="203" y="26" width="104" height="99">
<ellipse cx="254.996" cy="75.3388" rx="51.3984" ry="49.2246" fill="#C4C4C4"/>
</mask>
<g mask="url(#mask14)">
<rect x="35.3848" y="-89.3394" width="435.174" height="329.357" fill="#BCB4D2" fill-opacity="0.59"/>
<rect x="194.918" y="17.458" width="26.8403" height="30.9939" fill="#534B6A" fill-opacity="0.53"/>
<rect x="181.043" y="48.4526" width="26.8403" height="30.9939" fill="#534B6A" fill-opacity="0.53"/>
<rect x="217.232" y="48.4526" width="26.8403" height="30.9939" fill="#534B6A" fill-opacity="0.53"/>
<rect x="237.137" y="17.458" width="26.8403" height="30.9939" fill="#534B6A" fill-opacity="0.53"/>
<rect x="271.824" y="17.458" width="26.8403" height="30.9939" fill="#534B6A" fill-opacity="0.53"/>
<rect x="295.342" y="48.4526" width="26.8403" height="30.9939" fill="#534B6A" fill-opacity="0.53"/>
<rect x="255.232" y="48.4526" width="26.8403" height="30.9939" fill="#534B6A" fill-opacity="0.53"/>
<rect x="249.082" y="110.235" width="26.8403" height="30.9939" fill="#534B6A" fill-opacity="0.53"/>
<rect x="286.182" y="110.235" width="26.8403" height="30.9939" fill="#534B6A" fill-opacity="0.53"/>
<rect x="272.605" y="79.2412" width="26.8403" height="30.9939" fill="#534B6A" fill-opacity="0.53"/>
<rect x="232.502" y="79.2412" width="26.8403" height="30.9939" fill="#534B6A" fill-opacity="0.53"/>
<rect x="180.629" y="110.235" width="26.8403" height="30.9939" fill="#534B6A" fill-opacity="0.53"/>
<rect x="200.232" y="79.2412" width="26.8403" height="30.9939" fill="#534B6A" fill-opacity="0.53"/>
<rect x="215.611" y="110.235" width="26.8403" height="30.9939" fill="#534B6A" fill-opacity="0.53"/>
</g>
<path d="M250.429 123.986C278.496 126.718 303.334 107.233 305.907 80.4629C308.479 53.6932 287.812 29.7768 259.744 27.0441C231.677 24.3115 206.838 43.7973 204.266 70.567C201.694 97.3367 222.361 121.253 250.429 123.986Z" fill="#534B6A" fill-opacity="0.1" stroke="black" stroke-miterlimit="10"/>
<mask id="mask15" mask-type="alpha" maskUnits="userSpaceOnUse" x="142" y="278" width="113" height="107">
<ellipse cx="198.608" cy="331.246" rx="55.8895" ry="52.9712" fill="#C4C4C4"/>
</mask>
<g mask="url(#mask15)">
<rect x="-40.1934" y="154.033" width="473.199" height="354.425" fill="#BCB4D2" fill-opacity="0.59"/>
<rect x="133.281" y="268.96" width="29.1855" height="33.353" fill="#534B6A" fill-opacity="0.53"/>
<rect x="118.195" y="302.313" width="29.1855" height="33.353" fill="#534B6A" fill-opacity="0.53"/>
<rect x="157.547" y="302.313" width="29.1855" height="33.353" fill="#534B6A" fill-opacity="0.53"/>
<rect x="179.188" y="268.96" width="29.1855" height="33.353" fill="#534B6A" fill-opacity="0.53"/>
<rect x="216.904" y="268.96" width="29.1855" height="33.353" fill="#534B6A" fill-opacity="0.53"/>
<rect x="242.479" y="302.313" width="29.1855" height="33.353" fill="#534B6A" fill-opacity="0.53"/>
<rect x="198.865" y="302.313" width="29.1855" height="33.353" fill="#534B6A" fill-opacity="0.53"/>
<rect x="192.18" y="368.798" width="29.1855" height="33.353" fill="#534B6A" fill-opacity="0.53"/>
<rect x="232.518" y="368.798" width="29.1855" height="33.353" fill="#534B6A" fill-opacity="0.53"/>
<rect x="217.76" y="335.445" width="29.1855" height="33.353" fill="#534B6A" fill-opacity="0.53"/>
<rect x="174.146" y="335.445" width="29.1855" height="33.353" fill="#534B6A" fill-opacity="0.53"/>
<rect x="117.744" y="368.798" width="29.1855" height="33.353" fill="#534B6A" fill-opacity="0.53"/>
<rect x="139.057" y="335.445" width="29.1855" height="33.353" fill="#534B6A" fill-opacity="0.53"/>
<rect x="155.783" y="368.798" width="29.1855" height="33.353" fill="#534B6A" fill-opacity="0.53"/>
</g>
<path d="M193.686 383.43C224.039 386.385 250.9 365.314 253.682 336.367C256.464 307.419 234.113 281.557 203.76 278.602C173.407 275.647 146.546 296.718 143.764 325.665C140.982 354.613 163.333 380.475 193.686 383.43Z" fill="#534B6A" fill-opacity="0.1" stroke="black" stroke-miterlimit="10"/>
<mask id="mask16" mask-type="alpha" maskUnits="userSpaceOnUse" x="254" y="73" width="144" height="136">
<ellipse cx="325.855" cy="141.149" rx="71.3589" ry="67.8094" fill="#C4C4C4"/>
</mask>
<g mask="url(#mask16)">
<rect x="20.9551" y="-85.7041" width="604.174" height="453.706" fill="#BCB4D2" fill-opacity="0.59"/>
<rect x="242.443" y="61.416" width="37.2637" height="42.6957" fill="#534B6A" fill-opacity="0.53"/>
<rect x="223.186" y="104.111" width="37.2637" height="42.6957" fill="#534B6A" fill-opacity="0.53"/>
<rect x="273.424" y="104.111" width="37.2637" height="42.6957" fill="#534B6A" fill-opacity="0.53"/>
<rect x="301.064" y="61.416" width="37.2637" height="42.6957" fill="#534B6A" fill-opacity="0.53"/>
<rect x="349.217" y="61.416" width="37.2637" height="42.6957" fill="#534B6A" fill-opacity="0.53"/>
<rect x="381.875" y="104.111" width="37.2637" height="42.6957" fill="#534B6A" fill-opacity="0.53"/>
<rect x="326.186" y="104.111" width="37.2637" height="42.6957" fill="#534B6A" fill-opacity="0.53"/>
<rect x="317.648" y="189.221" width="37.2637" height="42.6957" fill="#534B6A" fill-opacity="0.53"/>
<rect x="369.15" y="189.221" width="37.2637" height="42.6957" fill="#534B6A" fill-opacity="0.53"/>
<rect x="350.305" y="146.525" width="37.2637" height="42.6957" fill="#534B6A" fill-opacity="0.53"/>
<rect x="294.623" y="146.525" width="37.2637" height="42.6957" fill="#534B6A" fill-opacity="0.53"/>
<rect x="222.611" y="189.221" width="37.2637" height="42.6957" fill="#534B6A" fill-opacity="0.53"/>
<rect x="249.824" y="146.525" width="37.2637" height="42.6957" fill="#534B6A" fill-opacity="0.53"/>
<rect x="271.172" y="189.221" width="37.2637" height="42.6957" fill="#534B6A" fill-opacity="0.53"/>
</g>
<path d="M319.386 208.407C358.531 212.219 393.173 185.043 396.761 147.708C400.348 110.374 371.523 77.0192 332.378 73.2079C293.233 69.3967 258.592 96.5726 255.004 133.907C251.416 171.241 280.241 204.596 319.386 208.407Z" fill="#534B6A" fill-opacity="0.1" stroke="black" stroke-miterlimit="10"/>
<mask id="mask17" mask-type="alpha" maskUnits="userSpaceOnUse" x="393" y="204" width="128" height="124">
<ellipse cx="456.77" cy="266.218" rx="63.588" ry="61.2796" fill="#C4C4C4"/>
</mask>
<g mask="url(#mask17)">
<rect x="185.074" y="61.2095" width="538.38" height="410.016" fill="#BCB4D2" fill-opacity="0.59"/>
<rect x="382.441" y="194.163" width="33.2057" height="38.5843" fill="#534B6A" fill-opacity="0.53"/>
<rect x="365.281" y="232.748" width="33.2057" height="38.5843" fill="#534B6A" fill-opacity="0.53"/>
<rect x="410.051" y="232.748" width="33.2057" height="38.5843" fill="#534B6A" fill-opacity="0.53"/>
<rect x="434.678" y="194.163" width="33.2057" height="38.5843" fill="#534B6A" fill-opacity="0.53"/>
<rect x="477.59" y="194.163" width="33.2057" height="38.5843" fill="#534B6A" fill-opacity="0.53"/>
<rect x="506.689" y="232.748" width="33.2057" height="38.5843" fill="#534B6A" fill-opacity="0.53"/>
<rect x="457.064" y="232.748" width="33.2057" height="38.5843" fill="#534B6A" fill-opacity="0.53"/>
<rect x="449.459" y="309.661" width="33.2057" height="38.5843" fill="#534B6A" fill-opacity="0.53"/>
<rect x="495.352" y="309.661" width="33.2057" height="38.5843" fill="#534B6A" fill-opacity="0.53"/>
<rect x="478.559" y="271.074" width="33.2057" height="38.5843" fill="#534B6A" fill-opacity="0.53"/>
<rect x="428.941" y="271.074" width="33.2057" height="38.5843" fill="#534B6A" fill-opacity="0.53"/>
<rect x="364.768" y="309.661" width="33.2057" height="38.5843" fill="#534B6A" fill-opacity="0.53"/>
<rect x="389.02" y="271.074" width="33.2057" height="38.5843" fill="#534B6A" fill-opacity="0.53"/>
<rect x="408.047" y="309.661" width="33.2057" height="38.5843" fill="#534B6A" fill-opacity="0.53"/>
</g>
<path d="M451.361 326.473C486.225 329.867 517.077 305.664 520.272 272.413C523.468 239.163 497.796 209.456 462.932 206.062C428.069 202.667 397.216 226.871 394.021 260.121C390.826 293.372 416.498 323.079 451.361 326.473Z" fill="#534B6A" fill-opacity="0.1" stroke="black" stroke-miterlimit="10"/>
<mask id="mask18" mask-type="alpha" maskUnits="userSpaceOnUse" x="223" y="129" width="98" height="93">
<ellipse cx="271.963" cy="175.304" rx="48.4043" ry="45.7085" fill="#C4C4C4"/>
</mask>
<g mask="url(#mask18)">
<rect x="65.1426" y="22.3887" width="409.824" height="305.832" fill="#BCB4D2" fill-opacity="0.59"/>
<rect x="215.385" y="121.558" width="25.2768" height="28.7801" fill="#534B6A" fill-opacity="0.53"/>
<rect x="202.32" y="150.338" width="25.2768" height="28.7801" fill="#534B6A" fill-opacity="0.53"/>
<rect x="236.396" y="150.338" width="25.2768" height="28.7801" fill="#534B6A" fill-opacity="0.53"/>
<rect x="255.148" y="121.558" width="25.2768" height="28.7801" fill="#534B6A" fill-opacity="0.53"/>
<rect x="287.811" y="121.558" width="25.2768" height="28.7801" fill="#534B6A" fill-opacity="0.53"/>
<rect x="309.961" y="150.338" width="25.2768" height="28.7801" fill="#534B6A" fill-opacity="0.53"/>
<rect x="272.186" y="150.338" width="25.2768" height="28.7801" fill="#534B6A" fill-opacity="0.53"/>
<rect x="266.395" y="207.708" width="25.2768" height="28.7801" fill="#534B6A" fill-opacity="0.53"/>
<rect x="301.33" y="207.708" width="25.2768" height="28.7801" fill="#534B6A" fill-opacity="0.53"/>
<rect x="288.549" y="178.928" width="25.2768" height="28.7801" fill="#534B6A" fill-opacity="0.53"/>
<rect x="250.777" y="178.928" width="25.2768" height="28.7801" fill="#534B6A" fill-opacity="0.53"/>
<rect x="201.928" y="207.708" width="25.2768" height="28.7801" fill="#534B6A" fill-opacity="0.53"/>
<rect x="220.387" y="178.928" width="25.2768" height="28.7801" fill="#534B6A" fill-opacity="0.53"/>
<rect x="234.869" y="207.708" width="25.2768" height="28.7801" fill="#534B6A" fill-opacity="0.53"/>
</g>
<path d="M267.429 220.528C293.86 223.102 317.25 204.75 319.673 179.54C322.096 154.329 302.633 131.805 276.202 129.232C249.77 126.658 226.38 145.01 223.957 170.221C221.535 195.431 240.997 217.955 267.429 220.528Z" fill="#534B6A" fill-opacity="0.1" stroke="black" stroke-miterlimit="10"/>
<mask id="mask19" mask-type="alpha" maskUnits="userSpaceOnUse" x="342" y="142" width="112" height="106">
<ellipse cx="397.939" cy="194.893" rx="55.6186" ry="52.2383" fill="#C4C4C4"/>
</mask>
<g mask="url(#mask19)">
<rect x="160.297" y="20.1328" width="470.906" height="349.522" fill="#BCB4D2" fill-opacity="0.59"/>
<rect x="332.928" y="133.47" width="29.0441" height="32.8915" fill="#534B6A" fill-opacity="0.53"/>
<rect x="317.92" y="166.361" width="29.0441" height="32.8915" fill="#534B6A" fill-opacity="0.53"/>
<rect x="357.072" y="166.361" width="29.0441" height="32.8915" fill="#534B6A" fill-opacity="0.53"/>
<rect x="378.613" y="133.47" width="29.0441" height="32.8915" fill="#534B6A" fill-opacity="0.53"/>
<rect x="416.148" y="133.47" width="29.0441" height="32.8915" fill="#534B6A" fill-opacity="0.53"/>
<rect x="441.6" y="166.361" width="29.0441" height="32.8915" fill="#534B6A" fill-opacity="0.53"/>
<rect x="398.197" y="166.361" width="29.0441" height="32.8915" fill="#534B6A" fill-opacity="0.53"/>
<rect x="391.543" y="231.926" width="29.0441" height="32.8915" fill="#534B6A" fill-opacity="0.53"/>
<rect x="431.684" y="231.926" width="29.0441" height="32.8915" fill="#534B6A" fill-opacity="0.53"/>
<rect x="417" y="199.035" width="29.0441" height="32.8915" fill="#534B6A" fill-opacity="0.53"/>
<rect x="373.598" y="199.035" width="29.0441" height="32.8915" fill="#534B6A" fill-opacity="0.53"/>
<rect x="317.469" y="231.926" width="29.0441" height="32.8915" fill="#534B6A" fill-opacity="0.53"/>
<rect x="338.68" y="199.035" width="29.0441" height="32.8915" fill="#534B6A" fill-opacity="0.53"/>
<rect x="355.322" y="231.926" width="29.0441" height="32.8915" fill="#534B6A" fill-opacity="0.53"/>
</g>
<path d="M395.296 247.811C425.649 250.766 452.51 229.695 455.291 200.748C458.073 171.8 435.722 145.938 405.369 142.983C375.016 140.028 348.155 161.098 345.373 190.046C342.592 218.993 364.943 244.856 395.296 247.811Z" fill="#534B6A" fill-opacity="0.1" stroke="black" stroke-miterlimit="10"/>
</svg>
