<svg width="439" height="468" viewBox="0 0 439 468" fill="none" xmlns="http://www.w3.org/2000/svg">
<mask id="mask0" mask-type="alpha" maskUnits="userSpaceOnUse" x="1" y="29" width="425" height="439">
<path d="M98.8795 354.004C98.8795 354.004 36.4372 331.89 33.0622 296.197C29.6872 260.504 51.1303 231.513 51.1303 231.513C51.1303 231.513 115.59 146.456 123.369 100.725C131.148 54.9929 184.5 57.3301 184.5 57.3301C184.5 57.3301 236.009 57.1379 238.993 88.8538C238.993 88.8538 323.972 82.857 340.874 166.261C340.874 166.261 430 224.83 357.141 285.724L291.391 335.891C291.391 335.891 242 380.823 212.933 400.224C212.933 400.224 151.418 431.009 121.544 380.823C121.532 380.873 106.791 355.276 98.8795 354.004Z" fill="#F09737"/>
</mask>
<g mask="url(#mask0)">
<ellipse cx="273.5" cy="238" rx="9.5" ry="11" fill="#F8B46B" fill-opacity="0.94"/>
<circle cx="314" cy="206" r="12" fill="#F8B46B" fill-opacity="0.94"/>
<circle cx="326" cy="250" r="12" fill="#F8B46B" fill-opacity="0.94"/>
<circle cx="276" cy="287" r="12" fill="#F8B46B" fill-opacity="0.94"/>
<circle cx="233" cy="218" r="12" fill="#F8B46B" fill-opacity="0.94"/>
<circle cx="257" cy="182" r="12" fill="#F8B46B" fill-opacity="0.94"/>
<circle cx="257" cy="112" r="12" fill="#F8B46B" fill-opacity="0.94"/>
<circle cx="326" cy="136" r="12" fill="#F8B46B" fill-opacity="0.94"/>
<circle cx="392" cy="160" r="12" fill="#F8B46B" fill-opacity="0.94"/>
<circle cx="392" cy="311" r="12" fill="#F8B46B" fill-opacity="0.94"/>
<circle cx="314" cy="311" r="12" fill="#F8B46B" fill-opacity="0.94"/>
<circle cx="221" cy="323" r="12" fill="#F8B46B" fill-opacity="0.94"/>
<circle cx="184" cy="247" r="12" fill="#F8B46B" fill-opacity="0.94"/>
<circle cx="140" cy="160" r="12" fill="#F8B46B" fill-opacity="0.94"/>
<circle cx="197" cy="148" r="12" fill="#F8B46B" fill-opacity="0.94"/>
<circle cx="196" cy="88" r="12" fill="#F8B46B" fill-opacity="0.94"/>
<circle cx="418" cy="249" r="12" fill="#F8B46B" fill-opacity="0.94"/>
<circle cx="350" cy="76" r="12" fill="#F8B46B" fill-opacity="0.94"/>
<circle cx="350" cy="215" r="12" fill="#F8B46B" fill-opacity="0.94"/>
<circle cx="128" cy="226" r="12" fill="#F8B46B" fill-opacity="0.94"/>
<circle cx="164" cy="299" r="12" fill="#F8B46B" fill-opacity="0.94"/>
<circle cx="274" cy="364" r="12" fill="#F8B46B" fill-opacity="0.94"/>
<circle cx="362" cy="388" r="12" fill="#F8B46B" fill-opacity="0.94"/>
<circle cx="418" cy="100" r="12" fill="#F8B46B" fill-opacity="0.94"/>
<circle cx="140" cy="52" r="12" fill="#F8B46B" fill-opacity="0.94"/>
<circle cx="80" cy="160" r="12" fill="#F8B46B" fill-opacity="0.94"/>
<circle cx="92" cy="299" r="12" fill="#F8B46B" fill-opacity="0.94"/>
<circle cx="173" cy="400" r="12" fill="#F8B46B" fill-opacity="0.94"/>
<circle cx="233" cy="424" r="12" fill="#F8B46B" fill-opacity="0.94"/>
<circle cx="128" cy="352" r="12" fill="#F8B46B" fill-opacity="0.94"/>
<circle cx="351" cy="467" r="3" fill="#F09737" fill-opacity="0.63"/>
<circle cx="335" cy="433" r="3" fill="#F8B46B" fill-opacity="0.94"/>
<circle cx="323" cy="373" r="3" fill="#F8B46B" fill-opacity="0.94"/>
<circle cx="338" cy="352" r="3" fill="#F8B46B" fill-opacity="0.94"/>
<circle cx="341" cy="299" r="3" fill="#F8B46B" fill-opacity="0.94"/>
<circle cx="347" cy="272" r="3" fill="#F8B46B" fill-opacity="0.94"/>
<circle cx="351" cy="241" r="3" fill="#F8B46B" fill-opacity="0.94"/>
<circle cx="386" cy="221" r="3" fill="#F8B46B" fill-opacity="0.94"/>
<circle cx="372" cy="194" r="3" fill="#F8B46B" fill-opacity="0.94"/>
<circle cx="335" cy="193" r="3" fill="#F8B46B" fill-opacity="0.94"/>
<circle cx="274" cy="191" r="3" fill="#F8B46B" fill-opacity="0.94"/>
<circle cx="305" cy="278" r="3" fill="#F8B46B" fill-opacity="0.94"/>
<circle cx="308" cy="244" r="3" fill="#F8B46B" fill-opacity="0.94"/>
<circle cx="291" cy="206" r="3" fill="#F8B46B" fill-opacity="0.94"/>
<circle cx="251" cy="240" r="3" fill="#F8B46B" fill-opacity="0.94"/>
<circle cx="236" cy="262" r="3" fill="#F8B46B" fill-opacity="0.94"/>
<circle cx="254" cy="296" r="3" fill="#F8B46B" fill-opacity="0.94"/>
<circle cx="267" cy="328" r="3" fill="#F8B46B" fill-opacity="0.94"/>
<circle cx="294" cy="328" r="3" fill="#F8B46B" fill-opacity="0.94"/>
<circle cx="371" cy="308" r="3" fill="#F8B46B" fill-opacity="0.94"/>
<circle cx="371" cy="290" r="3" fill="#F8B46B" fill-opacity="0.94"/>
<circle cx="377" cy="250" r="3" fill="#F8B46B" fill-opacity="0.94"/>
<circle cx="404" cy="221" r="3" fill="#F8B46B" fill-opacity="0.94"/>
<circle cx="357" cy="169" r="3" fill="#F8B46B" fill-opacity="0.94"/>
<circle cx="325" cy="169" r="3" fill="#F8B46B" fill-opacity="0.94"/>
<circle cx="305" cy="169" r="3" fill="#F8B46B" fill-opacity="0.94"/>
<circle cx="272" cy="169" r="3" fill="#F8B46B" fill-opacity="0.94"/>
<circle cx="251" cy="169" r="3" fill="#F8B46B" fill-opacity="0.94"/>
<circle cx="224" cy="185" r="3" fill="#F8B46B" fill-opacity="0.94"/>
<circle cx="205" cy="203" r="3" fill="#F8B46B" fill-opacity="0.94"/>
<circle cx="212" cy="227" r="3" fill="#F8B46B" fill-opacity="0.94"/>
<circle cx="221" cy="270" r="3" fill="#F8B46B" fill-opacity="0.94"/>
<circle cx="200" cy="276" r="3" fill="#F8B46B" fill-opacity="0.94"/>
<circle cx="200" cy="323" r="3" fill="#F8B46B" fill-opacity="0.94"/>
<circle cx="188" cy="341" r="3" fill="#F8B46B" fill-opacity="0.94"/>
<circle cx="203" cy="358" r="3" fill="#F8B46B" fill-opacity="0.94"/>
<circle cx="176" cy="359" r="3" fill="#F8B46B" fill-opacity="0.94"/>
<circle cx="197" cy="385" r="3" fill="#F8B46B" fill-opacity="0.94"/>
<circle cx="239" cy="352" r="3" fill="#F8B46B" fill-opacity="0.94"/>
<circle cx="233" cy="403" r="3" fill="#F8B46B" fill-opacity="0.94"/>
<circle cx="209" cy="355" r="3" fill="#F8B46B" fill-opacity="0.94"/>
<circle cx="242" cy="314" r="3" fill="#F8B46B" fill-opacity="0.94"/>
<circle cx="206" cy="259" r="3" fill="#F8B46B" fill-opacity="0.94"/>
<circle cx="209" cy="154" r="3" fill="#F8B46B" fill-opacity="0.94"/>
<circle cx="208" cy="91" r="3" fill="#F8B46B" fill-opacity="0.94"/>
<circle cx="227" cy="85" r="3" fill="#F8B46B" fill-opacity="0.94"/>
<circle cx="212" cy="28" r="3" fill="#F8B46B" fill-opacity="0.94"/>
<circle cx="176" cy="39" r="3" fill="#F8B46B" fill-opacity="0.94"/>
<circle cx="212" cy="61" r="3" fill="#F8B46B" fill-opacity="0.94"/>
<circle cx="262" cy="39" r="3" fill="#F8B46B" fill-opacity="0.94"/>
<circle cx="236" cy="64" r="3" fill="#F8B46B" fill-opacity="0.94"/>
<circle cx="239" cy="391" r="3" fill="#F8B46B" fill-opacity="0.94"/>
<circle cx="181" cy="400" r="3" fill="#F8B46B" fill-opacity="0.94"/>
<circle cx="289" cy="391" r="3" fill="#F8B46B" fill-opacity="0.94"/>
<circle cx="289" cy="439" r="3" fill="#F09737" fill-opacity="0.63"/>
<circle cx="300" cy="439" r="3" fill="#F09737" fill-opacity="0.63"/>
<circle cx="392" cy="409" r="3" fill="#F8B46B" fill-opacity="0.94"/>
<circle cx="389" cy="365" r="3" fill="#F8B46B" fill-opacity="0.94"/>
<circle cx="407" cy="311" r="3" fill="#F8B46B" fill-opacity="0.94"/>
<circle cx="407" cy="258" r="3" fill="#F8B46B" fill-opacity="0.94"/>
<circle cx="380" cy="175" r="3" fill="#F8B46B" fill-opacity="0.94"/>
<circle cx="360" cy="121" r="3" fill="#F8B46B" fill-opacity="0.94"/>
<circle cx="289" cy="85" r="3" fill="#F8B46B" fill-opacity="0.94"/>
<circle cx="286" cy="124" r="3" fill="#F8B46B" fill-opacity="0.94"/>
<circle cx="272" cy="151" r="3" fill="#F8B46B" fill-opacity="0.94"/>
<circle cx="297" cy="112" r="3" fill="#F8B46B" fill-opacity="0.94"/>
<circle cx="297" cy="148" r="3" fill="#F8B46B" fill-opacity="0.94"/>
<circle cx="233" cy="151" r="3" fill="#F8B46B" fill-opacity="0.94"/>
<circle cx="203" cy="175" r="3" fill="#F8B46B" fill-opacity="0.94"/>
<circle cx="173" cy="179" r="3" fill="#F8B46B" fill-opacity="0.94"/>
<circle cx="182" cy="218" r="3" fill="#F8B46B" fill-opacity="0.94"/>
<circle cx="155" cy="233" r="3" fill="#F8B46B" fill-opacity="0.94"/>
<circle cx="149" cy="268" r="3" fill="#F8B46B" fill-opacity="0.94"/>
<circle cx="104" cy="259" r="3" fill="#F8B46B" fill-opacity="0.94"/>
<circle cx="74" cy="253" r="3" fill="#F8B46B" fill-opacity="0.94"/>
<circle cx="60" cy="209" r="3" fill="#F8B46B" fill-opacity="0.94"/>
<circle cx="51" cy="191" r="3" fill="#F8B46B" fill-opacity="0.94"/>
<circle cx="236" cy="121" r="3" fill="#F8B46B" fill-opacity="0.94"/>
<circle cx="167" cy="121" r="3" fill="#F8B46B" fill-opacity="0.94"/>
<circle cx="161" cy="203" r="3" fill="#F8B46B" fill-opacity="0.94"/>
<circle cx="128" cy="203" r="3" fill="#F8B46B" fill-opacity="0.94"/>
<circle cx="92" cy="209" r="3" fill="#F8B46B" fill-opacity="0.94"/>
<circle cx="116" cy="279" r="3" fill="#F8B46B" fill-opacity="0.94"/>
<circle cx="110" cy="338" r="3" fill="#F09737" fill-opacity="0.85"/>
<circle cx="146" cy="338" r="3" fill="#F09737" fill-opacity="0.85"/>
<circle cx="169" cy="344" r="3" fill="#F8B46B" fill-opacity="0.94"/>
<circle cx="128" cy="385" r="3" fill="#F8B46B" fill-opacity="0.94"/>
<circle cx="60" cy="256" r="3" fill="#F8B46B" fill-opacity="0.94"/>
<circle cx="57" cy="173" r="3" fill="#F8B46B" fill-opacity="0.94"/>
<circle cx="68" cy="97" r="3" fill="#F8B46B" fill-opacity="0.94"/>
<circle cx="98" cy="121" r="3" fill="#F8B46B" fill-opacity="0.94"/>
<circle cx="128" cy="100" r="3" fill="#F8B46B" fill-opacity="0.94"/>
<circle cx="113" cy="64" r="3" fill="#F8B46B" fill-opacity="0.94"/>
<circle cx="185" cy="64" r="3" fill="#F8B46B" fill-opacity="0.94"/>
<circle cx="233" cy="33" r="3" fill="#F8B46B" fill-opacity="0.94"/>
<circle cx="167" cy="73" r="3" fill="#F8B46B" fill-opacity="0.94"/>
<circle cx="167" cy="112" r="3" fill="#F8B46B" fill-opacity="0.94"/>
<circle cx="259" cy="106" r="3" fill="#F8B46B" fill-opacity="0.94"/>
<circle cx="259" cy="55" r="3" fill="#F8B46B" fill-opacity="0.94"/>
<circle cx="258" cy="88" r="3" fill="#F8B46B" fill-opacity="0.94"/>
<circle cx="279" cy="94" r="3" fill="#F8B46B" fill-opacity="0.94"/>
<circle cx="317" cy="40" r="3" fill="#F8B46B" fill-opacity="0.94"/>
<circle cx="289" cy="33" r="3" fill="#F8B46B" fill-opacity="0.94"/>
<circle cx="289" cy="70" r="3" fill="#F8B46B" fill-opacity="0.94"/>
<circle cx="311" cy="82" r="3" fill="#F8B46B" fill-opacity="0.94"/>
<circle cx="335" cy="36" r="3" fill="#F8B46B" fill-opacity="0.94"/>
<circle cx="360" cy="64" r="3" fill="#F8B46B" fill-opacity="0.94"/>
<circle cx="350" cy="109" r="3" fill="#F8B46B" fill-opacity="0.94"/>
<circle cx="323" cy="109" r="3" fill="#F8B46B" fill-opacity="0.94"/>
<ellipse cx="87.5" cy="381" rx="9.5" ry="11" fill="#F8B46B" fill-opacity="0.94"/>
<circle cx="128" cy="349" r="12" fill="#F8B46B" fill-opacity="0.94"/>
<circle cx="140" cy="393" r="12" fill="#F8B46B" fill-opacity="0.94"/>
<circle cx="90" cy="430" r="12" fill="#F8B46B" fill-opacity="0.94"/>
<circle cx="47" cy="361" r="12" fill="#F8B46B" fill-opacity="0.94"/>
<circle cx="71" cy="325" r="12" fill="#F09737" fill-opacity="0.85"/>
<circle cx="71" cy="255" r="12" fill="#F8B46B" fill-opacity="0.94"/>
<circle cx="140" cy="279" r="12" fill="#F8B46B" fill-opacity="0.94"/>
<circle cx="206" cy="303" r="12" fill="#F8B46B" fill-opacity="0.94"/>
<circle cx="206" cy="454" r="12" fill="#F8B46B" fill-opacity="0.94"/>
<circle cx="128" cy="454" r="12" fill="#F8B46B" fill-opacity="0.94"/>
<circle cx="35" cy="466" r="12" fill="#F8B46B" fill-opacity="0.94"/>
<circle cx="-2" cy="390" r="12" fill="#F8B46B" fill-opacity="0.94"/>
<circle cx="11" cy="291" r="12" fill="#F8B46B" fill-opacity="0.94"/>
<circle cx="10" cy="231" r="12" fill="#F8B46B" fill-opacity="0.94"/>
<circle cx="232" cy="392" r="12" fill="#F8B46B" fill-opacity="0.94"/>
<circle cx="164" cy="219" r="12" fill="#F8B46B" fill-opacity="0.94"/>
<circle cx="164" cy="358" r="12" fill="#F8B46B" fill-opacity="0.94"/>
<circle cx="256" cy="466" r="12" fill="#F8B46B" fill-opacity="0.94"/>
<circle cx="282" cy="404" r="12" fill="#F8B46B" fill-opacity="0.94"/>
<circle cx="280" cy="315" r="12" fill="#F8B46B" fill-opacity="0.94"/>
<circle cx="232" cy="243" r="12" fill="#F8B46B" fill-opacity="0.94"/>
<circle cx="100" cy="146" r="12" fill="#F8B46B" fill-opacity="0.94"/>
<circle cx="155" cy="442" r="3" fill="#F8B46B" fill-opacity="0.94"/>
<circle cx="161" cy="415" r="3" fill="#F8B46B" fill-opacity="0.94"/>
<circle cx="165" cy="384" r="3" fill="#F8B46B" fill-opacity="0.94"/>
<circle cx="200" cy="364" r="3" fill="#F8B46B" fill-opacity="0.94"/>
<circle cx="186" cy="337" r="3" fill="#F8B46B" fill-opacity="0.94"/>
<circle cx="149" cy="336" r="3" fill="#F09737" fill-opacity="0.85"/>
<circle cx="88" cy="334" r="3" fill="#F09737" fill-opacity="0.85"/>
<circle cx="119" cy="421" r="3" fill="#F8B46B" fill-opacity="0.94"/>
<circle cx="122" cy="387" r="3" fill="#F8B46B" fill-opacity="0.94"/>
<circle cx="105" cy="349" r="3" fill="#F8B46B" fill-opacity="0.94"/>
<circle cx="65" cy="383" r="3" fill="#F8B46B" fill-opacity="0.94"/>
<circle cx="50" cy="405" r="3" fill="#F8B46B" fill-opacity="0.94"/>
<circle cx="68" cy="439" r="3" fill="#F8B46B" fill-opacity="0.94"/>
<circle cx="185" cy="451" r="3" fill="#F8B46B" fill-opacity="0.94"/>
<circle cx="185" cy="433" r="3" fill="#F8B46B" fill-opacity="0.94"/>
<circle cx="191" cy="393" r="3" fill="#F8B46B" fill-opacity="0.94"/>
<circle cx="218" cy="364" r="3" fill="#F8B46B" fill-opacity="0.94"/>
<circle cx="171" cy="312" r="3" fill="#F8B46B" fill-opacity="0.94"/>
<circle cx="139" cy="312" r="3" fill="#F8B46B" fill-opacity="0.94"/>
<circle cx="119" cy="312" r="3" fill="#F8B46B" fill-opacity="0.94"/>
<circle cx="86" cy="312" r="3" fill="#F8B46B" fill-opacity="0.94"/>
<circle cx="65" cy="312" r="3" fill="#F8B46B" fill-opacity="0.94"/>
<circle cx="38" cy="328" r="3" fill="#F8B46B" fill-opacity="0.94"/>
<circle cx="19" cy="346" r="3" fill="#F8B46B" fill-opacity="0.94"/>
<circle cx="26" cy="370" r="3" fill="#F8B46B" fill-opacity="0.94"/>
<circle cx="35" cy="413" r="3" fill="#F8B46B" fill-opacity="0.94"/>
<circle cx="14" cy="419" r="3" fill="#F8B46B" fill-opacity="0.94"/>
<circle cx="14" cy="466" r="3" fill="#F8B46B" fill-opacity="0.94"/>
<circle cx="56" cy="457" r="3" fill="#F8B46B" fill-opacity="0.94"/>
<circle cx="20" cy="402" r="3" fill="#F8B46B" fill-opacity="0.94"/>
<circle cx="23" cy="297" r="3" fill="#F8B46B" fill-opacity="0.94"/>
<circle cx="22" cy="234" r="3" fill="#F8B46B" fill-opacity="0.94"/>
<circle cx="41" cy="228" r="3" fill="#F8B46B" fill-opacity="0.94"/>
<circle cx="26" cy="171" r="3" fill="#F8B46B" fill-opacity="0.94"/>
<circle cx="26" cy="204" r="3" fill="#F8B46B" fill-opacity="0.94"/>
<circle cx="41" cy="165" r="3" fill="#F8B46B" fill-opacity="0.94"/>
<circle cx="76" cy="182" r="3" fill="#F8B46B" fill-opacity="0.94"/>
<circle cx="50" cy="207" r="3" fill="#F8B46B" fill-opacity="0.94"/>
<circle cx="221" cy="454" r="3" fill="#F8B46B" fill-opacity="0.94"/>
<circle cx="221" cy="401" r="3" fill="#F8B46B" fill-opacity="0.94"/>
<circle cx="247" cy="355" r="3" fill="#F8B46B" fill-opacity="0.94"/>
<circle cx="247" cy="319" r="3" fill="#F8B46B" fill-opacity="0.94"/>
<circle cx="194" cy="318" r="3" fill="#F8B46B" fill-opacity="0.94"/>
<circle cx="174" cy="264" r="3" fill="#F8B46B" fill-opacity="0.94"/>
<circle cx="103" cy="228" r="3" fill="#F8B46B" fill-opacity="0.94"/>
<circle cx="100" cy="267" r="3" fill="#F8B46B" fill-opacity="0.94"/>
<circle cx="86" cy="294" r="3" fill="#F8B46B" fill-opacity="0.94"/>
<circle cx="111" cy="255" r="3" fill="#F8B46B" fill-opacity="0.94"/>
<circle cx="111" cy="291" r="3" fill="#F8B46B" fill-opacity="0.94"/>
<circle cx="47" cy="294" r="3" fill="#F8B46B" fill-opacity="0.94"/>
<circle cx="17" cy="318" r="3" fill="#F8B46B" fill-opacity="0.94"/>
<circle cx="50" cy="264" r="3" fill="#F8B46B" fill-opacity="0.94"/>
<circle cx="-1" cy="207" r="3" fill="#F8B46B" fill-opacity="0.94"/>
<circle cx="47" cy="176" r="3" fill="#F8B46B" fill-opacity="0.94"/>
<circle cx="73" cy="249" r="3" fill="#F8B46B" fill-opacity="0.94"/>
<circle cx="73" cy="198" r="3" fill="#F8B46B" fill-opacity="0.94"/>
<circle cx="72" cy="231" r="3" fill="#F8B46B" fill-opacity="0.94"/>
<circle cx="93" cy="237" r="3" fill="#F8B46B" fill-opacity="0.94"/>
<circle cx="131" cy="183" r="3" fill="#F8B46B" fill-opacity="0.94"/>
<circle cx="131" cy="149" r="3" fill="#F8B46B" fill-opacity="0.94"/>
<circle cx="103" cy="176" r="3" fill="#F8B46B" fill-opacity="0.94"/>
<circle cx="103" cy="213" r="3" fill="#F8B46B" fill-opacity="0.94"/>
<circle cx="125" cy="225" r="3" fill="#F8B46B" fill-opacity="0.94"/>
<circle cx="149" cy="179" r="3" fill="#F8B46B" fill-opacity="0.94"/>
<circle cx="174" cy="207" r="3" fill="#F8B46B" fill-opacity="0.94"/>
<circle cx="164" cy="252" r="3" fill="#F8B46B" fill-opacity="0.94"/>
<circle cx="137" cy="252" r="3" fill="#F8B46B" fill-opacity="0.94"/>
<ellipse cx="192.5" cy="161" rx="9.5" ry="11" fill="#F8B46B" fill-opacity="0.94"/>
<circle cx="233" cy="129" r="12" fill="#F8B46B" fill-opacity="0.94"/>
<circle cx="245" cy="173" r="12" fill="#F8B46B" fill-opacity="0.94"/>
<circle cx="195" cy="210" r="12" fill="#F8B46B" fill-opacity="0.94"/>
<circle cx="152" cy="141" r="12" fill="#F8B46B" fill-opacity="0.94"/>
<circle cx="176" cy="105" r="12" fill="#F8B46B" fill-opacity="0.94"/>
<circle cx="176" cy="35" r="12" fill="#F8B46B" fill-opacity="0.94"/>
<circle cx="245" cy="59" r="12" fill="#F8B46B" fill-opacity="0.94"/>
<circle cx="311" cy="83" r="12" fill="#F8B46B" fill-opacity="0.94"/>
<circle cx="311" cy="234" r="12" fill="#F8B46B" fill-opacity="0.94"/>
<circle cx="233" cy="234" r="12" fill="#F8B46B" fill-opacity="0.94"/>
<circle cx="140" cy="246" r="12" fill="#F8B46B" fill-opacity="0.94"/>
<circle cx="103" cy="170" r="12" fill="#F8B46B" fill-opacity="0.94"/>
<circle cx="59" cy="83" r="12" fill="#F8B46B" fill-opacity="0.94"/>
<circle cx="116" cy="71" r="12" fill="#F8B46B" fill-opacity="0.94"/>
<circle cx="337" cy="172" r="12" fill="#F8B46B" fill-opacity="0.94"/>
<circle cx="269" cy="138" r="12" fill="#F8B46B" fill-opacity="0.94"/>
<circle cx="47" cy="149" r="12" fill="#F8B46B" fill-opacity="0.94"/>
<circle cx="83" cy="222" r="12" fill="#F8B46B" fill-opacity="0.94"/>
<circle cx="193" cy="287" r="12" fill="#F8B46B" fill-opacity="0.94"/>
<circle cx="281" cy="311" r="12" fill="#F8B46B" fill-opacity="0.94"/>
<circle cx="361" cy="246" r="12" fill="#F8B46B" fill-opacity="0.94"/>
<circle cx="387" cy="184" r="12" fill="#F8B46B" fill-opacity="0.94"/>
<circle cx="385" cy="95" r="12" fill="#F8B46B" fill-opacity="0.94"/>
<circle cx="337" cy="23" r="12" fill="#F8B46B" fill-opacity="0.94"/>
<circle cx="-1" cy="83" r="12" fill="#F8B46B" fill-opacity="0.94"/>
<circle cx="11" cy="222" r="12" fill="#F8B46B" fill-opacity="0.94"/>
<circle cx="92" cy="323" r="12" fill="#F09737" fill-opacity="0.85"/>
<circle cx="152" cy="347" r="12" fill="#F09737" fill-opacity="0.85"/>
<circle cx="47" cy="275" r="12" fill="#F8B46B" fill-opacity="0.94"/>
<circle cx="254" cy="356" r="3" fill="#F8B46B" fill-opacity="0.94"/>
<circle cx="242" cy="296" r="3" fill="#F8B46B" fill-opacity="0.94"/>
<circle cx="257" cy="275" r="3" fill="#F8B46B" fill-opacity="0.94"/>
<circle cx="260" cy="222" r="3" fill="#F8B46B" fill-opacity="0.94"/>
<circle cx="266" cy="195" r="3" fill="#F8B46B" fill-opacity="0.94"/>
<circle cx="270" cy="164" r="3" fill="#F8B46B" fill-opacity="0.94"/>
<circle cx="305" cy="144" r="3" fill="#F8B46B" fill-opacity="0.94"/>
<circle cx="291" cy="117" r="3" fill="#F8B46B" fill-opacity="0.94"/>
<circle cx="254" cy="116" r="3" fill="#F8B46B" fill-opacity="0.94"/>
<circle cx="193" cy="114" r="3" fill="#F8B46B" fill-opacity="0.94"/>
<circle cx="224" cy="201" r="3" fill="#F8B46B" fill-opacity="0.94"/>
<circle cx="227" cy="167" r="3" fill="#F8B46B" fill-opacity="0.94"/>
<circle cx="210" cy="129" r="3" fill="#F8B46B" fill-opacity="0.94"/>
<circle cx="170" cy="163" r="3" fill="#F8B46B" fill-opacity="0.94"/>
<circle cx="155" cy="185" r="3" fill="#F8B46B" fill-opacity="0.94"/>
<circle cx="173" cy="219" r="3" fill="#F8B46B" fill-opacity="0.94"/>
<circle cx="186" cy="251" r="3" fill="#F8B46B" fill-opacity="0.94"/>
<circle cx="213" cy="251" r="3" fill="#F8B46B" fill-opacity="0.94"/>
<circle cx="290" cy="231" r="3" fill="#F8B46B" fill-opacity="0.94"/>
<circle cx="290" cy="213" r="3" fill="#F8B46B" fill-opacity="0.94"/>
<circle cx="296" cy="173" r="3" fill="#F8B46B" fill-opacity="0.94"/>
<circle cx="323" cy="144" r="3" fill="#F8B46B" fill-opacity="0.94"/>
<circle cx="276" cy="92" r="3" fill="#F8B46B" fill-opacity="0.94"/>
<circle cx="244" cy="92" r="3" fill="#F8B46B" fill-opacity="0.94"/>
<circle cx="224" cy="92" r="3" fill="#F8B46B" fill-opacity="0.94"/>
<circle cx="191" cy="92" r="3" fill="#F8B46B" fill-opacity="0.94"/>
<circle cx="170" cy="92" r="3" fill="#F8B46B" fill-opacity="0.94"/>
<circle cx="143" cy="108" r="3" fill="#F8B46B" fill-opacity="0.94"/>
<circle cx="124" cy="126" r="3" fill="#F8B46B" fill-opacity="0.94"/>
<circle cx="131" cy="150" r="3" fill="#F8B46B" fill-opacity="0.94"/>
<circle cx="140" cy="193" r="3" fill="#F8B46B" fill-opacity="0.94"/>
<circle cx="119" cy="199" r="3" fill="#F8B46B" fill-opacity="0.94"/>
<circle cx="119" cy="246" r="3" fill="#F8B46B" fill-opacity="0.94"/>
<circle cx="107" cy="264" r="3" fill="#F8B46B" fill-opacity="0.94"/>
<circle cx="122" cy="281" r="3" fill="#F8B46B" fill-opacity="0.94"/>
<circle cx="95" cy="282" r="3" fill="#F8B46B" fill-opacity="0.94"/>
<circle cx="116" cy="308" r="3" fill="#F8B46B" fill-opacity="0.94"/>
<circle cx="158" cy="275" r="3" fill="#F8B46B" fill-opacity="0.94"/>
<circle cx="152" cy="326" r="3" fill="#F8B46B" fill-opacity="0.94"/>
<circle cx="128" cy="278" r="3" fill="#F8B46B" fill-opacity="0.94"/>
<circle cx="161" cy="237" r="3" fill="#F8B46B" fill-opacity="0.94"/>
<circle cx="125" cy="182" r="3" fill="#F8B46B" fill-opacity="0.94"/>
<circle cx="128" cy="77" r="3" fill="#F8B46B" fill-opacity="0.94"/>
<circle cx="158" cy="314" r="3" fill="#F8B46B" fill-opacity="0.94"/>
<circle cx="100" cy="323" r="3" fill="#F8B46B" fill-opacity="0.94"/>
<circle cx="208" cy="314" r="3" fill="#F8B46B" fill-opacity="0.94"/>
<circle cx="311" cy="332" r="3" fill="#F8B46B" fill-opacity="0.94"/>
<circle cx="308" cy="288" r="3" fill="#F8B46B" fill-opacity="0.94"/>
<circle cx="326" cy="234" r="3" fill="#F8B46B" fill-opacity="0.94"/>
<circle cx="326" cy="181" r="3" fill="#F8B46B" fill-opacity="0.94"/>
<circle cx="352" cy="135" r="3" fill="#F8B46B" fill-opacity="0.94"/>
<circle cx="352" cy="99" r="3" fill="#F8B46B" fill-opacity="0.94"/>
<circle cx="299" cy="98" r="3" fill="#F8B46B" fill-opacity="0.94"/>
<circle cx="279" cy="44" r="3" fill="#F8B46B" fill-opacity="0.94"/>
<circle cx="205" cy="47" r="3" fill="#F8B46B" fill-opacity="0.94"/>
<circle cx="191" cy="74" r="3" fill="#F8B46B" fill-opacity="0.94"/>
<circle cx="216" cy="35" r="3" fill="#F8B46B" fill-opacity="0.94"/>
<circle cx="216" cy="71" r="3" fill="#F8B46B" fill-opacity="0.94"/>
<circle cx="152" cy="74" r="3" fill="#F8B46B" fill-opacity="0.94"/>
<circle cx="122" cy="98" r="3" fill="#F8B46B" fill-opacity="0.94"/>
<circle cx="92" cy="102" r="3" fill="#F8B46B" fill-opacity="0.94"/>
<circle cx="101" cy="141" r="3" fill="#F8B46B" fill-opacity="0.94"/>
<circle cx="74" cy="156" r="3" fill="#F8B46B" fill-opacity="0.94"/>
<circle cx="68" cy="191" r="3" fill="#F8B46B" fill-opacity="0.94"/>
<circle cx="23" cy="182" r="3" fill="#F8B46B" fill-opacity="0.94"/>
<circle cx="155" cy="44" r="3" fill="#F8B46B" fill-opacity="0.94"/>
<circle cx="86" cy="44" r="3" fill="#F8B46B" fill-opacity="0.94"/>
<circle cx="80" cy="126" r="3" fill="#F8B46B" fill-opacity="0.94"/>
<circle cx="47" cy="126" r="3" fill="#F8B46B" fill-opacity="0.94"/>
<circle cx="11" cy="132" r="3" fill="#F8B46B" fill-opacity="0.94"/>
<circle cx="35" cy="202" r="3" fill="#F8B46B" fill-opacity="0.94"/>
<circle cx="29" cy="261" r="3" fill="#F8B46B" fill-opacity="0.94"/>
<circle cx="65" cy="261" r="3" fill="#F8B46B" fill-opacity="0.94"/>
<circle cx="88" cy="267" r="3" fill="#F8B46B" fill-opacity="0.94"/>
<circle cx="47" cy="308" r="3" fill="#F8B46B" fill-opacity="0.94"/>
<circle cx="17" cy="44" r="3" fill="#F8B46B" fill-opacity="0.94"/>
<circle cx="86" cy="35" r="3" fill="#F8B46B" fill-opacity="0.94"/>
<circle cx="178" cy="29" r="3" fill="#F8B46B" fill-opacity="0.94"/>
<circle cx="269" cy="32" r="3" fill="#F8B46B" fill-opacity="0.94"/>
<circle cx="242" cy="32" r="3" fill="#F8B46B" fill-opacity="0.94"/>
<ellipse cx="337.5" cy="257" rx="9.5" ry="11" fill="#F8B46B" fill-opacity="0.94"/>
<circle cx="378" cy="225" r="12" fill="#F8B46B" fill-opacity="0.94"/>
<circle cx="390" cy="269" r="12" fill="#F8B46B" fill-opacity="0.94"/>
<circle cx="340" cy="306" r="12" fill="#F8B46B" fill-opacity="0.94"/>
<circle cx="297" cy="237" r="12" fill="#F8B46B" fill-opacity="0.94"/>
<circle cx="321" cy="201" r="12" fill="#F8B46B" fill-opacity="0.94"/>
<circle cx="321" cy="131" r="12" fill="#F8B46B" fill-opacity="0.94"/>
<circle cx="390" cy="155" r="12" fill="#F8B46B" fill-opacity="0.94"/>
<circle cx="378" cy="330" r="12" fill="#F8B46B" fill-opacity="0.94"/>
<circle cx="285" cy="342" r="12" fill="#F8B46B" fill-opacity="0.94"/>
<circle cx="248" cy="266" r="12" fill="#F8B46B" fill-opacity="0.94"/>
<circle cx="204" cy="179" r="12" fill="#F8B46B" fill-opacity="0.94"/>
<circle cx="261" cy="167" r="12" fill="#F8B46B" fill-opacity="0.94"/>
<circle cx="260" cy="107" r="12" fill="#F8B46B" fill-opacity="0.94"/>
<circle cx="414" cy="95" r="12" fill="#F8B46B" fill-opacity="0.94"/>
<circle cx="414" cy="234" r="12" fill="#F8B46B" fill-opacity="0.94"/>
<circle cx="192" cy="245" r="12" fill="#F8B46B" fill-opacity="0.94"/>
<circle cx="228" cy="318" r="12" fill="#F8B46B" fill-opacity="0.94"/>
<circle cx="338" cy="383" r="12" fill="#F8B46B" fill-opacity="0.94"/>
<circle cx="426" cy="407" r="12" fill="#F8B46B" fill-opacity="0.94"/>
<circle cx="350" cy="22" r="12" fill="#F8B46B" fill-opacity="0.94"/>
<circle cx="204" cy="71" r="12" fill="#F8B46B" fill-opacity="0.94"/>
<circle cx="144" cy="179" r="12" fill="#F8B46B" fill-opacity="0.94"/>
<circle cx="156" cy="318" r="12" fill="#F09737" fill-opacity="0.85"/>
<circle cx="237" cy="419" r="12" fill="#F8B46B" fill-opacity="0.94"/>
<circle cx="297" cy="443" r="12" fill="#F8B46B" fill-opacity="0.94"/>
<circle cx="192" cy="371" r="12" fill="#F8B46B" fill-opacity="0.94"/>
<circle cx="399" cy="452" r="3" fill="#F8B46B" fill-opacity="0.94"/>
<circle cx="387" cy="392" r="3" fill="#F8B46B" fill-opacity="0.94"/>
<circle cx="402" cy="371" r="3" fill="#F8B46B" fill-opacity="0.94"/>
<circle cx="405" cy="318" r="3" fill="#F8B46B" fill-opacity="0.94"/>
<circle cx="411" cy="291" r="3" fill="#F8B46B" fill-opacity="0.94"/>
<circle cx="415" cy="260" r="3" fill="#F8B46B" fill-opacity="0.94"/>
<circle cx="399" cy="212" r="3" fill="#F8B46B" fill-opacity="0.94"/>
<circle cx="338" cy="210" r="3" fill="#F8B46B" fill-opacity="0.94"/>
<circle cx="369" cy="297" r="3" fill="#F8B46B" fill-opacity="0.94"/>
<circle cx="372" cy="263" r="3" fill="#F8B46B" fill-opacity="0.94"/>
<circle cx="355" cy="225" r="3" fill="#F8B46B" fill-opacity="0.94"/>
<circle cx="315" cy="259" r="3" fill="#F8B46B" fill-opacity="0.94"/>
<circle cx="300" cy="281" r="3" fill="#F8B46B" fill-opacity="0.94"/>
<circle cx="318" cy="315" r="3" fill="#F8B46B" fill-opacity="0.94"/>
<circle cx="331" cy="347" r="3" fill="#F8B46B" fill-opacity="0.94"/>
<circle cx="358" cy="347" r="3" fill="#F8B46B" fill-opacity="0.94"/>
<circle cx="421" cy="188" r="3" fill="#F8B46B" fill-opacity="0.94"/>
<circle cx="389" cy="188" r="3" fill="#F8B46B" fill-opacity="0.94"/>
<circle cx="369" cy="188" r="3" fill="#F8B46B" fill-opacity="0.94"/>
<circle cx="336" cy="188" r="3" fill="#F8B46B" fill-opacity="0.94"/>
<circle cx="315" cy="188" r="3" fill="#F8B46B" fill-opacity="0.94"/>
<circle cx="288" cy="204" r="3" fill="#F8B46B" fill-opacity="0.94"/>
<circle cx="269" cy="222" r="3" fill="#F8B46B" fill-opacity="0.94"/>
<circle cx="276" cy="246" r="3" fill="#F8B46B" fill-opacity="0.94"/>
<circle cx="285" cy="289" r="3" fill="#F8B46B" fill-opacity="0.94"/>
<circle cx="264" cy="295" r="3" fill="#F8B46B" fill-opacity="0.94"/>
<circle cx="264" cy="342" r="3" fill="#F8B46B" fill-opacity="0.94"/>
<circle cx="252" cy="360" r="3" fill="#F8B46B" fill-opacity="0.94"/>
<circle cx="267" cy="377" r="3" fill="#F8B46B" fill-opacity="0.94"/>
<circle cx="240" cy="378" r="3" fill="#F8B46B" fill-opacity="0.94"/>
<circle cx="261" cy="404" r="3" fill="#F8B46B" fill-opacity="0.94"/>
<circle cx="303" cy="371" r="3" fill="#F8B46B" fill-opacity="0.94"/>
<circle cx="297" cy="422" r="3" fill="#F8B46B" fill-opacity="0.94"/>
<circle cx="273" cy="374" r="3" fill="#F8B46B" fill-opacity="0.94"/>
<circle cx="306" cy="333" r="3" fill="#F8B46B" fill-opacity="0.94"/>
<circle cx="270" cy="278" r="3" fill="#F8B46B" fill-opacity="0.94"/>
<circle cx="273" cy="173" r="3" fill="#F8B46B" fill-opacity="0.94"/>
<circle cx="272" cy="110" r="3" fill="#F8B46B" fill-opacity="0.94"/>
<circle cx="291" cy="104" r="3" fill="#F8B46B" fill-opacity="0.94"/>
<circle cx="276" cy="47" r="3" fill="#F8B46B" fill-opacity="0.94"/>
<circle cx="240" cy="58" r="3" fill="#F8B46B" fill-opacity="0.94"/>
<circle cx="276" cy="80" r="3" fill="#F8B46B" fill-opacity="0.94"/>
<circle cx="291" cy="41" r="3" fill="#F8B46B" fill-opacity="0.94"/>
<circle cx="326" cy="58" r="3" fill="#F8B46B" fill-opacity="0.94"/>
<circle cx="300" cy="83" r="3" fill="#F8B46B" fill-opacity="0.94"/>
<circle cx="303" cy="410" r="3" fill="#F8B46B" fill-opacity="0.94"/>
<circle cx="245" cy="419" r="3" fill="#F8B46B" fill-opacity="0.94"/>
<circle cx="353" cy="410" r="3" fill="#F8B46B" fill-opacity="0.94"/>
<circle cx="424" cy="140" r="3" fill="#F8B46B" fill-opacity="0.94"/>
<circle cx="353" cy="104" r="3" fill="#F8B46B" fill-opacity="0.94"/>
<circle cx="350" cy="143" r="3" fill="#F8B46B" fill-opacity="0.94"/>
<circle cx="336" cy="170" r="3" fill="#F8B46B" fill-opacity="0.94"/>
<circle cx="361" cy="131" r="3" fill="#F8B46B" fill-opacity="0.94"/>
<circle cx="361" cy="167" r="3" fill="#F8B46B" fill-opacity="0.94"/>
<circle cx="297" cy="170" r="3" fill="#F8B46B" fill-opacity="0.94"/>
<circle cx="267" cy="194" r="3" fill="#F8B46B" fill-opacity="0.94"/>
<circle cx="237" cy="198" r="3" fill="#F8B46B" fill-opacity="0.94"/>
<circle cx="246" cy="237" r="3" fill="#F8B46B" fill-opacity="0.94"/>
<circle cx="219" cy="252" r="3" fill="#F8B46B" fill-opacity="0.94"/>
<circle cx="213" cy="287" r="3" fill="#F8B46B" fill-opacity="0.94"/>
<circle cx="168" cy="278" r="3" fill="#F8B46B" fill-opacity="0.94"/>
<circle cx="138" cy="272" r="3" fill="#F8B46B" fill-opacity="0.94"/>
<circle cx="124" cy="228" r="3" fill="#F8B46B" fill-opacity="0.94"/>
<circle cx="115" cy="210" r="3" fill="#F8B46B" fill-opacity="0.94"/>
<circle cx="300" cy="140" r="3" fill="#F8B46B" fill-opacity="0.94"/>
<circle cx="231" cy="140" r="3" fill="#F8B46B" fill-opacity="0.94"/>
<circle cx="225" cy="222" r="3" fill="#F8B46B" fill-opacity="0.94"/>
<circle cx="192" cy="222" r="3" fill="#F8B46B" fill-opacity="0.94"/>
<circle cx="156" cy="228" r="3" fill="#F8B46B" fill-opacity="0.94"/>
<circle cx="180" cy="298" r="3" fill="#F8B46B" fill-opacity="0.94"/>
<circle cx="174" cy="357" r="3" fill="#F8B46B" fill-opacity="0.94"/>
<circle cx="210" cy="357" r="3" fill="#F8B46B" fill-opacity="0.94"/>
<circle cx="233" cy="363" r="3" fill="#F8B46B" fill-opacity="0.94"/>
<circle cx="192" cy="404" r="3" fill="#F8B46B" fill-opacity="0.94"/>
<circle cx="124" cy="275" r="3" fill="#F8B46B" fill-opacity="0.94"/>
<circle cx="121" cy="192" r="3" fill="#F8B46B" fill-opacity="0.94"/>
<circle cx="121" cy="140" r="3" fill="#F8B46B" fill-opacity="0.94"/>
<circle cx="162" cy="140" r="3" fill="#F8B46B" fill-opacity="0.94"/>
<circle cx="192" cy="119" r="3" fill="#F8B46B" fill-opacity="0.94"/>
<circle cx="177" cy="83" r="3" fill="#F8B46B" fill-opacity="0.94"/>
<circle cx="249" cy="83" r="3" fill="#F8B46B" fill-opacity="0.94"/>
<circle cx="297" cy="52" r="3" fill="#F8B46B" fill-opacity="0.94"/>
<circle cx="231" cy="92" r="3" fill="#F8B46B" fill-opacity="0.94"/>
<circle cx="231" cy="131" r="3" fill="#F8B46B" fill-opacity="0.94"/>
<circle cx="323" cy="125" r="3" fill="#F8B46B" fill-opacity="0.94"/>
<circle cx="323" cy="74" r="3" fill="#F8B46B" fill-opacity="0.94"/>
<circle cx="322" cy="107" r="3" fill="#F8B46B" fill-opacity="0.94"/>
<circle cx="343" cy="113" r="3" fill="#F8B46B" fill-opacity="0.94"/>
<circle cx="381" cy="59" r="3" fill="#F8B46B" fill-opacity="0.94"/>
<circle cx="353" cy="52" r="3" fill="#F8B46B" fill-opacity="0.94"/>
<circle cx="353" cy="89" r="3" fill="#F8B46B" fill-opacity="0.94"/>
<circle cx="375" cy="101" r="3" fill="#F8B46B" fill-opacity="0.94"/>
<circle cx="399" cy="55" r="3" fill="#F8B46B" fill-opacity="0.94"/>
<circle cx="424" cy="83" r="3" fill="#F8B46B" fill-opacity="0.94"/>
<circle cx="414" cy="128" r="3" fill="#F8B46B" fill-opacity="0.94"/>
<circle cx="352" cy="133" r="3" fill="#F8B46B" fill-opacity="0.94"/>
</g>
<path d="M98.8795 354.004C98.8795 354.004 36.4372 331.89 33.0622 296.197C29.6872 260.504 51.1303 231.513 51.1303 231.513C51.1303 231.513 115.59 146.456 123.369 100.725C131.148 54.9929 184.5 57.3301 184.5 57.3301C184.5 57.3301 236.009 57.1379 238.993 88.8538C238.993 88.8538 323.972 82.857 340.874 166.261C340.874 166.261 430 224.83 357.141 285.724L291.391 335.891C291.391 335.891 242 380.823 212.933 400.224C212.933 400.224 151.418 431.009 121.544 380.823C121.532 380.873 106.791 355.276 98.8795 354.004Z" fill="#F09737" fill-opacity="0.21" stroke="black" stroke-miterlimit="10"/>
<path d="M98.8795 353.493C98.8795 353.493 36.4372 331.38 33.0622 295.687C29.6872 259.994 51.1303 231.003 51.1303 231.003C51.1303 231.003 115.59 145.946 123.369 100.214C131.148 54.4826 184.5 56.8198 184.5 56.8198C184.5 56.8198 236.009 56.6276 238.993 88.3435C238.993 88.3435 323.972 82.3467 340.874 165.751C340.874 165.751 430 224.32 357.141 285.214L291.391 335.381C291.391 335.381 242 380.313 212.933 399.713C212.933 399.713 151.418 430.499 121.544 380.313C121.532 380.363 106.791 354.766 98.8795 353.493Z" stroke="black" stroke-miterlimit="10"/>
<path d="M228.355 113.744C228.355 113.744 290.525 152.118 302.225 170.065C313.033 186.641 293.256 135.787 293.256 135.787C293.256 135.787 334.723 103.274 351.163 111.622C367.602 119.97 350.122 88.8904 350.122 88.8904C350.122 88.8904 298.67 90.5965 278.716 112.796C278.679 112.779 235.603 104.811 228.355 113.744Z" fill="#619154" stroke="black" stroke-miterlimit="10"/>
</svg>
