<svg width="634" height="615" viewBox="0 0 634 615" fill="none" xmlns="http://www.w3.org/2000/svg">
<g filter="url(#filter0_d)">
<path d="M53.5526 590.309L-84.5098 517.768L391.688 56.7803L597.612 149.212C552.683 229.709 392.468 341.875 317.977 387.896L223.206 449.907C166.109 474.243 86.3132 553.649 53.5526 590.309Z" fill="#EBE1A8" stroke="black"/>
<path d="M361.269 17L-304.473 373.856C-271.322 428.067 -202.447 535.319 -192.151 530.639C-179.281 524.789 -42.3882 486.178 14.9428 486.178C60.8076 486.178 163.535 438.597 209.166 414.807C242.317 397.647 315.872 363.326 344.888 363.326C373.905 363.326 505.181 309.505 567.192 282.595L361.269 17Z" fill="#FFF2A3" stroke="black"/>
</g>
<g clip-path="url(#clip0)">
<path d="M435.17 278.908C435.241 278.89 435.316 278.898 435.381 278.931C435.446 278.965 435.496 279.02 435.523 279.088C435.566 279.499 435.66 279.903 435.8 280.292L435.882 280.497C436.024 280.942 436.322 281.32 436.721 281.563C437.119 281.807 437.593 281.899 438.056 281.824C439.945 281.302 441.144 281.128 441.654 281.302C442.175 281.361 442.679 281.526 443.133 281.787C443.602 282.122 443.985 282.563 444.251 283.074C444.256 283.071 444.261 283.069 444.267 283.069C444.272 283.068 444.278 283.069 444.283 283.071C444.288 283.073 444.292 283.077 444.296 283.081C444.299 283.085 444.301 283.09 444.302 283.096L444.529 283.663C444.523 283.867 444.55 284.071 444.609 284.267C444.574 284.363 444.508 284.446 444.422 284.502C444.304 284.505 444.19 284.467 444.098 284.394C443.981 283.975 443.902 283.713 443.861 283.608C443.218 282 441.778 281.471 439.539 282.021C438.825 282.269 438.075 282.394 437.32 282.39C436.86 282.287 436.433 282.07 436.078 281.76C435.724 281.45 435.453 281.056 435.29 280.615C434.955 279.578 434.915 279.01 435.17 278.908ZM436.869 276.236L439.449 275.205C439.682 275.191 439.826 275.252 439.88 275.389L439.909 275.461C439.909 275.461 439.882 275.57 439.803 275.706L437.363 276.682C436.925 276.857 436.533 277.129 436.214 277.477C435.896 277.824 435.66 278.239 435.525 278.689L435.422 278.73C435.391 278.749 435.356 278.759 435.32 278.762C435.284 278.764 435.248 278.758 435.215 278.744C435.182 278.73 435.153 278.708 435.13 278.681C435.107 278.653 435.091 278.621 435.083 278.586C435.013 278.246 435.279 277.713 435.883 276.986C436.184 276.727 436.507 276.493 436.847 276.287C436.844 276.282 436.842 276.277 436.841 276.271C436.841 276.266 436.842 276.26 436.844 276.255C436.846 276.25 436.849 276.246 436.854 276.242C436.858 276.239 436.863 276.237 436.869 276.236ZM444.259 284.693C444.29 284.675 444.325 284.664 444.361 284.662C444.397 284.659 444.433 284.665 444.466 284.68C444.499 284.694 444.528 284.715 444.551 284.743C444.574 284.77 444.59 284.803 444.598 284.838L444.639 284.94C444.509 285.599 444.204 286.211 443.756 286.712C443.308 287.214 442.733 287.586 442.091 287.79L439.699 288.747C439.428 288.855 439.24 288.851 439.133 288.735L439.106 288.669C439.032 288.484 439.11 288.346 439.34 288.254L442.247 287.092C442.738 286.891 443.17 286.57 443.502 286.158C443.835 285.746 444.058 285.257 444.15 284.737L444.259 284.693Z" fill="black"/>
<path d="M448.447 271.728L448.653 271.646L456.315 274.877L459.638 267.255L459.741 267.214C459.772 267.196 459.807 267.185 459.843 267.183C459.879 267.18 459.915 267.186 459.948 267.2C459.981 267.214 460.01 267.236 460.033 267.263C460.056 267.291 460.072 267.323 460.08 267.358C460.133 267.491 459.967 267.942 459.581 268.711C457.681 273.2 456.709 275.453 456.665 275.471L456.612 275.534C456.479 275.587 455.425 275.158 453.45 274.246C451.734 273.606 450.053 272.877 448.413 272.064C448.37 271.885 448.381 271.773 448.447 271.728ZM448.905 272.503C449.022 272.501 449.137 272.539 449.229 272.611L453.369 282.969C453.39 283.005 453.403 283.045 453.406 283.086C453.408 283.127 453.401 283.168 453.385 283.206C453.369 283.244 453.343 283.278 453.311 283.304C453.279 283.331 453.242 283.349 453.201 283.358C453.056 283.416 452.938 283.356 452.848 283.178L448.708 272.82C448.754 272.643 448.82 272.537 448.905 272.503ZM460.102 268.028C460.17 268.001 460.3 268.056 460.491 268.194L464.573 278.407C464.637 278.648 464.579 278.803 464.402 278.874C464.224 278.945 464.107 278.885 464.049 278.694L459.94 268.414C459.878 268.224 459.934 268.095 460.108 268.026L460.102 268.028Z" fill="black"/>
<path d="M449.009 273.132L449.215 273.05L456.876 276.281L460.2 268.66L460.303 268.618C460.334 268.6 460.369 268.589 460.405 268.587C460.44 268.584 460.476 268.591 460.509 268.605C460.542 268.619 460.572 268.64 460.594 268.668C460.617 268.695 460.634 268.728 460.642 268.763C460.695 268.895 460.528 269.346 460.143 270.116C458.243 274.604 457.27 276.858 457.226 276.875L457.174 276.938C457.041 276.991 455.986 276.562 454.011 275.65C452.295 275.01 450.614 274.282 448.974 273.468C448.931 273.289 448.943 273.178 449.009 273.132ZM449.466 273.908C449.584 273.905 449.698 273.943 449.79 274.016L453.93 284.374C453.952 284.409 453.964 284.449 453.967 284.49C453.97 284.531 453.963 284.573 453.947 284.611C453.93 284.649 453.905 284.682 453.873 284.709C453.841 284.735 453.803 284.753 453.763 284.762C453.617 284.821 453.5 284.76 453.409 284.582L449.27 274.224C449.316 274.047 449.381 273.942 449.466 273.908ZM460.663 269.432C460.732 269.405 460.862 269.46 461.053 269.598L465.135 279.811C465.198 280.052 465.141 280.208 464.963 280.279C464.786 280.35 464.668 280.289 464.61 280.098L460.502 269.818C460.44 269.629 460.496 269.499 460.669 269.43L460.663 269.432Z" fill="black"/>
<path d="M463.7 265.59C463.805 265.548 463.935 265.603 464.089 265.756C464.693 267.337 465.149 268.512 465.456 269.279L468.55 277.021C468.548 277.084 468.527 277.145 468.49 277.196C468.453 277.247 468.401 277.286 468.341 277.307C468.234 277.321 468.101 277.256 467.94 277.111L463.51 266.029C463.506 265.946 463.521 265.864 463.554 265.788C463.587 265.711 463.637 265.644 463.7 265.59ZM464.566 265.209L467.194 264.158C467.486 264.144 467.775 264.094 468.055 264.01C468.908 263.925 469.76 264.17 470.436 264.695C470.811 265.08 471.123 265.521 471.359 266.004L471.415 266.142C471.657 266.815 471.704 267.542 471.551 268.241C471.378 268.73 471.1 269.176 470.737 269.548C470.374 269.92 469.934 270.21 469.449 270.396L467.063 271.35C466.844 271.4 466.704 271.349 466.643 271.196C466.641 271.079 466.68 270.965 466.753 270.873L469.175 269.904C469.792 269.734 470.324 269.343 470.672 268.807C471.02 268.271 471.158 267.627 471.061 266.997C471.015 266.753 470.946 266.513 470.853 266.283C470.68 265.731 470.32 265.257 469.835 264.941C469.351 264.625 468.77 264.486 468.193 264.549C467.821 264.61 467.456 264.711 467.106 264.851L464.793 265.775C464.756 265.797 464.714 265.81 464.671 265.812C464.628 265.814 464.586 265.805 464.547 265.786C464.508 265.768 464.475 265.74 464.45 265.706C464.424 265.671 464.408 265.631 464.402 265.589L464.39 265.559C464.418 265.429 464.479 265.309 464.566 265.209Z" fill="black"/>
<path d="M473.909 261.509L474.115 261.427C474.169 261.428 474.222 261.446 474.265 261.48C474.307 261.513 474.337 261.56 474.351 261.612L478.724 272.555L485.186 269.972C485.222 269.951 485.262 269.938 485.303 269.935C485.344 269.932 485.386 269.939 485.424 269.956C485.462 269.972 485.496 269.997 485.522 270.029C485.548 270.06 485.567 270.098 485.575 270.138C485.583 270.214 485.567 270.289 485.529 270.355C485.491 270.421 485.433 270.472 485.363 270.503L478.756 273.144C478.591 273.21 478.418 273.146 478.237 272.953L473.808 261.871C473.831 261.647 473.865 261.527 473.909 261.509Z" fill="black"/>
<path d="M484.578 257.168L492.045 254.183C492.262 254.189 492.396 254.255 492.446 254.379C492.496 254.504 492.435 254.621 492.264 254.732L484.797 257.716C484.762 257.738 484.721 257.75 484.68 257.753C484.639 257.756 484.597 257.749 484.559 257.733C484.521 257.717 484.488 257.692 484.461 257.66C484.435 257.628 484.416 257.591 484.408 257.55C484.373 257.452 484.43 257.325 484.578 257.168ZM486.922 262.734L494.189 259.829C494.263 259.792 494.346 259.778 494.428 259.787C494.511 259.796 494.588 259.829 494.652 259.881L494.667 259.918C494.749 260.123 494.628 260.29 494.305 260.419L487.25 263.239C486.927 263.368 486.725 263.33 486.643 263.125L486.628 263.089C486.638 263.008 486.671 262.932 486.723 262.869C486.775 262.806 486.844 262.759 486.922 262.734ZM489.096 268.367L496.49 265.412C496.696 265.33 496.836 265.381 496.91 265.566C496.984 265.751 496.884 265.898 496.609 266.008L489.421 268.881C489.146 268.99 488.968 268.943 488.886 268.738C488.875 268.7 488.872 268.66 488.877 268.621C488.882 268.581 488.894 268.543 488.914 268.509C488.933 268.475 488.959 268.444 488.991 268.42C489.022 268.396 489.058 268.378 489.096 268.367Z" fill="black"/>
<path d="M485 258.223L492.466 255.239C492.684 255.245 492.818 255.31 492.868 255.435C492.918 255.56 492.857 255.677 492.686 255.788L485.219 258.772C485.183 258.793 485.143 258.806 485.102 258.809C485.061 258.812 485.019 258.805 484.981 258.789C484.943 258.773 484.909 258.748 484.883 258.716C484.857 258.684 484.838 258.646 484.829 258.606C484.801 258.524 484.858 258.396 485 258.223ZM487.344 263.789L494.611 260.885C494.685 260.848 494.768 260.833 494.85 260.843C494.932 260.852 495.01 260.885 495.074 260.937L495.088 260.973C495.17 261.178 495.05 261.345 494.727 261.474L487.672 264.294C487.349 264.423 487.146 264.385 487.065 264.18L487.052 264.15C487.061 264.069 487.094 263.991 487.145 263.927C487.197 263.863 487.266 263.815 487.344 263.789ZM489.518 269.423L496.912 266.467C497.118 266.385 497.258 266.436 497.332 266.621C497.406 266.806 497.305 266.954 497.031 267.063L489.843 269.936C489.568 270.046 489.39 269.998 489.308 269.793C489.297 269.755 489.294 269.716 489.299 269.676C489.304 269.637 489.316 269.599 489.336 269.565C489.355 269.53 489.381 269.5 489.413 269.476C489.444 269.451 489.48 269.433 489.518 269.423Z" fill="black"/>
<path d="M441.743 295.349C441.814 295.331 441.889 295.339 441.954 295.373C442.019 295.406 442.069 295.462 442.096 295.53C442.14 295.941 442.233 296.345 442.373 296.733L442.455 296.938C442.597 297.383 442.895 297.761 443.294 298.005C443.693 298.248 444.166 298.341 444.629 298.265C446.518 297.743 447.717 297.569 448.227 297.743C448.748 297.802 449.252 297.967 449.706 298.229C450.18 298.568 450.566 299.015 450.832 299.534C450.836 299.531 450.842 299.529 450.847 299.528C450.853 299.527 450.858 299.528 450.863 299.53C450.868 299.533 450.873 299.536 450.876 299.54C450.88 299.545 450.882 299.55 450.883 299.555L451.102 300.104C451.097 300.308 451.124 300.512 451.182 300.708C451.147 300.805 451.081 300.887 450.995 300.944C450.878 300.946 450.763 300.908 450.671 300.836C450.555 300.416 450.476 300.154 450.434 300.049C449.791 298.442 448.351 297.913 446.112 298.462C445.399 298.71 444.648 298.835 443.893 298.832C443.433 298.728 443.006 298.512 442.651 298.202C442.297 297.891 442.026 297.498 441.863 297.056C441.529 296.02 441.488 295.451 441.743 295.349ZM443.442 292.677L446.022 291.646C446.255 291.632 446.399 291.694 446.454 291.83L446.48 291.897C446.48 291.897 446.453 292.005 446.374 292.142L443.934 293.117C443.496 293.293 443.104 293.565 442.785 293.912C442.467 294.26 442.231 294.674 442.095 295.124L441.992 295.166C441.962 295.184 441.927 295.195 441.891 295.197C441.855 295.199 441.819 295.193 441.786 295.179C441.753 295.165 441.724 295.144 441.701 295.116C441.678 295.089 441.662 295.056 441.654 295.021C441.585 294.685 441.852 294.152 442.454 293.422C442.754 293.16 443.076 292.924 443.415 292.716C443.414 292.712 443.414 292.707 443.415 292.703C443.416 292.699 443.418 292.695 443.42 292.691C443.423 292.687 443.426 292.684 443.43 292.682C443.434 292.68 443.438 292.678 443.442 292.677ZM450.833 301.135C450.864 301.116 450.898 301.105 450.934 301.103C450.97 301.101 451.006 301.107 451.039 301.121C451.072 301.135 451.101 301.157 451.124 301.184C451.147 301.212 451.163 301.244 451.171 301.279L451.212 301.381C451.083 302.04 450.778 302.652 450.329 303.154C449.881 303.655 449.306 304.028 448.664 304.232L446.272 305.188C446.002 305.296 445.813 305.292 445.706 305.177L445.679 305.11C445.605 304.925 445.684 304.787 445.914 304.695L448.82 303.533C449.311 303.332 449.743 303.011 450.076 302.599C450.408 302.187 450.631 301.698 450.724 301.178L450.833 301.135Z" fill="black"/>
<path d="M456.59 288.058L457.002 287.894C458.073 287.536 459.219 287.464 460.325 287.684L460.461 287.833C460.516 287.969 460.455 288.087 460.279 288.185C459.206 287.981 458.096 288.069 457.067 288.441L456.927 288.497C455.062 289.242 453.945 290.735 453.576 292.976C453.487 293.888 453.614 294.807 453.947 295.66C454.303 296.552 454.89 297.335 455.647 297.928C456.405 298.521 457.307 298.905 458.261 299.039C459.141 299.185 460.044 299.104 460.885 298.802L461.23 298.664C462.213 298.239 463.061 297.554 463.683 296.684L463.719 296.669C463.719 296.669 463.828 296.696 463.965 296.774L463.999 296.858C464.111 297.14 463.594 297.719 462.446 298.597C462.103 298.851 461.727 299.056 461.327 299.206L461.26 299.232C459.145 300.078 457.084 299.736 455.078 298.207C454.373 297.583 453.822 296.806 453.467 295.935L453.426 295.833C452.623 293.823 452.937 291.833 454.369 289.862C454.972 289.11 455.729 288.495 456.59 288.058Z" fill="black"/>
<path d="M444.06 273.789L444.236 273.719C444.303 273.724 444.366 273.749 444.419 273.79C444.471 273.831 444.511 273.887 444.532 273.95L449.407 286.147C449.435 286.207 449.445 286.275 449.435 286.34C449.425 286.406 449.396 286.468 449.352 286.518L449.176 286.589C449.136 286.605 449.032 286.544 448.864 286.406L443.989 274.209C443.963 274.139 443.956 274.063 443.968 273.989C443.98 273.916 444.012 273.846 444.06 273.789Z" fill="black"/>
<path d="M445.241 273.317L445.417 273.247C445.483 273.253 445.547 273.278 445.599 273.319C445.652 273.36 445.691 273.415 445.713 273.478L450.588 285.675C450.616 285.736 450.625 285.803 450.615 285.869C450.606 285.935 450.577 285.997 450.533 286.047L450.357 286.117C450.317 286.133 450.213 286.072 450.045 285.934L445.17 273.737C445.144 273.667 445.136 273.591 445.149 273.518C445.161 273.444 445.193 273.375 445.241 273.317Z" fill="black"/>
<path d="M463.602 284.78L463.778 284.71C463.845 284.716 463.908 284.741 463.961 284.782C464.013 284.823 464.053 284.878 464.074 284.941L468.949 297.138C468.977 297.198 468.987 297.266 468.977 297.332C468.967 297.398 468.938 297.459 468.894 297.51L468.718 297.58C468.678 297.596 468.574 297.535 468.406 297.397L463.531 285.2C463.505 285.13 463.498 285.054 463.51 284.981C463.522 284.907 463.554 284.838 463.602 284.78Z" fill="black"/>
<path d="M464.777 284.31L464.953 284.24C465.019 284.246 465.083 284.271 465.135 284.312C465.188 284.353 465.227 284.408 465.249 284.471L470.124 296.668C470.152 296.729 470.161 296.796 470.152 296.862C470.142 296.928 470.113 296.99 470.069 297.04L469.893 297.11C469.853 297.126 469.749 297.065 469.581 296.927L464.706 284.73C464.68 284.66 464.672 284.585 464.685 284.511C464.697 284.437 464.729 284.368 464.777 284.31Z" fill="black"/>
<path d="M467.865 282.916L475.326 279.934C475.543 279.94 475.677 280.005 475.727 280.13C475.777 280.254 475.716 280.372 475.545 280.482L468.084 283.464C468.049 283.486 468.009 283.499 467.967 283.501C467.926 283.504 467.884 283.497 467.846 283.481C467.808 283.465 467.775 283.44 467.748 283.408C467.722 283.376 467.704 283.339 467.695 283.298C467.656 283.202 467.713 283.074 467.865 282.916ZM470.209 288.482L477.476 285.577C477.55 285.54 477.633 285.526 477.716 285.535C477.798 285.545 477.875 285.577 477.939 285.63L477.961 285.684C478.043 285.889 477.922 286.056 477.599 286.185L470.538 289.007C470.215 289.136 470.013 289.098 469.931 288.893L469.916 288.857C469.923 288.773 469.954 288.692 470.006 288.626C470.058 288.559 470.129 288.509 470.209 288.482ZM472.383 294.115L479.771 291.162C479.977 291.08 480.117 291.131 480.191 291.316C480.265 291.501 480.165 291.648 479.89 291.758L472.702 294.631C472.427 294.741 472.249 294.693 472.167 294.488C472.156 294.45 472.153 294.41 472.158 294.371C472.163 294.332 472.175 294.294 472.195 294.259C472.214 294.225 472.24 294.195 472.272 294.17C472.303 294.146 472.339 294.128 472.377 294.118L472.383 294.115Z" fill="black"/>
<path d="M468.335 284.091L475.795 281.109C476.013 281.116 476.147 281.181 476.197 281.306C476.247 281.43 476.186 281.548 476.015 281.658L468.554 284.64C468.518 284.662 468.478 284.674 468.437 284.677C468.396 284.68 468.354 284.673 468.316 284.657C468.278 284.641 468.244 284.616 468.218 284.584C468.192 284.552 468.173 284.514 468.164 284.474C468.126 284.378 468.183 284.25 468.335 284.091ZM470.679 289.657L477.946 286.753C478.02 286.716 478.103 286.702 478.185 286.711C478.267 286.72 478.345 286.753 478.409 286.805L478.423 286.841C478.505 287.046 478.385 287.214 478.062 287.343L471.001 290.165C470.678 290.294 470.475 290.256 470.393 290.051L470.379 290.015C470.389 289.933 470.423 289.856 470.476 289.792C470.529 289.729 470.6 289.682 470.679 289.657ZM472.853 295.291L480.241 292.338C480.447 292.256 480.587 292.307 480.661 292.492C480.735 292.677 480.634 292.824 480.36 292.934L473.172 295.807C472.897 295.917 472.719 295.869 472.637 295.664C472.626 295.626 472.623 295.586 472.628 295.547C472.632 295.508 472.645 295.47 472.664 295.435C472.684 295.401 472.71 295.37 472.742 295.346C472.773 295.322 472.809 295.304 472.847 295.293L472.853 295.291Z" fill="black"/>
<path d="M478.901 278.582C479.492 278.762 480.048 279.038 480.548 279.399L492.617 286.224C492.658 286.257 492.69 286.3 492.708 286.349C492.701 286.54 492.81 286.497 492.701 286.54C492.592 286.584 492.102 286.29 491.246 285.765L479.533 279.462L483.751 290.013C483.749 290.076 483.728 290.137 483.691 290.188C483.653 290.239 483.602 290.278 483.542 290.299C483.435 290.314 483.301 290.248 483.14 290.103L478.711 279.022C478.706 278.945 478.717 278.868 478.744 278.795C478.77 278.723 478.813 278.657 478.867 278.603L478.901 278.582ZM487.932 275.014C488 275.005 488.068 275.02 488.126 275.055C488.184 275.091 488.227 275.145 488.249 275.209L492.167 285.013C492.167 285.013 492.141 285.121 492.062 285.258L491.995 285.284C491.809 285.358 491.671 285.281 491.579 285.052L487.752 275.478C487.695 275.24 487.757 275.084 487.938 275.012L487.932 275.014Z" fill="black"/>
<path d="M497.043 271.89L497.454 271.726C498.526 271.368 499.671 271.296 500.777 271.516L500.914 271.665C500.968 271.801 500.907 271.919 500.731 272.017C499.658 271.813 498.548 271.901 497.519 272.273L497.379 272.329C495.514 273.075 494.386 274.563 493.995 276.793C493.906 277.705 494.032 278.625 494.365 279.477C494.721 280.376 495.309 281.165 496.071 281.762C496.833 282.359 497.741 282.743 498.702 282.876C499.586 283.023 500.493 282.939 501.337 282.634L501.682 282.496C502.665 282.071 503.513 281.386 504.135 280.516L504.171 280.501C504.171 280.501 504.28 280.528 504.417 280.606L504.451 280.69C504.563 280.972 504.046 281.551 502.898 282.429C502.555 282.683 502.179 282.888 501.779 283.038L501.712 283.064C499.597 283.91 497.536 283.568 495.53 282.039C494.825 281.415 494.274 280.638 493.919 279.767L493.878 279.665C493.075 277.655 493.389 275.665 494.821 273.694C495.424 272.942 496.182 272.327 497.043 271.89Z" fill="black"/>
<path d="M435.733 280.313C435.804 280.295 435.879 280.303 435.944 280.336C436.009 280.37 436.06 280.426 436.086 280.493C436.13 280.904 436.223 281.309 436.364 281.697L436.445 281.902C436.587 282.347 436.885 282.725 437.284 282.969C437.683 283.212 438.157 283.304 438.619 283.229C440.508 282.707 441.707 282.533 442.217 282.707C442.739 282.766 443.242 282.931 443.696 283.192C444.17 283.532 444.556 283.979 444.822 284.497C444.827 284.494 444.832 284.492 444.837 284.492C444.843 284.491 444.848 284.492 444.853 284.494C444.859 284.496 444.863 284.5 444.866 284.504C444.87 284.509 444.872 284.514 444.873 284.519L445.092 285.068C445.087 285.272 445.114 285.476 445.172 285.672C445.137 285.769 445.071 285.851 444.985 285.908C444.868 285.91 444.753 285.872 444.661 285.799C444.545 285.38 444.466 285.118 444.424 285.013C443.782 283.405 442.341 282.876 440.103 283.426C439.389 283.674 438.638 283.799 437.883 283.796C437.423 283.692 436.996 283.475 436.642 283.165C436.287 282.855 436.016 282.461 435.853 282.02C435.519 280.984 435.479 280.415 435.733 280.313ZM437.432 277.641L440.012 276.61C440.245 276.596 440.389 276.657 440.444 276.794L440.482 276.89C440.482 276.89 440.455 276.999 440.377 277.135L437.936 278.111C437.499 278.283 437.106 278.551 436.786 278.894C436.467 279.237 436.228 279.647 436.088 280.094L435.985 280.135C435.954 280.154 435.919 280.164 435.883 280.167C435.848 280.169 435.812 280.163 435.779 280.149C435.746 280.135 435.716 280.113 435.693 280.086C435.671 280.058 435.654 280.026 435.646 279.991C435.576 279.651 435.843 279.118 436.447 278.391C436.747 278.13 437.068 277.894 437.408 277.686C437.406 277.681 437.405 277.676 437.405 277.671C437.406 277.667 437.407 277.662 437.409 277.658C437.412 277.653 437.415 277.65 437.419 277.647C437.423 277.644 437.427 277.642 437.432 277.641ZM444.823 286.098C444.854 286.08 444.889 286.069 444.924 286.067C444.96 286.064 444.996 286.071 445.029 286.085C445.062 286.099 445.091 286.12 445.114 286.148C445.137 286.175 445.153 286.208 445.161 286.243L445.202 286.345C445.073 287.004 444.768 287.616 444.32 288.118C443.871 288.619 443.296 288.991 442.654 289.196L440.262 290.152C439.992 290.26 439.803 290.256 439.696 290.14L439.669 290.074C439.596 289.889 439.674 289.751 439.904 289.659L442.811 288.497C443.301 288.296 443.733 287.975 444.066 287.563C444.399 287.151 444.621 286.662 444.714 286.142L444.823 286.098Z" fill="black"/>
<path d="M442.212 296.525C442.283 296.507 442.359 296.515 442.424 296.548C442.489 296.582 442.539 296.637 442.566 296.705C442.609 297.116 442.702 297.52 442.843 297.909L442.925 298.114C443.067 298.559 443.364 298.937 443.763 299.18C444.162 299.424 444.636 299.516 445.099 299.441C446.988 298.919 448.187 298.745 448.697 298.919C449.218 298.978 449.722 299.143 450.176 299.404C450.65 299.744 451.036 300.191 451.302 300.709C451.306 300.706 451.311 300.704 451.317 300.704C451.322 300.703 451.328 300.704 451.333 300.706C451.338 300.708 451.343 300.712 451.346 300.716C451.349 300.72 451.351 300.726 451.352 300.731L451.572 301.28C451.566 301.484 451.593 301.688 451.652 301.884C451.616 301.98 451.551 302.063 451.465 302.119C451.347 302.122 451.233 302.084 451.141 302.011C451.024 301.592 450.945 301.33 450.904 301.225C450.261 299.617 448.821 299.088 446.582 299.638C445.868 299.886 445.118 300.011 444.363 300.007C443.902 299.904 443.476 299.687 443.121 299.377C442.766 299.067 442.496 298.673 442.333 298.232C441.998 297.195 441.958 296.627 442.212 296.525ZM443.912 293.853L446.491 292.822C446.725 292.808 446.869 292.869 446.923 293.006L446.95 293.072C446.95 293.072 446.923 293.181 446.844 293.317L444.403 294.293C443.965 294.473 443.572 294.75 443.256 295.103C442.94 295.456 442.708 295.875 442.577 296.33L442.474 296.371C442.443 296.39 442.408 296.4 442.373 296.403C442.337 296.405 442.301 296.399 442.268 296.385C442.235 296.371 442.206 296.349 442.183 296.322C442.16 296.294 442.144 296.262 442.136 296.227C442.067 295.891 442.334 295.358 442.936 294.627C443.236 294.366 443.558 294.13 443.897 293.922C443.893 293.921 443.888 293.919 443.884 293.916C443.881 293.914 443.877 293.91 443.875 293.907C443.872 293.903 443.871 293.898 443.87 293.894C443.869 293.889 443.869 293.885 443.87 293.88C443.871 293.876 443.873 293.871 443.875 293.868C443.878 293.864 443.881 293.86 443.885 293.858C443.889 293.855 443.893 293.854 443.898 293.853C443.902 293.852 443.907 293.852 443.912 293.853ZM451.302 302.31C451.333 302.292 451.368 302.281 451.404 302.279C451.44 302.276 451.476 302.282 451.509 302.297C451.542 302.311 451.571 302.332 451.594 302.36C451.617 302.387 451.633 302.42 451.641 302.455L451.682 302.557C451.552 303.216 451.247 303.828 450.799 304.329C450.351 304.831 449.776 305.203 449.134 305.407L446.742 306.364C446.471 306.472 446.283 306.468 446.175 306.352L446.149 306.286C446.075 306.101 446.153 305.963 446.383 305.871L449.29 304.709C449.781 304.508 450.212 304.187 450.545 303.775C450.878 303.363 451.101 302.874 451.193 302.354L451.302 302.31Z" fill="black"/>
<path d="M457.06 289.233L457.472 289.069C458.543 288.711 459.688 288.639 460.794 288.86L460.931 289.008C460.985 289.144 460.925 289.262 460.749 289.36C459.676 289.168 458.571 289.267 457.548 289.647L457.409 289.702C455.544 290.448 454.422 291.929 454.043 294.145C453.954 295.057 454.081 295.976 454.414 296.829C454.77 297.721 455.357 298.504 456.114 299.097C456.872 299.691 457.773 300.074 458.728 300.209C459.623 300.352 460.54 300.26 461.389 299.942L461.734 299.804C462.717 299.379 463.566 298.694 464.187 297.824L464.224 297.809C464.224 297.809 464.333 297.836 464.469 297.914L464.496 297.98C464.608 298.262 464.091 298.841 462.944 299.719C462.601 299.973 462.224 300.178 461.824 300.328L461.758 300.354C459.642 301.2 457.581 300.858 455.575 299.329C454.87 298.705 454.319 297.928 453.964 297.057L453.923 296.955C453.12 294.945 453.434 292.955 454.866 290.984C455.466 290.254 456.214 289.658 457.06 289.233Z" fill="black"/>
<path d="M497.512 273.065L497.924 272.901C498.995 272.543 500.141 272.471 501.247 272.692L501.383 272.84C501.438 272.977 501.377 273.094 501.201 273.192C500.129 273 499.023 273.099 498.001 273.479L497.861 273.534C495.996 274.28 494.868 275.768 494.477 277.999C494.387 278.911 494.514 279.83 494.847 280.683C495.206 281.574 495.794 282.355 496.554 282.947C497.313 283.538 498.216 283.919 499.171 284.051C500.066 284.195 500.983 284.103 501.832 283.785L502.177 283.647C503.16 283.222 504.008 282.537 504.63 281.667L504.667 281.652C504.667 281.652 504.776 281.679 504.912 281.757L504.939 281.823C505.051 282.105 504.534 282.684 503.386 283.562C503.043 283.816 502.667 284.021 502.267 284.171L502.2 284.197C500.085 285.043 498.024 284.701 496.018 283.172C495.313 282.548 494.762 281.771 494.407 280.9L494.366 280.798C493.563 278.788 493.877 276.798 495.309 274.827C495.911 274.092 496.662 273.492 497.512 273.065Z" fill="black"/>
<path d="M504.066 268.447L511.533 265.463C511.751 265.469 511.884 265.534 511.934 265.659C511.984 265.783 511.923 265.901 511.752 266.011L504.285 268.996C504.25 269.017 504.21 269.03 504.168 269.033C504.127 269.036 504.086 269.029 504.047 269.012C504.009 268.996 503.976 268.971 503.949 268.939C503.923 268.908 503.905 268.87 503.896 268.83C503.861 268.731 503.918 268.604 504.066 268.447ZM506.41 274.013L513.677 271.108C513.751 271.072 513.834 271.057 513.917 271.066C513.999 271.076 514.077 271.109 514.14 271.161L514.162 271.215C514.244 271.42 514.124 271.587 513.801 271.716L506.739 274.538C506.417 274.667 506.214 274.63 506.132 274.425L506.118 274.388C506.124 274.306 506.154 274.228 506.203 274.162C506.253 274.096 506.321 274.046 506.398 274.018L506.41 274.013ZM508.584 279.646L515.979 276.691C516.185 276.609 516.324 276.66 516.398 276.845C516.472 277.03 516.372 277.177 516.097 277.287L508.909 280.16C508.635 280.27 508.456 280.222 508.374 280.017C508.364 279.979 508.36 279.939 508.365 279.9C508.37 279.861 508.382 279.823 508.402 279.788C508.421 279.754 508.448 279.724 508.479 279.699C508.51 279.675 508.546 279.657 508.584 279.646Z" fill="black"/>
<path d="M504.536 269.623L512.003 266.638C512.22 266.644 512.354 266.71 512.404 266.834C512.454 266.959 512.393 267.077 512.222 267.187L504.755 270.171C504.72 270.193 504.679 270.206 504.638 270.208C504.597 270.211 504.555 270.204 504.517 270.188C504.479 270.172 504.446 270.147 504.419 270.115C504.393 270.083 504.374 270.046 504.366 270.005C504.331 269.907 504.388 269.78 504.536 269.623ZM506.88 275.189L514.147 272.284C514.221 272.247 514.304 272.233 514.386 272.242C514.469 272.252 514.546 272.284 514.61 272.337L514.625 272.373C514.707 272.578 514.586 272.745 514.263 272.874L507.202 275.696C506.879 275.825 506.677 275.787 506.595 275.582L506.58 275.546C506.59 275.466 506.623 275.391 506.673 275.329C506.724 275.267 506.792 275.22 506.868 275.193L506.88 275.189ZM509.054 280.822L516.448 277.867C516.654 277.785 516.794 277.836 516.868 278.021C516.942 278.206 516.842 278.353 516.567 278.463L509.379 281.336C509.104 281.446 508.926 281.398 508.844 281.193C508.833 281.155 508.83 281.115 508.835 281.076C508.84 281.037 508.852 280.999 508.872 280.964C508.891 280.93 508.917 280.899 508.949 280.875C508.98 280.851 509.016 280.833 509.054 280.822Z" fill="black"/>
<path d="M534.416 265.216C533.959 265.168 533.497 265.223 533.064 265.377C532.63 265.531 532.237 265.779 531.913 266.105C528.809 265.947 528.241 268.971 528.241 268.971C527.095 268.793 526.524 270.51 526.524 270.51C526.524 270.51 526.064 272.47 527.584 273.163C528.218 273.431 528.767 273.863 529.174 274.416C529.264 274.38 529.402 274.373 529.499 274.37C530.175 274.023 530.45 273.99 531.114 273.577C531.792 273.376 532.078 273.038 532.823 272.195C532.977 272.017 533.146 271.854 533.33 271.706C533.572 271.399 533.781 271.067 533.952 270.716C534.031 270.47 534.13 270.231 534.25 270.003C534.43 269.643 534.551 269.257 534.608 268.86C534.689 268.535 534.753 268.206 534.797 267.875C534.772 267.694 534.762 267.51 534.768 267.327C534.757 266.772 534.694 266.385 534.734 265.942C534.654 265.69 534.548 265.446 534.416 265.216Z" fill="#EB9237" stroke="black" stroke-width="0.75" stroke-miterlimit="10"/>
<path d="M529.21 269.395C529.21 269.395 531.134 267.549 531.881 267.292C532.628 267.036 530.585 267.3 530.585 267.3C530.585 267.3 529.814 265.546 530.26 265.046C530.706 264.546 529.452 264.921 529.452 264.921C529.452 264.921 529.042 266.707 529.652 267.638C529.639 267.622 528.969 269.072 529.21 269.395Z" fill="#847F29" stroke="black" stroke-width="0.75" stroke-miterlimit="10"/>
<path d="M533.089 271.856C535.571 268.741 535.131 264.278 532.106 261.887C529.082 259.496 524.618 260.083 522.136 263.198C519.654 266.314 520.095 270.777 523.119 273.168C526.144 275.559 530.608 274.972 533.089 271.856Z" stroke="black" stroke-width="0.75" stroke-miterlimit="10"/>
<path d="M475.519 262.494L475.724 262.412C475.779 262.413 475.831 262.431 475.874 262.465C475.917 262.499 475.947 262.545 475.96 262.598L480.336 273.546L486.798 270.964C486.833 270.942 486.873 270.93 486.915 270.927C486.956 270.924 486.998 270.931 487.036 270.947C487.074 270.963 487.107 270.988 487.134 271.02C487.16 271.052 487.178 271.089 487.187 271.13C487.195 271.205 487.179 271.281 487.141 271.346C487.102 271.412 487.044 271.464 486.975 271.494L480.368 274.135C480.202 274.201 480.029 274.138 479.849 273.944L475.417 262.856C475.44 262.633 475.474 262.512 475.519 262.494Z" fill="black"/>
<path d="M465.097 266.661C465.202 266.619 465.332 266.675 465.486 266.827C466.09 268.409 466.546 269.583 466.852 270.351L469.947 278.092C469.945 278.155 469.924 278.216 469.887 278.267C469.849 278.318 469.798 278.357 469.738 278.378C469.631 278.393 469.498 278.327 469.336 278.182L464.917 267.125C464.911 267.048 464.923 266.971 464.949 266.899C464.976 266.826 465.018 266.761 465.073 266.706L465.097 266.661ZM465.948 266.279L468.577 265.229C468.869 265.217 469.159 265.169 469.44 265.086C470.293 265.002 471.145 265.247 471.82 265.771C472.19 266.159 472.495 266.604 472.726 267.087L472.781 267.226C473.023 267.898 473.071 268.626 472.918 269.325C472.745 269.812 472.469 270.256 472.108 270.627C471.747 270.998 471.31 271.287 470.827 271.475L468.442 272.429C468.221 272.475 468.081 272.423 468.022 272.275C468.02 272.158 468.058 272.043 468.131 271.951L470.554 270.983C471.166 270.809 471.693 270.418 472.037 269.884C472.381 269.35 472.518 268.709 472.421 268.083C472.376 267.839 472.306 267.599 472.213 267.369C472.04 266.817 471.681 266.343 471.196 266.027C470.711 265.711 470.131 265.572 469.554 265.635C469.181 265.687 468.815 265.779 468.463 265.91L466.168 266.828C466.132 266.849 466.092 266.862 466.051 266.865C466.009 266.868 465.968 266.861 465.93 266.845C465.892 266.828 465.858 266.803 465.832 266.771C465.806 266.74 465.787 266.702 465.778 266.662L465.769 266.638C465.798 266.507 465.861 266.385 465.951 266.285L465.948 266.279Z" fill="black"/>
<path d="M480.726 279.495C481.317 279.675 481.873 279.951 482.373 280.312L494.442 287.138C494.483 287.17 494.515 287.213 494.534 287.262C494.521 287.453 494.46 287.571 494.351 287.614C494.242 287.658 493.741 287.406 492.848 286.858L481.366 280.393L485.573 290.92C485.572 290.983 485.551 291.044 485.513 291.095C485.476 291.146 485.424 291.185 485.365 291.206C485.258 291.221 485.124 291.155 484.963 291.01L480.534 279.929C480.529 279.852 480.54 279.775 480.566 279.703C480.593 279.63 480.635 279.565 480.69 279.51L480.726 279.495ZM489.758 275.927C489.825 275.918 489.893 275.933 489.951 275.968C490.009 276.004 490.053 276.058 490.074 276.122L493.99 285.92C493.99 285.92 493.963 286.028 493.884 286.165L493.818 286.191C493.632 286.266 493.493 286.188 493.402 285.959L489.566 276.361C489.516 276.143 489.58 275.998 489.758 275.927Z" fill="black"/>
</g>
<defs>
<filter id="filter0_d" x="-310.176" y="0.359375" width="943.491" height="614.574" filterUnits="userSpaceOnUse" color-interpolation-filters="sRGB">
<feFlood flood-opacity="0" result="BackgroundImageFix"/>
<feColorMatrix in="SourceAlpha" type="matrix" values="0 0 0 0 0 0 0 0 0 0 0 0 0 0 0 0 0 0 127 0"/>
<feOffset dx="15" dy="4"/>
<feGaussianBlur stdDeviation="10"/>
<feColorMatrix type="matrix" values="0 0 0 0 0 0 0 0 0 0 0 0 0 0 0 0 0 0 0.24 0"/>
<feBlend mode="normal" in2="BackgroundImageFix" result="effect1_dropShadow"/>
<feBlend mode="normal" in="SourceGraphic" in2="effect1_dropShadow" result="shape"/>
</filter>
<clipPath id="clip0">
<rect width="98.0326" height="32.8991" fill="white" transform="translate(434 277.384) rotate(-21.786)"/>
</clipPath>
</defs>
</svg>
