<svg width="686" height="660" viewBox="0 0 686 660" fill="none" xmlns="http://www.w3.org/2000/svg">
<path d="M207.646 141.827C189.424 148.739 115.226 168.794 80.4043 177.958C116.797 322.741 191.152 610.895 197.436 605.239C203.719 599.584 319.441 574.083 376.517 562.04C394.739 554.5 559.002 510.201 638.855 488.994L513.97 59.3555C480.038 66.8957 393.011 93.3915 353.739 105.697C334.888 103.812 292.474 117.479 273.624 124.548C262.627 124.548 230.424 133.187 207.646 141.827Z" fill="#D0CBAD" stroke="black"/>
<g filter="url(#filter0_d)">
<path d="M193.482 158.683C176.399 168.064 105.713 198.25 72.5063 212.171C128.694 350.48 242.429 625.481 247.865 619.006C253.3 612.532 364.347 571.174 419.191 551.304C436.187 541.301 592.685 474.572 668.81 442.458L485.346 34.382C452.794 46.5712 370.302 84.921 333.124 102.572C314.195 103.329 274.095 122.766 256.412 132.389C245.523 133.92 214.835 146.957 193.482 158.683Z" fill="#FFF2A3"/>
<path d="M193.482 158.683C176.399 168.064 105.713 198.25 72.5063 212.171C128.694 350.48 242.429 625.481 247.865 619.006C253.3 612.532 364.347 571.174 419.191 551.304C436.187 541.301 592.685 474.572 668.81 442.458L485.346 34.382C452.794 46.5712 370.302 84.921 333.124 102.572C314.195 103.329 274.095 122.766 256.412 132.389C245.523 133.92 214.835 146.957 193.482 158.683Z" stroke="black"/>
</g>
<path d="M278.453 263.834L277.717 266.001C277.164 265.811 276.555 265.633 275.891 265.467C275.252 265.308 274.708 265.185 274.26 265.1C273.242 267.718 272.288 270.6 271.399 273.746L268.818 273.103C268.83 272.427 268.968 271.561 269.231 270.504C269.495 269.447 269.746 268.543 269.985 267.793C270.255 267.025 270.534 266.272 270.822 265.535C271.111 264.797 271.27 264.367 271.301 264.244C270.963 264.134 270.155 263.919 268.877 263.601C267.598 263.282 266.707 263.086 266.203 263.013C262.396 266.136 259.04 268.393 256.134 269.784C253.235 271.15 250.581 271.532 248.172 270.932C246.992 270.637 246.086 270.033 245.452 269.118C244.843 268.209 244.686 267.164 244.98 265.984C245.538 263.748 247.743 262.13 251.594 261.132C255.471 260.141 260.193 260 265.76 260.709C266.644 259.885 268.213 258.67 270.467 257.065C272.727 255.436 274.895 254.07 276.971 252.969C278.137 251.432 279.012 250.384 279.596 249.825C280.21 249.247 280.726 249.01 281.144 249.114C281.562 249.218 281.866 249.464 282.057 249.851C282.247 250.238 282.278 250.689 282.15 251.206C282.027 251.697 281.56 252.364 280.75 253.206C279.97 254.03 279.031 255.389 277.932 257.282C276.84 259.15 275.959 260.954 275.291 262.693C276.569 263.012 277.623 263.392 278.453 263.834ZM257.727 266.852C260.251 265.419 262.247 263.958 263.715 262.47C259.524 261.687 256.135 261.664 253.549 262.403C250.987 263.148 249.523 264.258 249.155 265.733C248.996 266.372 249.079 266.928 249.405 267.401C249.755 267.88 250.287 268.208 251 268.386C252.917 268.864 255.16 268.353 257.727 266.852ZM272.341 261.958C272.721 261.165 273.203 260.176 273.786 258.989C274.4 257.785 274.759 257.078 274.863 256.869C273.401 257.706 272.369 258.336 271.767 258.76C271.172 259.16 270.097 259.963 268.543 261.168C268.967 261.247 269.474 261.361 270.064 261.508C270.685 261.637 271.195 261.738 271.594 261.811C271.994 261.885 272.243 261.934 272.341 261.958ZM294.648 278.133L294.464 279.027C294.182 279.113 292.953 279.277 290.778 279.518C288.821 284.017 286.82 287.121 284.775 288.83C282.73 290.54 280.601 291.119 278.389 290.567C277.357 290.31 276.616 289.772 276.167 288.956C275.718 288.139 275.625 287.202 275.889 286.145C276.416 284.031 277.88 282.294 280.282 280.935C282.677 279.6 285.629 278.809 289.137 278.561C289.916 277.006 291.159 274.848 292.866 272.088C290.593 274.185 288.671 275.507 287.099 276.055C285.551 276.609 284.236 276.751 283.154 276.481C282.073 276.212 281.323 275.711 280.905 274.981C280.511 274.256 280.437 273.402 280.682 272.419C281.086 270.796 282.173 269.318 283.942 267.983C285.716 266.624 287.756 265.671 290.059 265.123C292.394 264.556 294.52 264.511 296.437 264.989L296.41 266.353C293.608 265.968 291.022 266.342 288.651 267.474C286.304 268.612 284.944 269.931 284.57 271.43C284.411 272.069 284.476 272.647 284.765 273.163C285.054 273.678 285.481 274.007 286.047 274.148C286.882 274.356 288.369 273.787 290.506 272.44C292.644 271.093 294.213 269.879 295.214 268.797L296.385 269.911C294.132 273.187 292.438 276.002 291.303 278.356L294.648 278.133ZM288.64 279.612C286.256 280.062 284.192 280.8 282.448 281.827C280.704 282.855 279.691 283.934 279.409 285.064C279.262 285.654 279.314 286.176 279.566 286.631C279.819 287.085 280.203 287.377 280.719 287.506C281.751 287.763 282.952 287.292 284.322 286.093C285.691 284.894 287.13 282.734 288.64 279.612ZM302.894 274.393C305.461 272.057 307.559 270.556 309.186 269.891C310.82 269.202 312.153 268.986 313.186 269.244C314.218 269.501 314.937 270.02 315.343 270.8C315.756 271.555 315.842 272.412 315.603 273.371C314.941 276.026 313.37 278.245 310.889 280.028C308.438 281.793 306.021 282.378 303.636 281.784C302.579 281.52 301.79 281.128 301.267 280.606L302.547 279.241C303.807 279.738 304.585 280.023 304.88 280.097C306.207 280.428 307.641 279.963 309.183 278.702C310.724 277.442 311.697 276 312.102 274.378C312.255 273.763 312.196 273.214 311.925 272.728C311.685 272.225 311.283 271.902 310.717 271.761C309.365 271.424 307.532 272.233 305.217 274.189C302.926 276.15 300.593 278.702 298.217 281.843C295.86 285.015 293.632 288.454 291.533 292.16L289.513 290.834C289.599 290.699 290.385 289.537 291.871 287.349C293.325 285.179 294.765 283.018 296.189 280.867C300.118 274.954 302.158 271.69 302.312 271.075C302.704 269.502 302.74 267.997 302.419 266.559L304.493 266.097C304.991 267.344 305.093 268.558 304.799 269.738C304.511 270.893 303.876 272.445 302.894 274.393ZM326.093 282.762L326.776 283.637C325.751 284.504 324.485 285.128 322.98 285.51C321.481 285.868 320.105 285.89 318.851 285.578C317.598 285.265 316.682 284.645 316.104 283.718C315.525 282.79 315.387 281.724 315.687 280.52C316.251 278.258 317.997 276.331 320.927 274.738C323.882 273.151 326.588 272.664 329.046 273.276C330.668 273.681 331.32 274.522 331.001 275.8C330.67 277.128 329.476 278.253 327.418 279.176C325.385 280.105 322.682 280.736 319.309 281.07C319.389 281.691 319.623 282.219 320.011 282.655C320.398 283.091 320.837 283.37 321.329 283.493C322.386 283.757 323.974 283.513 326.093 282.762ZM319.401 279.918C321.563 279.726 323.486 279.292 325.169 278.615C326.852 277.938 327.801 277.17 328.016 276.309C328.095 275.99 328.043 275.676 327.858 275.369C327.674 275.062 327.422 274.869 327.102 274.789C325.947 274.501 324.513 274.914 322.799 276.027C321.116 277.122 319.983 278.419 319.401 279.918ZM339.521 285.17L340.222 286.128C339.295 287.333 338.079 288.178 336.574 288.665C335.069 289.151 333.702 289.241 332.473 288.935C331.268 288.634 330.356 288.002 329.734 287.038C329.138 286.08 329.005 284.937 329.336 283.61C329.667 282.282 330.603 280.988 332.144 279.728C333.686 278.467 335.492 277.56 337.562 277.005C339.657 276.457 341.589 276.404 343.359 276.845C343.605 276.906 343.967 277.023 344.447 277.195L343.978 278.605C341.243 278.054 338.789 278.316 336.614 279.393C334.464 280.476 333.175 281.877 332.746 283.598C332.568 284.311 332.645 284.944 332.978 285.497C333.31 286.049 333.832 286.415 334.545 286.592C335.676 286.874 337.334 286.4 339.521 285.17ZM344.351 284.768C344.148 284.431 344.098 284.053 344.202 283.635C344.307 283.217 344.528 282.907 344.865 282.704C345.234 282.482 345.615 282.42 346.008 282.518C346.426 282.623 346.733 282.856 346.93 283.218C347.158 283.562 347.219 283.943 347.115 284.361C347.017 284.754 346.784 285.062 346.415 285.283C346.078 285.486 345.7 285.536 345.282 285.431C344.864 285.327 344.554 285.106 344.351 284.768ZM341.516 290.798C341.313 290.46 341.263 290.082 341.368 289.664C341.472 289.246 341.705 288.939 342.067 288.742C342.411 288.514 342.78 288.45 343.173 288.548C343.591 288.652 343.899 288.885 344.095 289.248C344.323 289.592 344.385 289.972 344.28 290.39C344.182 290.784 343.949 291.091 343.581 291.312C343.243 291.515 342.865 291.565 342.447 291.461C342.029 291.356 341.719 291.135 341.516 290.798ZM380.144 298.392L380.015 299.378C379.899 299.428 378.645 299.585 376.255 299.851C375.556 301.4 374.777 302.902 373.917 304.359C373.076 305.847 372.321 306.938 371.652 307.632C371.001 308.358 370.268 309.049 369.451 309.707C367.817 311.023 365.956 311.421 363.866 310.9C362.834 310.642 362.09 310.118 361.635 309.325C361.18 308.533 361.09 307.584 361.366 306.478C362.426 302.225 366.842 299.697 374.614 298.893L378.352 292.384C375.447 295.028 373.055 296.507 371.175 296.822C370.241 297.007 369.308 296.983 368.373 296.75C367.464 296.523 366.8 296.044 366.382 295.313C365.988 294.589 365.932 293.661 366.214 292.53C366.496 291.399 367.269 289.921 368.534 288.096C369.829 286.252 371.128 284.761 372.43 283.623L374.043 284.848C373.951 284.903 373.445 285.469 372.524 286.545C370.884 288.512 369.93 290.036 369.66 291.118C369.391 292.199 369.419 292.977 369.745 293.45C370.071 293.922 370.639 294.26 371.45 294.462C372.261 294.665 373.29 294.412 374.537 293.705C375.815 292.979 377.881 291.444 380.737 289.102L381.871 290.207C381.472 290.969 380.662 292.334 379.441 294.301C378.25 296.249 377.391 297.758 376.863 298.827L380.144 298.392ZM374.117 299.944C372.391 300.271 370.824 300.742 369.418 301.357C366.789 302.477 365.278 303.824 364.886 305.397C364.739 305.987 364.791 306.509 365.044 306.964C365.296 307.418 365.68 307.71 366.196 307.839C368.654 308.451 371.295 305.82 374.117 299.944ZM382.326 297.957L384.399 297.495C384.289 297.937 384.354 298.358 384.593 298.757C384.858 299.163 385.211 299.421 385.654 299.531C387.743 300.052 390.814 297.893 394.866 293.055C395.093 292.773 395.354 292.459 395.649 292.115C395.95 291.746 396.174 291.475 396.321 291.303C396.475 291.107 396.647 290.888 396.837 290.649C397.052 290.415 397.211 290.246 397.316 290.141C397.451 290.018 397.583 289.908 397.712 289.809C397.988 289.643 398.262 289.594 398.532 289.661C398.827 289.735 399.051 289.934 399.205 290.26C399.359 290.586 399.39 290.933 399.298 291.301C399.212 291.646 398.365 293.053 396.757 295.524C395.18 297.977 394.32 299.486 394.179 300.051C394.038 300.616 394.045 301.062 394.199 301.387C394.377 301.719 394.577 301.912 394.798 301.968C395.044 302.029 395.231 302.063 395.36 302.069C395.489 302.075 395.624 302.056 395.766 302.013C395.907 301.97 396.021 301.933 396.107 301.902C396.217 301.878 396.349 301.819 396.503 301.727L396.835 301.496C396.921 301.465 397.043 301.392 397.203 301.275C397.393 301.14 397.519 301.053 397.581 301.017L398.199 301.836C397.524 302.765 396.642 303.472 395.555 303.958C394.492 304.45 393.592 304.604 392.855 304.42C392.142 304.243 391.638 303.856 391.343 303.26C391.054 302.64 391.01 301.924 391.212 301.113C391.415 300.302 391.81 299.291 392.399 298.08C390.827 299.568 389.249 300.61 387.664 301.207C386.085 301.78 384.878 301.962 384.042 301.753C383.207 301.545 382.656 301.081 382.392 300.363C382.127 299.644 382.105 298.842 382.326 297.957ZM400.825 305.781C400.604 305.412 400.545 305.019 400.649 304.601C400.753 304.183 400.99 303.864 401.358 303.642C401.727 303.421 402.12 303.362 402.538 303.467C402.956 303.571 403.275 303.807 403.497 304.176C403.718 304.544 403.777 304.937 403.673 305.355C403.568 305.773 403.332 306.093 402.964 306.314C402.595 306.536 402.202 306.594 401.784 306.49C401.366 306.386 401.046 306.149 400.825 305.781ZM452.45 322.921L451.668 324.175C451.016 324.065 450.531 323.97 450.211 323.89C448.737 323.523 447.688 322.596 447.067 321.109C446.464 319.653 446.41 317.93 446.907 315.939C447.207 314.734 448.045 312.528 449.419 309.32C450.824 306.093 452.241 303.183 453.671 300.589C453.972 300.012 454.147 299.624 454.196 299.428C454.245 299.231 454.183 299.111 454.011 299.068C453.839 299.026 453.056 299.809 451.663 301.42C450.3 303.012 448.645 304.989 446.699 307.349C444.759 309.685 443.641 311.026 443.347 311.37C443.083 311.696 442.858 311.966 442.674 312.181C442.521 312.378 442.195 312.741 441.698 313.269C441.231 313.78 440.792 314.232 440.381 314.625C439.263 315.652 438.471 316.107 438.004 315.991C437.684 315.911 437.349 315.736 436.999 315.466C436.673 315.202 436.473 314.956 436.4 314.729C436.233 314.244 436.423 312.907 436.968 310.719C438.108 306.147 439.565 301.876 441.338 297.906C441.927 296.591 442.231 295.896 442.249 295.822C442.31 295.577 442.243 295.429 442.046 295.38C441.653 295.282 440.72 296.355 439.246 298.599L437.414 301.392C434.732 305.449 432.27 308.517 430.028 310.595C427.812 312.679 425.533 313.965 423.192 314.452L422.739 312.185C425.565 311.009 427.847 309.659 429.584 308.134C431.347 306.616 433.502 303.994 436.049 300.269L438.14 297.226C439.582 295.105 440.746 293.633 441.63 292.809C442.52 291.961 443.359 291.634 444.145 291.831C445.448 292.155 445.903 293.104 445.511 294.678C445.48 294.8 444.625 297.237 442.944 301.988C441.27 306.714 440.24 309.851 439.854 311.4C439.743 311.842 439.759 312.094 439.9 312.155C440.023 312.186 440.189 312.097 440.398 311.888C443.216 309.066 446.022 305.927 448.815 302.473C449.159 302.036 449.752 301.283 450.593 300.213C451.434 299.144 452.229 298.206 452.978 297.401C453.727 296.596 454.261 296.128 454.581 295.999C454.906 295.845 455.364 295.842 455.954 295.989C456.544 296.136 456.993 296.483 457.3 297.03C457.638 297.558 457.734 298.117 457.587 298.707C457.44 299.297 457.185 299.951 456.823 300.67C452.571 309.558 450.215 314.923 449.755 316.767C449.302 318.585 449.287 319.9 449.712 320.711C450.13 321.546 451.043 322.283 452.45 322.921ZM472.939 320.04L473.631 320.879C473.103 321.53 472.289 322.071 471.189 322.502C470.114 322.939 469.196 323.063 468.434 322.873C466.984 322.511 466.448 321.568 466.828 320.044C467.006 319.331 467.402 318.529 468.016 317.638L466.302 318.699C464.638 319.72 463.256 320.341 462.156 320.563C461.081 320.791 460.076 320.789 459.142 320.556C458.208 320.323 457.56 319.887 457.197 319.248C456.865 318.591 456.815 317.796 457.048 316.862C457.477 315.141 458.563 313.61 460.307 312.27C462.058 310.905 464.097 309.951 466.425 309.409C468.754 308.867 470.953 308.841 473.024 309.331L472.795 310.566L471.163 310.512C468.804 310.446 466.58 310.936 464.492 311.981C462.428 313.033 461.212 314.297 460.844 315.772C460.483 317.222 460.892 318.094 462.072 318.388C463.178 318.664 464.735 318.23 466.744 317.086C468.752 315.942 470.557 314.46 472.16 312.64L473.479 313.948C471.189 316.641 469.939 318.405 469.731 319.241C469.645 319.585 469.682 319.907 469.842 320.208C470.033 320.491 470.239 320.66 470.46 320.715C470.706 320.776 470.869 320.804 470.949 320.797C471.028 320.791 471.108 320.785 471.188 320.779C471.274 320.748 471.376 320.708 471.492 320.659C471.634 320.616 471.75 320.566 471.842 320.511C471.959 320.462 472.134 320.388 472.368 320.29C472.601 320.191 472.791 320.108 472.939 320.04ZM476.7 321.487L478.774 321.025C478.663 321.468 478.728 321.888 478.968 322.288C479.232 322.693 479.586 322.951 480.028 323.061C482.118 323.582 485.189 321.424 489.241 316.586C489.468 316.303 489.729 315.989 490.023 315.645C490.324 315.276 490.548 315.006 490.696 314.833C490.849 314.637 491.021 314.419 491.211 314.179C491.426 313.945 491.586 313.776 491.69 313.672C491.825 313.549 491.957 313.438 492.086 313.34C492.363 313.173 492.636 313.124 492.907 313.192C493.202 313.265 493.426 313.465 493.58 313.79C493.734 314.116 493.765 314.463 493.673 314.832C493.587 315.176 492.74 316.583 491.132 319.054C489.554 321.507 488.695 323.016 488.554 323.581C488.413 324.147 488.419 324.592 488.573 324.918C488.752 325.249 488.951 325.443 489.173 325.498C489.418 325.559 489.606 325.593 489.735 325.599C489.864 325.605 489.999 325.586 490.14 325.543C490.282 325.5 490.395 325.463 490.481 325.432C490.592 325.408 490.724 325.349 490.877 325.257L491.209 325.026C491.295 324.996 491.418 324.922 491.578 324.805C491.768 324.67 491.894 324.584 491.955 324.547L492.573 325.367C491.898 326.295 491.017 327.002 489.93 327.488C488.867 327.98 487.967 328.134 487.229 327.951C486.517 327.773 486.013 327.386 485.717 326.79C485.428 326.17 485.385 325.454 485.587 324.643C485.789 323.832 486.185 322.821 486.774 321.61C485.202 323.098 483.623 324.14 482.039 324.737C480.46 325.31 479.253 325.492 478.417 325.283C477.581 325.075 477.031 324.611 476.766 323.893C476.502 323.174 476.48 322.372 476.7 321.487ZM512.223 329.835L512.914 330.673C512.386 331.325 511.573 331.866 510.473 332.297C509.398 332.734 508.48 332.857 507.718 332.667C506.267 332.306 505.732 331.363 506.112 329.839C506.29 329.126 506.686 328.324 507.299 327.433L505.586 328.493C503.921 329.514 502.539 330.136 501.44 330.358C500.365 330.586 499.36 330.583 498.426 330.351C497.492 330.118 496.843 329.682 496.48 329.043C496.148 328.386 496.099 327.59 496.332 326.656C496.761 324.935 497.847 323.405 499.591 322.064C501.341 320.699 503.381 319.745 505.709 319.203C508.037 318.661 510.237 318.635 512.308 319.125L512.078 320.361L510.447 320.306C508.088 320.24 505.864 320.73 503.775 321.776C501.711 322.828 500.496 324.091 500.128 325.566C499.766 327.016 500.176 327.889 501.355 328.183C502.462 328.459 504.019 328.024 506.027 326.88C508.036 325.736 509.841 324.254 511.444 322.435L512.762 323.743C510.472 326.435 509.223 328.199 509.015 329.035C508.929 329.379 508.966 329.702 509.126 330.003C509.317 330.285 509.523 330.454 509.744 330.509C509.99 330.571 510.152 330.598 510.232 330.592C510.312 330.586 510.392 330.579 510.472 330.573C510.558 330.543 510.659 330.503 510.776 330.453C510.917 330.41 511.034 330.361 511.126 330.306C511.243 330.256 511.418 330.183 511.651 330.084C511.885 329.986 512.075 329.903 512.223 329.835ZM514.463 331.412L516.011 331.015C516.061 331.131 516.104 331.377 516.141 331.752C516.191 332.6 516.412 333.073 516.805 333.171C517.678 333.336 518.587 333.145 519.533 332.598C520.504 332.056 521.164 331.398 521.513 330.624C520.69 330.575 520.033 330.49 519.541 330.367C519.049 330.245 518.601 330.107 518.195 329.953C517.82 329.781 517.445 329.557 517.07 329.281C516.271 328.716 516.043 327.746 516.386 326.369C516.736 324.968 517.822 323.699 519.647 322.561C521.471 321.423 523.354 321.096 525.296 321.58C526.328 321.838 527.023 322.403 527.38 323.275C527.736 324.147 527.685 325.505 527.225 327.349C527.066 327.988 526.738 328.937 526.241 330.197C528.003 327.843 529.206 325.479 529.849 323.107L532.034 324.083C531.605 325.804 530.415 328.274 528.463 331.495C526.536 334.722 525.145 336.738 524.292 337.544L522.079 336.522C523.295 334.789 524.197 332.742 524.785 330.382C525.373 328.023 525.587 326.431 525.427 325.608C525.261 324.705 524.747 324.146 523.887 323.931C523.051 323.723 522.17 323.803 521.242 324.173C520.339 324.548 519.78 325.114 519.566 325.87C519.351 326.625 519.474 327.283 519.936 327.842C520.428 328.382 521.002 328.799 521.66 329.094C523.436 329.928 524.254 330.628 524.113 331.194C523.996 331.661 523.358 332.285 522.197 333.066C521.036 333.847 519.746 334.517 518.327 335.078C516.939 335.619 515.925 335.81 515.286 335.651C514.672 335.498 514.278 335.086 514.106 334.417C513.952 333.778 513.936 333.212 514.059 332.721C514.181 332.229 514.316 331.793 514.463 331.412ZM266.475 296.01L267.932 297.235C265.482 300.045 262.741 303.761 259.708 308.383C260.839 308.665 261.601 308.907 261.995 309.11L261.323 311.175C260.764 311.218 259.735 311.053 258.235 310.679C257.364 311.976 256.768 313.054 256.449 313.915C256.13 314.775 255.83 315.614 255.548 316.432C255.29 317.255 255.112 317.811 255.014 318.1L252.949 317.585C252.931 317.137 252.977 316.691 253.087 316.249C253.467 314.725 254.409 312.675 255.912 310.1C254.438 309.732 252.158 309.346 249.073 308.943C248.852 309.305 248.361 309.966 247.6 310.925C246.845 311.86 246.123 312.659 245.435 313.323C244.772 313.993 243.919 314.694 242.875 315.426C241.831 316.158 240.786 316.733 239.742 317.151C236.757 318.339 234.072 318.636 231.688 318.041C230.704 317.796 229.97 317.286 229.484 316.513C228.998 315.739 228.872 314.885 229.104 313.951C229.693 311.591 231.578 309.789 234.76 308.546C237.973 307.285 242.132 306.677 247.238 306.723C250.38 301.867 253.881 298.719 257.738 297.279C254.162 296.439 251.074 296.309 248.476 296.888C245.877 297.467 244.354 298.654 243.907 300.448C243.766 301.014 243.729 301.527 243.797 301.988C243.871 302.424 244.12 303.152 244.545 304.172L242.997 305.039C242.087 304.081 241.472 303.04 241.152 301.916C240.832 300.791 240.785 299.775 241.012 298.865C241.392 297.341 242.552 296.142 244.493 295.269C246.44 294.37 248.704 293.877 251.285 293.79C253.871 293.677 256.406 293.931 258.889 294.55C260.142 294.862 260.978 295.175 261.396 295.488C261.845 295.783 262.005 296.188 261.876 296.705C261.754 297.196 261.281 297.574 260.458 297.839C256.907 298.99 253.529 302.012 250.325 306.905C251.837 307.021 254.153 307.311 257.275 307.776C259.313 304.629 260.894 302.321 262.017 300.852C263.171 299.364 264.657 297.75 266.475 296.01ZM235.272 316.232C236.181 316.459 237.339 316.317 238.746 315.806C240.171 315.326 241.449 314.548 242.578 313.472C243.739 312.378 244.896 310.773 246.05 308.659C242.646 308.385 239.764 308.684 237.406 309.558C235.078 310.414 233.699 311.702 233.27 313.423C233.098 314.111 233.163 314.688 233.465 315.155C233.784 315.653 234.387 316.012 235.272 316.232ZM281.245 320.685L281.937 321.523C281.409 322.174 280.595 322.716 279.496 323.146C278.421 323.583 277.502 323.707 276.74 323.517C275.29 323.155 274.755 322.212 275.135 320.688C275.312 319.976 275.708 319.174 276.322 318.282L274.608 319.343C272.944 320.364 271.562 320.986 270.462 321.208C269.387 321.436 268.383 321.433 267.449 321.2C266.514 320.967 265.866 320.531 265.503 319.893C265.171 319.235 265.121 318.44 265.354 317.506C265.783 315.785 266.87 314.255 268.614 312.914C270.364 311.549 272.403 310.595 274.732 310.053C277.06 309.511 279.26 309.485 281.33 309.975L281.101 311.21L279.47 311.156C277.11 311.09 274.886 311.58 272.798 312.626C270.734 313.678 269.518 314.941 269.151 316.416C268.789 317.866 269.198 318.738 270.378 319.033C271.484 319.308 273.041 318.874 275.05 317.73C277.058 316.586 278.864 315.104 280.466 313.284L281.785 314.592C279.495 317.285 278.246 319.049 278.037 319.885C277.951 320.229 277.989 320.551 278.148 320.852C278.339 321.135 278.545 321.304 278.766 321.359C279.012 321.42 279.175 321.448 279.255 321.442C279.335 321.435 279.415 321.429 279.494 321.423C279.58 321.392 279.682 321.352 279.799 321.303C279.94 321.26 280.057 321.211 280.149 321.155C280.265 321.106 280.44 321.032 280.674 320.934C280.907 320.835 281.098 320.752 281.245 320.685ZM298.272 326.418L298.143 327.404C298.026 327.453 296.773 327.611 294.383 327.877C293.684 329.425 292.904 330.928 292.045 332.385C291.204 333.872 290.449 334.963 289.78 335.658C289.129 336.384 288.395 337.075 287.579 337.733C285.945 339.049 284.084 339.447 281.994 338.926C280.962 338.668 280.218 338.143 279.763 337.351C279.308 336.559 279.218 335.61 279.494 334.503C280.554 330.251 284.97 327.723 292.742 326.919L296.48 320.41C293.575 323.054 291.183 324.533 289.303 324.848C288.369 325.033 287.435 325.009 286.501 324.776C285.592 324.549 284.928 324.07 284.51 323.339C284.116 322.614 284.06 321.687 284.342 320.556C284.624 319.425 285.397 317.947 286.662 316.121C287.957 314.277 289.256 312.787 290.557 311.649L292.171 312.874C292.079 312.929 291.572 313.495 290.651 314.571C289.012 316.538 288.058 318.062 287.788 319.144C287.518 320.225 287.546 321.002 287.872 321.475C288.198 321.948 288.767 322.286 289.578 322.488C290.389 322.69 291.418 322.438 292.665 321.73C293.943 321.005 296.009 319.47 298.865 317.128L299.999 318.233C299.6 318.995 298.79 320.359 297.569 322.326C296.378 324.275 295.519 325.784 294.991 326.853L298.272 326.418ZM292.245 327.97C290.519 328.297 288.952 328.768 287.546 329.383C284.917 330.503 283.406 331.85 283.014 333.423C282.867 334.013 282.919 334.535 283.171 334.99C283.424 335.444 283.808 335.736 284.324 335.864C286.782 336.477 289.422 333.846 292.245 327.97ZM312.639 327.964L313.478 328.995C313.104 329.45 312.428 329.909 311.452 330.37C310.5 330.838 309.495 330.94 308.438 330.676C307.013 330.321 306.48 329.418 306.842 327.967C307.05 327.132 307.452 326.253 308.048 325.331C308.674 324.39 309.263 323.545 309.816 322.795C310.374 322.021 310.718 321.532 310.847 321.329C310.049 322.018 308.872 322.651 307.318 323.23C305.795 323.79 304.492 323.935 303.411 323.666C301.813 323.267 301.241 322.158 301.695 320.34C301.989 319.16 302.633 317.937 303.628 316.67C304.647 315.41 305.583 314.586 306.437 314.198L307.912 315.193C306.224 317.043 305.251 318.485 304.993 319.517C304.736 320.55 305.087 321.185 306.045 321.424C307.151 321.7 308.571 321.401 310.303 320.528C312.035 319.654 313.426 318.369 314.475 316.673L316.126 318.22C312.301 322.253 310.161 325.179 309.708 326.998C309.499 327.834 309.715 328.331 310.354 328.49C311.018 328.656 311.779 328.48 312.639 327.964ZM332.084 322.081L333.439 322.771C333.371 322.937 332.828 323.598 331.809 324.754C330.82 325.891 329.679 327.434 328.383 329.383C327.094 331.307 326.069 333.323 325.309 335.431L322.995 334.658C323.332 333.306 324.197 331.668 325.591 329.744C325.376 329.664 324.924 329.539 324.236 329.367C323.572 329.201 322.303 329.055 320.429 328.927C318.477 331.417 317.253 333.657 316.756 335.648L314.369 334.7C314.804 332.955 315.991 330.967 317.932 328.735C316.629 328.619 315.302 328.601 313.95 328.682L313.94 327.152C313.958 327.079 314.662 327.032 316.05 327.013C317.464 327 318.502 327.023 319.166 327.084C322.26 323.052 324.252 320.768 325.143 320.233L326.572 321.255C326.388 321.47 325.967 321.953 325.31 322.703C323.671 324.566 322.504 326.05 321.811 327.157C324.004 327.468 325.31 327.677 325.728 327.781C326.17 327.891 326.536 327.995 326.825 328.093C329.532 324.565 331.285 322.561 332.084 322.081ZM348.362 337.419L349.054 338.257C348.526 338.909 347.712 339.45 346.613 339.881C345.538 340.318 344.619 340.441 343.857 340.251C342.407 339.889 341.872 338.947 342.252 337.423C342.43 336.71 342.825 335.908 343.439 335.016L341.726 336.077C340.061 337.098 338.679 337.72 337.579 337.942C336.504 338.17 335.5 338.167 334.566 337.934C333.632 337.702 332.983 337.266 332.62 336.627C332.288 335.97 332.238 335.174 332.471 334.24C332.9 332.519 333.987 330.989 335.731 329.648C337.481 328.283 339.52 327.329 341.849 326.787C344.177 326.245 346.377 326.219 348.448 326.709L348.218 327.944L346.587 327.89C344.227 327.824 342.003 328.314 339.915 329.36C337.851 330.412 336.635 331.675 336.268 333.15C335.906 334.6 336.315 335.473 337.495 335.767C338.601 336.042 340.159 335.608 342.167 334.464C344.175 333.32 345.981 331.838 347.583 330.019L348.902 331.326C346.612 334.019 345.363 335.783 345.154 336.619C345.069 336.963 345.106 337.286 345.266 337.587C345.456 337.869 345.662 338.038 345.883 338.093C346.129 338.154 346.292 338.182 346.372 338.176C346.452 338.17 346.532 338.163 346.612 338.157C346.698 338.126 346.799 338.086 346.916 338.037C347.057 337.994 347.174 337.945 347.266 337.89C347.383 337.84 347.558 337.766 347.791 337.668C348.024 337.57 348.215 337.486 348.362 337.419ZM350.603 338.996L352.151 338.598C352.2 338.715 352.244 338.961 352.281 339.336C352.33 340.184 352.552 340.657 352.945 340.755C353.818 340.92 354.727 340.729 355.673 340.181C356.643 339.64 357.303 338.982 357.653 338.208C356.83 338.159 356.172 338.074 355.681 337.951C355.189 337.828 354.74 337.691 354.335 337.537C353.96 337.365 353.585 337.141 353.21 336.865C352.411 336.3 352.183 335.33 352.526 333.953C352.875 332.552 353.962 331.283 355.786 330.145C357.61 329.007 359.493 328.68 361.435 329.164C362.468 329.422 363.162 329.986 363.519 330.859C363.876 331.731 363.825 333.089 363.365 334.932C363.206 335.572 362.878 336.521 362.381 337.781C364.143 335.427 365.346 333.063 365.989 330.691L368.174 331.667C367.745 333.387 366.555 335.858 364.603 339.079C362.676 342.306 361.285 344.322 360.432 345.128L358.219 344.106C359.435 342.373 360.336 340.326 360.925 337.966C361.513 335.606 361.727 334.015 361.567 333.192C361.4 332.289 360.887 331.73 360.027 331.515C359.191 331.307 358.309 331.387 357.382 331.757C356.479 332.132 355.92 332.698 355.705 333.453C355.491 334.209 355.614 334.867 356.075 335.426C356.567 335.966 357.142 336.383 357.8 336.678C359.576 337.512 360.393 338.212 360.253 338.778C360.136 339.245 359.497 339.869 358.337 340.65C357.176 341.431 355.886 342.101 354.467 342.661C353.079 343.203 352.065 343.394 351.426 343.235C350.812 343.082 350.418 342.67 350.246 342C350.092 341.362 350.076 340.796 350.198 340.305C350.321 339.813 350.456 339.377 350.603 338.996ZM366.683 344.65C366.794 344.207 367.045 343.878 367.438 343.663C367.862 343.429 368.308 343.371 368.775 343.487C369.266 343.61 369.61 343.852 369.807 344.215C370.01 344.552 370.053 344.955 369.937 345.422C369.667 346.503 368.43 347.487 366.225 348.374L365.708 346.991C366.887 346.45 367.495 346.158 367.532 346.115C366.831 345.679 366.548 345.191 366.683 344.65ZM401.968 336.215C401.79 336.615 401.019 337.558 399.656 339.046C395.383 343.62 392.694 347.754 391.59 351.447L389.139 351.228C389.089 350.798 389.178 350.128 389.405 349.218C389.95 347.031 392.372 343.392 396.669 338.302C395.643 338.437 394.836 338.432 394.246 338.285C393.656 338.138 393.127 337.901 392.66 337.576L393.94 335.898C394.217 336.045 394.502 336.156 394.797 336.229C395.584 336.425 396.444 336.379 397.378 336.089C398.311 335.8 399.076 335.403 399.672 334.899C400.268 334.395 400.725 334.182 401.045 334.262C401.364 334.342 401.644 334.529 401.884 334.824C402.148 335.125 402.247 335.41 402.179 335.681C402.112 335.951 402.041 336.129 401.968 336.215ZM404.275 340.903C405.608 339.956 407.236 339.239 409.159 338.752C411.088 338.241 412.618 338.127 413.748 338.408C414.904 338.697 415.737 339.231 416.247 340.011C416.757 340.791 416.872 341.746 416.59 342.877C416.308 344.007 415.596 344.926 414.453 345.634C413.317 346.316 411.21 347.018 408.132 347.739C405.061 348.435 402.106 349.5 399.268 350.933C402.764 351.257 405.963 351.78 408.863 352.503C409.527 352.669 410.049 352.825 410.43 352.972L409.851 355.295C409.286 355.259 408.905 355.216 408.708 355.167C408.542 355.1 408.247 355.026 407.823 354.946C407.399 354.867 406.576 354.714 405.353 354.487C404.136 354.236 402.874 354.013 401.565 353.817C400.281 353.627 399.396 353.511 398.91 353.468C398.456 353.407 398.179 353.364 398.081 353.34C397.687 353.242 397.405 352.91 397.232 352.345C397.066 351.755 397.041 351.227 397.157 350.76C397.544 350.047 398.791 349.183 400.898 348.168C403.029 347.159 405.649 346.284 408.758 345.545C409.673 345.329 410.557 344.976 411.411 344.484C412.265 343.991 412.765 343.45 412.912 342.861C413.194 341.73 412.733 341.014 411.529 340.714C409.931 340.316 407.621 340.836 404.599 342.276L404.275 340.903Z" fill="black"/>
<g clip-path="url(#clip0)">
<path d="M548.643 434.613C548.714 434.595 548.789 434.603 548.854 434.636C548.919 434.67 548.969 434.726 548.996 434.793C549.039 435.204 549.132 435.609 549.273 435.997L549.355 436.202C549.497 436.647 549.795 437.025 550.193 437.269C550.592 437.512 551.066 437.604 551.529 437.529C553.418 437.007 554.617 436.833 555.127 437.007C555.648 437.066 556.152 437.231 556.606 437.492C557.075 437.828 557.458 438.268 557.724 438.779C557.729 438.776 557.734 438.774 557.74 438.774C557.745 438.773 557.751 438.774 557.756 438.776C557.761 438.778 557.765 438.782 557.769 438.786C557.772 438.79 557.774 438.796 557.775 438.801L558.002 439.368C557.996 439.572 558.023 439.776 558.082 439.972C558.047 440.069 557.981 440.151 557.895 440.208C557.777 440.21 557.663 440.172 557.571 440.099C557.454 439.68 557.375 439.418 557.334 439.313C556.691 437.705 555.251 437.176 553.012 437.726C552.298 437.974 551.548 438.099 550.793 438.096C550.333 437.992 549.906 437.775 549.551 437.465C549.197 437.155 548.926 436.761 548.763 436.32C548.428 435.284 548.388 434.715 548.643 434.613ZM550.342 431.941L552.922 430.91C553.155 430.896 553.299 430.957 553.353 431.094L553.382 431.166C553.382 431.166 553.355 431.275 553.276 431.411L550.836 432.387C550.398 432.563 550.006 432.834 549.687 433.182C549.369 433.529 549.133 433.944 548.998 434.394L548.895 434.435C548.864 434.454 548.829 434.464 548.793 434.467C548.757 434.469 548.721 434.463 548.688 434.449C548.655 434.435 548.626 434.413 548.603 434.386C548.58 434.358 548.564 434.326 548.556 434.291C548.486 433.951 548.752 433.418 549.356 432.691C549.657 432.432 549.98 432.198 550.32 431.992C550.317 431.987 550.315 431.982 550.314 431.976C550.314 431.971 550.315 431.965 550.317 431.96C550.319 431.955 550.322 431.951 550.327 431.947C550.331 431.944 550.336 431.942 550.342 431.941ZM557.732 440.398C557.763 440.38 557.798 440.369 557.834 440.367C557.87 440.364 557.906 440.371 557.939 440.385C557.972 440.399 558.001 440.42 558.024 440.448C558.047 440.475 558.063 440.508 558.071 440.543L558.112 440.645C557.982 441.304 557.677 441.916 557.229 442.418C556.781 442.919 556.206 443.291 555.564 443.496L553.172 444.452C552.901 444.56 552.713 444.556 552.606 444.44L552.579 444.374C552.505 444.189 552.583 444.051 552.813 443.959L555.72 442.797C556.211 442.596 556.642 442.275 556.975 441.863C557.308 441.451 557.531 440.962 557.623 440.442L557.732 440.398Z" fill="black"/>
<path d="M561.92 427.432L562.126 427.35L569.788 430.581L573.111 422.959L573.214 422.918C573.245 422.9 573.28 422.889 573.316 422.887C573.352 422.884 573.388 422.89 573.421 422.904C573.454 422.918 573.483 422.94 573.506 422.968C573.529 422.995 573.545 423.028 573.553 423.063C573.606 423.195 573.44 423.646 573.054 424.416C571.154 428.904 570.182 431.157 570.137 431.175L570.085 431.238C569.952 431.291 568.898 430.862 566.923 429.95C565.207 429.31 563.526 428.581 561.886 427.768C561.843 427.589 561.854 427.477 561.92 427.432ZM562.378 428.207C562.495 428.205 562.61 428.243 562.702 428.316L566.842 438.674C566.863 438.709 566.876 438.749 566.879 438.79C566.881 438.831 566.874 438.873 566.858 438.911C566.842 438.949 566.816 438.982 566.784 439.009C566.752 439.035 566.714 439.053 566.674 439.062C566.529 439.12 566.411 439.06 566.321 438.882L562.181 428.524C562.227 428.347 562.293 428.241 562.378 428.207ZM573.575 423.732C573.643 423.705 573.773 423.76 573.964 423.898L578.046 434.111C578.11 434.352 578.052 434.507 577.875 434.578C577.697 434.649 577.579 434.589 577.522 434.398L573.413 424.118C573.351 423.929 573.407 423.799 573.581 423.73L573.575 423.732Z" fill="black"/>
<path d="M562.482 428.839L562.688 428.756L570.349 431.987L573.673 424.366L573.776 424.324C573.807 424.306 573.842 424.295 573.878 424.293C573.913 424.29 573.949 424.297 573.982 424.311C574.015 424.325 574.045 424.346 574.068 424.374C574.091 424.401 574.107 424.434 574.115 424.469C574.168 424.601 574.001 425.052 573.616 425.822C571.716 430.31 570.744 432.564 570.699 432.581L570.647 432.644C570.514 432.697 569.46 432.268 567.484 431.356C565.768 430.716 564.087 429.988 562.447 429.174C562.404 428.995 562.416 428.884 562.482 428.839ZM562.939 429.614C563.057 429.611 563.171 429.649 563.263 429.722L567.403 440.08C567.425 440.115 567.437 440.155 567.44 440.196C567.443 440.237 567.436 440.279 567.42 440.317C567.403 440.355 567.378 440.388 567.346 440.415C567.314 440.441 567.276 440.46 567.236 440.468C567.09 440.527 566.973 440.466 566.883 440.288L562.743 429.93C562.789 429.753 562.854 429.648 562.939 429.614ZM574.136 425.138C574.205 425.111 574.335 425.166 574.526 425.304L578.608 435.518C578.671 435.758 578.614 435.914 578.436 435.985C578.259 436.056 578.141 435.995 578.083 435.804L573.975 425.525C573.913 425.335 573.969 425.205 574.142 425.136L574.136 425.138Z" fill="black"/>
<path d="M577.173 421.295C577.278 421.253 577.407 421.308 577.562 421.461C578.166 423.042 578.621 424.217 578.928 424.984L582.022 432.726C582.021 432.789 582 432.85 581.962 432.901C581.925 432.952 581.873 432.991 581.814 433.012C581.707 433.026 581.573 432.961 581.412 432.816L576.983 421.734C576.979 421.652 576.994 421.569 577.026 421.493C577.059 421.416 577.109 421.349 577.173 421.295ZM578.039 420.914L580.667 419.863C580.959 419.849 581.248 419.8 581.528 419.715C582.381 419.63 583.233 419.876 583.908 420.4C584.284 420.785 584.595 421.226 584.832 421.709L584.887 421.847C585.129 422.52 585.177 423.247 585.024 423.946C584.85 424.435 584.572 424.881 584.209 425.253C583.846 425.625 583.407 425.915 582.921 426.101L580.535 427.055C580.317 427.105 580.177 427.054 580.116 426.901C580.114 426.784 580.152 426.67 580.225 426.578L582.648 425.609C583.264 425.439 583.797 425.048 584.145 424.512C584.493 423.976 584.631 423.332 584.534 422.702C584.488 422.458 584.418 422.219 584.325 421.988C584.153 421.437 583.793 420.962 583.308 420.646C582.823 420.33 582.243 420.192 581.666 420.254C581.294 420.315 580.929 420.416 580.579 420.556L578.265 421.481C578.228 421.502 578.187 421.515 578.144 421.517C578.101 421.519 578.058 421.51 578.02 421.492C577.981 421.473 577.948 421.445 577.922 421.411C577.897 421.376 577.881 421.336 577.875 421.294L577.863 421.264C577.891 421.134 577.951 421.014 578.039 420.914Z" fill="black"/>
<path d="M587.382 417.214L587.588 417.132C587.643 417.133 587.695 417.151 587.738 417.185C587.78 417.218 587.811 417.265 587.824 417.317L592.198 428.26L598.659 425.677C598.695 425.656 598.735 425.643 598.776 425.64C598.818 425.637 598.859 425.644 598.897 425.661C598.935 425.677 598.969 425.702 598.995 425.734C599.021 425.765 599.04 425.803 599.049 425.843C599.056 425.919 599.04 425.995 599.002 426.06C598.964 426.126 598.906 426.177 598.836 426.208L592.229 428.849C592.064 428.915 591.891 428.851 591.71 428.658L587.281 417.576C587.304 417.353 587.338 417.232 587.382 417.214Z" fill="black"/>
<path d="M598.051 412.874L605.517 409.889C605.735 409.895 605.869 409.961 605.919 410.085C605.969 410.21 605.908 410.328 605.737 410.438L598.27 413.422C598.234 413.444 598.194 413.457 598.153 413.459C598.112 413.462 598.07 413.455 598.032 413.439C597.994 413.423 597.96 413.398 597.934 413.366C597.908 413.334 597.889 413.297 597.88 413.256C597.846 413.158 597.903 413.031 598.051 412.874ZM600.395 418.44L607.662 415.535C607.736 415.498 607.819 415.484 607.901 415.493C607.983 415.503 608.061 415.535 608.125 415.588L608.139 415.624C608.221 415.829 608.101 415.996 607.778 416.125L600.723 418.945C600.4 419.074 600.197 419.036 600.116 418.831L600.101 418.795C600.111 418.714 600.144 418.638 600.196 418.575C600.248 418.512 600.317 418.465 600.395 418.44ZM602.569 424.073L609.963 421.118C610.169 421.036 610.309 421.087 610.383 421.272C610.457 421.457 610.356 421.604 610.082 421.714L602.894 424.587C602.619 424.696 602.441 424.649 602.359 424.444C602.348 424.406 602.345 424.366 602.35 424.327C602.354 424.288 602.367 424.25 602.386 424.215C602.406 424.181 602.432 424.15 602.464 424.126C602.495 424.102 602.531 424.084 602.569 424.073Z" fill="black"/>
<path d="M598.473 413.928L605.939 410.944C606.157 410.95 606.291 411.016 606.341 411.14C606.391 411.265 606.33 411.382 606.159 411.493L598.692 414.477C598.656 414.498 598.616 414.511 598.575 414.514C598.534 414.517 598.492 414.51 598.454 414.494C598.416 414.478 598.382 414.453 598.356 414.421C598.33 414.389 598.311 414.351 598.302 414.311C598.274 414.229 598.331 414.101 598.473 413.928ZM600.817 419.494L608.084 416.59C608.158 416.553 608.241 416.539 608.323 416.548C608.405 416.557 608.483 416.59 608.547 416.642L608.561 416.678C608.643 416.883 608.523 417.05 608.2 417.18L601.145 419.999C600.822 420.128 600.619 420.09 600.538 419.885L600.525 419.855C600.534 419.774 600.567 419.696 600.618 419.632C600.67 419.568 600.739 419.521 600.817 419.494ZM602.991 425.128L610.385 422.173C610.591 422.09 610.731 422.142 610.805 422.326C610.879 422.511 610.778 422.659 610.504 422.768L603.316 425.641C603.041 425.751 602.863 425.704 602.781 425.499C602.77 425.461 602.767 425.421 602.772 425.381C602.776 425.342 602.789 425.304 602.809 425.27C602.828 425.235 602.854 425.205 602.886 425.181C602.917 425.156 602.953 425.138 602.991 425.128Z" fill="black"/>
<path d="M555.215 451.054C555.286 451.036 555.361 451.045 555.426 451.078C555.491 451.111 555.542 451.167 555.568 451.235C555.612 451.646 555.705 452.05 555.846 452.438L555.928 452.643C556.07 453.088 556.367 453.466 556.766 453.71C557.165 453.953 557.639 454.046 558.102 453.97C559.991 453.448 561.19 453.274 561.699 453.448C562.221 453.507 562.724 453.673 563.179 453.934C563.653 454.273 564.039 454.721 564.304 455.239C564.309 455.236 564.314 455.234 564.32 455.233C564.325 455.233 564.331 455.233 564.336 455.236C564.341 455.238 564.345 455.241 564.349 455.245C564.352 455.25 564.354 455.255 564.355 455.26L564.575 455.809C564.569 456.014 564.596 456.217 564.655 456.413C564.619 456.51 564.554 456.593 564.468 456.649C564.35 456.651 564.236 456.613 564.144 456.541C564.027 456.121 563.948 455.859 563.907 455.754C563.264 454.147 561.823 453.618 559.585 454.167C558.871 454.415 558.121 454.54 557.366 454.537C556.905 454.433 556.478 454.217 556.124 453.907C555.769 453.597 555.498 453.203 555.336 452.761C555.001 451.725 554.961 451.156 555.215 451.054ZM556.915 448.382L559.494 447.351C559.728 447.337 559.872 447.399 559.926 447.535L559.953 447.602C559.953 447.602 559.926 447.71 559.847 447.847L557.406 448.822C556.969 448.998 556.576 449.27 556.258 449.617C555.94 449.965 555.704 450.379 555.568 450.829L555.465 450.871C555.434 450.889 555.399 450.9 555.363 450.902C555.328 450.905 555.292 450.898 555.259 450.884C555.226 450.87 555.196 450.849 555.173 450.821C555.151 450.794 555.134 450.761 555.126 450.726C555.058 450.39 555.324 449.857 555.927 449.127C556.227 448.865 556.548 448.629 556.888 448.421C556.887 448.417 556.887 448.412 556.888 448.408C556.889 448.404 556.891 448.4 556.893 448.396C556.896 448.392 556.899 448.389 556.902 448.387C556.906 448.385 556.91 448.383 556.915 448.382ZM564.305 456.84C564.336 456.821 564.371 456.811 564.407 456.808C564.443 456.806 564.479 456.812 564.512 456.826C564.545 456.84 564.574 456.862 564.597 456.889C564.62 456.917 564.636 456.949 564.644 456.984L564.685 457.087C564.555 457.745 564.25 458.357 563.802 458.859C563.354 459.36 562.778 459.733 562.137 459.937L559.745 460.893C559.474 461.001 559.286 460.997 559.178 460.882L559.152 460.815C559.078 460.63 559.156 460.492 559.386 460.4L562.293 459.238C562.784 459.037 563.215 458.716 563.548 458.304C563.881 457.892 564.104 457.404 564.196 456.883L564.305 456.84Z" fill="black"/>
<path d="M570.063 443.764L570.475 443.6C571.546 443.242 572.691 443.17 573.797 443.39L573.934 443.539C573.989 443.675 573.928 443.793 573.752 443.891C572.678 443.687 571.568 443.775 570.539 444.147L570.4 444.203C568.535 444.949 567.418 446.441 567.049 448.682C566.96 449.594 567.087 450.513 567.419 451.366C567.776 452.258 568.363 453.041 569.12 453.634C569.878 454.227 570.779 454.611 571.734 454.745C572.614 454.891 573.517 454.81 574.357 454.508L574.702 454.37C575.685 453.945 576.534 453.26 577.156 452.39L577.192 452.375C577.192 452.375 577.301 452.402 577.437 452.48L577.471 452.564C577.584 452.846 577.066 453.425 575.919 454.303C575.576 454.557 575.199 454.762 574.799 454.912L574.733 454.938C572.617 455.784 570.556 455.442 568.55 453.913C567.846 453.289 567.295 452.512 566.94 451.641L566.899 451.539C566.095 449.529 566.41 447.539 567.841 445.568C568.444 444.816 569.202 444.201 570.063 443.764Z" fill="black"/>
<path d="M557.533 429.494L557.709 429.424C557.775 429.429 557.839 429.454 557.891 429.495C557.944 429.536 557.983 429.592 558.005 429.655L562.88 441.852C562.908 441.912 562.917 441.98 562.908 442.046C562.898 442.112 562.869 442.173 562.825 442.223L562.649 442.294C562.609 442.31 562.505 442.249 562.337 442.111L557.462 429.914C557.436 429.844 557.428 429.768 557.441 429.694C557.453 429.621 557.485 429.551 557.533 429.494Z" fill="black"/>
<path d="M558.714 429.021L558.89 428.951C558.956 428.957 559.02 428.982 559.072 429.023C559.125 429.064 559.164 429.119 559.186 429.182L564.061 441.379C564.088 441.44 564.098 441.507 564.088 441.573C564.078 441.639 564.05 441.701 564.005 441.751L563.83 441.821C563.789 441.837 563.685 441.776 563.518 441.638L558.643 429.441C558.616 429.371 558.609 429.296 558.621 429.222C558.634 429.148 558.666 429.079 558.714 429.021Z" fill="black"/>
<path d="M577.075 440.484L577.251 440.414C577.317 440.42 577.381 440.445 577.433 440.486C577.486 440.527 577.525 440.582 577.547 440.645L582.422 452.842C582.45 452.903 582.459 452.97 582.45 453.036C582.44 453.102 582.411 453.164 582.367 453.214L582.191 453.284C582.151 453.3 582.047 453.239 581.879 453.101L577.004 440.904C576.978 440.834 576.97 440.758 576.983 440.685C576.995 440.611 577.027 440.542 577.075 440.484Z" fill="black"/>
<path d="M578.25 440.015L578.425 439.945C578.492 439.951 578.555 439.976 578.608 440.017C578.661 440.058 578.7 440.113 578.722 440.176L583.596 452.373C583.624 452.434 583.634 452.501 583.624 452.567C583.614 452.633 583.586 452.695 583.541 452.745L583.366 452.815C583.325 452.831 583.221 452.77 583.054 452.632L578.179 440.435C578.152 440.365 578.145 440.29 578.157 440.216C578.17 440.142 578.202 440.073 578.25 440.015Z" fill="black"/>
<path d="M581.338 438.62L588.798 435.638C589.016 435.644 589.15 435.709 589.2 435.834C589.25 435.959 589.189 436.076 589.018 436.186L581.557 439.168C581.521 439.19 581.481 439.203 581.44 439.206C581.399 439.208 581.357 439.202 581.319 439.185C581.281 439.169 581.247 439.144 581.221 439.112C581.195 439.08 581.176 439.043 581.167 439.002C581.129 438.906 581.186 438.778 581.338 438.62ZM583.682 444.186L590.949 441.281C591.023 441.245 591.106 441.23 591.188 441.239C591.27 441.249 591.348 441.281 591.412 441.334L591.434 441.388C591.516 441.593 591.395 441.76 591.072 441.889L584.011 444.711C583.688 444.84 583.486 444.802 583.404 444.597L583.389 444.561C583.396 444.477 583.427 444.396 583.479 444.33C583.531 444.263 583.601 444.213 583.682 444.186ZM585.856 449.819L593.244 446.866C593.45 446.784 593.59 446.835 593.664 447.02C593.738 447.205 593.637 447.352 593.363 447.462L586.175 450.335C585.9 450.445 585.722 450.397 585.64 450.192C585.629 450.154 585.626 450.115 585.631 450.075C585.635 450.036 585.648 449.998 585.667 449.964C585.687 449.929 585.713 449.899 585.745 449.874C585.776 449.85 585.812 449.832 585.85 449.822L585.856 449.819Z" fill="black"/>
<path d="M581.807 439.796L589.268 436.814C589.486 436.82 589.62 436.885 589.669 437.01C589.719 437.134 589.659 437.252 589.487 437.362L582.027 440.344C581.991 440.366 581.951 440.378 581.91 440.381C581.868 440.384 581.827 440.377 581.789 440.361C581.751 440.345 581.717 440.32 581.691 440.288C581.664 440.256 581.646 440.219 581.637 440.178C581.599 440.082 581.655 439.954 581.807 439.796ZM584.151 445.361L591.418 442.457C591.492 442.42 591.576 442.406 591.658 442.415C591.74 442.424 591.818 442.457 591.882 442.509L591.896 442.546C591.978 442.751 591.858 442.918 591.535 443.047L584.473 445.869C584.15 445.998 583.948 445.96 583.866 445.755L583.852 445.719C583.862 445.637 583.896 445.56 583.949 445.496C584.002 445.433 584.072 445.386 584.151 445.361ZM586.326 450.995L593.714 448.042C593.92 447.96 594.06 448.011 594.133 448.196C594.207 448.381 594.107 448.528 593.833 448.638L586.644 451.511C586.37 451.621 586.192 451.573 586.11 451.368C586.099 451.33 586.096 451.29 586.1 451.251C586.105 451.212 586.118 451.174 586.137 451.139C586.157 451.105 586.183 451.075 586.214 451.05C586.245 451.026 586.281 451.008 586.32 450.998L586.326 450.995Z" fill="black"/>
<path d="M592.373 434.286C592.964 434.466 593.521 434.742 594.02 435.103L606.089 441.929C606.13 441.961 606.162 442.004 606.181 442.053C606.173 442.245 606.282 442.201 606.173 442.245C606.064 442.288 605.575 441.994 604.719 441.469L593.006 435.166L597.223 445.717C597.221 445.78 597.2 445.841 597.163 445.892C597.126 445.943 597.074 445.982 597.014 446.003C596.908 446.018 596.774 445.952 596.613 445.807L592.184 434.726C592.178 434.649 592.189 434.572 592.216 434.5C592.243 434.427 592.285 434.362 592.339 434.307L592.373 434.286ZM601.405 430.718C601.472 430.709 601.541 430.724 601.598 430.759C601.656 430.795 601.7 430.849 601.722 430.913L605.64 440.717C605.64 440.717 605.613 440.825 605.534 440.962L605.467 440.988C605.282 441.063 605.143 440.985 605.052 440.756L601.225 431.182C601.167 430.944 601.229 430.789 601.411 430.716L601.405 430.718Z" fill="black"/>
<path d="M610.515 427.594L610.927 427.43C611.998 427.072 613.144 427 614.25 427.221L614.386 427.369C614.441 427.505 614.38 427.623 614.204 427.721C613.13 427.517 612.021 427.605 610.991 427.977L610.852 428.033C608.987 428.779 607.859 430.267 607.467 432.497C607.378 433.409 607.505 434.329 607.838 435.181C608.193 436.08 608.782 436.869 609.544 437.466C610.306 438.063 611.213 438.448 612.174 438.58C613.058 438.727 613.966 438.643 614.809 438.338L615.155 438.2C616.138 437.775 616.986 437.09 617.608 436.22L617.644 436.205C617.644 436.205 617.753 436.232 617.89 436.31L617.923 436.394C618.036 436.676 617.518 437.255 616.371 438.134C616.028 438.387 615.651 438.592 615.252 438.742L615.185 438.768C613.07 439.614 611.009 439.272 609.002 437.743C608.298 437.119 607.747 436.342 607.392 435.471L607.351 435.369C606.548 433.359 606.862 431.369 608.294 429.398C608.897 428.646 609.654 428.031 610.515 427.594Z" fill="black"/>
<path d="M549.206 436.017C549.276 435.999 549.352 436.007 549.417 436.041C549.482 436.074 549.532 436.13 549.559 436.198C549.602 436.609 549.695 437.013 549.836 437.401L549.918 437.606C550.06 438.051 550.358 438.429 550.756 438.673C551.155 438.916 551.629 439.009 552.092 438.933C553.981 438.411 555.18 438.237 555.69 438.411C556.211 438.47 556.715 438.635 557.169 438.896C557.643 439.236 558.029 439.683 558.295 440.202C558.299 440.198 558.304 440.196 558.31 440.196C558.315 440.195 558.321 440.196 558.326 440.198C558.331 440.201 558.336 440.204 558.339 440.208C558.342 440.213 558.344 440.218 558.345 440.223L558.565 440.772C558.559 440.976 558.586 441.18 558.645 441.376C558.609 441.473 558.544 441.555 558.458 441.612C558.34 441.614 558.226 441.576 558.134 441.504C558.017 441.084 557.938 440.822 557.897 440.717C557.254 439.109 555.814 438.58 553.575 439.13C552.861 439.378 552.111 439.503 551.356 439.5C550.895 439.396 550.469 439.18 550.114 438.869C549.759 438.559 549.489 438.166 549.326 437.724C548.991 436.688 548.951 436.119 549.206 436.017ZM550.905 433.345L553.484 432.314C553.718 432.3 553.862 432.361 553.916 432.498L553.955 432.595C553.955 432.595 553.928 432.703 553.849 432.84L551.409 433.815C550.972 433.987 550.579 434.255 550.259 434.598C549.939 434.941 549.7 435.351 549.561 435.798L549.458 435.839C549.427 435.858 549.392 435.869 549.356 435.871C549.32 435.873 549.284 435.867 549.251 435.853C549.218 435.839 549.189 435.817 549.166 435.79C549.143 435.762 549.127 435.73 549.119 435.695C549.049 435.355 549.315 434.822 549.919 434.096C550.219 433.834 550.541 433.598 550.88 433.39C550.879 433.385 550.878 433.38 550.878 433.376C550.878 433.371 550.879 433.366 550.882 433.362C550.884 433.357 550.887 433.354 550.891 433.351C550.895 433.348 550.9 433.346 550.905 433.345ZM558.295 441.802C558.326 441.784 558.361 441.773 558.397 441.771C558.433 441.769 558.469 441.775 558.502 441.789C558.535 441.803 558.564 441.824 558.587 441.852C558.61 441.879 558.626 441.912 558.634 441.947L558.675 442.049C558.545 442.708 558.24 443.32 557.792 443.822C557.344 444.323 556.769 444.696 556.127 444.9L553.735 445.856C553.464 445.964 553.276 445.96 553.169 445.844L553.142 445.778C553.068 445.593 553.146 445.455 553.376 445.363L556.283 444.201C556.774 444 557.205 443.679 557.538 443.267C557.871 442.855 558.094 442.366 558.186 441.846L558.295 441.802Z" fill="black"/>
<path d="M555.685 452.231C555.756 452.213 555.831 452.221 555.896 452.254C555.961 452.288 556.012 452.344 556.038 452.411C556.082 452.822 556.175 453.227 556.316 453.615L556.397 453.82C556.54 454.265 556.837 454.643 557.236 454.886C557.635 455.13 558.109 455.222 558.571 455.147C560.46 454.625 561.659 454.451 562.169 454.625C562.691 454.684 563.194 454.849 563.648 455.11C564.123 455.45 564.508 455.897 564.774 456.415C564.779 456.412 564.784 456.41 564.789 456.41C564.795 456.409 564.8 456.41 564.806 456.412C564.811 456.414 564.815 456.418 564.818 456.422C564.822 456.426 564.824 456.432 564.825 456.437L565.044 456.986C565.039 457.19 565.066 457.394 565.124 457.59C565.089 457.687 565.023 457.769 564.937 457.826C564.82 457.828 564.705 457.79 564.613 457.717C564.497 457.298 564.418 457.036 564.376 456.931C563.734 455.323 562.293 454.794 560.055 455.344C559.341 455.592 558.591 455.717 557.836 455.714C557.375 455.61 556.948 455.393 556.594 455.083C556.239 454.773 555.968 454.379 555.805 453.938C555.471 452.902 555.431 452.333 555.685 452.231ZM557.384 449.559L559.964 448.528C560.197 448.514 560.341 448.575 560.396 448.712L560.422 448.778C560.422 448.778 560.395 448.887 560.317 449.023L557.876 449.999C557.437 450.179 557.045 450.456 556.729 450.809C556.412 451.162 556.18 451.582 556.05 452.036L555.947 452.077C555.916 452.096 555.881 452.107 555.845 452.109C555.809 452.111 555.773 452.105 555.74 452.091C555.707 452.077 555.678 452.055 555.655 452.028C555.632 452 555.616 451.968 555.608 451.933C555.539 451.597 555.806 451.064 556.409 450.334C556.709 450.072 557.03 449.836 557.37 449.628C557.365 449.627 557.361 449.625 557.357 449.622C557.353 449.62 557.35 449.616 557.347 449.613C557.345 449.609 557.343 449.604 557.342 449.6C557.341 449.595 557.341 449.591 557.342 449.586C557.343 449.582 557.345 449.577 557.348 449.574C557.351 449.57 557.354 449.566 557.358 449.564C557.362 449.561 557.366 449.56 557.371 449.559C557.375 449.558 557.38 449.558 557.384 449.559ZM564.775 458.016C564.806 457.998 564.841 457.987 564.876 457.985C564.912 457.982 564.948 457.989 564.981 458.003C565.014 458.017 565.043 458.038 565.066 458.066C565.089 458.093 565.106 458.126 565.113 458.161L565.154 458.263C565.025 458.922 564.72 459.534 564.272 460.036C563.823 460.537 563.248 460.909 562.606 461.114L560.214 462.07C559.944 462.178 559.755 462.174 559.648 462.058L559.622 461.992C559.548 461.807 559.626 461.669 559.856 461.577L562.763 460.415C563.253 460.214 563.685 459.893 564.018 459.481C564.351 459.069 564.574 458.58 564.666 458.06L564.775 458.016Z" fill="black"/>
<path d="M570.533 444.939L570.945 444.775C572.016 444.417 573.161 444.345 574.267 444.566L574.404 444.714C574.459 444.851 574.398 444.968 574.222 445.066C573.149 444.874 572.044 444.973 571.021 445.353L570.882 445.408C569.017 446.154 567.895 447.635 567.517 449.851C567.427 450.763 567.554 451.682 567.887 452.535C568.244 453.427 568.83 454.21 569.588 454.803C570.345 455.397 571.247 455.78 572.202 455.915C573.096 456.058 574.013 455.966 574.862 455.648L575.208 455.51C576.191 455.085 577.039 454.4 577.661 453.53L577.697 453.515C577.697 453.515 577.806 453.542 577.943 453.62L577.969 453.686C578.082 453.968 577.564 454.547 576.417 455.426C576.074 455.679 575.697 455.884 575.297 456.034L575.231 456.06C573.115 456.906 571.054 456.564 569.048 455.035C568.344 454.411 567.793 453.634 567.438 452.763L567.397 452.661C566.593 450.651 566.908 448.661 568.339 446.69C568.94 445.96 569.687 445.364 570.533 444.939Z" fill="black"/>
<path d="M610.986 428.771L611.397 428.606C612.469 428.248 613.614 428.176 614.72 428.397L614.857 428.545C614.911 428.682 614.85 428.799 614.674 428.897C613.602 428.705 612.496 428.804 611.474 429.184L611.335 429.239C609.469 429.985 608.341 431.473 607.95 433.704C607.861 434.616 607.987 435.535 608.32 436.388C608.679 437.28 609.268 438.061 610.027 438.652C610.786 439.244 611.689 439.625 612.645 439.757C613.539 439.9 614.456 439.808 615.305 439.49L615.65 439.352C616.633 438.927 617.482 438.242 618.104 437.372L618.14 437.357C618.14 437.357 618.249 437.384 618.385 437.462L618.412 437.528C618.524 437.81 618.007 438.389 616.86 439.268C616.517 439.521 616.14 439.726 615.74 439.876L615.674 439.902C613.558 440.748 611.497 440.406 609.491 438.877C608.786 438.253 608.236 437.476 607.88 436.605L607.839 436.503C607.036 434.493 607.35 432.503 608.782 430.532C609.384 429.797 610.135 429.197 610.986 428.771Z" fill="black"/>
<path d="M617.539 424.151L625.006 421.167C625.224 421.173 625.358 421.238 625.407 421.363C625.457 421.487 625.396 421.605 625.225 421.715L617.758 424.7C617.723 424.721 617.683 424.734 617.641 424.737C617.6 424.74 617.559 424.733 617.521 424.717C617.482 424.7 617.449 424.675 617.422 424.643C617.396 424.612 617.378 424.574 617.369 424.534C617.334 424.436 617.391 424.308 617.539 424.151ZM619.883 429.717L627.15 426.812C627.224 426.776 627.308 426.761 627.39 426.771C627.472 426.78 627.55 426.813 627.613 426.865L627.635 426.919C627.717 427.124 627.597 427.291 627.274 427.42L620.213 430.243C619.89 430.372 619.687 430.334 619.605 430.129L619.591 430.092C619.597 430.011 619.627 429.932 619.676 429.866C619.726 429.801 619.794 429.75 619.871 429.722L619.883 429.717ZM622.058 435.351L629.452 432.395C629.658 432.313 629.797 432.364 629.871 432.549C629.945 432.734 629.845 432.881 629.57 432.991L622.382 435.864C622.108 435.974 621.929 435.926 621.847 435.721C621.837 435.683 621.834 435.643 621.838 435.604C621.843 435.565 621.855 435.527 621.875 435.492C621.895 435.458 621.921 435.428 621.952 435.403C621.983 435.379 622.019 435.361 622.058 435.351Z" fill="black"/>
<path d="M618.009 425.327L625.476 422.342C625.694 422.349 625.827 422.414 625.877 422.539C625.927 422.663 625.866 422.781 625.695 422.891L618.228 425.875C618.193 425.897 618.153 425.91 618.111 425.913C618.07 425.916 618.028 425.909 617.99 425.892C617.952 425.876 617.919 425.851 617.892 425.819C617.866 425.787 617.848 425.75 617.839 425.709C617.804 425.611 617.861 425.484 618.009 425.327ZM620.353 430.893L627.62 427.988C627.694 427.952 627.777 427.937 627.86 427.946C627.942 427.956 628.02 427.988 628.083 428.041L628.098 428.077C628.18 428.282 628.059 428.449 627.736 428.578L620.675 431.4C620.352 431.529 620.15 431.491 620.068 431.286L620.053 431.25C620.063 431.171 620.096 431.095 620.147 431.033C620.197 430.971 620.265 430.924 620.341 430.898L620.353 430.893ZM622.527 436.526L629.922 433.571C630.127 433.489 630.267 433.54 630.341 433.725C630.415 433.91 630.315 434.057 630.04 434.167L622.852 437.04C622.578 437.15 622.399 437.102 622.317 436.897C622.307 436.859 622.303 436.819 622.308 436.78C622.313 436.741 622.325 436.703 622.345 436.668C622.364 436.634 622.391 436.603 622.422 436.579C622.453 436.555 622.489 436.537 622.527 436.526Z" fill="black"/>
<path d="M647.888 420.922C647.431 420.873 646.969 420.928 646.536 421.082C646.103 421.236 645.709 421.485 645.385 421.81C642.281 421.652 641.713 424.676 641.713 424.676C640.567 424.498 639.996 426.216 639.996 426.216C639.996 426.216 639.536 428.175 641.056 428.868C641.69 429.136 642.239 429.568 642.646 430.121C642.737 430.085 642.875 430.078 642.971 430.075C643.647 429.728 643.922 429.695 644.586 429.283C645.264 429.081 645.55 428.743 646.295 427.9C646.449 427.722 646.619 427.559 646.802 427.411C647.044 427.104 647.253 426.772 647.425 426.421C647.503 426.175 647.602 425.936 647.722 425.708C647.902 425.348 648.023 424.962 648.08 424.565C648.162 424.24 648.225 423.911 648.27 423.58C648.244 423.399 648.235 423.215 648.24 423.032C648.229 422.477 648.166 422.09 648.207 421.647C648.126 421.395 648.02 421.152 647.888 420.922Z" fill="#EB9237" stroke="black" stroke-width="0.75" stroke-miterlimit="10"/>
<path d="M642.682 425.1C642.682 425.1 644.606 423.254 645.353 422.997C646.101 422.741 644.057 423.005 644.057 423.005C644.057 423.005 643.286 421.251 643.732 420.751C644.178 420.251 642.924 420.626 642.924 420.626C642.924 420.626 642.514 422.412 643.125 423.343C643.111 423.327 642.441 424.777 642.682 425.1Z" fill="#847F29" stroke="black" stroke-width="0.75" stroke-miterlimit="10"/>
<path d="M646.563 427.56C649.044 424.445 648.604 419.982 645.579 417.591C642.555 415.2 638.091 415.787 635.609 418.903C633.128 422.018 633.568 426.481 636.592 428.872C639.617 431.263 644.081 430.676 646.563 427.56Z" stroke="black" stroke-width="0.75" stroke-miterlimit="10"/>
<path d="M588.992 418.2L589.198 418.118C589.252 418.119 589.305 418.138 589.347 418.171C589.39 418.205 589.42 418.251 589.433 418.304L593.81 429.252L600.271 426.67C600.307 426.648 600.347 426.636 600.388 426.633C600.429 426.63 600.471 426.637 600.509 426.653C600.547 426.669 600.581 426.694 600.607 426.726C600.633 426.758 600.652 426.795 600.66 426.836C600.668 426.911 600.652 426.987 600.614 427.052C600.576 427.118 600.518 427.17 600.448 427.2L593.841 429.841C593.676 429.907 593.503 429.844 593.322 429.65L588.891 418.562C588.914 418.339 588.947 418.218 588.992 418.2Z" fill="black"/>
<path d="M578.57 422.365C578.675 422.323 578.805 422.379 578.959 422.531C579.563 424.113 580.019 425.287 580.325 426.055L583.42 433.796C583.418 433.859 583.397 433.92 583.36 433.971C583.322 434.023 583.271 434.061 583.211 434.082C583.104 434.097 582.971 434.032 582.809 433.886L578.39 422.829C578.384 422.752 578.395 422.675 578.422 422.603C578.449 422.531 578.491 422.465 578.546 422.41L578.57 422.365ZM579.421 421.983L582.05 420.933C582.342 420.921 582.632 420.873 582.913 420.79C583.766 420.706 584.618 420.951 585.293 421.475C585.663 421.863 585.968 422.308 586.199 422.791L586.254 422.93C586.496 423.602 586.544 424.33 586.391 425.029C586.218 425.516 585.942 425.96 585.581 426.331C585.22 426.702 584.783 426.992 584.3 427.179L581.914 428.133C581.694 428.179 581.554 428.128 581.495 427.979C581.493 427.862 581.531 427.747 581.604 427.655L584.027 426.687C584.639 426.513 585.166 426.122 585.51 425.588C585.854 425.054 585.991 424.413 585.894 423.787C585.849 423.543 585.779 423.304 585.686 423.073C585.513 422.522 585.154 422.047 584.669 421.731C584.184 421.415 583.604 421.277 583.027 421.339C582.654 421.391 582.288 421.483 581.936 421.614L579.641 422.532C579.605 422.553 579.565 422.566 579.524 422.569C579.482 422.572 579.441 422.565 579.403 422.549C579.365 422.532 579.331 422.507 579.305 422.476C579.278 422.444 579.26 422.406 579.251 422.366L579.242 422.342C579.271 422.211 579.334 422.089 579.424 421.989L579.421 421.983Z" fill="black"/>
<path d="M594.199 435.2C594.79 435.38 595.347 435.656 595.846 436.017L607.915 442.843C607.956 442.875 607.988 442.918 608.007 442.967C607.995 443.158 607.934 443.276 607.825 443.319C607.716 443.363 607.215 443.111 606.322 442.564L594.839 436.098L599.047 446.625C599.045 446.688 599.024 446.749 598.987 446.8C598.95 446.851 598.898 446.89 598.838 446.911C598.731 446.926 598.598 446.86 598.437 446.715L594.007 435.634C594.002 435.557 594.013 435.48 594.04 435.408C594.067 435.335 594.109 435.27 594.163 435.215L594.199 435.2ZM603.231 431.632C603.298 431.623 603.367 431.638 603.425 431.673C603.482 431.709 603.526 431.763 603.548 431.828L607.464 441.625C607.464 441.625 607.437 441.733 607.358 441.87L607.291 441.896C607.105 441.971 606.967 441.893 606.875 441.664L603.039 432.066C602.989 431.848 603.053 431.703 603.231 431.632Z" fill="black"/>
</g>
<defs>
<filter id="filter0_d" x="0.318344" y="0.330078" width="685.368" height="659.624" filterUnits="userSpaceOnUse" color-interpolation-filters="sRGB">
<feFlood flood-opacity="0" result="BackgroundImageFix"/>
<feColorMatrix in="SourceAlpha" type="matrix" values="0 0 0 0 0 0 0 0 0 0 0 0 0 0 0 0 0 0 127 0"/>
<feOffset dx="-35" dy="4"/>
<feGaussianBlur stdDeviation="10"/>
<feColorMatrix type="matrix" values="0 0 0 0 0 0 0 0 0 0 0 0 0 0 0 0 0 0 0.1 0"/>
<feBlend mode="normal" in2="BackgroundImageFix" result="effect1_dropShadow"/>
<feBlend mode="normal" in="SourceGraphic" in2="effect1_dropShadow" result="shape"/>
</filter>
<clipPath id="clip0">
<rect width="98.0326" height="32.8991" fill="white" transform="translate(547.473 433.088) rotate(-21.786)"/>
</clipPath>
</defs>
</svg>
