<svg width="347" height="606" viewBox="0 0 347 606" fill="none" xmlns="http://www.w3.org/2000/svg">
<path d="M193.416 327.87C191.694 418.3 151.527 512.5 86.2127 553.223C-108.196 657.947 -44.9733 251.308 -35.9733 261C-28.7733 268.754 33.7412 257.77 64.0985 251.308C89.7196 252.711 140.565 200.69 162.784 174.504C182.143 144.252 200.466 113.319 206.527 106.5C214.527 97.5 245.053 80.9685 261.301 64.7051C295.957 37.9776 317.304 37.5432 336.412 67.7051C355.519 97.8671 302.432 182.453 280.622 191.065C258.812 199.677 238.959 223.677 227.828 234.477C218.923 243.117 201.176 300.339 193.416 327.87Z" fill="url(#paint0_linear)" stroke="black"/>
<path d="M265.5 119.5C272.5 127 283.171 129.843 290.5 129.5L296.5 127.5L302 123.5L306.5 119.5L312.5 113.5L316.5 109.5L321.5 104L328 92.4999C334 69.5 303.754 49.6696 285.499 53.2823C270.896 56.1724 253 80.9997 252.028 95.4995L253.5 102L256 108L260.5 113.5L265.5 119.5Z" fill="url(#paint1_linear)" stroke="black"/>
<defs>
<linearGradient id="paint0_linear" x1="171.014" y1="25.8936" x2="93.1211" y2="580.132" gradientUnits="userSpaceOnUse">
<stop stop-color="#FFF3EE"/>
<stop offset="0.979167" stop-color="#F5DED5"/>
</linearGradient>
<linearGradient id="paint1_linear" x1="295.59" y1="53.4987" x2="285.649" y2="124.229" gradientUnits="userSpaceOnUse">
<stop offset="0.34375" stop-color="#FCEDE7"/>
<stop offset="1" stop-color="#FFE1D7"/>
</linearGradient>
</defs>
</svg>
