<svg width="1280" height="3650" viewBox="0 0 1280 3650" fill="none" xmlns="http://www.w3.org/2000/svg">
<rect x="-98" y="-20" width="1398" height="4730" fill="#E0D3BD"/>
<ellipse cx="1162.5" cy="2488.5" rx="17.5" ry="76.5" fill="#D9CEB9"/>
<ellipse cx="39.5" cy="306.5" rx="30.5" ry="76.5" fill="#D9CEB9"/>
<ellipse cx="1161.5" cy="305.5" rx="30.5" ry="76.5" fill="#D9CEB9"/>
<ellipse cx="1159" cy="1539.5" rx="15" ry="76.5" fill="#D9CEB9"/>
<ellipse cx="38.5" cy="2483.5" rx="14.5" ry="76.5" fill="#D9CEB9"/>
<ellipse cx="507.054" cy="1698.69" rx="24.7022" ry="76.5" transform="rotate(10.3574 507.054 1698.69)" fill="#D9CEB9"/>
<path d="M-86 -20L-81.5 4710H-68.5C-70.5 4671.33 -72.4 4587 -64 4559C-55.6 4531 -63.5 4470.33 -68.5 4443.5V4294.5C-70 4236.17 -72.1 4114.9 -68.5 4096.5C-64 4073.5 -62.5 3890.5 -68.5 3871C-74.5 3851.5 -68.5 3689 -68.5 3681C-68.5 3673 -63 3597.5 -68.5 3577.5C-74 3557.5 -67.5 3411 -64.5 3395C-61.5 3379 -60.5 3256 -64.5 3234C-68.5 3212 -71.5 2951.5 -64.5 2925.5C-57.5 2899.5 -74.5 2741.5 -71.5 2697C-68.5 2652.5 -56 2377.5 -66 2343.5C-74 2316.3 -69.3333 2243.5 -66 2210.5C-68.3333 2164.83 -71.6 2069.3 -66 2052.5C-60.4 2035.7 -63.6667 1831.83 -66 1732C-62.8333 1388.5 -58.4 697.6 -66 682C-73.6 666.4 -69.1667 576.167 -66 533C-63.1667 428.333 -59.2 215.4 -66 201C-72.8 186.6 -68.8333 47.6667 -66 -20H-53.5C-55.6667 43.8333 -58.7 183.8 -53.5 233C-48.3 282.2 -51.3333 472.167 -53.5 561C-55.8333 611.167 -57.5 720.1 -45.5 754.5C-33.5 788.9 -43.5 1062.17 -50 1194.5V1500.5C-55.3333 1581.67 -62 1757.7 -46 1812.5C-26 1881 -54 2081.5 -57 2090C-59.4 2096.8 -55 2261.83 -52.5 2343.5V2781C-54.8333 2867 -58.1 3044.2 -52.5 3065C-46.9 3085.8 -50.1667 3375.67 -52.5 3518C-49.6667 3618.17 -45.7 3852.9 -52.5 3990.5C-61 4162.5 -67.5 4150.5 -52.5 4359C-37.5 4567.5 -44.5 4634 -48.5 4663.5C-51.7 4687.1 -52.5 4704.33 -52.5 4710H-27.5C-29.6667 4678.33 -32.7 4604.7 -27.5 4563.5C-21 4512 -27.5 4483.5 -31 4461.5C-34.5 4439.5 -19 4337 -27.5 4290.5C-36 4244 -11.5 4157.5 -27.5 4123C-40.3 4095.4 -40.1667 3959.5 -38.5 3895V3577.5C-30.8333 3519.33 -17.8 3398 -27 3378C-36.2 3358 -38.5 3231.33 -38.5 3170.5C-33.3021 3081.83 -26.0251 2899 -38.5 2877C-50.9749 2855 -40.6979 2709.83 -34 2640L-38.5 2416.5V2145C-29.1667 2049.17 -13.3 1850.3 -24.5 1821.5C-35.7 1792.7 -43.5 1667.5 -46 1608.5C-40.6667 1551 -30.9 1433 -34.5 1421C-38.1 1409 -36 1191.67 -34.5 1084.5L-26 735.5C-34.6667 725.5 -49.4 682.6 -39 591C-28.6 499.4 -34.6667 431.5 -39 409V211V-20H-28.5L-18.5 1807.5C-10.5 1854.83 1.6 1972.8 -14 2066C-29.6 2159.2 -31.1667 2241.17 -30 2270.5L-0.5 4710H20.5L-14 -20H6.5C2.66667 39.1667 -2.7 166.2 6.5 201C18 244.5 -20 275.5 -3.5 346.5C13 417.5 16.5 543.5 6.5 574C-1.5 598.4 3.16667 825.167 6.5 935.5C13.0331 1083.17 23.1795 1388.1 11.5 1426.5C-0.17945 1464.9 6.63356 1628.83 11.5 1706V2165.5C8.66667 2292.83 6.8 2553.8 22 2579C41 2610.5 1 2658 11.5 2710C22 2762 22 2784.5 22 2855C22 2911.4 26 3224.5 28 3374C32.7003 3489.67 39.2808 3729.4 28 3763C13.899 3805 28 3912 28 3936C28 3960 54.5 4054.5 47 4096.5C41 4130.1 31.8333 4302.83 28 4385L37 4710H56C59.3333 4672.33 62.2 4561.7 47 4420.5C63.3333 4297.5 90.1 4039.3 66.5 3990.5C37 3929.5 40.5 3797.5 53.5 3732.5C63.9 3680.5 53.5 3444.5 47 3333L38.5 2877C30 2823.5 18.1 2685.7 38.5 2562.5C30 2565 16.3 2511.5 29.5 2277.5C46 1985 20.5 2003.5 29.5 1879C38.5 1754.5 53.8815 1639 29.5 1588C5.11846 1537 68.1208 1145 39.5 1095.5C10.8792 1046 16 656.5 22 637.5C28 618.5 50.0195 404 22 346.5C-0.4156 300.5 24.3268 251.667 39.5 233V-20" stroke="#F2E6D3" stroke-width="3"/>
<path d="M1285.81 -19L1281.31 4711H1268.31C1270.31 4672.33 1272.21 4588 1263.81 4560C1255.41 4532 1263.31 4471.33 1268.31 4444.5V4295.5C1269.81 4237.17 1271.91 4115.9 1268.31 4097.5C1263.81 4074.5 1262.31 3891.5 1268.31 3872C1274.31 3852.5 1268.31 3690 1268.31 3682C1268.31 3674 1262.81 3598.5 1268.31 3578.5C1273.81 3558.5 1267.31 3412 1264.31 3396C1261.31 3380 1260.31 3257 1264.31 3235C1268.31 3213 1271.31 2952.5 1264.31 2926.5C1257.31 2900.5 1274.31 2742.5 1271.31 2698C1268.31 2653.5 1255.81 2378.5 1265.81 2344.5C1273.81 2317.3 1269.15 2244.5 1265.81 2211.5C1268.15 2165.83 1271.41 2070.3 1265.81 2053.5C1260.21 2036.7 1263.48 1832.83 1265.81 1733C1262.65 1389.5 1258.21 698.6 1265.81 683C1273.41 667.4 1268.98 577.167 1265.81 534C1262.98 429.333 1259.01 216.4 1265.81 202C1272.61 187.6 1268.65 48.6667 1265.81 -19H1253.31C1255.48 44.8333 1258.51 184.8 1253.31 234C1248.11 283.2 1251.15 473.167 1253.31 562C1255.65 612.167 1257.31 721.1 1245.31 755.5C1233.31 789.9 1243.31 1063.17 1249.81 1195.5V1501.5C1255.15 1582.67 1261.81 1758.7 1245.81 1813.5C1225.81 1882 1253.81 2082.5 1256.81 2091C1259.21 2097.8 1254.81 2262.83 1252.31 2344.5V2782C1254.65 2868 1257.91 3045.2 1252.31 3066C1246.71 3086.8 1249.98 3376.67 1252.31 3519C1249.48 3619.17 1245.51 3853.9 1252.31 3991.5C1260.81 4163.5 1267.31 4151.5 1252.31 4360C1237.31 4568.5 1244.31 4635 1248.31 4664.5C1251.51 4688.1 1252.31 4705.33 1252.31 4711H1227.31C1229.48 4679.33 1232.51 4605.7 1227.31 4564.5C1220.81 4513 1227.31 4484.5 1230.81 4462.5C1234.31 4440.5 1218.81 4338 1227.31 4291.5C1235.81 4245 1211.31 4158.5 1227.31 4124C1240.11 4096.4 1239.98 3960.5 1238.31 3896V3578.5C1230.65 3520.33 1217.61 3399 1226.81 3379C1236.01 3359 1238.31 3232.33 1238.31 3171.5C1233.11 3082.83 1225.84 2900 1238.31 2878C1250.79 2856 1240.51 2710.83 1233.81 2641L1238.31 2417.5V2146C1228.98 2050.17 1213.11 1851.3 1224.31 1822.5C1235.51 1793.7 1243.31 1668.5 1245.81 1609.5C1240.48 1552 1230.71 1434 1234.31 1422C1237.91 1410 1235.81 1192.67 1234.31 1085.5L1225.81 736.5C1234.48 726.5 1249.21 683.6 1238.81 592C1228.41 500.4 1234.48 432.5 1238.81 410V212V-19H1228.31L1218.31 1808.5C1210.31 1855.83 1198.21 1973.8 1213.81 2067C1229.41 2160.2 1230.98 2242.17 1229.81 2271.5L1200.31 4711H1179.31L1213.81 -19H1193.31C1197.15 40.1667 1202.51 167.2 1193.31 202C1181.81 245.5 1219.81 276.5 1203.31 347.5C1186.81 418.5 1183.31 544.5 1193.31 575C1201.31 599.4 1196.65 826.167 1193.31 936.5C1186.78 1084.17 1176.63 1389.1 1188.31 1427.5C1199.99 1465.9 1193.18 1629.83 1188.31 1707V2166.5C1191.15 2293.83 1193.01 2554.8 1177.81 2580C1158.81 2611.5 1198.81 2659 1188.31 2711C1177.81 2763 1177.81 2785.5 1177.81 2856C1177.81 2912.4 1173.81 3225.5 1171.81 3375C1167.11 3490.67 1160.53 3730.4 1171.81 3764C1185.91 3806 1171.81 3913 1171.81 3937C1171.81 3961 1145.31 4055.5 1152.81 4097.5C1158.81 4131.1 1167.98 4303.83 1171.81 4386L1162.81 4711H1143.81C1140.48 4673.33 1137.61 4562.7 1152.81 4421.5C1136.48 4298.5 1109.71 4040.3 1133.31 3991.5C1162.81 3930.5 1159.31 3798.5 1146.31 3733.5C1135.91 3681.5 1146.31 3445.5 1152.81 3334L1161.31 2878C1169.81 2824.5 1181.71 2686.7 1161.31 2563.5C1169.81 2566 1183.51 2512.5 1170.31 2278.5C1153.81 1986 1179.31 2004.5 1170.31 1880C1161.31 1755.5 1145.93 1640 1170.31 1589C1194.69 1538 1131.69 1146 1160.31 1096.5C1188.93 1047 1183.81 657.5 1177.81 638.5C1171.81 619.5 1149.79 405 1177.81 347.5C1200.23 301.5 1175.49 252.667 1160.31 234V-19" stroke="#F2E6D3" stroke-width="3"/>
<ellipse cx="354.5" cy="2955.5" rx="54.5" ry="76.5" fill="#D9CEB9"/>
<ellipse cx="313.5" cy="964" rx="30.5" ry="240" fill="#D9CEB9"/>
<path d="M184 -19L188.505 5111H201.52C199.518 5069.06 197.616 4977.6 206.025 4947.23C214.435 4916.86 206.526 4851.07 201.52 4821.96V4660.36C200.018 4597.1 197.916 4465.57 201.52 4445.62C206.025 4420.67 207.527 4222.2 201.52 4201.05C195.513 4179.9 201.52 4003.66 201.52 3994.98C201.52 3986.3 207.027 3904.42 201.52 3882.73C196.014 3861.04 202.521 3702.15 205.525 3684.79C208.528 3667.44 209.529 3534.04 205.525 3510.18C201.52 3486.32 198.517 3203.79 205.525 3175.59C212.533 3147.39 195.513 2976.03 198.517 2927.77C201.52 2879.5 214.035 2581.25 204.023 2544.37C196.014 2514.87 200.686 2435.92 204.023 2400.13C201.687 2350.6 198.417 2246.98 204.023 2228.76C209.63 2210.54 206.359 1989.44 204.023 1881.16C207.193 1508.61 211.632 759.285 204.023 742.366C196.414 725.447 200.853 627.582 204.023 580.765C206.86 467.247 210.831 236.307 204.023 220.689C197.215 205.071 201.187 54.389 204.023 -19H216.538C214.368 50.2315 211.332 202.035 216.538 255.395C221.744 308.756 218.707 514.788 216.538 611.133C214.202 665.542 212.533 783.688 224.547 820.997C236.561 858.306 226.549 1154.68 220.042 1298.21V1630.08C214.702 1718.11 208.028 1909.03 224.046 1968.47C244.069 2042.76 216.037 2260.22 213.034 2269.44C210.631 2276.81 215.036 2455.8 217.539 2544.37V3018.87C215.203 3112.14 211.932 3304.33 217.539 3326.89C223.145 3349.45 219.875 3663.83 217.539 3818.2C220.375 3926.83 224.347 4181.42 217.539 4330.65C209.029 4517.2 202.521 4504.18 217.539 4730.32C232.556 4956.45 225.548 5028.57 221.543 5060.57C218.34 5086.16 217.539 5104.85 217.539 5111H242.568C240.398 5076.66 237.362 4996.8 242.568 4952.11C249.075 4896.26 242.568 4865.35 239.064 4841.49C235.56 4817.62 251.077 4706.46 242.568 4656.02C234.058 4605.59 258.586 4511.78 242.568 4474.36C229.753 4444.43 229.886 4297.03 231.555 4227.08V3882.73C239.23 3819.64 252.279 3688.05 243.068 3666.36C233.858 3644.67 231.555 3507.29 231.555 3441.31C236.759 3345.14 244.044 3146.85 231.555 3122.99C219.066 3099.13 229.354 2941.69 236.06 2865.95L231.555 2623.55V2329.09C240.899 2225.15 256.784 2009.46 245.571 1978.23C234.358 1946.99 226.549 1811.21 224.046 1747.22C229.386 1684.85 239.164 1556.88 235.56 1543.86C231.955 1530.85 234.058 1295.13 235.56 1178.9L244.069 800.39C235.393 789.544 220.642 743.016 231.054 643.67C241.466 544.324 235.393 470.682 231.054 446.279V231.535V-19H241.566L251.578 1963.05C259.587 2014.38 271.701 2142.32 256.083 2243.41C240.465 2344.49 238.897 2433.39 240.065 2465.2L269.599 5111H290.623L256.083 -19H276.607C272.769 45.1702 267.396 182.946 276.607 220.689C288.12 267.868 250.076 301.489 266.595 378.494C283.114 455.498 286.618 592.153 276.607 625.233C268.598 651.696 273.27 897.64 276.607 1017.3C283.148 1177.46 293.306 1508.18 281.613 1549.83C269.92 1591.47 276.741 1769.27 281.613 1852.96V2351.32C278.776 2489.42 276.907 2772.46 292.125 2799.79C311.147 2833.95 271.101 2885.47 281.613 2941.87C292.125 2998.26 292.125 3022.67 292.125 3099.13C292.125 3160.3 296.129 3499.88 298.132 3662.02C302.837 3787.47 309.426 4047.47 298.132 4083.92C284.014 4129.47 298.132 4245.52 298.132 4271.55C298.132 4297.58 324.662 4400.07 317.154 4445.62C311.147 4482.06 301.969 4669.4 298.132 4758.52L307.142 5111H326.164C329.501 5070.15 332.371 4950.16 317.154 4797.02C333.506 4663.62 360.303 4383.58 336.676 4330.65C307.142 4264.5 310.646 4121.33 323.661 4050.84C334.073 3994.44 323.661 3738.48 317.154 3617.55L308.644 3122.99C300.134 3064.97 288.22 2915.51 308.644 2781.89C300.134 2784.6 286.418 2726.58 299.633 2472.79C316.153 2155.56 290.623 2175.62 299.633 2040.59C308.644 1905.56 324.043 1780.3 299.633 1724.98C275.224 1669.67 338.299 1244.52 309.645 1190.83C280.991 1137.15 286.118 714.709 292.125 694.103C298.132 673.496 320.177 440.856 292.125 378.494C269.683 328.604 294.454 275.641 309.645 255.395V-19" stroke="#F2E6D3" stroke-width="3"/>
<path d="M476 5110L471.495 -20H458.48C460.482 21.9366 462.384 113.402 453.975 143.77C445.565 174.137 453.474 239.934 458.48 269.037V430.637C459.982 493.904 462.084 625.426 458.48 645.382C453.975 670.327 452.473 868.802 458.48 889.951C464.487 911.1 458.48 1087.34 458.48 1096.02C458.48 1104.7 452.973 1186.58 458.48 1208.27C463.986 1229.96 457.479 1388.85 454.475 1406.21C451.472 1423.56 450.471 1556.96 454.475 1580.82C458.48 1604.68 461.483 1887.21 454.475 1915.41C447.467 1943.61 464.487 2114.97 461.483 2163.23C458.48 2211.5 445.965 2509.75 455.977 2546.63C463.986 2576.13 459.314 2655.08 455.977 2690.87C458.313 2740.4 461.583 2844.02 455.977 2862.24C450.37 2880.46 453.641 3101.56 455.977 3209.84C452.807 3582.39 448.368 4331.72 455.977 4348.63C463.586 4365.55 459.147 4463.42 455.977 4510.23C453.14 4623.75 449.169 4854.69 455.977 4870.31C462.785 4885.93 458.813 5036.61 455.977 5110H443.462C445.632 5040.77 448.668 4888.97 443.462 4835.6C438.256 4782.24 441.293 4576.21 443.462 4479.87C445.798 4425.46 447.467 4307.31 435.453 4270C423.439 4232.69 433.451 3936.32 439.958 3792.79V3460.92C445.298 3372.89 451.972 3181.97 435.954 3122.53C415.931 3048.24 443.963 2830.78 446.966 2821.56C449.369 2814.19 444.964 2635.2 442.461 2546.63L442.461 2072.13C444.797 1978.86 448.068 1786.67 442.461 1764.11C436.855 1741.55 440.125 1427.17 442.461 1272.8C439.625 1164.17 435.653 909.582 442.461 760.346C450.971 573.8 457.479 586.815 442.461 360.683C427.444 134.551 434.452 62.4271 438.457 30.4324C441.66 4.83659 442.461 -13.8541 442.461 -20H417.432C419.602 14.3446 422.638 94.2049 417.432 138.889C410.925 194.744 417.432 225.654 420.936 249.515C424.44 273.375 408.923 384.543 417.432 434.976C425.942 485.408 401.414 579.223 417.432 616.641C430.247 646.575 430.114 793.967 428.445 863.922L428.445 1208.27C420.77 1271.36 407.721 1402.95 416.932 1424.64C426.142 1446.33 428.445 1583.71 428.445 1649.69C423.241 1745.86 415.956 1944.15 428.445 1968.01C440.934 1991.87 430.646 2149.31 423.94 2225.05L428.445 2467.45V2761.91C419.101 2865.85 403.216 3081.54 414.429 3112.77C425.642 3144.01 433.451 3279.79 435.954 3343.78C430.614 3406.15 420.836 3534.12 424.44 3547.14C428.045 3560.15 425.942 3795.87 424.44 3912.1L415.931 4290.61C424.607 4301.46 439.358 4347.98 428.946 4447.33C418.534 4546.68 424.607 4620.32 428.946 4644.72L428.946 4859.47V5110H418.434L408.422 3127.95C400.413 3076.62 388.299 2948.68 403.917 2847.59C419.535 2746.51 421.103 2657.61 419.935 2625.8L390.401 -20H369.377L403.917 5110H383.393C387.231 5045.83 392.604 4908.05 383.393 4870.31C371.88 4823.13 409.924 4789.51 393.405 4712.51C376.886 4635.5 373.382 4498.85 383.393 4465.77C391.402 4439.3 386.73 4193.36 383.393 4073.7C376.852 3913.54 366.694 3582.82 378.387 3541.17C390.08 3499.53 383.259 3321.73 378.387 3238.04L378.387 2739.68C381.224 2601.58 383.093 2318.54 367.875 2291.21C348.853 2257.05 388.899 2205.53 378.387 2149.13C367.875 2092.74 367.875 2068.33 367.875 1991.87C367.875 1930.7 363.871 1591.12 361.868 1428.98C357.163 1303.53 350.574 1043.53 361.868 1007.08C375.986 961.533 361.868 845.484 361.868 819.455C361.868 793.425 335.338 690.933 342.846 645.382C348.853 608.94 358.031 421.599 361.868 332.484L352.858 -20H333.836C330.499 20.852 327.629 140.841 342.846 293.982C326.494 427.384 299.697 707.419 323.324 760.346C352.858 826.504 349.354 969.667 336.339 1040.16C325.927 1096.56 336.339 1352.52 342.846 1473.45L351.356 1968.01C359.866 2026.03 371.78 2175.49 351.356 2309.11C359.866 2306.4 373.582 2364.42 360.367 2618.21C343.847 2935.44 369.377 2915.38 360.367 3050.41C351.356 3185.44 335.957 3310.7 360.367 3366.02C384.776 3421.33 321.701 3846.48 350.355 3900.17C379.009 3953.85 373.882 4376.29 367.875 4396.9C361.868 4417.5 339.823 4650.14 367.875 4712.51C390.317 4762.4 365.546 4815.36 350.355 4835.6V5110" stroke="#F2E6D3" stroke-width="3"/>
<path d="M802 4710L797.495 -20H784.48C786.482 18.6667 788.384 103 779.975 131C771.565 159 779.474 219.667 784.48 246.5L784.48 395.5C785.982 453.833 788.084 575.1 784.48 593.5C779.975 616.5 778.473 799.5 784.48 819C790.487 838.5 784.48 1001 784.48 1009C784.48 1017 778.973 1092.5 784.48 1112.5C789.986 1132.5 783.479 1279 780.475 1295C777.472 1311 776.471 1434 780.475 1456C784.48 1478 787.483 1738.5 780.475 1764.5C773.467 1790.5 790.487 1948.5 787.483 1993C784.48 2037.5 771.965 2312.5 781.977 2346.5C789.986 2373.7 785.314 2446.5 781.977 2479.5C784.313 2525.17 787.583 2620.7 781.977 2637.5C776.37 2654.3 779.641 2858.17 781.977 2958C778.807 3301.5 774.368 3992.4 781.977 4008C789.586 4023.6 785.147 4113.83 781.977 4157C779.14 4261.67 775.169 4474.6 781.977 4489C788.785 4503.4 784.813 4642.33 781.977 4710H769.462C771.632 4646.17 774.668 4506.2 769.462 4457C764.256 4407.8 767.293 4217.83 769.462 4129C771.798 4078.83 773.467 3969.9 761.453 3935.5C749.439 3901.1 759.451 3627.83 765.958 3495.5L765.958 3189.5C771.298 3108.33 777.972 2932.3 761.954 2877.5C741.931 2809 769.963 2608.5 772.966 2600C775.369 2593.2 770.964 2428.17 768.461 2346.5L768.461 1909C770.797 1823 774.068 1645.8 768.461 1625C762.855 1604.2 766.125 1314.33 768.461 1172C765.625 1071.83 761.653 837.1 768.461 699.5C776.971 527.5 783.479 539.5 768.461 331C753.444 122.5 760.452 56 764.457 26.5C767.66 2.9 768.461 -14.3333 768.461 -20H743.432C745.602 11.6667 748.638 85.3 743.432 126.5C736.925 178 743.432 206.5 746.936 228.5C750.44 250.5 734.923 353 743.432 399.5C751.942 446 727.414 532.5 743.432 567C756.247 594.6 756.114 730.5 754.445 795V1112.5C746.77 1170.67 733.721 1292 742.932 1312C752.142 1332 754.445 1458.67 754.445 1519.5C749.241 1608.17 741.956 1791 754.445 1813C766.934 1835 756.646 1980.17 749.94 2050L754.445 2273.5V2545C745.101 2640.83 729.216 2839.7 740.429 2868.5C751.642 2897.3 759.451 3022.5 761.954 3081.5C756.614 3139 746.836 3257 750.44 3269C754.045 3281 751.942 3498.33 750.44 3605.5L741.931 3954.5C750.607 3964.5 765.358 4007.4 754.946 4099C744.534 4190.6 750.607 4258.5 754.946 4281V4479V4710H744.434L734.422 2882.5C726.413 2835.17 714.299 2717.2 729.917 2624C745.535 2530.8 747.103 2448.83 745.935 2419.5L716.401 -20H695.377L729.917 4710H709.393C713.231 4650.83 718.604 4523.8 709.393 4489C697.88 4445.5 735.924 4414.5 719.405 4343.5C702.886 4272.5 699.382 4146.5 709.393 4116C717.402 4091.6 712.73 3864.83 709.393 3754.5C702.852 3606.83 692.694 3301.9 704.387 3263.5C716.08 3225.1 709.259 3061.17 704.387 2984V2524.5C707.224 2397.17 709.093 2136.2 693.875 2111C674.853 2079.5 714.899 2032 704.387 1980C693.875 1928 693.875 1905.5 693.875 1835C693.875 1778.6 689.871 1465.5 687.868 1316C683.163 1200.33 676.574 960.6 687.868 927C701.986 885 687.868 778 687.868 754C687.868 730 661.338 635.5 668.846 593.5C674.853 559.9 684.031 387.167 687.868 305L678.858 -20H659.836C656.499 17.6667 653.629 128.3 668.846 269.5C652.494 392.5 625.697 650.7 649.324 699.5C678.858 760.5 675.354 892.5 662.339 957.5C651.927 1009.5 662.339 1245.5 668.846 1357L677.356 1813C685.866 1866.5 697.78 2004.3 677.356 2127.5C685.866 2125 699.582 2178.5 686.367 2412.5C669.847 2705 695.377 2686.5 686.367 2811C677.356 2935.5 661.957 3051 686.367 3102C710.776 3153 647.701 3545 676.355 3594.5C705.009 3644 699.882 4033.5 693.875 4052.5C687.868 4071.5 665.823 4286 693.875 4343.5C716.317 4389.5 691.546 4438.33 676.355 4457V4710" stroke="#F2E6D3" stroke-width="3"/>
<path d="M822 4712L828.229 -18H846.225C843.457 20.6667 840.827 105 852.455 133C864.083 161 853.147 221.667 846.225 248.5L846.225 397.5C844.149 455.833 841.242 577.1 846.225 595.5C852.455 618.5 854.531 801.5 846.225 821C837.92 840.5 846.225 1003 846.225 1011C846.225 1019 853.839 1094.5 846.225 1114.5C838.612 1134.5 847.61 1281 851.763 1297C855.916 1313 857.3 1436 851.763 1458C846.225 1480 842.073 1740.5 851.763 1766.5C861.453 1792.5 837.92 1950.5 842.073 1995C846.225 2039.5 863.529 2314.5 849.686 2348.5C838.612 2375.7 845.072 2448.5 849.686 2481.5C846.456 2527.17 841.934 2622.7 849.686 2639.5C857.438 2656.3 852.916 2860.17 849.686 2960C854.07 3303.5 860.207 3994.4 849.686 4010C839.165 4025.6 845.303 4115.83 849.686 4159C853.608 4263.67 859.1 4476.6 849.686 4491C840.273 4505.4 845.764 4644.33 849.686 4712H866.99C863.991 4648.17 859.792 4508.2 866.99 4459C874.189 4409.8 869.99 4219.83 866.99 4131C863.76 4080.83 861.453 3971.9 878.065 3937.5C894.676 3903.1 880.833 3629.83 871.835 3497.5L871.835 3191.5C864.452 3110.33 855.224 2934.3 877.373 2879.5C905.059 2811 866.298 2610.5 862.145 2602C858.823 2595.2 864.914 2430.17 868.375 2348.5L868.375 1911C865.144 1825 860.622 1647.8 868.375 1627C876.127 1606.2 871.605 1316.33 868.375 1174C872.297 1073.83 877.788 839.1 868.375 701.5C856.608 529.5 847.61 541.5 868.375 333C889.139 124.5 879.449 58 873.912 28.5C869.482 4.9 868.375 -12.3333 868.375 -18H902.982C899.983 13.6667 895.784 87.3 902.982 128.5C911.98 180 902.982 208.5 898.137 230.5C893.292 252.5 914.749 355 902.982 401.5C891.216 448 925.131 534.5 902.982 569C885.263 596.6 885.448 732.5 887.755 797V1114.5C898.368 1172.67 916.41 1294 903.675 1314C890.939 1334 887.755 1460.67 887.755 1521.5C894.95 1610.17 905.024 1793 887.755 1815C870.486 1837 884.712 1982.17 893.984 2052L887.755 2275.5V2547C900.675 2642.83 922.64 2841.7 907.135 2870.5C891.631 2899.3 880.833 3024.5 877.373 3083.5C884.756 3141 898.276 3259 893.292 3271C888.309 3283 891.216 3500.33 893.292 3607.5L905.059 3956.5C893.061 3966.5 872.666 4009.4 887.063 4101C901.46 4192.6 893.061 4260.5 887.063 4283V4481V4712H901.598L915.441 2884.5C926.516 2837.17 943.266 2719.2 921.671 2626C900.075 2532.8 897.907 2450.83 899.522 2421.5L940.359 -18H969.429L921.671 4712H950.049C944.742 4652.83 937.313 4525.8 950.049 4491C965.969 4447.5 913.365 4416.5 936.206 4345.5C959.047 4274.5 963.892 4148.5 950.049 4118C938.975 4093.6 945.435 3866.83 950.049 3756.5C959.093 3608.83 973.139 3303.9 956.971 3265.5C940.803 3227.1 950.234 3063.17 956.971 2986V2526.5C953.048 2399.17 950.464 2138.2 971.506 2113C997.808 2081.5 942.435 2034 956.971 1982C971.506 1930 971.506 1907.5 971.506 1837C971.506 1780.6 977.043 1467.5 979.812 1318C986.318 1202.33 995.428 962.6 979.812 929C960.292 887 979.812 780 979.812 756C979.812 732 1016.5 637.5 1006.11 595.5C997.808 561.9 985.118 389.167 979.812 307L992.271 -18H1018.57C1023.19 19.6667 1027.16 130.3 1006.11 271.5C1028.72 394.5 1065.78 652.7 1033.11 701.5C992.271 762.5 997.116 894.5 1015.11 959.5C1029.51 1011.5 1015.11 1247.5 1006.11 1359L994.347 1815C982.58 1868.5 966.107 2006.3 994.347 2129.5C982.58 2127 963.615 2180.5 981.888 2414.5C1004.73 2707 969.429 2688.5 981.888 2813C994.347 2937.5 1015.64 3053 981.888 3104C948.137 3155 1035.35 3547 995.731 3596.5C956.111 3646 963.2 4035.5 971.506 4054.5C979.812 4073.5 1010.29 4288 971.506 4345.5C940.476 4391.5 974.727 4440.33 995.731 4459V4712" stroke="#F2E6D3" stroke-width="3"/>
<path d="M163.812 -19L159.312 4711H146.312C148.312 4672.33 150.212 4588 141.812 4560C133.413 4532 141.312 4471.33 146.312 4444.5V4295.5C147.812 4237.17 149.912 4115.9 146.312 4097.5C141.812 4074.5 140.312 3891.5 146.312 3872C152.312 3852.5 146.312 3690 146.312 3682C146.312 3674 140.812 3598.5 146.312 3578.5C151.812 3558.5 145.312 3412 142.312 3396C139.312 3380 138.312 3257 142.312 3235C146.312 3213 149.312 2952.5 142.312 2926.5C135.312 2900.5 152.312 2742.5 149.312 2698C146.312 2653.5 133.812 2378.5 143.812 2344.5C151.812 2317.3 147.146 2244.5 143.812 2211.5C146.146 2165.83 149.412 2070.3 143.812 2053.5C138.213 2036.7 141.479 1832.83 143.812 1733C140.646 1389.5 136.213 698.6 143.812 683C151.412 667.4 146.979 577.167 143.812 534C140.979 429.333 137.012 216.4 143.812 202C150.613 187.6 146.646 48.6667 143.812 -19H131.312C133.479 44.8333 136.512 184.8 131.312 234C126.113 283.2 129.146 473.167 131.312 562C133.646 612.167 135.312 721.1 123.312 755.5C111.312 789.9 121.312 1063.17 127.812 1195.5V1501.5C133.146 1582.67 139.812 1758.7 123.812 1813.5C103.812 1882 131.812 2082.5 134.812 2091C137.213 2097.8 132.812 2262.83 130.312 2344.5V2782C132.646 2868 135.912 3045.2 130.312 3066C124.713 3086.8 127.979 3376.67 130.312 3519C127.479 3619.17 123.512 3853.9 130.312 3991.5C138.812 4163.5 145.312 4151.5 130.312 4360C115.312 4568.5 122.312 4635 126.312 4664.5C129.513 4688.1 130.312 4705.33 130.312 4711H105.312C107.479 4679.33 110.512 4605.7 105.312 4564.5C98.8125 4513 105.312 4484.5 108.812 4462.5C112.312 4440.5 96.8125 4338 105.312 4291.5C113.812 4245 89.3125 4158.5 105.312 4124C118.113 4096.4 117.979 3960.5 116.312 3896V3578.5C108.646 3520.33 95.6125 3399 104.812 3379C114.012 3359 116.312 3232.33 116.312 3171.5C111.115 3082.83 103.838 2900 116.312 2878C128.787 2856 118.51 2710.83 111.812 2641L116.312 2417.5V2146C106.979 2050.17 91.1125 1851.3 102.312 1822.5C113.512 1793.7 121.312 1668.5 123.812 1609.5C118.479 1552 108.713 1434 112.312 1422C115.912 1410 113.812 1192.67 112.312 1085.5L103.812 736.5C112.479 726.5 127.212 683.6 116.812 592C106.413 500.4 112.479 432.5 116.812 410V212V-19H106.312L96.3125 1808.5C88.3125 1855.83 76.2125 1973.8 91.8125 2067C107.413 2160.2 108.979 2242.17 107.812 2271.5L78.3125 4711H57.3125L91.8125 -19H71.3125C75.1458 40.1667 80.5125 167.2 71.3125 202C59.8125 245.5 97.8125 276.5 81.3125 347.5C64.8125 418.5 61.3125 544.5 71.3125 575C79.3125 599.4 74.6458 826.167 71.3125 936.5C64.7794 1084.17 54.633 1389.1 66.3125 1427.5C77.992 1465.9 71.1789 1629.83 66.3125 1707V2166.5C69.1458 2293.83 71.0125 2554.8 55.8125 2580C36.8125 2611.5 76.8125 2659 66.3125 2711C55.8125 2763 55.8125 2785.5 55.8125 2856C55.8125 2912.4 51.8125 3225.5 49.8125 3375C45.1122 3490.67 38.5317 3730.4 49.8125 3764C63.9135 3806 49.8125 3913 49.8125 3937C49.8125 3961 23.3125 4055.5 30.8125 4097.5C36.8125 4131.1 45.9792 4303.83 49.8125 4386L40.8125 4711H21.8125C18.4792 4673.33 15.6125 4562.7 30.8125 4421.5C14.4792 4298.5 -12.2875 4040.3 11.3125 3991.5C40.8125 3930.5 37.3125 3798.5 24.3125 3733.5C13.9125 3681.5 24.3125 3445.5 30.8125 3334L39.3125 2878C47.8125 2824.5 59.7125 2686.7 39.3125 2563.5C47.8125 2566 61.5125 2512.5 48.3125 2278.5C31.8125 1986 57.3125 2004.5 48.3125 1880C39.3125 1755.5 23.931 1640 48.3125 1589C72.694 1538 9.69169 1146 38.3125 1096.5C66.9333 1047 61.8125 657.5 55.8125 638.5C49.8125 619.5 27.793 405 55.8125 347.5C78.2281 301.5 53.4857 252.667 38.3125 234V-19" stroke="#F2E6D3" stroke-width="3"/>
<path d="M1033 -18L1037.5 4712H1050.5C1048.5 4673.33 1046.6 4589 1055 4561C1063.4 4533 1055.5 4472.33 1050.5 4445.5V4296.5C1049 4238.17 1046.9 4116.9 1050.5 4098.5C1055 4075.5 1056.5 3892.5 1050.5 3873C1044.5 3853.5 1050.5 3691 1050.5 3683C1050.5 3675 1056 3599.5 1050.5 3579.5C1045 3559.5 1051.5 3413 1054.5 3397C1057.5 3381 1058.5 3258 1054.5 3236C1050.5 3214 1047.5 2953.5 1054.5 2927.5C1061.5 2901.5 1044.5 2743.5 1047.5 2699C1050.5 2654.5 1063 2379.5 1053 2345.5C1045 2318.3 1049.67 2245.5 1053 2212.5C1050.67 2166.83 1047.4 2071.3 1053 2054.5C1058.6 2037.7 1055.33 1833.83 1053 1734C1056.17 1390.5 1060.6 699.6 1053 684C1045.4 668.4 1049.83 578.167 1053 535C1055.83 430.333 1059.8 217.4 1053 203C1046.2 188.6 1050.17 49.6667 1053 -18H1065.5C1063.33 45.8333 1060.3 185.8 1065.5 235C1070.7 284.2 1067.67 474.167 1065.5 563C1063.17 613.167 1061.5 722.1 1073.5 756.5C1085.5 790.9 1075.5 1064.17 1069 1196.5V1502.5C1063.67 1583.67 1057 1759.7 1073 1814.5C1093 1883 1065 2083.5 1062 2092C1059.6 2098.8 1064 2263.83 1066.5 2345.5V2783C1064.17 2869 1060.9 3046.2 1066.5 3067C1072.1 3087.8 1068.83 3377.67 1066.5 3520C1069.33 3620.17 1073.3 3854.9 1066.5 3992.5C1058 4164.5 1051.5 4152.5 1066.5 4361C1081.5 4569.5 1074.5 4636 1070.5 4665.5C1067.3 4689.1 1066.5 4706.33 1066.5 4712H1091.5C1089.33 4680.33 1086.3 4606.7 1091.5 4565.5C1098 4514 1091.5 4485.5 1088 4463.5C1084.5 4441.5 1100 4339 1091.5 4292.5C1083 4246 1107.5 4159.5 1091.5 4125C1078.7 4097.4 1078.83 3961.5 1080.5 3897V3579.5C1088.17 3521.33 1101.2 3400 1092 3380C1082.8 3360 1080.5 3233.33 1080.5 3172.5C1085.7 3083.83 1092.97 2901 1080.5 2879C1068.03 2857 1078.3 2711.83 1085 2642L1080.5 2418.5V2147C1089.83 2051.17 1105.7 1852.3 1094.5 1823.5C1083.3 1794.7 1075.5 1669.5 1073 1610.5C1078.33 1553 1088.1 1435 1084.5 1423C1080.9 1411 1083 1193.67 1084.5 1086.5L1093 737.5C1084.33 727.5 1069.6 684.6 1080 593C1090.4 501.4 1084.33 433.5 1080 411V213V-18H1090.5L1100.5 1809.5C1108.5 1856.83 1120.6 1974.8 1105 2068C1089.4 2161.2 1087.83 2243.17 1089 2272.5L1118.5 4712H1139.5L1105 -18H1125.5C1121.67 41.1667 1116.3 168.2 1125.5 203C1137 246.5 1099 277.5 1115.5 348.5C1132 419.5 1135.5 545.5 1125.5 576C1117.5 600.4 1122.17 827.167 1125.5 937.5C1132.03 1085.17 1142.18 1390.1 1130.5 1428.5C1118.82 1466.9 1125.63 1630.83 1130.5 1708V2167.5C1127.67 2294.83 1125.8 2555.8 1141 2581C1160 2612.5 1120 2660 1130.5 2712C1141 2764 1141 2786.5 1141 2857C1141 2913.4 1145 3226.5 1147 3376C1151.7 3491.67 1158.28 3731.4 1147 3765C1132.9 3807 1147 3914 1147 3938C1147 3962 1173.5 4056.5 1166 4098.5C1160 4132.1 1150.83 4304.83 1147 4387L1156 4712H1175C1178.33 4674.33 1181.2 4563.7 1166 4422.5C1182.33 4299.5 1209.1 4041.3 1185.5 3992.5C1156 3931.5 1159.5 3799.5 1172.5 3734.5C1182.9 3682.5 1172.5 3446.5 1166 3335L1157.5 2879C1149 2825.5 1137.1 2687.7 1157.5 2564.5C1149 2567 1135.3 2513.5 1148.5 2279.5C1165 1987 1139.5 2005.5 1148.5 1881C1157.5 1756.5 1172.88 1641 1148.5 1590C1124.12 1539 1187.12 1147 1158.5 1097.5C1129.88 1048 1135 658.5 1141 639.5C1147 620.5 1169.02 406 1141 348.5C1118.58 302.5 1143.33 253.667 1158.5 235V-18" stroke="#F2E6D3" stroke-width="3"/>
<path d="M658 -23L651.91 4866H634.315C637.022 4826.03 639.594 4738.87 628.225 4709.92C616.856 4680.98 627.548 4618.28 634.315 4590.54V4436.53C636.345 4376.24 639.188 4250.9 634.315 4231.88C628.225 4208.1 626.195 4018.95 634.315 3998.8C642.436 3978.64 634.315 3810.68 634.315 3802.41C634.315 3794.14 626.871 3716.1 634.315 3695.43C641.759 3674.76 632.962 3523.33 628.902 3506.8C624.841 3490.26 623.488 3363.12 628.902 3340.38C634.315 3317.64 638.375 3048.39 628.902 3021.51C619.428 2994.64 642.436 2831.33 638.375 2785.33C634.315 2739.34 617.398 2455.09 630.932 2419.95C641.759 2391.84 635.443 2316.59 630.932 2282.48C634.09 2235.28 638.511 2136.53 630.932 2119.17C623.353 2101.8 627.774 1891.08 630.932 1787.89C626.646 1432.85 620.646 718.722 630.932 702.598C641.218 686.473 635.218 593.207 630.932 548.589C627.097 440.404 621.729 220.313 630.932 205.429C640.135 190.545 634.766 46.9413 630.932 -23H614.014C616.946 42.9791 621.052 187.651 614.014 238.505C606.976 289.359 611.082 485.711 614.014 577.53C617.172 629.383 619.428 741.979 603.187 777.535C586.946 813.091 600.48 1095.54 609.277 1232.33V1548.61C616.495 1632.51 625.518 1814.46 603.863 1871.1C576.795 1941.9 614.691 2149.14 618.751 2157.93C621.999 2164.96 616.044 2335.54 612.661 2419.95V2872.16C615.819 2961.05 620.24 3144.2 612.661 3165.7C605.082 3187.2 609.503 3486.81 612.661 3633.93C608.826 3737.46 603.457 3980.09 612.661 4122.31C624.165 4300.1 632.962 4287.69 612.661 4503.2C592.359 4718.71 601.833 4787.45 607.247 4817.94C611.578 4842.33 612.661 4860.14 612.661 4866H578.825C581.758 4833.27 585.863 4757.16 578.825 4714.58C570.028 4661.34 578.825 4631.89 583.562 4609.15C588.299 4586.41 567.321 4480.46 578.825 4432.4C590.329 4384.34 557.171 4294.93 578.825 4259.27C596.149 4230.74 595.969 4090.27 593.713 4023.6V3695.43C583.337 3635.31 565.697 3509.9 578.149 3489.22C590.6 3468.55 593.713 3337.63 593.713 3274.75C586.678 3183.1 576.829 2994.12 593.713 2971.38C610.597 2948.64 596.687 2798.6 587.622 2726.42L593.713 2495.4V2214.78C581.081 2115.72 559.607 1910.17 574.765 1880.4C589.923 1850.63 600.48 1721.23 603.863 1660.24C596.645 1600.81 583.427 1478.84 588.299 1466.44C593.171 1454.04 590.329 1229.4 588.299 1118.63L576.795 757.896C588.525 747.56 608.465 703.218 594.39 608.539C580.314 513.86 588.525 443.677 594.39 420.421V215.765V-23H580.179L566.645 1865.93C555.817 1914.86 539.441 2036.79 560.554 2133.12C581.667 2229.45 583.788 2314.18 582.209 2344.5L542.283 4866H513.861L560.554 -23H532.809C537.997 38.1556 545.261 169.459 532.809 205.429C517.245 250.391 568.675 282.433 546.343 355.82C524.012 429.207 519.275 559.442 532.809 590.967C543.637 616.188 537.321 850.577 532.809 964.619C523.967 1117.25 510.235 1432.43 526.042 1472.12C541.849 1511.82 532.628 1681.26 526.042 1761.02V2235.97C529.877 2367.58 532.403 2637.32 511.831 2663.37C486.116 2695.92 540.253 2745.02 526.042 2798.77C511.831 2852.52 511.831 2875.77 511.831 2948.64C511.831 3006.94 506.418 3330.56 503.711 3485.09C497.349 3604.64 488.443 3852.44 503.711 3887.17C522.795 3930.58 503.711 4041.18 503.711 4065.98C503.711 4090.79 467.845 4188.47 477.996 4231.88C486.116 4266.61 498.523 4445.15 503.711 4530.08L491.53 4866H465.815C461.304 4827.07 457.424 4712.71 477.996 4566.77C455.89 4439.63 419.664 4172.75 451.604 4122.31C491.53 4059.26 486.793 3922.83 469.199 3855.64C455.123 3801.89 469.199 3557.96 477.996 3442.71L489.5 2971.38C501.004 2916.08 517.11 2773.65 489.5 2646.31C501.004 2648.9 519.546 2593.6 501.681 2351.73C479.349 2049.4 513.861 2068.52 501.681 1939.84C489.5 1811.15 468.682 1691.77 501.681 1639.05C534.679 1586.34 449.411 1181.16 488.147 1130C526.882 1078.83 519.952 676.241 511.831 656.602C503.711 636.963 473.909 415.253 511.831 355.82C542.169 308.274 508.682 257.799 488.147 238.505V-23" stroke="#F2E6D3" stroke-width="3"/>
</svg>
