<svg width="427" height="440" viewBox="0 0 427 440" fill="none" xmlns="http://www.w3.org/2000/svg">
<mask id="mask0" mask-type="alpha" maskUnits="userSpaceOnUse" x="1" y="1" width="425" height="439">
<path d="M98.8795 326.004C98.8795 326.004 36.4372 303.89 33.0622 268.197C29.6872 232.504 51.1303 203.513 51.1303 203.513C51.1303 203.513 115.59 118.456 123.369 72.7246C131.148 26.9929 184.5 29.3301 184.5 29.3301C184.5 29.3301 236.009 29.1379 238.993 60.8538C238.993 60.8538 323.972 54.857 340.874 138.261C340.874 138.261 430 196.83 357.141 257.724L291.391 307.891C291.391 307.891 242 352.823 212.933 372.224C212.933 372.224 151.418 403.009 121.544 352.823C121.532 352.873 106.791 327.276 98.8795 326.004Z" fill="#F09737"/>
</mask>
<g mask="url(#mask0)">
<ellipse cx="273.5" cy="210" rx="9.5" ry="11" fill="#F8B46B" fill-opacity="0.94"/>
<circle cx="314" cy="178" r="12" fill="#F8B46B" fill-opacity="0.94"/>
<circle cx="326" cy="222" r="12" fill="#F8B46B" fill-opacity="0.94"/>
<circle cx="276" cy="259" r="12" fill="#F8B46B" fill-opacity="0.94"/>
<circle cx="233" cy="190" r="12" fill="#F8B46B" fill-opacity="0.94"/>
<circle cx="257" cy="154" r="12" fill="#F8B46B" fill-opacity="0.94"/>
<circle cx="257" cy="84" r="12" fill="#F8B46B" fill-opacity="0.94"/>
<circle cx="326" cy="108" r="12" fill="#F8B46B" fill-opacity="0.94"/>
<circle cx="392" cy="132" r="12" fill="#F8B46B" fill-opacity="0.94"/>
<circle cx="392" cy="283" r="12" fill="#F8B46B" fill-opacity="0.94"/>
<circle cx="314" cy="283" r="12" fill="#F8B46B" fill-opacity="0.94"/>
<circle cx="221" cy="295" r="12" fill="#F8B46B" fill-opacity="0.94"/>
<circle cx="184" cy="219" r="12" fill="#F8B46B" fill-opacity="0.94"/>
<circle cx="140" cy="132" r="12" fill="#F8B46B" fill-opacity="0.94"/>
<circle cx="197" cy="120" r="12" fill="#F8B46B" fill-opacity="0.94"/>
<circle cx="196" cy="60" r="12" fill="#F8B46B" fill-opacity="0.94"/>
<circle cx="418" cy="221" r="12" fill="#F8B46B" fill-opacity="0.94"/>
<circle cx="350" cy="48" r="12" fill="#F8B46B" fill-opacity="0.94"/>
<circle cx="350" cy="187" r="12" fill="#F8B46B" fill-opacity="0.94"/>
<circle cx="128" cy="198" r="12" fill="#F8B46B" fill-opacity="0.94"/>
<circle cx="164" cy="271" r="12" fill="#F8B46B" fill-opacity="0.94"/>
<circle cx="274" cy="336" r="12" fill="#F8B46B" fill-opacity="0.94"/>
<circle cx="362" cy="360" r="12" fill="#F8B46B" fill-opacity="0.94"/>
<circle cx="418" cy="72" r="12" fill="#F8B46B" fill-opacity="0.94"/>
<circle cx="140" cy="24" r="12" fill="#F8B46B" fill-opacity="0.94"/>
<circle cx="80" cy="132" r="12" fill="#F8B46B" fill-opacity="0.94"/>
<circle cx="92" cy="271" r="12" fill="#F8B46B" fill-opacity="0.94"/>
<circle cx="173" cy="372" r="12" fill="#F8B46B" fill-opacity="0.94"/>
<circle cx="233" cy="396" r="12" fill="#F8B46B" fill-opacity="0.94"/>
<circle cx="128" cy="324" r="12" fill="#F8B46B" fill-opacity="0.94"/>
<circle cx="351" cy="439" r="3" fill="#F09737" fill-opacity="0.63"/>
<circle cx="335" cy="405" r="3" fill="#F8B46B" fill-opacity="0.94"/>
<circle cx="323" cy="345" r="3" fill="#F8B46B" fill-opacity="0.94"/>
<circle cx="338" cy="324" r="3" fill="#F8B46B" fill-opacity="0.94"/>
<circle cx="341" cy="271" r="3" fill="#F8B46B" fill-opacity="0.94"/>
<circle cx="347" cy="244" r="3" fill="#F8B46B" fill-opacity="0.94"/>
<circle cx="351" cy="213" r="3" fill="#F8B46B" fill-opacity="0.94"/>
<circle cx="386" cy="193" r="3" fill="#F8B46B" fill-opacity="0.94"/>
<circle cx="372" cy="166" r="3" fill="#F8B46B" fill-opacity="0.94"/>
<circle cx="335" cy="165" r="3" fill="#F8B46B" fill-opacity="0.94"/>
<circle cx="274" cy="163" r="3" fill="#F8B46B" fill-opacity="0.94"/>
<circle cx="305" cy="250" r="3" fill="#F8B46B" fill-opacity="0.94"/>
<circle cx="308" cy="216" r="3" fill="#F8B46B" fill-opacity="0.94"/>
<circle cx="291" cy="178" r="3" fill="#F8B46B" fill-opacity="0.94"/>
<circle cx="251" cy="212" r="3" fill="#F8B46B" fill-opacity="0.94"/>
<circle cx="236" cy="234" r="3" fill="#F8B46B" fill-opacity="0.94"/>
<circle cx="254" cy="268" r="3" fill="#F8B46B" fill-opacity="0.94"/>
<circle cx="267" cy="300" r="3" fill="#F8B46B" fill-opacity="0.94"/>
<circle cx="294" cy="300" r="3" fill="#F8B46B" fill-opacity="0.94"/>
<circle cx="371" cy="280" r="3" fill="#F8B46B" fill-opacity="0.94"/>
<circle cx="371" cy="262" r="3" fill="#F8B46B" fill-opacity="0.94"/>
<circle cx="377" cy="222" r="3" fill="#F8B46B" fill-opacity="0.94"/>
<circle cx="404" cy="193" r="3" fill="#F8B46B" fill-opacity="0.94"/>
<circle cx="357" cy="141" r="3" fill="#F8B46B" fill-opacity="0.94"/>
<circle cx="325" cy="141" r="3" fill="#F8B46B" fill-opacity="0.94"/>
<circle cx="305" cy="141" r="3" fill="#F8B46B" fill-opacity="0.94"/>
<circle cx="272" cy="141" r="3" fill="#F8B46B" fill-opacity="0.94"/>
<circle cx="251" cy="141" r="3" fill="#F8B46B" fill-opacity="0.94"/>
<circle cx="224" cy="157" r="3" fill="#F8B46B" fill-opacity="0.94"/>
<circle cx="205" cy="175" r="3" fill="#F8B46B" fill-opacity="0.94"/>
<circle cx="212" cy="199" r="3" fill="#F8B46B" fill-opacity="0.94"/>
<circle cx="221" cy="242" r="3" fill="#F8B46B" fill-opacity="0.94"/>
<circle cx="200" cy="248" r="3" fill="#F8B46B" fill-opacity="0.94"/>
<circle cx="200" cy="295" r="3" fill="#F8B46B" fill-opacity="0.94"/>
<circle cx="188" cy="313" r="3" fill="#F8B46B" fill-opacity="0.94"/>
<circle cx="203" cy="330" r="3" fill="#F8B46B" fill-opacity="0.94"/>
<circle cx="176" cy="331" r="3" fill="#F8B46B" fill-opacity="0.94"/>
<circle cx="197" cy="357" r="3" fill="#F8B46B" fill-opacity="0.94"/>
<circle cx="239" cy="324" r="3" fill="#F8B46B" fill-opacity="0.94"/>
<circle cx="233" cy="375" r="3" fill="#F8B46B" fill-opacity="0.94"/>
<circle cx="209" cy="327" r="3" fill="#F8B46B" fill-opacity="0.94"/>
<circle cx="242" cy="286" r="3" fill="#F8B46B" fill-opacity="0.94"/>
<circle cx="206" cy="231" r="3" fill="#F8B46B" fill-opacity="0.94"/>
<circle cx="209" cy="126" r="3" fill="#F8B46B" fill-opacity="0.94"/>
<circle cx="208" cy="63" r="3" fill="#F8B46B" fill-opacity="0.94"/>
<circle cx="227" cy="57" r="3" fill="#F8B46B" fill-opacity="0.94"/>
<circle cx="212" r="3" fill="#F8B46B" fill-opacity="0.94"/>
<circle cx="176" cy="11" r="3" fill="#F8B46B" fill-opacity="0.94"/>
<circle cx="212" cy="33" r="3" fill="#F8B46B" fill-opacity="0.94"/>
<circle cx="262" cy="11" r="3" fill="#F8B46B" fill-opacity="0.94"/>
<circle cx="236" cy="36" r="3" fill="#F8B46B" fill-opacity="0.94"/>
<circle cx="239" cy="363" r="3" fill="#F8B46B" fill-opacity="0.94"/>
<circle cx="181" cy="372" r="3" fill="#F8B46B" fill-opacity="0.94"/>
<circle cx="289" cy="363" r="3" fill="#F8B46B" fill-opacity="0.94"/>
<circle cx="289" cy="411" r="3" fill="#F09737" fill-opacity="0.63"/>
<circle cx="300" cy="411" r="3" fill="#F09737" fill-opacity="0.63"/>
<circle cx="392" cy="381" r="3" fill="#F8B46B" fill-opacity="0.94"/>
<circle cx="389" cy="337" r="3" fill="#F8B46B" fill-opacity="0.94"/>
<circle cx="407" cy="283" r="3" fill="#F8B46B" fill-opacity="0.94"/>
<circle cx="407" cy="230" r="3" fill="#F8B46B" fill-opacity="0.94"/>
<circle cx="380" cy="147" r="3" fill="#F8B46B" fill-opacity="0.94"/>
<circle cx="360" cy="93" r="3" fill="#F8B46B" fill-opacity="0.94"/>
<circle cx="289" cy="57" r="3" fill="#F8B46B" fill-opacity="0.94"/>
<circle cx="286" cy="96" r="3" fill="#F8B46B" fill-opacity="0.94"/>
<circle cx="272" cy="123" r="3" fill="#F8B46B" fill-opacity="0.94"/>
<circle cx="297" cy="84" r="3" fill="#F8B46B" fill-opacity="0.94"/>
<circle cx="297" cy="120" r="3" fill="#F8B46B" fill-opacity="0.94"/>
<circle cx="233" cy="123" r="3" fill="#F8B46B" fill-opacity="0.94"/>
<circle cx="203" cy="147" r="3" fill="#F8B46B" fill-opacity="0.94"/>
<circle cx="173" cy="151" r="3" fill="#F8B46B" fill-opacity="0.94"/>
<circle cx="182" cy="190" r="3" fill="#F8B46B" fill-opacity="0.94"/>
<circle cx="155" cy="205" r="3" fill="#F8B46B" fill-opacity="0.94"/>
<circle cx="149" cy="240" r="3" fill="#F8B46B" fill-opacity="0.94"/>
<circle cx="104" cy="231" r="3" fill="#F8B46B" fill-opacity="0.94"/>
<circle cx="74" cy="225" r="3" fill="#F8B46B" fill-opacity="0.94"/>
<circle cx="60" cy="181" r="3" fill="#F8B46B" fill-opacity="0.94"/>
<circle cx="51" cy="163" r="3" fill="#F8B46B" fill-opacity="0.94"/>
<circle cx="236" cy="93" r="3" fill="#F8B46B" fill-opacity="0.94"/>
<circle cx="167" cy="93" r="3" fill="#F8B46B" fill-opacity="0.94"/>
<circle cx="161" cy="175" r="3" fill="#F8B46B" fill-opacity="0.94"/>
<circle cx="128" cy="175" r="3" fill="#F8B46B" fill-opacity="0.94"/>
<circle cx="92" cy="181" r="3" fill="#F8B46B" fill-opacity="0.94"/>
<circle cx="116" cy="251" r="3" fill="#F8B46B" fill-opacity="0.94"/>
<circle cx="110" cy="310" r="3" fill="#F09737" fill-opacity="0.85"/>
<circle cx="146" cy="310" r="3" fill="#F09737" fill-opacity="0.85"/>
<circle cx="169" cy="316" r="3" fill="#F8B46B" fill-opacity="0.94"/>
<circle cx="128" cy="357" r="3" fill="#F8B46B" fill-opacity="0.94"/>
<circle cx="60" cy="228" r="3" fill="#F8B46B" fill-opacity="0.94"/>
<circle cx="57" cy="145" r="3" fill="#F8B46B" fill-opacity="0.94"/>
<circle cx="68" cy="69" r="3" fill="#F8B46B" fill-opacity="0.94"/>
<circle cx="98" cy="93" r="3" fill="#F8B46B" fill-opacity="0.94"/>
<circle cx="128" cy="72" r="3" fill="#F8B46B" fill-opacity="0.94"/>
<circle cx="113" cy="36" r="3" fill="#F8B46B" fill-opacity="0.94"/>
<circle cx="185" cy="36" r="3" fill="#F8B46B" fill-opacity="0.94"/>
<circle cx="233" cy="5" r="3" fill="#F8B46B" fill-opacity="0.94"/>
<circle cx="167" cy="45" r="3" fill="#F8B46B" fill-opacity="0.94"/>
<circle cx="167" cy="84" r="3" fill="#F8B46B" fill-opacity="0.94"/>
<circle cx="259" cy="78" r="3" fill="#F8B46B" fill-opacity="0.94"/>
<circle cx="259" cy="27" r="3" fill="#F8B46B" fill-opacity="0.94"/>
<circle cx="258" cy="60" r="3" fill="#F8B46B" fill-opacity="0.94"/>
<circle cx="279" cy="66" r="3" fill="#F8B46B" fill-opacity="0.94"/>
<circle cx="317" cy="12" r="3" fill="#F8B46B" fill-opacity="0.94"/>
<circle cx="289" cy="5" r="3" fill="#F8B46B" fill-opacity="0.94"/>
<circle cx="289" cy="42" r="3" fill="#F8B46B" fill-opacity="0.94"/>
<circle cx="311" cy="54" r="3" fill="#F8B46B" fill-opacity="0.94"/>
<circle cx="335" cy="8" r="3" fill="#F8B46B" fill-opacity="0.94"/>
<circle cx="360" cy="36" r="3" fill="#F8B46B" fill-opacity="0.94"/>
<circle cx="350" cy="81" r="3" fill="#F8B46B" fill-opacity="0.94"/>
<circle cx="323" cy="81" r="3" fill="#F8B46B" fill-opacity="0.94"/>
<ellipse cx="87.5" cy="353" rx="9.5" ry="11" fill="#F8B46B" fill-opacity="0.94"/>
<circle cx="128" cy="321" r="12" fill="#F8B46B" fill-opacity="0.94"/>
<circle cx="140" cy="365" r="12" fill="#F8B46B" fill-opacity="0.94"/>
<circle cx="90" cy="402" r="12" fill="#F8B46B" fill-opacity="0.94"/>
<circle cx="47" cy="333" r="12" fill="#F8B46B" fill-opacity="0.94"/>
<circle cx="71" cy="297" r="12" fill="#F09737" fill-opacity="0.85"/>
<circle cx="71" cy="227" r="12" fill="#F8B46B" fill-opacity="0.94"/>
<circle cx="140" cy="251" r="12" fill="#F8B46B" fill-opacity="0.94"/>
<circle cx="206" cy="275" r="12" fill="#F8B46B" fill-opacity="0.94"/>
<circle cx="206" cy="426" r="12" fill="#F8B46B" fill-opacity="0.94"/>
<circle cx="128" cy="426" r="12" fill="#F8B46B" fill-opacity="0.94"/>
<circle cx="35" cy="438" r="12" fill="#F8B46B" fill-opacity="0.94"/>
<circle cx="-2" cy="362" r="12" fill="#F8B46B" fill-opacity="0.94"/>
<circle cx="11" cy="263" r="12" fill="#F8B46B" fill-opacity="0.94"/>
<circle cx="10" cy="203" r="12" fill="#F8B46B" fill-opacity="0.94"/>
<circle cx="232" cy="364" r="12" fill="#F8B46B" fill-opacity="0.94"/>
<circle cx="164" cy="191" r="12" fill="#F8B46B" fill-opacity="0.94"/>
<circle cx="164" cy="330" r="12" fill="#F8B46B" fill-opacity="0.94"/>
<circle cx="256" cy="438" r="12" fill="#F8B46B" fill-opacity="0.94"/>
<circle cx="282" cy="376" r="12" fill="#F8B46B" fill-opacity="0.94"/>
<circle cx="280" cy="287" r="12" fill="#F8B46B" fill-opacity="0.94"/>
<circle cx="232" cy="215" r="12" fill="#F8B46B" fill-opacity="0.94"/>
<circle cx="100" cy="118" r="12" fill="#F8B46B" fill-opacity="0.94"/>
<circle cx="155" cy="414" r="3" fill="#F8B46B" fill-opacity="0.94"/>
<circle cx="161" cy="387" r="3" fill="#F8B46B" fill-opacity="0.94"/>
<circle cx="165" cy="356" r="3" fill="#F8B46B" fill-opacity="0.94"/>
<circle cx="200" cy="336" r="3" fill="#F8B46B" fill-opacity="0.94"/>
<circle cx="186" cy="309" r="3" fill="#F8B46B" fill-opacity="0.94"/>
<circle cx="149" cy="308" r="3" fill="#F09737" fill-opacity="0.85"/>
<circle cx="88" cy="306" r="3" fill="#F09737" fill-opacity="0.85"/>
<circle cx="119" cy="393" r="3" fill="#F8B46B" fill-opacity="0.94"/>
<circle cx="122" cy="359" r="3" fill="#F8B46B" fill-opacity="0.94"/>
<circle cx="105" cy="321" r="3" fill="#F8B46B" fill-opacity="0.94"/>
<circle cx="65" cy="355" r="3" fill="#F8B46B" fill-opacity="0.94"/>
<circle cx="50" cy="377" r="3" fill="#F8B46B" fill-opacity="0.94"/>
<circle cx="68" cy="411" r="3" fill="#F8B46B" fill-opacity="0.94"/>
<circle cx="185" cy="423" r="3" fill="#F8B46B" fill-opacity="0.94"/>
<circle cx="185" cy="405" r="3" fill="#F8B46B" fill-opacity="0.94"/>
<circle cx="191" cy="365" r="3" fill="#F8B46B" fill-opacity="0.94"/>
<circle cx="218" cy="336" r="3" fill="#F8B46B" fill-opacity="0.94"/>
<circle cx="171" cy="284" r="3" fill="#F8B46B" fill-opacity="0.94"/>
<circle cx="139" cy="284" r="3" fill="#F8B46B" fill-opacity="0.94"/>
<circle cx="119" cy="284" r="3" fill="#F8B46B" fill-opacity="0.94"/>
<circle cx="86" cy="284" r="3" fill="#F8B46B" fill-opacity="0.94"/>
<circle cx="65" cy="284" r="3" fill="#F8B46B" fill-opacity="0.94"/>
<circle cx="38" cy="300" r="3" fill="#F8B46B" fill-opacity="0.94"/>
<circle cx="19" cy="318" r="3" fill="#F8B46B" fill-opacity="0.94"/>
<circle cx="26" cy="342" r="3" fill="#F8B46B" fill-opacity="0.94"/>
<circle cx="35" cy="385" r="3" fill="#F8B46B" fill-opacity="0.94"/>
<circle cx="14" cy="391" r="3" fill="#F8B46B" fill-opacity="0.94"/>
<circle cx="14" cy="438" r="3" fill="#F8B46B" fill-opacity="0.94"/>
<circle cx="56" cy="429" r="3" fill="#F8B46B" fill-opacity="0.94"/>
<circle cx="20" cy="374" r="3" fill="#F8B46B" fill-opacity="0.94"/>
<circle cx="23" cy="269" r="3" fill="#F8B46B" fill-opacity="0.94"/>
<circle cx="22" cy="206" r="3" fill="#F8B46B" fill-opacity="0.94"/>
<circle cx="41" cy="200" r="3" fill="#F8B46B" fill-opacity="0.94"/>
<circle cx="26" cy="143" r="3" fill="#F8B46B" fill-opacity="0.94"/>
<circle cx="26" cy="176" r="3" fill="#F8B46B" fill-opacity="0.94"/>
<circle cx="41" cy="137" r="3" fill="#F8B46B" fill-opacity="0.94"/>
<circle cx="76" cy="154" r="3" fill="#F8B46B" fill-opacity="0.94"/>
<circle cx="50" cy="179" r="3" fill="#F8B46B" fill-opacity="0.94"/>
<circle cx="221" cy="426" r="3" fill="#F8B46B" fill-opacity="0.94"/>
<circle cx="221" cy="373" r="3" fill="#F8B46B" fill-opacity="0.94"/>
<circle cx="247" cy="327" r="3" fill="#F8B46B" fill-opacity="0.94"/>
<circle cx="247" cy="291" r="3" fill="#F8B46B" fill-opacity="0.94"/>
<circle cx="194" cy="290" r="3" fill="#F8B46B" fill-opacity="0.94"/>
<circle cx="174" cy="236" r="3" fill="#F8B46B" fill-opacity="0.94"/>
<circle cx="103" cy="200" r="3" fill="#F8B46B" fill-opacity="0.94"/>
<circle cx="100" cy="239" r="3" fill="#F8B46B" fill-opacity="0.94"/>
<circle cx="86" cy="266" r="3" fill="#F8B46B" fill-opacity="0.94"/>
<circle cx="111" cy="227" r="3" fill="#F8B46B" fill-opacity="0.94"/>
<circle cx="111" cy="263" r="3" fill="#F8B46B" fill-opacity="0.94"/>
<circle cx="47" cy="266" r="3" fill="#F8B46B" fill-opacity="0.94"/>
<circle cx="17" cy="290" r="3" fill="#F8B46B" fill-opacity="0.94"/>
<circle cx="50" cy="236" r="3" fill="#F8B46B" fill-opacity="0.94"/>
<circle cx="-1" cy="179" r="3" fill="#F8B46B" fill-opacity="0.94"/>
<circle cx="47" cy="148" r="3" fill="#F8B46B" fill-opacity="0.94"/>
<circle cx="73" cy="221" r="3" fill="#F8B46B" fill-opacity="0.94"/>
<circle cx="73" cy="170" r="3" fill="#F8B46B" fill-opacity="0.94"/>
<circle cx="72" cy="203" r="3" fill="#F8B46B" fill-opacity="0.94"/>
<circle cx="93" cy="209" r="3" fill="#F8B46B" fill-opacity="0.94"/>
<circle cx="131" cy="155" r="3" fill="#F8B46B" fill-opacity="0.94"/>
<circle cx="131" cy="121" r="3" fill="#F8B46B" fill-opacity="0.94"/>
<circle cx="103" cy="148" r="3" fill="#F8B46B" fill-opacity="0.94"/>
<circle cx="103" cy="185" r="3" fill="#F8B46B" fill-opacity="0.94"/>
<circle cx="125" cy="197" r="3" fill="#F8B46B" fill-opacity="0.94"/>
<circle cx="149" cy="151" r="3" fill="#F8B46B" fill-opacity="0.94"/>
<circle cx="174" cy="179" r="3" fill="#F8B46B" fill-opacity="0.94"/>
<circle cx="164" cy="224" r="3" fill="#F8B46B" fill-opacity="0.94"/>
<circle cx="137" cy="224" r="3" fill="#F8B46B" fill-opacity="0.94"/>
<ellipse cx="192.5" cy="133" rx="9.5" ry="11" fill="#F8B46B" fill-opacity="0.94"/>
<circle cx="233" cy="101" r="12" fill="#F8B46B" fill-opacity="0.94"/>
<circle cx="245" cy="145" r="12" fill="#F8B46B" fill-opacity="0.94"/>
<circle cx="195" cy="182" r="12" fill="#F8B46B" fill-opacity="0.94"/>
<circle cx="152" cy="113" r="12" fill="#F8B46B" fill-opacity="0.94"/>
<circle cx="176" cy="77" r="12" fill="#F8B46B" fill-opacity="0.94"/>
<circle cx="176" cy="7" r="12" fill="#F8B46B" fill-opacity="0.94"/>
<circle cx="245" cy="31" r="12" fill="#F8B46B" fill-opacity="0.94"/>
<circle cx="311" cy="55" r="12" fill="#F8B46B" fill-opacity="0.94"/>
<circle cx="311" cy="206" r="12" fill="#F8B46B" fill-opacity="0.94"/>
<circle cx="233" cy="206" r="12" fill="#F8B46B" fill-opacity="0.94"/>
<circle cx="140" cy="218" r="12" fill="#F8B46B" fill-opacity="0.94"/>
<circle cx="103" cy="142" r="12" fill="#F8B46B" fill-opacity="0.94"/>
<circle cx="59" cy="55" r="12" fill="#F8B46B" fill-opacity="0.94"/>
<circle cx="116" cy="43" r="12" fill="#F8B46B" fill-opacity="0.94"/>
<circle cx="337" cy="144" r="12" fill="#F8B46B" fill-opacity="0.94"/>
<circle cx="269" cy="110" r="12" fill="#F8B46B" fill-opacity="0.94"/>
<circle cx="47" cy="121" r="12" fill="#F8B46B" fill-opacity="0.94"/>
<circle cx="83" cy="194" r="12" fill="#F8B46B" fill-opacity="0.94"/>
<circle cx="193" cy="259" r="12" fill="#F8B46B" fill-opacity="0.94"/>
<circle cx="281" cy="283" r="12" fill="#F8B46B" fill-opacity="0.94"/>
<circle cx="361" cy="218" r="12" fill="#F8B46B" fill-opacity="0.94"/>
<circle cx="387" cy="156" r="12" fill="#F8B46B" fill-opacity="0.94"/>
<circle cx="385" cy="67" r="12" fill="#F8B46B" fill-opacity="0.94"/>
<circle cx="337" cy="-5" r="12" fill="#F8B46B" fill-opacity="0.94"/>
<circle cx="-1" cy="55" r="12" fill="#F8B46B" fill-opacity="0.94"/>
<circle cx="11" cy="194" r="12" fill="#F8B46B" fill-opacity="0.94"/>
<circle cx="92" cy="295" r="12" fill="#F09737" fill-opacity="0.85"/>
<circle cx="152" cy="319" r="12" fill="#F09737" fill-opacity="0.85"/>
<circle cx="47" cy="247" r="12" fill="#F8B46B" fill-opacity="0.94"/>
<circle cx="254" cy="328" r="3" fill="#F8B46B" fill-opacity="0.94"/>
<circle cx="242" cy="268" r="3" fill="#F8B46B" fill-opacity="0.94"/>
<circle cx="257" cy="247" r="3" fill="#F8B46B" fill-opacity="0.94"/>
<circle cx="260" cy="194" r="3" fill="#F8B46B" fill-opacity="0.94"/>
<circle cx="266" cy="167" r="3" fill="#F8B46B" fill-opacity="0.94"/>
<circle cx="270" cy="136" r="3" fill="#F8B46B" fill-opacity="0.94"/>
<circle cx="305" cy="116" r="3" fill="#F8B46B" fill-opacity="0.94"/>
<circle cx="291" cy="89" r="3" fill="#F8B46B" fill-opacity="0.94"/>
<circle cx="254" cy="88" r="3" fill="#F8B46B" fill-opacity="0.94"/>
<circle cx="193" cy="86" r="3" fill="#F8B46B" fill-opacity="0.94"/>
<circle cx="224" cy="173" r="3" fill="#F8B46B" fill-opacity="0.94"/>
<circle cx="227" cy="139" r="3" fill="#F8B46B" fill-opacity="0.94"/>
<circle cx="210" cy="101" r="3" fill="#F8B46B" fill-opacity="0.94"/>
<circle cx="170" cy="135" r="3" fill="#F8B46B" fill-opacity="0.94"/>
<circle cx="155" cy="157" r="3" fill="#F8B46B" fill-opacity="0.94"/>
<circle cx="173" cy="191" r="3" fill="#F8B46B" fill-opacity="0.94"/>
<circle cx="186" cy="223" r="3" fill="#F8B46B" fill-opacity="0.94"/>
<circle cx="213" cy="223" r="3" fill="#F8B46B" fill-opacity="0.94"/>
<circle cx="290" cy="203" r="3" fill="#F8B46B" fill-opacity="0.94"/>
<circle cx="290" cy="185" r="3" fill="#F8B46B" fill-opacity="0.94"/>
<circle cx="296" cy="145" r="3" fill="#F8B46B" fill-opacity="0.94"/>
<circle cx="323" cy="116" r="3" fill="#F8B46B" fill-opacity="0.94"/>
<circle cx="276" cy="64" r="3" fill="#F8B46B" fill-opacity="0.94"/>
<circle cx="244" cy="64" r="3" fill="#F8B46B" fill-opacity="0.94"/>
<circle cx="224" cy="64" r="3" fill="#F8B46B" fill-opacity="0.94"/>
<circle cx="191" cy="64" r="3" fill="#F8B46B" fill-opacity="0.94"/>
<circle cx="170" cy="64" r="3" fill="#F8B46B" fill-opacity="0.94"/>
<circle cx="143" cy="80" r="3" fill="#F8B46B" fill-opacity="0.94"/>
<circle cx="124" cy="98" r="3" fill="#F8B46B" fill-opacity="0.94"/>
<circle cx="131" cy="122" r="3" fill="#F8B46B" fill-opacity="0.94"/>
<circle cx="140" cy="165" r="3" fill="#F8B46B" fill-opacity="0.94"/>
<circle cx="119" cy="171" r="3" fill="#F8B46B" fill-opacity="0.94"/>
<circle cx="119" cy="218" r="3" fill="#F8B46B" fill-opacity="0.94"/>
<circle cx="107" cy="236" r="3" fill="#F8B46B" fill-opacity="0.94"/>
<circle cx="122" cy="253" r="3" fill="#F8B46B" fill-opacity="0.94"/>
<circle cx="95" cy="254" r="3" fill="#F8B46B" fill-opacity="0.94"/>
<circle cx="116" cy="280" r="3" fill="#F8B46B" fill-opacity="0.94"/>
<circle cx="158" cy="247" r="3" fill="#F8B46B" fill-opacity="0.94"/>
<circle cx="152" cy="298" r="3" fill="#F8B46B" fill-opacity="0.94"/>
<circle cx="128" cy="250" r="3" fill="#F8B46B" fill-opacity="0.94"/>
<circle cx="161" cy="209" r="3" fill="#F8B46B" fill-opacity="0.94"/>
<circle cx="125" cy="154" r="3" fill="#F8B46B" fill-opacity="0.94"/>
<circle cx="128" cy="49" r="3" fill="#F8B46B" fill-opacity="0.94"/>
<circle cx="158" cy="286" r="3" fill="#F8B46B" fill-opacity="0.94"/>
<circle cx="100" cy="295" r="3" fill="#F8B46B" fill-opacity="0.94"/>
<circle cx="208" cy="286" r="3" fill="#F8B46B" fill-opacity="0.94"/>
<circle cx="311" cy="304" r="3" fill="#F8B46B" fill-opacity="0.94"/>
<circle cx="308" cy="260" r="3" fill="#F8B46B" fill-opacity="0.94"/>
<circle cx="326" cy="206" r="3" fill="#F8B46B" fill-opacity="0.94"/>
<circle cx="326" cy="153" r="3" fill="#F8B46B" fill-opacity="0.94"/>
<circle cx="352" cy="107" r="3" fill="#F8B46B" fill-opacity="0.94"/>
<circle cx="352" cy="71" r="3" fill="#F8B46B" fill-opacity="0.94"/>
<circle cx="299" cy="70" r="3" fill="#F8B46B" fill-opacity="0.94"/>
<circle cx="279" cy="16" r="3" fill="#F8B46B" fill-opacity="0.94"/>
<circle cx="205" cy="19" r="3" fill="#F8B46B" fill-opacity="0.94"/>
<circle cx="191" cy="46" r="3" fill="#F8B46B" fill-opacity="0.94"/>
<circle cx="216" cy="7" r="3" fill="#F8B46B" fill-opacity="0.94"/>
<circle cx="216" cy="43" r="3" fill="#F8B46B" fill-opacity="0.94"/>
<circle cx="152" cy="46" r="3" fill="#F8B46B" fill-opacity="0.94"/>
<circle cx="122" cy="70" r="3" fill="#F8B46B" fill-opacity="0.94"/>
<circle cx="92" cy="74" r="3" fill="#F8B46B" fill-opacity="0.94"/>
<circle cx="101" cy="113" r="3" fill="#F8B46B" fill-opacity="0.94"/>
<circle cx="74" cy="128" r="3" fill="#F8B46B" fill-opacity="0.94"/>
<circle cx="68" cy="163" r="3" fill="#F8B46B" fill-opacity="0.94"/>
<circle cx="23" cy="154" r="3" fill="#F8B46B" fill-opacity="0.94"/>
<circle cx="155" cy="16" r="3" fill="#F8B46B" fill-opacity="0.94"/>
<circle cx="86" cy="16" r="3" fill="#F8B46B" fill-opacity="0.94"/>
<circle cx="80" cy="98" r="3" fill="#F8B46B" fill-opacity="0.94"/>
<circle cx="47" cy="98" r="3" fill="#F8B46B" fill-opacity="0.94"/>
<circle cx="11" cy="104" r="3" fill="#F8B46B" fill-opacity="0.94"/>
<circle cx="35" cy="174" r="3" fill="#F8B46B" fill-opacity="0.94"/>
<circle cx="29" cy="233" r="3" fill="#F8B46B" fill-opacity="0.94"/>
<circle cx="65" cy="233" r="3" fill="#F8B46B" fill-opacity="0.94"/>
<circle cx="88" cy="239" r="3" fill="#F8B46B" fill-opacity="0.94"/>
<circle cx="47" cy="280" r="3" fill="#F8B46B" fill-opacity="0.94"/>
<circle cx="17" cy="16" r="3" fill="#F8B46B" fill-opacity="0.94"/>
<circle cx="86" cy="7" r="3" fill="#F8B46B" fill-opacity="0.94"/>
<circle cx="178" cy="1" r="3" fill="#F8B46B" fill-opacity="0.94"/>
<circle cx="269" cy="4" r="3" fill="#F8B46B" fill-opacity="0.94"/>
<circle cx="242" cy="4" r="3" fill="#F8B46B" fill-opacity="0.94"/>
<ellipse cx="337.5" cy="229" rx="9.5" ry="11" fill="#F8B46B" fill-opacity="0.94"/>
<circle cx="378" cy="197" r="12" fill="#F8B46B" fill-opacity="0.94"/>
<circle cx="390" cy="241" r="12" fill="#F8B46B" fill-opacity="0.94"/>
<circle cx="340" cy="278" r="12" fill="#F8B46B" fill-opacity="0.94"/>
<circle cx="297" cy="209" r="12" fill="#F8B46B" fill-opacity="0.94"/>
<circle cx="321" cy="173" r="12" fill="#F8B46B" fill-opacity="0.94"/>
<circle cx="321" cy="103" r="12" fill="#F8B46B" fill-opacity="0.94"/>
<circle cx="390" cy="127" r="12" fill="#F8B46B" fill-opacity="0.94"/>
<circle cx="378" cy="302" r="12" fill="#F8B46B" fill-opacity="0.94"/>
<circle cx="285" cy="314" r="12" fill="#F8B46B" fill-opacity="0.94"/>
<circle cx="248" cy="238" r="12" fill="#F8B46B" fill-opacity="0.94"/>
<circle cx="204" cy="151" r="12" fill="#F8B46B" fill-opacity="0.94"/>
<circle cx="261" cy="139" r="12" fill="#F8B46B" fill-opacity="0.94"/>
<circle cx="260" cy="79" r="12" fill="#F8B46B" fill-opacity="0.94"/>
<circle cx="414" cy="67" r="12" fill="#F8B46B" fill-opacity="0.94"/>
<circle cx="414" cy="206" r="12" fill="#F8B46B" fill-opacity="0.94"/>
<circle cx="192" cy="217" r="12" fill="#F8B46B" fill-opacity="0.94"/>
<circle cx="228" cy="290" r="12" fill="#F8B46B" fill-opacity="0.94"/>
<circle cx="338" cy="355" r="12" fill="#F8B46B" fill-opacity="0.94"/>
<circle cx="426" cy="379" r="12" fill="#F8B46B" fill-opacity="0.94"/>
<circle cx="350" cy="-6" r="12" fill="#F8B46B" fill-opacity="0.94"/>
<circle cx="204" cy="43" r="12" fill="#F8B46B" fill-opacity="0.94"/>
<circle cx="144" cy="151" r="12" fill="#F8B46B" fill-opacity="0.94"/>
<circle cx="156" cy="290" r="12" fill="#F09737" fill-opacity="0.85"/>
<circle cx="237" cy="391" r="12" fill="#F8B46B" fill-opacity="0.94"/>
<circle cx="297" cy="415" r="12" fill="#F8B46B" fill-opacity="0.94"/>
<circle cx="192" cy="343" r="12" fill="#F8B46B" fill-opacity="0.94"/>
<circle cx="399" cy="424" r="3" fill="#F8B46B" fill-opacity="0.94"/>
<circle cx="387" cy="364" r="3" fill="#F8B46B" fill-opacity="0.94"/>
<circle cx="402" cy="343" r="3" fill="#F8B46B" fill-opacity="0.94"/>
<circle cx="405" cy="290" r="3" fill="#F8B46B" fill-opacity="0.94"/>
<circle cx="411" cy="263" r="3" fill="#F8B46B" fill-opacity="0.94"/>
<circle cx="415" cy="232" r="3" fill="#F8B46B" fill-opacity="0.94"/>
<circle cx="399" cy="184" r="3" fill="#F8B46B" fill-opacity="0.94"/>
<circle cx="338" cy="182" r="3" fill="#F8B46B" fill-opacity="0.94"/>
<circle cx="369" cy="269" r="3" fill="#F8B46B" fill-opacity="0.94"/>
<circle cx="372" cy="235" r="3" fill="#F8B46B" fill-opacity="0.94"/>
<circle cx="355" cy="197" r="3" fill="#F8B46B" fill-opacity="0.94"/>
<circle cx="315" cy="231" r="3" fill="#F8B46B" fill-opacity="0.94"/>
<circle cx="300" cy="253" r="3" fill="#F8B46B" fill-opacity="0.94"/>
<circle cx="318" cy="287" r="3" fill="#F8B46B" fill-opacity="0.94"/>
<circle cx="331" cy="319" r="3" fill="#F8B46B" fill-opacity="0.94"/>
<circle cx="358" cy="319" r="3" fill="#F8B46B" fill-opacity="0.94"/>
<circle cx="421" cy="160" r="3" fill="#F8B46B" fill-opacity="0.94"/>
<circle cx="389" cy="160" r="3" fill="#F8B46B" fill-opacity="0.94"/>
<circle cx="369" cy="160" r="3" fill="#F8B46B" fill-opacity="0.94"/>
<circle cx="336" cy="160" r="3" fill="#F8B46B" fill-opacity="0.94"/>
<circle cx="315" cy="160" r="3" fill="#F8B46B" fill-opacity="0.94"/>
<circle cx="288" cy="176" r="3" fill="#F8B46B" fill-opacity="0.94"/>
<circle cx="269" cy="194" r="3" fill="#F8B46B" fill-opacity="0.94"/>
<circle cx="276" cy="218" r="3" fill="#F8B46B" fill-opacity="0.94"/>
<circle cx="285" cy="261" r="3" fill="#F8B46B" fill-opacity="0.94"/>
<circle cx="264" cy="267" r="3" fill="#F8B46B" fill-opacity="0.94"/>
<circle cx="264" cy="314" r="3" fill="#F8B46B" fill-opacity="0.94"/>
<circle cx="252" cy="332" r="3" fill="#F8B46B" fill-opacity="0.94"/>
<circle cx="267" cy="349" r="3" fill="#F8B46B" fill-opacity="0.94"/>
<circle cx="240" cy="350" r="3" fill="#F8B46B" fill-opacity="0.94"/>
<circle cx="261" cy="376" r="3" fill="#F8B46B" fill-opacity="0.94"/>
<circle cx="303" cy="343" r="3" fill="#F8B46B" fill-opacity="0.94"/>
<circle cx="297" cy="394" r="3" fill="#F8B46B" fill-opacity="0.94"/>
<circle cx="273" cy="346" r="3" fill="#F8B46B" fill-opacity="0.94"/>
<circle cx="306" cy="305" r="3" fill="#F8B46B" fill-opacity="0.94"/>
<circle cx="270" cy="250" r="3" fill="#F8B46B" fill-opacity="0.94"/>
<circle cx="273" cy="145" r="3" fill="#F8B46B" fill-opacity="0.94"/>
<circle cx="272" cy="82" r="3" fill="#F8B46B" fill-opacity="0.94"/>
<circle cx="291" cy="76" r="3" fill="#F8B46B" fill-opacity="0.94"/>
<circle cx="276" cy="19" r="3" fill="#F8B46B" fill-opacity="0.94"/>
<circle cx="240" cy="30" r="3" fill="#F8B46B" fill-opacity="0.94"/>
<circle cx="276" cy="52" r="3" fill="#F8B46B" fill-opacity="0.94"/>
<circle cx="291" cy="13" r="3" fill="#F8B46B" fill-opacity="0.94"/>
<circle cx="326" cy="30" r="3" fill="#F8B46B" fill-opacity="0.94"/>
<circle cx="300" cy="55" r="3" fill="#F8B46B" fill-opacity="0.94"/>
<circle cx="303" cy="382" r="3" fill="#F8B46B" fill-opacity="0.94"/>
<circle cx="245" cy="391" r="3" fill="#F8B46B" fill-opacity="0.94"/>
<circle cx="353" cy="382" r="3" fill="#F8B46B" fill-opacity="0.94"/>
<circle cx="424" cy="112" r="3" fill="#F8B46B" fill-opacity="0.94"/>
<circle cx="353" cy="76" r="3" fill="#F8B46B" fill-opacity="0.94"/>
<circle cx="350" cy="115" r="3" fill="#F8B46B" fill-opacity="0.94"/>
<circle cx="336" cy="142" r="3" fill="#F8B46B" fill-opacity="0.94"/>
<circle cx="361" cy="103" r="3" fill="#F8B46B" fill-opacity="0.94"/>
<circle cx="361" cy="139" r="3" fill="#F8B46B" fill-opacity="0.94"/>
<circle cx="297" cy="142" r="3" fill="#F8B46B" fill-opacity="0.94"/>
<circle cx="267" cy="166" r="3" fill="#F8B46B" fill-opacity="0.94"/>
<circle cx="237" cy="170" r="3" fill="#F8B46B" fill-opacity="0.94"/>
<circle cx="246" cy="209" r="3" fill="#F8B46B" fill-opacity="0.94"/>
<circle cx="219" cy="224" r="3" fill="#F8B46B" fill-opacity="0.94"/>
<circle cx="213" cy="259" r="3" fill="#F8B46B" fill-opacity="0.94"/>
<circle cx="168" cy="250" r="3" fill="#F8B46B" fill-opacity="0.94"/>
<circle cx="138" cy="244" r="3" fill="#F8B46B" fill-opacity="0.94"/>
<circle cx="124" cy="200" r="3" fill="#F8B46B" fill-opacity="0.94"/>
<circle cx="115" cy="182" r="3" fill="#F8B46B" fill-opacity="0.94"/>
<circle cx="300" cy="112" r="3" fill="#F8B46B" fill-opacity="0.94"/>
<circle cx="231" cy="112" r="3" fill="#F8B46B" fill-opacity="0.94"/>
<circle cx="225" cy="194" r="3" fill="#F8B46B" fill-opacity="0.94"/>
<circle cx="192" cy="194" r="3" fill="#F8B46B" fill-opacity="0.94"/>
<circle cx="156" cy="200" r="3" fill="#F8B46B" fill-opacity="0.94"/>
<circle cx="180" cy="270" r="3" fill="#F8B46B" fill-opacity="0.94"/>
<circle cx="174" cy="329" r="3" fill="#F8B46B" fill-opacity="0.94"/>
<circle cx="210" cy="329" r="3" fill="#F8B46B" fill-opacity="0.94"/>
<circle cx="233" cy="335" r="3" fill="#F8B46B" fill-opacity="0.94"/>
<circle cx="192" cy="376" r="3" fill="#F8B46B" fill-opacity="0.94"/>
<circle cx="124" cy="247" r="3" fill="#F8B46B" fill-opacity="0.94"/>
<circle cx="121" cy="164" r="3" fill="#F8B46B" fill-opacity="0.94"/>
<circle cx="121" cy="112" r="3" fill="#F8B46B" fill-opacity="0.94"/>
<circle cx="162" cy="112" r="3" fill="#F8B46B" fill-opacity="0.94"/>
<circle cx="192" cy="91" r="3" fill="#F8B46B" fill-opacity="0.94"/>
<circle cx="177" cy="55" r="3" fill="#F8B46B" fill-opacity="0.94"/>
<circle cx="249" cy="55" r="3" fill="#F8B46B" fill-opacity="0.94"/>
<circle cx="297" cy="24" r="3" fill="#F8B46B" fill-opacity="0.94"/>
<circle cx="231" cy="64" r="3" fill="#F8B46B" fill-opacity="0.94"/>
<circle cx="231" cy="103" r="3" fill="#F8B46B" fill-opacity="0.94"/>
<circle cx="323" cy="97" r="3" fill="#F8B46B" fill-opacity="0.94"/>
<circle cx="323" cy="46" r="3" fill="#F8B46B" fill-opacity="0.94"/>
<circle cx="322" cy="79" r="3" fill="#F8B46B" fill-opacity="0.94"/>
<circle cx="343" cy="85" r="3" fill="#F8B46B" fill-opacity="0.94"/>
<circle cx="381" cy="31" r="3" fill="#F8B46B" fill-opacity="0.94"/>
<circle cx="353" cy="24" r="3" fill="#F8B46B" fill-opacity="0.94"/>
<circle cx="353" cy="61" r="3" fill="#F8B46B" fill-opacity="0.94"/>
<circle cx="375" cy="73" r="3" fill="#F8B46B" fill-opacity="0.94"/>
<circle cx="399" cy="27" r="3" fill="#F8B46B" fill-opacity="0.94"/>
<circle cx="424" cy="55" r="3" fill="#F8B46B" fill-opacity="0.94"/>
<circle cx="414" cy="100" r="3" fill="#F8B46B" fill-opacity="0.94"/>
<circle cx="352" cy="105" r="3" fill="#F8B46B" fill-opacity="0.94"/>
</g>
<path d="M98.8795 326.004C98.8795 326.004 36.4372 303.89 33.0622 268.197C29.6872 232.504 51.1303 203.513 51.1303 203.513C51.1303 203.513 115.59 118.456 123.369 72.7246C131.148 26.9929 184.5 29.3301 184.5 29.3301C184.5 29.3301 236.009 29.1379 238.993 60.8538C238.993 60.8538 323.972 54.857 340.874 138.261C340.874 138.261 430 196.83 357.141 257.724L291.391 307.891C291.391 307.891 242 352.823 212.933 372.224C212.933 372.224 151.418 403.009 121.544 352.823C121.532 352.873 106.791 327.276 98.8795 326.004Z" fill="#F09737" fill-opacity="0.21" stroke="black" stroke-miterlimit="10"/>
<path d="M228.355 86.4246C228.355 86.4246 290.525 124.798 302.225 142.745C313.033 159.321 293.256 108.468 293.256 108.468C293.256 108.468 334.723 75.955 351.163 84.3028C367.602 92.6506 350.122 61.5711 350.122 61.5711C350.122 61.5711 298.67 63.2772 278.716 85.4764C278.679 85.4598 235.603 77.4912 228.355 86.4246Z" fill="#619154" stroke="black" stroke-miterlimit="10"/>
</svg>
