<svg width="285" height="356" viewBox="0 0 285 356" fill="none" xmlns="http://www.w3.org/2000/svg">
<mask id="mask0" mask-type="alpha" maskUnits="userSpaceOnUse" x="0" y="0" width="282" height="356">
<path d="M104.262 59.313C104.262 59.313 122.729 77.1405 126.579 90.7353C130.795 105.577 156.285 136.181 156.285 136.181C156.285 136.181 210.437 163.988 228.185 185.275C245.933 206.561 284.476 258.627 260.911 301.095C237.346 343.563 209.017 346.444 209.017 346.444C209.017 346.444 151.596 363.259 116.443 319.905C81.2902 276.552 31.7492 201.187 19.6464 138.168C19.6464 138.168 11.8064 88.1991 19.1078 80.6496C25.6426 73.8971 53.8495 61.3223 70.133 52.8687C74.0441 50.8445 78.4117 49.8647 82.8127 50.0242C87.2137 50.1837 91.4989 51.4771 95.2532 53.7791L104.262 59.313Z" fill="#534B6A" stroke="#020100" stroke-miterlimit="10"/>
<path d="M108.579 71.1231C108.579 71.1231 83.5502 82.1205 76.9521 76.1649C76.9521 76.1649 80.3531 100.495 74.7954 108.173C74.7954 108.173 51.0448 105.236 46.7447 87.9836C46.7447 87.9836 32.5324 109.438 24.4654 112.276C16.3983 115.115 6.53764 66.4357 42.3426 54.8765L31.9946 7.60257L51.9334 2.85553L56.852 49.8803C56.852 49.8803 102.178 37.5766 108.579 71.1231Z" stroke="#020100" stroke-miterlimit="10"/>
</mask>
<g mask="url(#mask0)">
<rect x="-120" y="144.427" width="402.587" height="415.524" transform="rotate(-29.5298 -120 144.427)" fill="#7B6CA7" fill-opacity="0.24"/>
<ellipse cx="4.22249" cy="149.325" rx="6.52386" ry="37.0358" transform="rotate(-31.4647 4.22249 149.325)" fill="#A59EB9"/>
<ellipse cx="-18.0353" cy="162.947" rx="6.52386" ry="37.0358" transform="rotate(-31.4647 -18.0353 162.947)" fill="#A59EB9"/>
<ellipse cx="0.29946" cy="217.17" rx="6.1401" ry="37.0358" transform="rotate(-31.4647 0.29946 217.17)" fill="#A59EB9"/>
<ellipse cx="22.5535" cy="138.108" rx="6.52386" ry="37.0358" transform="rotate(-31.4647 22.5535 138.108)" fill="#A59EB9"/>
<ellipse cx="43.0418" cy="262.754" rx="6.52386" ry="37.0358" transform="rotate(-31.4647 43.0418 262.754)" fill="#A59EB9"/>
<ellipse cx="21.4383" cy="275.974" rx="6.52386" ry="37.0358" transform="rotate(-31.4647 21.4383 275.974)" fill="#A59EB9"/>
<ellipse cx="-0.820476" cy="289.596" rx="6.52386" ry="37.0358" transform="rotate(-31.4647 -0.820476 289.596)" fill="#A59EB9"/>
<ellipse cx="42.5262" cy="191.331" rx="6.52386" ry="37.0358" transform="rotate(-31.4647 42.5262 191.331)" fill="#A59EB9"/>
<ellipse cx="62.4938" cy="179.113" rx="6.1401" ry="37.0358" transform="rotate(-31.4647 62.4938 179.113)" fill="#A59EB9"/>
<ellipse cx="44.158" cy="124.888" rx="6.52386" ry="37.0358" transform="rotate(-31.4647 44.158 124.888)" fill="#A59EB9"/>
<ellipse cx="84.4246" cy="165.69" rx="6.52386" ry="37.0358" transform="rotate(-31.4647 84.4246 165.69)" fill="#A59EB9"/>
<ellipse cx="66.4149" cy="111.266" rx="6.52386" ry="37.0358" transform="rotate(-31.4647 66.4149 111.266)" fill="#A59EB9"/>
<ellipse cx="108.646" cy="150.869" rx="6.52386" ry="37.0358" transform="rotate(-31.4647 108.646 150.869)" fill="#A59EB9"/>
<ellipse cx="63.3358" cy="250.334" rx="6.52386" ry="37.0358" transform="rotate(-31.4647 63.3358 250.334)" fill="#A59EB9"/>
<ellipse cx="87.5584" cy="235.511" rx="6.52386" ry="37.0358" transform="rotate(-31.4647 87.5584 235.511)" fill="#A59EB9"/>
<ellipse cx="105.235" cy="224.695" rx="6.52386" ry="37.0358" transform="rotate(-31.4647 105.235 224.695)" fill="#A59EB9"/>
<ellipse cx="125.529" cy="212.275" rx="6.52386" ry="37.0358" transform="rotate(-31.4647 125.529 212.275)" fill="#A59EB9"/>
<ellipse cx="22.2323" cy="203.751" rx="6.52386" ry="37.0358" transform="rotate(-31.4647 22.2323 203.751)" fill="#A59EB9"/>
<ellipse cx="-21.63" cy="230.592" rx="6.52386" ry="37.0358" transform="rotate(-31.4647 -21.63 230.592)" fill="#A59EB9"/>
<ellipse cx="89.1961" cy="308.767" rx="6.52386" ry="37.0358" transform="rotate(-31.4647 89.1961 308.767)" fill="#A59EB9"/>
<ellipse cx="66.9373" cy="322.387" rx="6.52386" ry="37.0358" transform="rotate(-31.4647 66.9373 322.387)" fill="#A59EB9"/>
<ellipse cx="85.2731" cy="376.611" rx="6.1401" ry="37.0358" transform="rotate(-31.4647 85.2731 376.611)" fill="#A59EB9"/>
<ellipse cx="45.3338" cy="335.608" rx="6.52386" ry="37.0358" transform="rotate(-31.4647 45.3338 335.608)" fill="#A59EB9"/>
<ellipse cx="107.527" cy="297.549" rx="6.52386" ry="37.0358" transform="rotate(-31.4647 107.527 297.549)" fill="#A59EB9"/>
<ellipse cx="21.1112" cy="350.43" rx="6.52386" ry="37.0358" transform="rotate(-31.4647 21.1112 350.43)" fill="#A59EB9"/>
<ellipse cx="127.499" cy="350.771" rx="6.52386" ry="37.0358" transform="rotate(-31.4647 127.499 350.771)" fill="#A59EB9"/>
<ellipse cx="147.466" cy="338.552" rx="6.1401" ry="37.0358" transform="rotate(-31.4647 147.466 338.552)" fill="#A59EB9"/>
<ellipse cx="129.13" cy="284.328" rx="6.52386" ry="37.0358" transform="rotate(-31.4647 129.13 284.328)" fill="#A59EB9"/>
<ellipse cx="169.397" cy="325.132" rx="6.52386" ry="37.0358" transform="rotate(-31.4647 169.397 325.132)" fill="#A59EB9"/>
<ellipse cx="151.389" cy="270.706" rx="6.52386" ry="37.0358" transform="rotate(-31.4647 151.389 270.706)" fill="#A59EB9"/>
<ellipse cx="193.62" cy="310.309" rx="6.52386" ry="37.0358" transform="rotate(-31.4647 193.62 310.309)" fill="#A59EB9"/>
<ellipse cx="190.208" cy="384.136" rx="6.52386" ry="37.0358" transform="rotate(-31.4647 190.208 384.136)" fill="#A59EB9"/>
<ellipse cx="210.502" cy="371.715" rx="6.52386" ry="37.0358" transform="rotate(-31.4647 210.502 371.715)" fill="#A59EB9"/>
<ellipse cx="107.205" cy="363.192" rx="6.52386" ry="37.0358" transform="rotate(-31.4647 107.205 363.192)" fill="#A59EB9"/>
<ellipse cx="63.3426" cy="390.033" rx="6.52386" ry="37.0358" transform="rotate(-31.4647 63.3426 390.033)" fill="#A59EB9"/>
<ellipse cx="238.93" cy="210.842" rx="6.52386" ry="37.0358" transform="rotate(-31.4647 238.93 210.842)" fill="#A59EB9"/>
<ellipse cx="216.67" cy="224.462" rx="6.52386" ry="37.0358" transform="rotate(-31.4647 216.67 224.462)" fill="#A59EB9"/>
<ellipse cx="235.006" cy="278.686" rx="6.1401" ry="37.0358" transform="rotate(-31.4647 235.006 278.686)" fill="#A59EB9"/>
<ellipse cx="195.067" cy="237.683" rx="6.52386" ry="37.0358" transform="rotate(-31.4647 195.067 237.683)" fill="#A59EB9"/>
<ellipse cx="257.26" cy="199.625" rx="6.52386" ry="37.0358" transform="rotate(-31.4647 257.26 199.625)" fill="#A59EB9"/>
<ellipse cx="277.748" cy="324.269" rx="6.52386" ry="37.0358" transform="rotate(-31.4647 277.748 324.269)" fill="#A59EB9"/>
<ellipse cx="256.144" cy="337.491" rx="6.52386" ry="37.0358" transform="rotate(-31.4647 256.144 337.491)" fill="#A59EB9"/>
<ellipse cx="170.845" cy="252.508" rx="6.52386" ry="37.0358" transform="rotate(-31.4647 170.845 252.508)" fill="#A59EB9"/>
<ellipse cx="233.886" cy="351.111" rx="6.52386" ry="37.0358" transform="rotate(-31.4647 233.886 351.111)" fill="#A59EB9"/>
<ellipse cx="277.232" cy="252.847" rx="6.52386" ry="37.0358" transform="rotate(-31.4647 277.232 252.847)" fill="#A59EB9"/>
<ellipse cx="297.2" cy="240.628" rx="6.1401" ry="37.0358" transform="rotate(-31.4647 297.2 240.628)" fill="#A59EB9"/>
<ellipse cx="278.861" cy="186.404" rx="6.52386" ry="37.0358" transform="rotate(-31.4647 278.861 186.404)" fill="#A59EB9"/>
<ellipse cx="301.121" cy="172.782" rx="6.52386" ry="37.0358" transform="rotate(-31.4647 301.121 172.782)" fill="#A59EB9"/>
<ellipse cx="298.043" cy="311.851" rx="6.52386" ry="37.0358" transform="rotate(-31.4647 298.043 311.851)" fill="#A59EB9"/>
<ellipse cx="256.937" cy="265.267" rx="6.52386" ry="37.0358" transform="rotate(-31.4647 256.937 265.267)" fill="#A59EB9"/>
<ellipse cx="213.075" cy="292.107" rx="6.52386" ry="37.0358" transform="rotate(-31.4647 213.075 292.107)" fill="#A59EB9"/>
<ellipse cx="155.639" cy="54.1487" rx="6.52386" ry="37.0358" transform="rotate(-31.4647 155.639 54.1487)" fill="#A59EB9"/>
<ellipse cx="133.381" cy="67.7703" rx="6.52386" ry="37.0358" transform="rotate(-31.4647 133.381 67.7703)" fill="#A59EB9"/>
<ellipse cx="151.715" cy="121.994" rx="6.1401" ry="37.0358" transform="rotate(-31.4647 151.715 121.994)" fill="#A59EB9"/>
<ellipse cx="111.777" cy="80.9905" rx="6.52386" ry="37.0358" transform="rotate(-31.4647 111.777 80.9905)" fill="#A59EB9"/>
<ellipse cx="173.969" cy="42.931" rx="6.52386" ry="37.0358" transform="rotate(-31.4647 173.969 42.931)" fill="#A59EB9"/>
<ellipse cx="194.458" cy="167.577" rx="6.52386" ry="37.0358" transform="rotate(-31.4647 194.458 167.577)" fill="#A59EB9"/>
<ellipse cx="172.854" cy="180.797" rx="6.52386" ry="37.0358" transform="rotate(-31.4647 172.854 180.797)" fill="#A59EB9"/>
<ellipse cx="87.5545" cy="95.8152" rx="6.52386" ry="37.0358" transform="rotate(-31.4647 87.5545 95.8152)" fill="#A59EB9"/>
<ellipse cx="150.596" cy="194.418" rx="6.52386" ry="37.0358" transform="rotate(-31.4647 150.596 194.418)" fill="#A59EB9"/>
<ellipse cx="193.942" cy="96.1541" rx="6.52386" ry="37.0358" transform="rotate(-31.4647 193.942 96.1541)" fill="#A59EB9"/>
<ellipse cx="213.91" cy="83.936" rx="6.1401" ry="37.0358" transform="rotate(-31.4647 213.91 83.936)" fill="#A59EB9"/>
<ellipse cx="195.573" cy="29.7108" rx="6.52386" ry="37.0358" transform="rotate(-31.4647 195.573 29.7108)" fill="#A59EB9"/>
<ellipse cx="235.84" cy="70.5135" rx="6.52386" ry="37.0358" transform="rotate(-31.4647 235.84 70.5135)" fill="#A59EB9"/>
<ellipse cx="217.831" cy="16.0897" rx="6.52386" ry="37.0358" transform="rotate(-31.4647 217.831 16.0897)" fill="#A59EB9"/>
<ellipse cx="260.062" cy="55.6922" rx="6.52386" ry="37.0358" transform="rotate(-31.4647 260.062 55.6922)" fill="#A59EB9"/>
<ellipse cx="214.751" cy="155.158" rx="6.52386" ry="37.0358" transform="rotate(-31.4647 214.751 155.158)" fill="#A59EB9"/>
<ellipse cx="238.974" cy="140.334" rx="6.52386" ry="37.0358" transform="rotate(-31.4647 238.974 140.334)" fill="#A59EB9"/>
<ellipse cx="256.65" cy="129.518" rx="6.52386" ry="37.0358" transform="rotate(-31.4647 256.65 129.518)" fill="#A59EB9"/>
<ellipse cx="276.945" cy="117.098" rx="6.52386" ry="37.0358" transform="rotate(-31.4647 276.945 117.098)" fill="#A59EB9"/>
<ellipse cx="173.648" cy="108.574" rx="6.52386" ry="37.0358" transform="rotate(-31.4647 173.648 108.574)" fill="#A59EB9"/>
<ellipse cx="129.786" cy="135.415" rx="6.52386" ry="37.0358" transform="rotate(-31.4647 129.786 135.415)" fill="#A59EB9"/>
</g>
<path d="M104.262 59.3121C104.262 59.3121 122.729 77.1395 126.579 90.7344C130.795 105.576 156.285 136.18 156.285 136.18C156.285 136.18 210.437 163.987 228.185 185.274C245.933 206.56 284.476 258.626 260.911 301.094C237.346 343.562 209.017 346.443 209.017 346.443C209.017 346.443 151.596 363.258 116.443 319.905C81.2902 276.551 31.7492 201.186 19.6464 138.167C19.6464 138.167 11.8064 88.1981 19.1078 80.6486C25.6426 73.8962 53.8495 61.3214 70.133 52.8677C74.0441 50.8435 78.4117 49.8637 82.8127 50.0232C87.2137 50.1827 91.4989 51.4761 95.2532 53.7782L104.262 59.3121Z" stroke="#020100" stroke-miterlimit="10"/>
<path d="M108.579 71.1221C108.579 71.1221 83.5502 82.1195 76.9521 76.1639C76.9521 76.1639 80.3531 100.494 74.7954 108.172C74.7954 108.172 51.0448 105.235 46.7447 87.9827C46.7447 87.9827 32.5324 109.437 24.4653 112.275C16.3983 115.114 6.53764 66.4347 42.3426 54.8755L31.9946 7.60159L51.9334 2.85455L56.852 49.8793C56.852 49.8793 102.178 37.5756 108.579 71.1221Z" fill="#619154" stroke="#020100" stroke-miterlimit="10"/>
</svg>
