<svg width="419" height="235" viewBox="0 0 419 235" fill="none" xmlns="http://www.w3.org/2000/svg">
<mask id="mask0" mask-type="alpha" maskUnits="userSpaceOnUse" x="0" y="31" width="418" height="170">
<path d="M333.075 70.4214C333.075 70.4214 306.181 21.8001 240.61 61.6752L4.89889 188.979C4.89889 188.979 -9.17103 200.162 18.2976 199.564L269.401 167.633C269.401 167.633 328.936 157.742 342.225 101.209L333.075 70.4214Z" fill="#F09737" stroke="black" stroke-miterlimit="10"/>
<path d="M333.91 76.5109C333.91 76.5109 311.72 95.6392 337.174 98.3967L408.146 91.8592L406.003 73.7228L417.063 62.2012L402.635 43.9656L372.315 70.1724L391.387 43.7799L377.895 32.142L333.91 76.5109Z" stroke="black" stroke-miterlimit="10"/>
</mask>
<g mask="url(#mask0)">
<rect x="-180.782" y="-73.1763" width="850.691" height="479.582" fill="#FFEA64" fill-opacity="0.24"/>
<path d="M-13.9678 182.026L32.6153 167.518L69.438 182.026V205.573L32.6153 215.324L-13.9678 205.573V182.026Z" fill="#F09737" fill-opacity="0.53"/>
<path d="M-13.9678 133.507L32.6153 118.999L69.438 133.507V157.053L32.6153 166.805L-13.9678 157.053V133.507Z" fill="#F09737" fill-opacity="0.53"/>
<path d="M69.4326 206.286L116.016 191.778L152.838 206.286V229.832L116.016 239.584L69.4326 229.832V206.286Z" fill="#F09737" fill-opacity="0.53"/>
<path d="M69.4326 157.29L116.016 142.781L152.838 157.29V180.836L116.016 190.587L69.4326 180.836V157.29Z" fill="#F09737" fill-opacity="0.53"/>
<path d="M69.4326 108.295L116.016 93.7871L152.838 108.295V131.842L116.016 141.593L69.4326 131.842V108.295Z" fill="#F09737" fill-opacity="0.53"/>
<path d="M-13.9668 85.9384L32.6162 71.4302L69.439 85.9384V109.485L32.6162 119.236L-13.9668 109.485V85.9384Z" fill="#F09737" fill-opacity="0.53"/>
<path d="M152.84 132.555L199.423 118.046L236.246 132.555V156.101L199.423 165.852L152.84 156.101V132.555Z" fill="#F09737" fill-opacity="0.53"/>
<path d="M152.84 181.076L199.423 166.567L236.246 181.076V204.622L199.423 214.373L152.84 204.622V181.076Z" fill="#F09737" fill-opacity="0.53"/>
<path d="M69.4346 13.1601L116.018 -1.34814L152.84 13.1601V36.7063L116.018 46.4577L69.4346 36.7063V13.1601Z" fill="#F09737" fill-opacity="0.53"/>
<path d="M152.842 37.4184L199.425 22.9102L236.248 37.4184V60.9646L199.425 70.716L152.842 60.9646V37.4184Z" fill="#F09737" fill-opacity="0.53"/>
<path d="M-13.9688 37.4184L32.6143 22.9102L69.437 37.4184V60.9646L32.6143 70.716L-13.9688 60.9646V37.4184Z" fill="#F09737" fill-opacity="0.53"/>
<path d="M236.246 61.6792L282.829 47.1709L319.652 61.6792V85.2253L282.829 94.9768L236.246 85.2253V61.6792Z" fill="#F09737" fill-opacity="0.53"/>
<path d="M236.246 12.684L282.829 -1.82422L319.652 12.684V36.2302L282.829 45.9817L236.246 36.2302V12.684Z" fill="#F09737" fill-opacity="0.53"/>
<path d="M69.4346 60.7285L116.018 46.2202L152.84 60.7285V84.2747L116.018 94.0261L69.4346 84.2747V60.7285Z" fill="#F09737" fill-opacity="0.53"/>
<path d="M319.652 36.4702L366.235 21.9619L403.058 36.4702V60.0163L366.235 69.7678L319.652 60.0163V36.4702Z" fill="#F09737" fill-opacity="0.53"/>
<path d="M152.842 85.9379L199.425 71.4297L236.248 85.9379V109.484L199.425 119.236L152.842 109.484V85.9379Z" fill="#F09737" fill-opacity="0.53"/>
<path d="M319.654 132.555L366.237 118.047L403.06 132.555V156.101L366.237 165.853L319.654 156.101V132.555Z" fill="#F09737" fill-opacity="0.53"/>
<path d="M403.062 156.814L449.646 142.306L486.468 156.814V180.361L449.646 190.112L403.062 180.361V156.814Z" fill="#F09737" fill-opacity="0.53"/>
<path d="M403.062 108.295L449.646 93.7866L486.468 108.295V131.841L449.646 141.593L403.062 131.841V108.295Z" fill="#F09737" fill-opacity="0.53"/>
<path d="M236.247 156.814L282.83 142.306L319.653 156.814V180.361L282.83 190.112L236.247 180.361V156.814Z" fill="#F09737" fill-opacity="0.53"/>
<path d="M319.654 180.123L366.237 165.615L403.06 180.123V203.669L366.237 213.421L319.654 203.669V180.123Z" fill="#F09737" fill-opacity="0.53"/>
<path d="M236.247 108.769L282.83 94.2612L319.653 108.769V132.316L282.83 142.067L236.247 132.316V108.769Z" fill="#F09737" fill-opacity="0.53"/>
<path d="M319.654 84.5097L366.237 70.0015L403.06 84.5097V108.056L366.237 117.807L319.654 108.056V84.5097Z" fill="#F09737" fill-opacity="0.53"/>
<path d="M403.061 60.728L449.644 46.2197L486.466 60.728V84.2742L449.644 94.0256L403.061 84.2742V60.728Z" fill="#F09737" fill-opacity="0.53"/>
<path d="M403.062 205.333L449.646 190.825L486.468 205.333V228.879L449.646 238.631L403.062 228.879V205.333Z" fill="#F09737" fill-opacity="0.53"/>
<path d="M236.245 206.286L282.828 191.777L319.651 206.286V229.832L282.828 239.583L236.245 229.832V206.286Z" fill="#F09737" fill-opacity="0.53"/>
</g>
<path d="M333.075 70.4189C333.075 70.4189 306.181 21.7976 240.61 61.6728L4.89888 188.976C4.89888 188.976 -9.17105 200.159 18.2976 199.562L269.401 167.63C269.401 167.63 328.936 157.74 342.225 101.207L333.075 70.4189Z" stroke="black" stroke-miterlimit="10"/>
<path d="M333.91 76.509C333.91 76.509 311.72 95.6372 337.174 98.3948L408.146 91.8573L406.003 73.7208L417.063 62.1992L402.635 43.9636L372.315 70.1704L391.387 43.778L377.895 32.14L333.91 76.509Z" fill="#619154" stroke="black" stroke-miterlimit="10"/>
</svg>
