<svg width="466" height="995" viewBox="0 0 466 995" fill="none" xmlns="http://www.w3.org/2000/svg">
<g filter="url(#filter0_d)">
<path d="M-139.382 608.853L-290.379 720.251L-130.974 856L-35.9736 804.5C167.551 695.3 245.031 505.041 258.33 423.561C258.33 423.561 263.936 406.483 261.55 400.651C273.87 402.932 299.349 380.997 310.549 369.744C331.708 371.883 380.368 369.445 405.739 342.581C419.103 329.616 413.172 310.871 408.537 303.119C428.402 306.461 436.091 291.188 437.452 283.133C444.954 264.948 433.664 253.054 427.081 249.38L398.112 245.309L392.417 236.95C397.268 237.631 410.27 232.129 416.164 229.293C437.89 203.761 426.295 184.907 417.783 178.672L380.055 173.369C365.941 160.391 347.535 158.721 340.096 159.508C342.302 147.724 340.193 131.119 338.862 124.29C335.122 103.975 311.604 96.6379 300.313 95.5089C291.533 84.655 268.355 62.8446 245.878 62.4343C223.402 62.0241 177.615 83.7621 157.531 94.6823L50.5264 161C34.5177 161.499 -1.55055 190.285 -13.3923 201.218C-49.6024 220.316 -52.0769 269.535 -48.7879 291.756L-60.9695 437.093C-73.8489 528.735 -118.611 589.784 -139.382 608.853Z" fill="url(#paint0_linear)"/>
<path d="M-139.382 608.853L-290.379 720.251L-130.974 856L-35.9736 804.5C167.551 695.3 245.031 505.041 258.33 423.561C258.33 423.561 263.936 406.483 261.55 400.651C273.87 402.932 299.349 380.997 310.549 369.744C331.708 371.883 380.368 369.445 405.739 342.581C419.103 329.616 413.172 310.871 408.537 303.119C428.402 306.461 436.091 291.188 437.452 283.133C444.954 264.948 433.664 253.054 427.081 249.38L398.112 245.309L392.417 236.95C397.268 237.631 410.27 232.129 416.164 229.293C437.89 203.761 426.295 184.907 417.783 178.672L380.055 173.369C365.941 160.391 347.535 158.721 340.096 159.508C342.302 147.724 340.193 131.119 338.862 124.29C335.122 103.975 311.604 96.6379 300.313 95.5089C291.533 84.655 268.355 62.8446 245.878 62.4343C223.402 62.0241 177.615 83.7621 157.531 94.6823L50.5264 161C34.5177 161.499 -1.55055 190.285 -13.3923 201.218C-49.6024 220.316 -52.0769 269.535 -48.7879 291.756L-60.9695 437.093C-73.8489 528.735 -118.611 589.784 -139.382 608.853Z" stroke="black"/>
</g>
<path d="M214.948 329.303C220.343 331.701 231.456 333.484 237.208 332.431C245.026 331 267.206 310.739 281.026 300.5C306.026 290.601 342.661 298.62 352.3 296.601C357.92 299.031 373.863 302.724 392.678 298.059C396.79 298.168 405.668 299.604 408.286 304.469" stroke="black"/>
<path d="M54.5274 206C71.3619 211.127 104.199 228.557 106.28 254.259L112.027 277.5L91.5927 292.933C71.2791 273.737 24.0027 236.067 -2.59395 238.958" stroke="black"/>
<path d="M54.5281 206.58C68.0279 210.5 89.0279 223 103.078 238C109.635 245 127.003 243.77 171.528 212.499" stroke="black"/>
<defs>
<filter id="filter0_d" x="-362.877" y="0.393555" width="828.714" height="993.671" filterUnits="userSpaceOnUse" color-interpolation-filters="sRGB">
<feFlood flood-opacity="0" result="BackgroundImageFix"/>
<feColorMatrix in="SourceAlpha" type="matrix" values="0 0 0 0 0 0 0 0 0 0 0 0 0 0 0 0 0 0 127 0"/>
<feOffset dx="-36" dy="50"/>
<feGaussianBlur stdDeviation="10"/>
<feColorMatrix type="matrix" values="0 0 0 0 0 0 0 0 0 0 0 0 0 0 0 0 0 0 0.15 0"/>
<feBlend mode="normal" in2="BackgroundImageFix" result="effect1_dropShadow"/>
<feBlend mode="normal" in="SourceGraphic" in2="effect1_dropShadow" result="shape"/>
</filter>
<linearGradient id="paint0_linear" x1="137.989" y1="46.9967" x2="203.526" y2="633" gradientUnits="userSpaceOnUse">
<stop offset="0.1875" stop-color="#FBEBE5"/>
<stop offset="1" stop-color="#F9E2DA"/>
</linearGradient>
</defs>
</svg>
