<svg width="159" height="246" viewBox="0 0 159 246" fill="none" xmlns="http://www.w3.org/2000/svg">
<mask id="mask0" mask-type="alpha" maskUnits="userSpaceOnUse" x="1" y="160" width="79" height="85">
<path d="M2.94646 188.856C1.34655 193.904 0.722805 199.245 1.11279 204.556C1.50278 209.868 2.89842 215.041 5.2157 219.763C9.83065 229.032 17.2957 236.333 26.3618 240.443C34.2492 244.145 45.0098 247.262 53.977 242.801C53.977 242.801 60.8213 240.453 69.1205 232.329C69.1205 232.329 86.1307 210.763 77.6119 187.19C77.6119 187.19 76.523 180.43 67.4186 170.065C66.9062 169.481 57.5272 162.701 56.8501 162.37C49.228 158.707 36.4544 158.668 20.4507 166.724C11.9594 171 5.81961 179.319 2.94646 188.856Z" fill="#7F1C80"/>
</mask>
<g mask="url(#mask0)">
<path d="M-14.3632 115.518L157.586 220.917L-7.26301 320.678L-14.3632 115.518Z" fill="#F2ABEF" fill-opacity="0.47"/>
<path d="M-4.08288 245.893L22.1276 261.344L-3.52689 276.869L-4.08288 245.893Z" fill="#7F1C80" fill-opacity="0.38"/>
<path d="M21.1417 230.629L47.3522 246.08L21.6977 261.605L21.1417 230.629Z" fill="#7F1C80" fill-opacity="0.38"/>
<path d="M46.3644 215.364L72.5749 230.815L46.9204 246.34L46.3644 215.364Z" fill="#7F1C80" fill-opacity="0.38"/>
<path d="M70.7081 200.632L96.9187 216.083L71.2641 231.608L70.7081 200.632Z" fill="#7F1C80" fill-opacity="0.38"/>
<path d="M46.507 246.49L72.7175 261.94L47.063 277.465L46.507 246.49Z" fill="#7F1C80" fill-opacity="0.38"/>
<path d="M71.4366 231.402L97.6472 246.853L71.9926 262.378L71.4366 231.402Z" fill="#7F1C80" fill-opacity="0.38"/>
<path d="M-4.28992 216.025L21.9206 231.475L-3.73392 247L-4.28992 216.025Z" fill="#7F1C80" fill-opacity="0.38"/>
<path d="M-5.01843 185.254L21.1921 200.705L-4.46244 216.23L-5.01843 185.254Z" fill="#7F1C80" fill-opacity="0.38"/>
<path d="M20.2062 169.99L46.4167 185.441L20.7622 200.966L20.2062 169.99Z" fill="#7F1C80" fill-opacity="0.38"/>
<path d="M43.3741 155.968L69.5847 171.418L43.9301 186.943L43.3741 155.968Z" fill="#7F1C80" fill-opacity="0.38"/>
<path d="M-5.22742 155.386L20.9831 170.836L-4.67142 186.361L-5.22742 155.386Z" fill="#7F1C80" fill-opacity="0.38"/>
<path d="M18.2374 141.186L44.448 156.637L18.7934 172.162L18.2374 141.186Z" fill="#7F1C80" fill-opacity="0.38"/>
<path d="M20.9347 200.76L47.1452 216.211L21.4907 231.736L20.9347 200.76Z" fill="#7F1C80" fill-opacity="0.38"/>
<path d="M46.1574 185.496L72.3679 200.946L46.7133 216.471L46.1574 185.496Z" fill="#7F1C80" fill-opacity="0.38"/>
<path d="M69.0343 171.651L95.2448 187.102L69.5903 202.627L69.0343 171.651Z" fill="#7F1C80" fill-opacity="0.38"/>
</g>
<mask id="mask1" mask-type="alpha" maskUnits="userSpaceOnUse" x="80" y="120" width="78" height="86">
<path d="M87.0222 137.055C80.6955 147.996 70.3525 174.513 99.9784 198.43C99.9784 198.43 129.568 215.527 141.497 198.333C141.497 198.333 162.586 180.242 157.084 152.487C157.084 152.487 152.381 134.951 131.97 123.163C131.392 122.832 130.796 122.501 130.246 122.111C128.22 120.718 118.17 115.545 94.7244 129.31C91.5702 131.142 88.9165 133.81 87.0222 137.055Z" fill="#7F1C80"/>
</mask>
<g mask="url(#mask1)">
<path d="M65.9172 59.6827L238.225 165.094L73.0322 264.866L65.9172 59.6827Z" fill="#F2ABEF" fill-opacity="0.47"/>
<path d="M76.2214 190.073L102.487 205.525L76.7786 221.052L76.2214 190.073Z" fill="#7F1C80" fill-opacity="0.38"/>
<path d="M101.499 174.807L127.764 190.259L102.056 205.786L101.499 174.807Z" fill="#7F1C80" fill-opacity="0.38"/>
<path d="M126.774 159.539L153.039 174.992L127.331 190.519L126.774 159.539Z" fill="#7F1C80" fill-opacity="0.38"/>
<path d="M151.169 144.807L177.434 160.259L151.726 175.786L151.169 144.807Z" fill="#7F1C80" fill-opacity="0.38"/>
<path d="M102.52 205.403L128.785 220.855L103.077 236.382L102.52 205.403Z" fill="#7F1C80" fill-opacity="0.38"/>
<path d="M126.917 190.669L153.182 206.121L127.474 221.648L126.917 190.669Z" fill="#7F1C80" fill-opacity="0.38"/>
<path d="M151.899 175.579L178.164 191.032L152.456 206.559L151.899 175.579Z" fill="#7F1C80" fill-opacity="0.38"/>
<path d="M76.0124 160.2L102.278 175.652L76.5696 191.179L76.0124 160.2Z" fill="#7F1C80" fill-opacity="0.38"/>
<path d="M75.2839 129.427L101.549 144.879L75.8411 160.406L75.2839 129.427Z" fill="#7F1C80" fill-opacity="0.38"/>
<path d="M100.559 114.161L126.824 129.613L101.116 145.14L100.559 114.161Z" fill="#7F1C80" fill-opacity="0.38"/>
<path d="M123.778 100.137L150.043 115.589L124.335 131.116L123.778 100.137Z" fill="#7F1C80" fill-opacity="0.38"/>
<path d="M75.0749 99.5546L101.34 115.007L75.6321 130.534L75.0749 99.5546Z" fill="#7F1C80" fill-opacity="0.38"/>
<path d="M101.292 144.934L127.557 160.387L101.849 175.914L101.292 144.934Z" fill="#7F1C80" fill-opacity="0.38"/>
<path d="M126.565 129.668L152.83 145.12L127.122 160.647L126.565 129.668Z" fill="#7F1C80" fill-opacity="0.38"/>
<path d="M149.489 115.822L175.754 131.274L150.046 146.801L149.489 115.822Z" fill="#7F1C80" fill-opacity="0.38"/>
</g>
<path d="M2.94267 188.91C1.34587 193.997 0.723344 199.379 1.11257 204.732C1.5018 210.085 2.89473 215.298 5.2075 220.056C9.81348 229.397 17.264 236.754 26.3124 240.896C34.1845 244.626 44.9242 247.767 53.874 243.272C53.874 243.272 60.705 240.906 68.988 232.719C68.988 232.719 85.9651 210.986 77.4629 187.231C77.4629 187.231 76.3761 180.419 67.2894 169.975C66.778 169.386 57.4173 162.554 56.7415 162.22C49.1342 158.529 36.3854 158.49 20.4129 166.608C11.9381 170.917 5.81024 179.3 2.94267 188.91Z" stroke="black" stroke-miterlimit="10"/>
<path d="M87.3085 137.003C81.0071 148.026 70.7058 174.746 100.213 198.844C100.213 198.844 129.683 216.071 141.564 198.746C141.564 198.746 162.568 180.517 157.089 152.551C157.089 152.551 152.404 134.882 132.075 123.005C131.5 122.671 130.906 122.337 130.358 121.945C128.34 120.541 118.331 115.328 94.9797 129.199C91.8381 131.044 89.1951 133.732 87.3085 137.003Z" stroke="black" stroke-miterlimit="10"/>
<path d="M13.5546 158.42C13.5546 158.42 19.5 176.189 26.5 177.689C27.5 177.189 29.0887 177.189 29.6222 175.215C29.6723 174.33 29.4873 173.449 29.0887 172.673C25.3262 164.938 11.7372 135.096 15.6915 116.132C15.6915 116.132 22.9974 65.2744 29.1801 62.5847C29.1801 62.5847 34.3493 65.4524 41.5 74.6894C48.6507 83.9263 74.032 101.999 81 105.189C86.0411 107.477 92.3881 113.271 97 118.189C98.4603 119.755 100.703 126.706 101.664 128.667L102.641 130.63C103.39 132.212 104.638 133.457 106.162 134.142C107.686 134.827 109.386 134.908 110.961 134.37C112.55 133.781 113.563 132.593 112.577 130.277C110.056 124.387 104.65 106.09 82.1479 96.6761C82.1479 96.6761 56.0384 84.4649 47.0065 69.8486L32.5134 50.236L40.4311 45.7501C40.4311 45.7501 64.5 68.1894 87 64.1894C87 64.1894 111.855 58.5209 114.604 39.6444L123.837 9.45003C123.837 9.45003 111 9.92865 102.5 7.68964C102.5 7.68964 88.5 -5.31065 62.7963 4.93461C62.7963 4.93461 36.2211 18.7655 39.6092 40.204L30.8056 45.1807L28.2394 43.0114L20.9335 47.1636L22.4312 55.576C22.4312 55.576 12.2304 75.4046 9.96554 96.0184C7.70071 116.632 4.9062 140.77 13.5546 158.42Z" fill="#619154" stroke="black" stroke-miterlimit="10"/>
</svg>
