<svg width="1790" height="7530" viewBox="0 0 1790 7530" fill="none" xmlns="http://www.w3.org/2000/svg">
<path d="M0 6.40039H1790V6940.17H0V6.40039Z" fill="#E0D3BD"/>
<ellipse cx="1613.94" cy="3683.64" rx="22.407" ry="112.142" fill="#D9CEB9"/>
<ellipse cx="176.054" cy="485.019" rx="39.0522" ry="112.142" fill="#D9CEB9"/>
<ellipse cx="1612.67" cy="483.553" rx="39.0522" ry="112.142" fill="#D9CEB9"/>
<ellipse cx="1609.46" cy="2292.49" rx="19.206" ry="112.142" fill="#D9CEB9"/>
<ellipse cx="73.6225" cy="6207.94" rx="39.0522" ry="159.052" fill="#D9CEB9"/>
<ellipse cx="174.775" cy="3676.31" rx="18.5658" ry="112.142" fill="#D9CEB9"/>
<ellipse rx="31.7871" ry="111.712" transform="matrix(0.978802 0.204811 -0.157641 0.987497 774.712 2525.85)" fill="#D9CEB9"/>
<path d="M15.3652 6.40039L21.127 6940.17H37.7722C35.2114 6883.49 32.7787 6759.86 43.534 6718.82C54.2894 6677.77 44.1742 6588.84 37.7722 6549.51V6331.08C35.8516 6245.57 33.1628 6067.81 37.7722 6040.83C43.534 6007.12 45.4546 5738.86 37.7722 5710.27C30.0898 5681.68 37.7722 5443.47 37.7722 5431.75C37.7722 5420.02 44.8144 5309.34 37.7722 5280.02C30.73 5250.71 39.0526 5035.95 42.8938 5012.5C46.735 4989.04 48.0154 4808.73 42.8938 4776.48C37.7722 4744.23 33.931 4362.36 42.8938 4324.25C51.8566 4286.13 30.0898 4054.52 33.931 3989.29C37.7722 3924.05 53.7772 3520.93 40.9732 3471.09C30.73 3431.21 36.7052 3324.5 40.9732 3276.12C37.9856 3209.18 33.803 3069.13 40.9732 3044.51C48.1435 3019.88 43.9608 2721.03 40.9732 2574.68C45.0278 2071.14 50.7043 1058.34 40.9732 1035.47C31.2422 1012.6 36.9186 880.329 40.9732 817.051C44.601 663.618 49.68 351.476 40.9732 330.367C32.2665 309.258 37.3454 105.594 40.9732 6.40039H56.9783C54.204 99.9745 50.3202 305.154 56.9783 377.277C63.6363 449.399 59.7525 727.874 56.9783 858.096C53.9907 931.636 51.8566 1091.32 67.2215 1141.75C82.5863 1192.18 69.7823 1592.76 61.4597 1786.75V2235.32C54.6308 2354.31 46.0948 2612.35 66.5813 2692.69C92.1893 2793.1 56.3381 3087.02 52.4968 3099.48C49.4239 3109.45 55.0577 3351.37 58.2587 3471.09V4112.42C55.2711 4238.49 51.0884 4498.25 58.2587 4528.74C65.4289 4559.23 61.2463 4984.15 58.2587 5192.8C61.8865 5339.64 66.9654 5683.74 58.2587 5885.45C47.3752 6137.58 39.0526 6119.99 58.2587 6425.64C77.4647 6731.28 68.5019 6828.76 63.3803 6872.01C59.283 6906.6 58.2587 6931.86 58.2587 6940.17H90.2687C87.4945 6893.75 83.6106 6785.81 90.2687 6725.42C98.5913 6649.92 90.2687 6608.14 85.7873 6575.89C81.3059 6543.64 101.152 6393.39 90.2687 6325.22C79.3853 6257.06 110.755 6130.25 90.2687 6079.68C73.8795 6039.22 74.0503 5840 76.1843 5745.45V5280.02C86.0007 5194.76 102.689 5016.89 90.9089 4987.57C79.1292 4958.26 76.1843 4772.57 76.1843 4683.4C82.8396 4553.42 92.1572 4285.4 76.1843 4253.15C60.2114 4220.9 73.3701 4008.1 81.9461 3905.73L76.1843 3578.1V3180.1C88.1347 3039.62 108.45 2748.1 94.1099 2705.88C79.7694 2663.66 69.7823 2480.13 66.5813 2393.64C73.4101 2309.35 85.9153 2136.37 81.3059 2118.78C76.6964 2101.19 79.3853 1782.6 81.3059 1625.5L92.1893 1113.9C81.0925 1099.24 62.2279 1036.35 75.5441 902.074C88.8602 767.796 81.0925 668.26 75.5441 635.277V345.026V6.40039H88.9883L101.792 2685.36C112.035 2754.74 127.528 2927.67 107.554 3064.3C87.5798 3200.92 85.5739 3321.08 87.0677 3364.08L124.839 6940.17H151.728L107.554 6.40039H133.802C128.894 93.1336 122.023 279.353 133.802 330.367C148.527 394.135 99.8717 439.578 120.998 543.658C142.125 647.738 146.606 832.443 133.802 877.153C123.559 912.921 129.534 1245.34 133.802 1407.08C142.167 1623.55 155.159 2070.55 140.204 2126.84C125.25 2183.14 133.973 2423.45 140.204 2536.57V3210.15C136.576 3396.81 134.186 3779.37 153.648 3816.31C177.976 3862.49 126.76 3932.12 140.204 4008.34C153.648 4084.57 153.648 4117.55 153.648 4220.9C153.648 4303.58 158.77 4762.56 161.331 4981.71C167.349 5151.27 175.775 5502.7 161.331 5551.95C143.276 5613.52 161.331 5770.37 161.331 5805.55C161.331 5840.74 195.262 5979.27 185.659 6040.83C177.976 6090.09 166.239 6343.3 161.331 6463.75L172.854 6940.17H197.182C201.45 6884.96 205.121 6722.78 185.659 6515.79C206.572 6335.48 240.844 5956.98 210.626 5885.45C172.854 5796.03 177.336 5602.53 193.981 5507.24C207.297 5431.01 193.981 5085.06 185.659 4921.61L174.775 4253.15C163.892 4174.73 148.655 3972.72 174.775 3792.12C163.892 3795.79 146.35 3717.36 163.251 3374.34C184.378 2945.56 151.728 2972.68 163.251 2790.17C174.775 2607.66 194.47 2438.35 163.251 2363.59C132.033 2288.83 212.702 1714.19 176.055 1641.63C139.409 1569.06 145.966 998.091 153.648 970.239C161.331 942.386 189.525 627.948 153.648 543.658C124.948 476.226 156.628 404.64 176.055 377.277V6.40039" stroke="#F2E6D3" stroke-width="3"/>
<path d="M1771.83 7.86328L1766.07 6941.63H1749.43C1751.99 6884.95 1754.42 6761.33 1743.67 6720.28C1732.91 6679.24 1743.02 6590.3 1749.43 6550.97V6332.55C1751.35 6247.04 1754.04 6069.27 1749.43 6042.3C1743.67 6008.58 1741.74 5740.32 1749.43 5711.73C1757.11 5683.15 1749.43 5444.94 1749.43 5433.21C1749.43 5421.48 1742.38 5310.81 1749.43 5281.49C1756.47 5252.17 1748.15 5037.41 1744.31 5013.96C1740.46 4990.5 1739.18 4810.2 1744.31 4777.95C1749.43 4745.7 1753.27 4363.83 1744.31 4325.71C1735.34 4287.6 1757.11 4055.98 1753.27 3990.75C1749.43 3925.52 1733.42 3522.39 1746.23 3472.55C1756.47 3432.68 1750.49 3325.96 1746.23 3277.58C1749.21 3210.64 1753.4 3070.6 1746.23 3045.97C1739.06 3021.34 1743.24 2722.49 1746.23 2576.14C1742.17 2072.6 1736.49 1059.8 1746.23 1036.93C1755.96 1014.07 1750.28 881.792 1746.23 818.513C1742.6 665.081 1737.52 352.939 1746.23 331.83C1754.93 310.721 1749.85 107.057 1746.23 7.86328H1730.22C1733 101.437 1736.88 306.616 1730.22 378.739C1723.56 450.862 1727.45 729.337 1730.22 859.559C1733.21 933.099 1735.34 1092.79 1719.98 1143.21C1704.61 1193.64 1717.42 1594.23 1725.74 1788.22V2236.78C1732.57 2355.77 1741.1 2613.82 1720.62 2694.15C1695.01 2794.56 1730.86 3088.48 1734.7 3100.94C1737.78 3110.91 1732.14 3352.83 1728.94 3472.55V4113.89C1731.93 4239.96 1736.11 4499.72 1728.94 4530.21C1721.77 4560.7 1725.95 4985.62 1728.94 5194.27C1725.31 5341.1 1720.23 5685.2 1728.94 5886.91C1739.82 6139.05 1748.15 6121.46 1728.94 6427.1C1709.73 6732.74 1718.7 6830.22 1723.82 6873.47C1727.92 6908.06 1728.94 6933.33 1728.94 6941.63H1696.93C1699.7 6895.21 1703.59 6787.27 1696.93 6726.88C1688.61 6651.38 1696.93 6609.6 1701.41 6577.35C1705.89 6545.1 1686.05 6394.85 1696.93 6326.68C1707.81 6258.52 1676.44 6131.72 1696.93 6081.14C1713.32 6040.68 1713.15 5841.47 1711.01 5746.91V5281.49C1701.2 5196.22 1684.51 5018.36 1696.29 4989.04C1708.07 4959.72 1711.01 4774.04 1711.01 4684.86C1704.36 4554.88 1695.04 4286.86 1711.01 4254.61C1726.99 4222.36 1713.83 4009.56 1705.25 3907.19L1711.01 3579.56V3181.57C1699.06 3041.08 1678.75 2749.56 1693.09 2707.34C1707.43 2665.12 1717.42 2481.59 1720.62 2395.1C1713.79 2310.81 1701.28 2137.84 1705.89 2120.24C1710.5 2102.65 1707.81 1784.06 1705.89 1626.96L1695.01 1115.36C1706.11 1100.7 1724.97 1037.81 1711.66 903.536C1698.34 769.259 1706.11 669.723 1711.66 636.74V346.489V7.86328H1698.21L1685.41 2686.82C1675.16 2756.21 1659.67 2929.14 1679.65 3065.76C1699.62 3202.38 1701.63 3322.54 1700.13 3365.54L1662.36 6941.63H1635.47L1679.65 7.86328H1653.4C1658.31 94.5965 1665.18 280.816 1653.4 331.83C1638.67 395.597 1687.33 441.041 1666.2 545.121C1645.07 649.2 1640.59 833.906 1653.4 878.616C1663.64 914.384 1657.66 1246.8 1653.4 1408.54C1645.03 1625.01 1632.04 2072.02 1646.99 2128.31C1661.95 2184.6 1653.23 2424.91 1646.99 2538.03V3211.62C1650.62 3398.28 1653.01 3780.83 1633.55 3817.77C1609.22 3863.95 1660.44 3933.58 1646.99 4009.81C1633.55 4086.03 1633.55 4119.02 1633.55 4222.36C1633.55 4305.04 1628.43 4764.02 1625.87 4983.17C1619.85 5152.73 1611.42 5504.16 1625.87 5553.41C1643.92 5614.98 1625.87 5771.84 1625.87 5807.02C1625.87 5842.2 1591.94 5980.73 1601.54 6042.3C1609.22 6091.55 1620.96 6344.76 1625.87 6465.21L1614.34 6941.63H1590.02C1585.75 6886.42 1582.08 6724.24 1601.54 6517.25C1580.63 6336.94 1546.36 5958.45 1576.57 5886.91C1614.34 5797.49 1609.86 5603.99 1593.22 5508.7C1579.9 5432.48 1593.22 5086.52 1601.54 4923.07L1612.42 4254.61C1623.31 4176.19 1638.54 3974.19 1612.42 3793.58C1623.31 3797.25 1640.85 3718.82 1623.95 3375.8C1602.82 2947.02 1635.47 2974.14 1623.95 2791.63C1612.42 2609.13 1592.73 2439.81 1623.95 2365.05C1655.17 2290.29 1574.5 1715.65 1611.14 1643.09C1647.79 1570.53 1641.23 999.554 1633.55 971.701C1625.87 943.849 1597.67 629.411 1633.55 545.121C1662.25 477.689 1630.57 406.103 1611.14 378.739V7.86328" stroke="#F2E6D3" stroke-width="3"/>
<ellipse cx="579.381" cy="4368.22" rx="69.7818" ry="112.142" fill="#D9CEB9"/>
<ellipse cx="526.884" cy="1448.85" rx="39.0522" ry="351.819" fill="#D9CEB9"/>
<path d="M361.072 7.86328L366.841 7528H383.505C380.941 7466.52 378.506 7332.44 389.274 7287.93C400.041 7243.41 389.915 7146.96 383.505 7104.3V6867.4C381.582 6774.66 378.89 6581.86 383.505 6552.61C389.274 6516.04 391.196 6225.09 383.505 6194.09C375.814 6163.09 383.505 5904.73 383.505 5892.01C383.505 5879.29 390.556 5759.26 383.505 5727.46C376.455 5695.66 384.787 5462.74 388.633 5437.31C392.478 5411.87 393.76 5216.31 388.633 5181.34C383.505 5146.36 379.66 4732.19 388.633 4690.86C397.606 4649.52 375.814 4398.32 379.66 4327.57C383.505 4256.82 399.529 3819.6 386.71 3765.55C376.455 3722.3 382.437 3606.56 386.71 3554.09C383.719 3481.49 379.531 3329.6 386.71 3302.89C393.888 3276.18 389.701 2952.06 386.71 2793.33C390.769 2247.21 396.452 1148.76 386.71 1123.96C376.968 1099.16 382.651 955.697 386.71 887.067C390.342 720.66 395.427 382.121 386.71 359.227C377.993 336.333 383.078 115.445 386.71 7.86328H402.733C399.956 109.351 396.068 331.881 402.733 410.103C409.399 488.325 405.511 790.35 402.733 931.584C399.742 1011.34 397.606 1184.53 412.988 1239.23C428.371 1293.92 415.552 1728.38 407.22 1938.77V2425.28C400.383 2554.32 391.837 2834.19 412.347 2921.32C437.985 3030.23 402.092 3349 398.247 3362.51C395.17 3373.32 400.811 3635.71 404.015 3765.55V4461.12C401.024 4597.85 396.837 4879.58 404.015 4912.65C411.194 4945.72 407.006 5406.57 404.015 5632.86C407.647 5792.11 412.732 6165.31 404.015 6384.08C393.119 6657.54 384.787 6638.46 404.015 6969.95C423.243 7301.44 414.27 7407.17 409.143 7454.07C405.041 7491.59 404.015 7518.99 404.015 7528H436.062C433.285 7477.65 429.396 7360.59 436.062 7295.08C444.394 7213.2 436.062 7167.89 431.576 7132.91C427.089 7097.94 446.958 6934.97 436.062 6861.04C425.166 6787.12 456.572 6649.59 436.062 6594.74C419.654 6550.86 419.825 6334.79 421.962 6232.25V5727.46C431.789 5634.98 448.496 5442.08 436.703 5410.28C424.91 5378.48 421.962 5177.1 421.962 5080.38C428.625 4939.41 437.953 4648.73 421.962 4613.75C405.97 4578.77 419.144 4347.97 427.73 4236.95L421.962 3881.61V3449.96C433.926 3297.59 454.265 2981.42 439.908 2935.63C425.551 2889.84 415.552 2690.79 412.347 2596.98C419.184 2505.57 431.704 2317.96 427.089 2298.88C422.474 2279.8 425.166 1934.27 427.089 1763.89L437.985 1209.02C426.875 1193.12 407.989 1124.91 421.321 979.28C434.652 833.647 426.875 725.694 421.321 689.922V375.126V7.86328H434.78L447.599 2913.37C457.854 2988.62 473.365 3176.18 453.368 3324.35C433.37 3472.53 431.362 3602.85 432.858 3649.49L470.673 7528H497.592L453.368 7.86328H479.646C474.732 101.931 467.853 303.899 479.646 359.227C494.388 428.387 445.676 477.673 466.827 590.555C487.978 703.436 492.465 903.761 479.646 952.252C469.391 991.046 475.373 1351.58 479.646 1526.99C488.021 1761.77 501.027 2246.57 486.056 2307.63C471.084 2368.68 479.817 2629.31 486.056 2752V3482.55C482.424 3684.99 480.031 4099.9 499.515 4139.96C523.871 4190.04 472.596 4265.56 486.056 4348.24C499.515 4430.91 499.515 4466.68 499.515 4578.77C499.515 4668.44 504.643 5166.23 507.207 5403.92C513.232 5587.82 521.667 5968.96 507.207 6022.38C489.131 6089.16 507.207 6259.27 507.207 6297.43C507.207 6335.59 541.176 6485.83 531.562 6552.61C523.871 6606.03 512.12 6880.65 507.207 7011.29L518.744 7528H543.099C547.372 7468.11 551.047 7292.22 531.562 7067.73C552.5 6872.17 586.811 6461.67 556.559 6384.08C518.744 6287.1 523.23 6077.23 539.895 5973.89C553.226 5891.22 539.895 5516.01 531.562 5338.73L520.666 4613.75C509.77 4528.69 494.516 4309.6 520.666 4113.73C509.77 4117.71 492.209 4032.65 509.129 3660.61C530.28 3195.57 497.592 3224.99 509.129 3027.05C520.666 2829.11 540.384 2645.48 509.129 2564.39C477.875 2483.31 558.637 1860.07 521.948 1781.38C485.26 1702.68 491.824 1083.42 499.515 1053.21C507.207 1023 535.433 681.973 499.515 590.555C470.781 517.42 502.498 439.781 521.948 410.103V7.86328" stroke="#F2E6D3" stroke-width="3"/>
<path d="M734.949 7526.53L729.181 6.39691H712.516C715.08 67.8723 717.516 201.952 706.748 246.469C695.98 290.986 706.107 387.438 712.516 430.1V666.992C714.439 759.735 717.131 952.535 712.516 981.789C706.748 1018.36 704.825 1309.3 712.516 1340.31C720.208 1371.31 712.516 1629.67 712.516 1642.38C712.516 1655.1 705.466 1775.14 712.516 1806.94C719.567 1838.73 711.234 2071.65 707.389 2097.09C703.543 2122.53 702.261 2318.08 707.389 2353.06C712.516 2388.04 716.362 2802.2 707.389 2843.54C698.416 2884.88 720.208 3136.08 716.362 3206.83C712.516 3277.58 696.493 3714.79 709.312 3768.85C719.567 3812.09 713.585 3927.84 709.312 3980.3C712.303 4052.91 716.49 4204.8 709.312 4231.51C702.133 4258.22 706.321 4582.34 709.312 4741.06C705.252 5287.19 699.569 6385.63 709.312 6410.44C719.054 6435.24 713.371 6578.7 709.312 6647.33C705.68 6813.74 700.595 7152.28 709.312 7175.17C718.028 7198.06 712.944 7418.95 709.312 7526.53H693.288C696.066 7425.05 699.954 7202.52 693.288 7124.29C686.622 7046.07 690.511 6744.05 693.288 6602.81C696.279 6523.05 698.416 6349.86 683.033 6295.17C667.651 6240.48 680.469 5806.02 688.802 5595.62V5109.12C695.638 4980.07 704.184 4700.2 683.674 4613.08C658.036 4504.17 693.929 4185.4 697.775 4171.88C700.851 4161.07 695.211 3898.69 692.006 3768.85L692.006 3073.28C694.997 2936.55 699.185 2654.82 692.006 2621.75C684.828 2588.68 689.015 2127.83 692.006 1901.53C688.374 1742.28 683.289 1369.08 692.006 1150.32C702.902 876.857 711.234 895.935 692.006 564.445C672.778 232.955 681.751 127.228 686.879 80.3264C690.981 42.8052 692.006 15.4062 692.006 6.39691H659.959C662.737 56.7431 666.625 173.811 659.959 239.314C651.627 321.193 659.959 366.505 664.446 401.482C668.932 436.46 649.063 599.422 659.959 673.352C670.855 747.281 639.449 884.806 659.959 939.657C676.367 983.538 676.196 1199.6 674.06 1302.15L674.06 1806.94C664.232 1899.42 647.525 2092.32 659.318 2124.12C671.112 2155.92 674.06 2357.3 674.06 2454.02C667.397 2594.99 658.069 2885.67 674.06 2920.65C690.051 2955.63 676.877 3186.42 668.291 3297.45L674.06 3652.79L674.06 4084.44C662.096 4236.8 641.757 4552.98 656.114 4598.77C670.471 4644.56 680.469 4843.61 683.674 4937.41C676.837 5028.83 664.318 5216.44 668.932 5235.51C673.547 5254.59 670.855 5600.13 668.932 5770.51L658.036 6325.38C669.146 6341.28 688.032 6409.48 674.701 6555.12C661.369 6700.75 669.146 6808.7 674.701 6844.47L674.701 7159.27V7526.53H661.241L648.422 4621.03C638.167 4545.77 622.657 4358.22 642.654 4210.04C662.651 4061.86 664.659 3931.55 663.164 3884.91L625.348 6.39691H598.429L642.654 7526.53H616.375C621.289 7432.47 628.169 7230.5 616.375 7175.17C601.634 7106.01 650.345 7056.72 629.194 6943.84C608.043 6830.96 603.557 6630.64 616.375 6582.14C626.63 6543.35 620.648 6182.82 616.375 6007.4C608.001 5772.63 594.994 5287.82 609.966 5226.77C624.938 5165.72 616.204 4905.08 609.966 4782.4L609.966 4051.85C613.598 3849.4 615.991 3434.5 596.506 3394.43C572.15 3344.35 623.426 3268.83 609.966 3186.16C596.506 3103.48 596.506 3067.71 596.506 2955.63C596.506 2865.96 591.379 2368.16 588.815 2130.48C582.79 1946.58 574.354 1565.43 588.815 1512.01C606.891 1445.24 588.815 1275.12 588.815 1236.96C588.815 1198.81 554.845 1048.56 564.459 981.789C572.15 928.369 583.901 653.743 588.815 523.108L577.278 6.39691H552.922C548.649 66.2824 544.975 242.176 564.459 466.667C543.522 662.223 509.21 1072.73 539.463 1150.32C577.278 1247.3 572.791 1457.16 556.127 1560.51C542.795 1643.18 556.127 2018.39 564.459 2195.66L575.355 2920.65C586.251 3005.71 601.506 3224.79 575.355 3420.67C586.251 3416.69 603.813 3501.75 586.892 3873.78C565.741 4338.82 598.429 4309.41 586.892 4507.35C575.355 4705.29 555.638 4888.92 586.892 4970C618.146 5051.09 537.385 5674.32 574.073 5753.02C610.762 5831.72 604.197 6450.98 596.506 6481.19C588.815 6511.39 560.589 6852.42 596.506 6943.84C625.24 7016.98 593.523 7094.62 574.073 7124.29V7526.53" stroke="#F2E6D3" stroke-width="3"/>
<path d="M1152.36 6940.17L1146.59 6.39891H1129.93C1132.49 63.0809 1134.93 186.706 1124.16 227.752C1113.39 268.797 1123.52 357.73 1129.93 397.065V615.486C1131.85 700.998 1134.54 878.764 1129.93 905.737C1124.16 939.453 1122.24 1207.72 1129.93 1236.3C1137.62 1264.89 1129.93 1503.1 1129.93 1514.82C1129.93 1526.55 1122.88 1637.23 1129.93 1666.55C1136.98 1695.86 1128.65 1910.62 1124.8 1934.08C1120.96 1957.53 1119.67 2137.84 1124.8 2170.09C1129.93 2202.34 1133.77 2584.21 1124.8 2622.32C1115.83 2660.44 1137.62 2892.05 1133.77 2957.28C1129.93 3022.52 1113.9 3425.64 1126.72 3475.48C1136.98 3515.36 1131 3622.07 1126.72 3670.45C1129.71 3737.39 1133.9 3877.44 1126.72 3902.06C1119.55 3926.69 1123.73 4225.54 1126.72 4371.89C1122.66 4875.43 1116.98 5888.23 1126.72 5911.1C1136.47 5933.97 1130.78 6066.24 1126.72 6129.52C1123.09 6282.95 1118.01 6595.09 1126.72 6616.2C1135.44 6637.31 1130.36 6840.98 1126.72 6940.17H1110.7C1113.48 6846.6 1117.37 6641.42 1110.7 6569.29C1104.03 6497.17 1107.92 6218.7 1110.7 6088.47C1113.69 6014.93 1115.83 5855.25 1100.45 5804.82C1085.06 5754.39 1097.88 5353.81 1106.21 5159.82V4711.25C1113.05 4592.27 1121.6 4334.22 1101.09 4253.88C1075.45 4153.47 1111.34 3859.55 1115.19 3847.09C1118.26 3837.12 1112.62 3595.2 1109.42 3475.48V2834.15C1112.41 2708.08 1116.6 2448.32 1109.42 2417.83C1102.24 2387.34 1106.43 1962.42 1109.42 1753.77C1105.79 1606.93 1100.7 1262.83 1109.42 1061.12C1120.31 808.987 1128.65 826.578 1109.42 520.935C1090.19 215.292 1099.16 117.808 1104.29 74.5639C1108.39 39.9683 1109.42 14.7057 1109.42 6.39891H1077.37C1080.15 52.8195 1084.04 160.76 1077.37 221.155C1069.04 296.65 1077.37 338.428 1081.86 370.678C1086.34 402.929 1066.48 553.185 1077.37 621.35C1088.27 689.515 1056.86 816.316 1077.37 866.89C1093.78 907.349 1093.61 1106.57 1091.47 1201.12L1091.47 1666.55C1081.64 1751.81 1064.94 1929.68 1076.73 1959C1088.52 1988.31 1091.47 2174 1091.47 2263.17C1084.81 2393.15 1075.48 2661.17 1091.47 2693.42C1107.46 2725.67 1094.29 2938.47 1085.7 3040.84L1091.47 3368.47L1091.47 3766.47C1079.51 3906.95 1059.17 4198.47 1073.53 4240.69C1087.88 4282.91 1097.88 4466.44 1101.09 4552.93C1094.25 4637.22 1081.73 4810.2 1086.34 4827.79C1090.96 4845.38 1088.27 5163.97 1086.34 5321.07L1075.45 5832.67C1086.56 5847.33 1105.44 5910.22 1092.11 6044.5C1078.78 6178.77 1086.56 6278.31 1092.11 6311.29V6601.54V6940.17H1078.65L1065.83 4261.21C1055.58 4191.83 1040.07 4018.9 1060.07 3882.27C1080.06 3745.65 1082.07 3625.5 1080.58 3582.49L1042.76 6.39891H1015.84L1060.07 6940.17H1033.79C1038.7 6853.44 1045.58 6667.22 1033.79 6616.2C1019.05 6552.44 1067.76 6506.99 1046.61 6402.91C1025.46 6298.83 1020.97 6114.13 1033.79 6069.42C1044.04 6033.65 1038.06 5701.23 1033.79 5539.49C1025.41 5323.02 1012.41 4876.02 1027.38 4819.73C1042.35 4763.43 1033.62 4523.12 1027.38 4410V3736.42C1031.01 3549.76 1033.4 3167.2 1013.92 3130.26C989.563 3084.08 1040.84 3014.45 1027.38 2938.23C1013.92 2862 1013.92 2829.02 1013.92 2725.67C1013.92 2642.99 1008.79 2184.01 1006.23 1964.86C1000.2 1795.3 991.766 1443.87 1006.23 1394.62C1024.3 1333.05 1006.23 1176.2 1006.23 1141.02C1006.23 1105.83 972.257 967.305 981.871 905.737C989.563 856.482 1001.31 603.27 1006.23 482.821L994.69 6.39891H970.334C966.061 61.615 962.387 223.794 981.871 430.781C960.934 611.088 926.622 989.587 956.875 1061.12C994.69 1150.54 990.204 1344.05 973.539 1439.33C960.208 1515.56 973.539 1861.51 981.871 2024.96L992.767 2693.42C1003.66 2771.84 1018.92 2973.85 992.767 3154.45C1003.66 3150.78 1021.23 3229.21 1004.3 3572.23C983.153 4001.01 1015.84 3973.89 1004.3 4156.4C992.767 4338.91 973.05 4508.22 1004.3 4582.98C1035.56 4657.74 954.797 5232.38 991.485 5304.94C1028.17 5377.51 1021.61 5948.48 1013.92 5976.33C1006.23 6004.18 978.001 6318.62 1013.92 6402.91C1042.65 6470.34 1010.94 6541.93 991.485 6569.29V6940.17" stroke="#F2E6D3" stroke-width="3"/>
<path d="M1177.97 6943.1L1185.94 9.33055H1208.99C1205.44 66.0125 1202.07 189.638 1216.96 230.683C1231.85 271.729 1217.85 360.661 1208.99 399.997V618.418C1206.33 703.929 1202.61 881.696 1208.99 908.668C1216.96 942.385 1219.62 1210.65 1208.99 1239.23C1198.35 1267.82 1208.99 1506.03 1208.99 1517.76C1208.99 1529.48 1218.74 1640.16 1208.99 1669.48C1199.24 1698.8 1210.76 1913.55 1216.08 1937.01C1221.39 1960.46 1223.17 2140.77 1216.08 2173.02C1208.99 2205.27 1203.67 2587.14 1216.08 2625.25C1228.48 2663.37 1198.35 2894.98 1203.67 2960.21C1208.99 3025.45 1231.14 3428.57 1213.42 3478.41C1199.24 3518.29 1207.51 3625.01 1213.42 3673.38C1209.28 3740.32 1203.49 3880.37 1213.42 3905C1223.34 3929.62 1217.55 4228.47 1213.42 4374.82C1219.03 4878.36 1226.89 5891.16 1213.42 5914.03C1199.95 5936.9 1207.81 6069.17 1213.42 6132.45C1218.44 6285.88 1225.47 6598.03 1213.42 6619.13C1201.37 6640.24 1208.4 6843.91 1213.42 6943.1H1235.57C1231.73 6849.53 1226.36 6644.35 1235.57 6572.23C1244.79 6500.1 1239.41 6221.63 1235.57 6091.41C1231.44 6017.87 1228.48 5858.18 1249.75 5807.75C1271.02 5757.32 1253.3 5356.74 1241.78 5162.75V4714.18C1232.32 4595.2 1220.51 4337.15 1248.87 4256.82C1284.32 4156.4 1234.69 3862.48 1229.37 3850.02C1225.12 3840.06 1232.92 3598.13 1237.35 3478.41V2837.08C1233.21 2711.01 1227.42 2451.25 1237.35 2420.76C1247.27 2390.27 1241.48 1965.35 1237.35 1756.7C1242.37 1609.86 1249.4 1265.77 1237.35 1064.06C1222.28 811.918 1210.76 829.509 1237.35 523.866C1263.93 218.223 1251.53 120.74 1244.44 77.4955C1238.76 42.9 1237.35 17.6374 1237.35 9.33055H1281.66C1277.82 55.7511 1272.44 163.691 1281.66 224.087C1293.18 299.581 1281.66 341.36 1275.45 373.61C1269.25 405.86 1296.72 556.116 1281.66 624.281C1266.59 692.446 1310.02 819.248 1281.66 869.822C1258.97 910.281 1259.21 1109.5 1262.16 1204.05L1262.16 1669.48C1275.75 1754.74 1298.85 1932.61 1282.54 1961.93C1266.24 1991.25 1262.16 2176.93 1262.16 2266.1C1271.37 2396.08 1284.27 2664.1 1262.16 2696.35C1240.05 2728.6 1258.27 2941.4 1270.14 3043.77L1262.16 3371.4L1262.16 3769.4C1278.7 3909.88 1306.83 4201.4 1286.98 4243.62C1267.12 4285.84 1253.3 4469.37 1248.87 4555.86C1258.32 4640.15 1275.63 4813.13 1269.25 4830.72C1262.87 4848.31 1266.59 5166.9 1269.25 5324L1284.32 5835.6C1268.96 5850.26 1242.84 5913.15 1261.28 6047.43C1279.71 6181.71 1268.96 6281.24 1261.28 6314.22V6604.48V6943.1H1279.89L1297.61 4264.14C1311.79 4194.76 1333.24 4021.83 1305.59 3885.21C1277.94 3748.58 1275.16 3628.43 1277.23 3585.43L1329.52 9.33055H1366.74L1305.59 6943.1H1341.92C1335.13 6856.37 1325.62 6670.15 1341.92 6619.13C1362.31 6555.37 1294.95 6509.92 1324.2 6405.84C1353.44 6301.76 1359.65 6117.06 1341.92 6072.35C1327.74 6036.58 1336.01 5704.16 1341.92 5542.42C1353.5 5325.95 1371.49 4878.95 1350.79 4822.66C1330.08 4766.37 1342.16 4526.05 1350.79 4412.93V3739.35C1345.76 3552.69 1342.45 3170.13 1369.4 3133.19C1403.07 3087.02 1332.17 3017.39 1350.79 2941.16C1369.4 2864.93 1369.4 2831.95 1369.4 2728.6C1369.4 2645.92 1376.49 2186.95 1380.03 1967.79C1388.36 1798.23 1400.03 1446.81 1380.03 1397.55C1355.04 1335.98 1380.03 1179.13 1380.03 1143.95C1380.03 1108.77 1427 970.237 1413.71 908.668C1403.07 859.414 1386.83 606.202 1380.03 485.752L1395.98 9.33055H1429.66C1435.57 64.5466 1440.65 226.726 1413.71 433.713C1442.66 614.02 1490.1 992.519 1448.27 1064.06C1395.98 1153.48 1402.19 1346.98 1425.23 1442.26C1443.66 1518.49 1425.23 1864.44 1413.71 2027.89L1398.64 2696.35C1383.58 2774.78 1362.48 2976.78 1398.64 3157.38C1383.58 3153.72 1359.29 3232.14 1382.69 3575.17C1411.94 4003.94 1366.74 3976.83 1382.69 4159.33C1398.64 4341.84 1425.91 4511.15 1382.69 4585.91C1339.47 4660.67 1451.14 5235.31 1400.41 5307.88C1349.68 5380.44 1358.76 5951.41 1369.4 5979.26C1380.03 6007.12 1419.06 6321.55 1369.4 6405.84C1329.67 6473.28 1373.52 6544.86 1400.41 6572.23V6943.1" stroke="#F2E6D3" stroke-width="3"/>
<path d="M335.225 7.86328L329.463 6941.63H312.818C315.378 6884.95 317.811 6761.33 307.056 6720.28C296.3 6679.24 306.416 6590.3 312.818 6550.97V6332.55C314.738 6247.04 317.427 6069.27 312.818 6042.3C307.056 6008.58 305.135 5740.32 312.818 5711.73C320.5 5683.15 312.818 5444.94 312.818 5433.21C312.818 5421.48 305.775 5310.81 312.818 5281.49C319.86 5252.17 311.537 5037.41 307.696 5013.96C303.855 4990.5 302.574 4810.2 307.696 4777.95C312.818 4745.7 316.659 4363.83 307.696 4325.71C298.733 4287.6 320.5 4055.98 316.659 3990.75C312.818 3925.52 296.813 3522.39 309.617 3472.55C319.86 3432.68 313.885 3325.96 309.617 3277.58C312.604 3210.64 316.787 3070.6 309.617 3045.97C302.446 3021.34 306.629 2722.49 309.617 2576.14C305.562 2072.6 299.886 1059.8 309.617 1036.93C319.348 1014.07 313.671 881.792 309.617 818.513C305.989 665.081 300.91 352.939 309.617 331.83C318.323 310.721 313.244 107.057 309.617 7.86328H293.612C296.386 101.437 300.27 306.616 293.612 378.739C286.954 450.862 290.837 729.337 293.612 859.559C296.599 933.099 298.733 1092.79 283.368 1143.21C268.004 1193.64 280.808 1594.23 289.13 1788.22V2236.78C295.959 2355.77 304.495 2613.82 284.009 2694.15C258.401 2794.56 294.252 3088.48 298.093 3100.94C301.166 3110.91 295.532 3352.83 292.331 3472.55V4113.89C295.319 4239.96 299.501 4499.72 292.331 4530.21C285.161 4560.7 289.344 4985.62 292.331 5194.27C288.703 5341.1 283.624 5685.2 292.331 5886.91C303.215 6139.05 311.537 6121.46 292.331 6427.1C273.125 6732.74 282.088 6830.22 287.21 6873.47C291.307 6908.06 292.331 6933.33 292.331 6941.63H260.321C263.095 6895.21 266.979 6787.27 260.321 6726.88C251.999 6651.38 260.321 6609.6 264.803 6577.35C269.284 6545.1 249.438 6394.85 260.321 6326.68C271.205 6258.52 239.835 6131.72 260.321 6081.14C276.71 6040.68 276.54 5841.47 274.406 5746.91V5281.49C264.589 5196.22 247.901 5018.36 259.681 4989.04C271.461 4959.72 274.406 4774.04 274.406 4684.86C267.75 4554.88 258.433 4286.86 274.406 4254.61C290.378 4222.36 277.22 4009.56 268.644 3907.19L274.406 3579.56V3181.57C262.455 3041.08 242.139 2749.56 256.48 2707.34C270.82 2665.12 280.808 2481.59 284.009 2395.1C277.18 2310.81 264.675 2137.84 269.284 2120.24C273.893 2102.65 271.205 1784.06 269.284 1626.96L258.401 1115.36C269.497 1100.7 288.362 1037.81 275.046 903.536C261.73 769.259 269.497 669.723 275.046 636.74V346.489V7.86328H261.602L248.798 2686.82C238.554 2756.21 223.062 2929.14 243.036 3065.76C263.01 3202.38 265.016 3322.54 263.522 3365.54L225.75 6941.63H198.862L243.036 7.86328H216.788C221.696 94.5965 228.567 280.816 216.788 331.83C202.063 395.597 250.718 441.041 229.592 545.121C208.465 649.2 203.984 833.906 216.788 878.616C227.031 914.384 221.056 1246.8 216.788 1408.54C208.423 1625.01 195.431 2072.02 210.386 2128.31C225.34 2184.6 216.617 2424.91 210.386 2538.03V3211.62C214.013 3398.28 216.403 3780.83 196.941 3817.77C172.614 3863.95 223.83 3933.58 210.386 4009.81C196.941 4086.03 196.941 4119.02 196.941 4222.36C196.941 4305.04 191.82 4764.02 189.259 4983.17C183.241 5152.73 174.815 5504.16 189.259 5553.41C207.314 5614.98 189.259 5771.84 189.259 5807.02C189.259 5842.2 155.328 5980.73 164.931 6042.3C172.614 6091.55 184.351 6344.76 189.259 6465.21L177.735 6941.63H153.408C149.14 6886.42 145.469 6724.24 164.931 6517.25C144.018 6336.94 109.746 5958.45 139.964 5886.91C177.735 5797.49 173.254 5603.99 156.609 5508.7C143.293 5432.48 156.609 5086.52 164.931 4923.07L175.815 4254.61C186.698 4176.19 201.935 3974.19 175.815 3793.58C186.698 3797.25 204.24 3718.82 187.338 3375.8C166.212 2947.02 198.862 2974.14 187.338 2791.63C175.815 2609.13 156.12 2439.81 187.338 2365.05C218.556 2290.29 137.888 1715.65 174.534 1643.09C211.18 1570.53 204.624 999.554 196.941 971.701C189.259 943.849 161.065 629.411 196.941 545.121C225.642 477.689 193.962 406.103 174.534 378.739V7.86328" stroke="#F2E6D3" stroke-width="3"/>
<path d="M1448.13 9.33008L1453.89 6943.1H1470.54C1467.98 6886.42 1465.55 6762.79 1476.3 6721.75C1487.06 6680.7 1476.94 6591.77 1470.54 6552.44V6334.01C1468.62 6248.5 1465.93 6070.74 1470.54 6043.76C1476.3 6010.05 1478.22 5741.78 1470.54 5713.2C1462.86 5684.61 1470.54 5446.4 1470.54 5434.68C1470.54 5422.95 1477.58 5312.27 1470.54 5282.95C1463.5 5253.64 1471.82 5038.88 1475.66 5015.42C1479.5 4991.97 1480.78 4811.66 1475.66 4779.41C1470.54 4747.16 1466.7 4365.29 1475.66 4327.18C1484.62 4289.06 1462.86 4057.45 1466.7 3992.22C1470.54 3926.98 1486.54 3523.86 1473.74 3474.02C1463.5 3434.14 1469.47 3327.43 1473.74 3279.05C1470.75 3212.11 1466.57 3072.06 1473.74 3047.44C1480.91 3022.81 1476.73 2723.96 1473.74 2577.61C1477.8 2074.07 1483.47 1061.27 1473.74 1038.4C1464.01 1015.53 1469.69 883.259 1473.74 819.98C1477.37 666.548 1482.45 354.406 1473.74 333.297C1465.03 312.188 1470.11 108.524 1473.74 9.33008H1489.75C1486.97 102.904 1483.09 308.083 1489.75 380.206C1496.4 452.329 1492.52 730.804 1489.75 861.026C1486.76 934.566 1484.62 1094.25 1499.99 1144.68C1515.35 1195.11 1502.55 1595.69 1494.23 1789.68V2238.25C1487.4 2357.23 1478.86 2615.28 1499.35 2695.62C1524.96 2796.03 1489.11 3089.95 1485.26 3102.41C1482.19 3112.38 1487.83 3354.3 1491.03 3474.02V4115.35C1488.04 4241.42 1483.86 4501.18 1491.03 4531.67C1498.2 4562.16 1494.01 4987.08 1491.03 5195.73C1494.65 5342.57 1499.73 5686.67 1491.03 5888.38C1480.14 6140.51 1471.82 6122.92 1491.03 6428.57C1510.23 6734.21 1501.27 6831.69 1496.15 6874.94C1492.05 6909.53 1491.03 6934.79 1491.03 6943.1H1523.04C1520.26 6896.68 1516.38 6788.74 1523.04 6728.34C1531.36 6652.85 1523.04 6611.07 1518.55 6578.82C1514.07 6546.57 1533.92 6396.32 1523.04 6328.15C1512.15 6259.99 1543.52 6133.18 1523.04 6082.61C1506.65 6042.15 1506.82 5842.93 1508.95 5748.38V5282.95C1518.77 5197.69 1535.46 5019.82 1523.68 4990.5C1511.9 4961.19 1508.95 4775.5 1508.95 4686.33C1515.61 4556.35 1524.92 4288.33 1508.95 4256.08C1492.98 4223.83 1506.14 4011.03 1514.71 3908.66L1508.95 3581.03V3183.03C1520.9 3042.55 1541.22 2751.03 1526.88 2708.81C1512.54 2666.59 1502.55 2483.06 1499.35 2396.57C1506.18 2312.28 1518.68 2139.3 1514.07 2121.71C1509.46 2104.12 1512.15 1785.53 1514.07 1628.43L1524.96 1116.83C1513.86 1102.17 1495 1039.28 1508.31 905.003C1521.63 770.726 1513.86 671.19 1508.31 638.207V347.956V9.33008H1521.76L1534.56 2688.29C1544.8 2757.67 1560.3 2930.6 1540.32 3067.23C1520.35 3203.85 1518.34 3324 1519.84 3367.01L1557.61 6943.1H1584.5L1540.32 9.33008H1566.57C1561.66 96.0633 1554.79 282.283 1566.57 333.297C1581.29 397.064 1532.64 442.508 1553.77 546.587C1574.89 650.667 1579.37 835.372 1566.57 880.083C1556.33 915.851 1562.3 1248.27 1566.57 1410.01C1574.93 1626.48 1587.93 2073.48 1572.97 2129.77C1558.02 2186.07 1566.74 2426.38 1572.97 2539.5V3213.08C1569.34 3399.74 1566.95 3782.3 1586.42 3819.24C1610.74 3865.42 1559.53 3935.05 1572.97 4011.27C1586.42 4087.5 1586.42 4120.48 1586.42 4223.83C1586.42 4306.51 1591.54 4765.49 1594.1 4984.64C1600.12 5154.2 1608.54 5505.63 1594.1 5554.88C1576.04 5616.45 1594.1 5773.3 1594.1 5808.48C1594.1 5843.67 1628.03 5982.19 1618.43 6043.76C1610.74 6093.02 1599.01 6346.23 1594.1 6466.68L1605.62 6943.1H1629.95C1634.22 6887.89 1637.89 6725.71 1618.43 6518.72C1639.34 6338.41 1673.61 5959.91 1643.39 5888.38C1605.62 5798.96 1610.1 5605.45 1626.75 5510.17C1640.06 5433.94 1626.75 5087.99 1618.43 4924.54L1607.54 4256.08C1596.66 4177.66 1581.42 3975.65 1607.54 3795.05C1596.66 3798.72 1579.12 3720.29 1596.02 3377.27C1617.15 2948.49 1584.5 2975.61 1596.02 2793.1C1607.54 2610.59 1627.24 2441.28 1596.02 2366.52C1564.8 2291.76 1645.47 1717.12 1608.82 1644.56C1572.18 1571.99 1578.73 1001.02 1586.42 973.168C1594.1 945.316 1622.29 630.877 1586.42 546.587C1557.72 479.155 1589.4 407.57 1608.82 380.206V9.33008" stroke="#F2E6D3" stroke-width="3"/>
<path d="M967.982 2L960.184 7168.85H937.656C941.122 7110.26 944.415 6982.48 929.858 6940.06C915.302 6897.63 928.992 6805.71 937.656 6765.05V6539.29C940.256 6450.9 943.895 6267.16 937.656 6239.28C929.858 6204.43 927.259 5927.15 937.656 5897.61C948.054 5868.06 937.656 5621.84 937.656 5609.72C937.656 5597.6 928.125 5483.2 937.656 5452.9C947.187 5422.59 935.924 5200.62 930.725 5176.38C925.526 5152.13 923.793 4965.76 930.725 4932.43C937.656 4899.1 942.855 4504.39 930.725 4464.99C918.594 4425.6 948.054 4186.2 942.855 4118.77C937.656 4051.35 915.995 3634.67 933.324 3583.15C947.187 3541.94 939.101 3431.63 933.324 3381.63C937.368 3312.44 943.028 3167.69 933.324 3142.23C923.62 3116.78 929.281 2807.88 933.324 2656.61C927.837 2136.15 920.154 1089.3 933.324 1065.66C946.494 1042.03 938.812 905.306 933.324 839.9C928.414 681.31 921.54 358.676 933.324 336.857C945.108 315.038 938.234 104.528 933.324 2H911.663C915.417 98.7197 920.674 310.796 911.663 385.343C902.652 459.891 907.908 747.726 911.663 882.326C915.706 958.338 918.594 1123.39 897.799 1175.52C877.005 1227.64 894.334 1641.69 905.598 1842.2V2305.85C914.84 2428.83 926.393 2695.55 898.666 2778.59C864.008 2882.38 912.529 3186.17 917.728 3199.05C921.887 3209.36 914.262 3459.41 909.93 3583.15V4246.05C913.973 4376.36 919.634 4644.85 909.93 4676.36C900.226 4707.88 905.886 5147.08 909.93 5362.74C905.02 5514.52 898.146 5870.18 909.93 6078.67C924.66 6339.28 935.924 6321.1 909.93 6637.02C883.936 6952.94 896.067 7053.7 902.998 7098.4C908.544 7134.15 909.93 7160.27 909.93 7168.85H866.607C870.362 7120.87 875.618 7009.3 866.607 6946.88C855.343 6868.84 866.607 6825.66 872.672 6792.33C878.737 6758.99 851.877 6603.69 866.607 6533.23C881.337 6462.77 838.88 6331.71 866.607 6279.43C888.788 6237.62 888.557 6031.7 885.669 5933.97V5452.9C872.383 5364.76 849.798 5180.92 865.741 5150.62C881.683 5120.31 885.669 4928.39 885.669 4836.22C876.662 4701.87 864.051 4424.84 885.669 4391.51C907.287 4358.17 889.478 4138.22 877.871 4032.41L885.669 3693.76V3282.39C869.495 3137.18 842 2835.86 861.408 2792.22C880.817 2748.59 894.334 2558.88 898.666 2469.49C889.424 2382.36 872.499 2203.57 878.737 2185.39C884.976 2167.21 881.337 1837.91 878.737 1675.53L864.008 1146.73C879.026 1131.57 904.558 1066.57 886.536 927.781C868.513 788.99 879.026 686.109 886.536 652.017V352.009V2H868.34L851.011 2771.01C837.148 2842.73 816.179 3021.47 843.213 3162.69C870.246 3303.9 872.961 3428.1 870.939 3472.54L819.818 7168.85H783.427L843.213 2H807.688C814.331 91.6488 823.631 284.128 807.688 336.857C787.76 402.768 853.61 449.739 825.017 557.317C796.424 664.896 790.359 855.81 807.688 902.023C821.551 938.994 813.464 1282.59 807.688 1449.76C796.367 1673.51 778.784 2135.54 799.024 2193.72C819.263 2251.91 807.457 2500.3 799.024 2617.22V3313.45C803.933 3506.38 807.168 3901.8 780.828 3939.98C747.903 3987.71 817.219 4059.68 799.024 4138.47C780.828 4217.26 780.828 4251.35 780.828 4358.17C780.828 4443.63 773.896 4918.04 770.43 5144.56C762.285 5319.81 750.882 5683.06 770.43 5733.97C794.866 5797.6 770.43 5959.73 770.43 5996.09C770.43 6032.46 724.508 6175.64 737.505 6239.28C747.903 6290.19 763.788 6551.92 770.43 6676.41L754.834 7168.85H721.909C716.133 7111.78 711.165 6944.15 737.505 6730.2C709.201 6543.84 662.817 6152.61 703.713 6078.67C754.834 5986.25 748.769 5786.24 726.241 5687.75C708.219 5608.96 726.241 5251.38 737.505 5082.43L752.235 4391.51C766.965 4310.44 787.586 4101.65 752.235 3914.98C766.965 3918.77 790.706 3837.71 767.831 3483.15C739.238 3039.96 783.427 3067.99 767.831 2879.35C752.235 2690.71 725.58 2515.7 767.831 2438.43C810.082 2361.15 700.905 1767.2 750.502 1692.2C800.099 1617.19 791.225 1027.03 780.828 998.238C770.43 969.449 732.273 644.441 780.828 557.317C819.672 487.619 776.796 413.627 750.502 385.343V2" stroke="#F2E6D3" stroke-width="3"/>
<ellipse cx="1405.24" cy="6468.14" rx="46.7346" ry="80.6252" fill="#D9CEB9"/>
<ellipse cx="995.511" cy="6456.42" rx="27.5286" ry="68.8979" fill="#D9CEB9"/>
</svg>
