<svg width="246" height="246" viewBox="0 0 246 246" fill="none" xmlns="http://www.w3.org/2000/svg">
<path d="M22.7414 75.2473C22.7024 75.229 22.6649 75.2113 22.6288 75.1944L71.9435 24.9932C71.961 25.0289 71.9792 25.0659 71.9981 25.1044C72.2386 25.5927 72.5946 26.3089 73.0573 27.2219C73.9829 29.0478 75.3356 31.661 77.0458 34.8124C80.4657 41.1144 85.3168 49.5725 91.04 58.1926C96.7615 66.8101 103.364 75.6036 110.288 82.5678C117.199 89.5191 124.492 94.71 131.599 96.0145C145.449 98.5566 166.265 106.169 183.651 113.163C192.337 116.658 200.155 119.993 205.801 122.455C208.624 123.685 210.904 124.698 212.478 125.402C213.265 125.754 213.876 126.03 214.289 126.217C214.396 126.265 214.49 126.308 214.57 126.344C214.645 126.378 214.708 126.407 214.759 126.43L214.879 126.484L214.909 126.498L214.916 126.502L214.918 126.502C214.919 126.503 214.919 126.503 215.127 126.048L214.919 126.503L214.957 126.52L214.996 126.531L214.996 126.531L214.997 126.531L215.001 126.532L215.019 126.537C215.036 126.542 215.061 126.549 215.095 126.559C215.162 126.578 215.263 126.608 215.394 126.649C215.655 126.731 216.038 126.857 216.515 127.031C217.468 127.378 218.798 127.919 220.293 128.685C223.291 130.221 226.928 132.652 229.568 136.24C232.197 139.814 233.851 144.556 232.876 150.771C231.898 157.002 228.27 164.753 220.246 174.308L174.655 220.744C165.244 228.937 157.556 232.702 151.34 233.791C145.14 234.876 140.365 233.306 136.74 230.74C133.101 228.163 130.602 224.569 129.01 221.599C128.215 220.117 127.65 218.797 127.284 217.849C127.102 217.376 126.969 216.995 126.882 216.735C126.838 216.605 126.807 216.505 126.786 216.438C126.775 216.404 126.768 216.379 126.763 216.363L126.758 216.344L126.756 216.34L126.756 216.34L126.756 216.34L126.745 216.3L126.727 216.263L126.276 216.479C126.727 216.263 126.727 216.263 126.727 216.263L126.726 216.261L126.722 216.253L126.708 216.224L126.651 216.105C126.601 216 126.527 215.844 126.43 215.639C126.235 215.228 125.949 214.623 125.583 213.842C124.851 212.281 123.799 210.02 122.518 207.22C119.957 201.619 116.484 193.864 112.837 185.245C105.535 167.992 97.5539 147.328 94.7633 133.55C93.3311 126.479 88.0064 119.288 80.9272 112.506C73.8348 105.712 64.9175 99.2688 56.192 93.7019C47.464 88.1334 38.9135 83.4323 32.5462 80.1239C29.3621 78.4694 26.723 77.1627 24.8793 76.2693C23.9574 75.8226 23.2344 75.4792 22.7414 75.2473Z" stroke="black"/>
<path d="M110.5 180.175C28.4761 165.467 41.4402 119.599 58.8822 98.1504L59.9413 96.3841L53.2239 91.7879C3.7266 156.559 74.3203 184.3 114.743 190.075L110.5 180.175Z" fill="#C4C4C4" fill-opacity="0.25" stroke="black"/>
</svg>
