<svg width="202" height="202" viewBox="0 0 202 202" fill="none" xmlns="http://www.w3.org/2000/svg">
<path d="M61.7432 33.7158C61.8199 33.8012 61.9086 33.8993 62.0086 34.0092C62.4106 34.4507 62.9975 35.0828 63.7394 35.8478C65.2229 37.3775 67.3283 39.4407 69.8162 41.5749C74.771 45.8252 81.3223 50.427 87.5324 51.5669C101.382 54.109 122.198 61.7212 139.584 68.7159C148.27 72.2102 156.088 75.5454 161.734 78.0069C164.557 79.2377 166.837 80.2499 168.411 80.9544C169.198 81.3066 169.809 81.5819 170.222 81.7691C170.329 81.8172 170.422 81.8596 170.502 81.8959C170.578 81.9301 170.641 81.959 170.693 81.9824L170.812 82.0368L170.842 82.0505L170.85 82.0539L170.852 82.0548C170.852 82.055 170.852 82.0551 171.06 81.6003L170.852 82.0551L170.89 82.0722L170.93 82.083L170.93 82.083L170.93 82.0832L170.934 82.0843L170.952 82.0893C170.969 82.0939 170.994 82.1011 171.028 82.1109C171.095 82.1304 171.196 82.1604 171.327 82.2013C171.589 82.2832 171.971 82.4089 172.448 82.5829C173.402 82.9309 174.731 83.471 176.227 84.2376C179.224 85.7737 182.861 88.2039 185.501 91.7925C188.13 95.3667 189.785 100.108 188.809 106.324C187.831 112.554 184.203 120.305 176.18 129.861L130.589 176.296C121.177 184.489 113.489 188.255 107.274 189.343C101.073 190.429 96.2985 188.858 92.6736 186.292C89.0343 183.716 86.5354 180.122 84.9431 177.151C84.1484 175.669 83.5834 174.349 83.2176 173.402C83.0347 172.928 82.9019 172.548 82.8151 172.287C82.7717 172.157 82.7399 172.057 82.7191 171.99C82.7146 171.976 82.7107 171.963 82.7073 171.952C82.7027 171.937 82.6989 171.924 82.6961 171.915L82.6907 171.897L82.6896 171.893L82.6894 171.892L82.6893 171.892L82.6779 171.853L82.6602 171.816L82.2092 172.031C82.6602 171.816 82.6601 171.815 82.6599 171.815L82.659 171.813L82.6554 171.806L82.6412 171.776L82.5847 171.657C82.5347 171.552 82.4603 171.396 82.3631 171.191C82.1687 170.781 81.8827 170.175 81.5166 169.395C80.7844 167.834 79.732 165.572 78.4515 162.772C75.8905 157.171 72.4175 149.416 68.7697 140.797C61.468 123.544 53.4872 102.88 50.6965 89.1019L50.6937 89.0881L50.6901 89.0744C48.8308 81.9805 44.0428 75.4681 39.7575 70.7515C37.6099 68.3879 35.5779 66.4637 34.0823 65.13C33.3343 64.463 32.72 63.9432 32.2918 63.5895C32.2071 63.5195 32.1296 63.456 32.0599 63.3992L61.7432 33.7158Z" fill="#FF9400" stroke="black"/>
</svg>
