<svg width="246" height="246" viewBox="0 0 246 246" fill="none" xmlns="http://www.w3.org/2000/svg">
<path d="M100.306 209.901C100.757 209.685 100.757 209.685 100.756 209.684L100.755 209.682L100.751 209.673L100.733 209.636L100.664 209.492C100.603 209.363 100.513 209.173 100.394 208.922C100.157 208.422 99.8077 207.683 99.3609 206.73C98.4675 204.825 97.1832 202.066 95.6207 198.649C92.4956 191.815 88.2577 182.351 83.8065 171.833C74.8978 150.784 65.1558 125.561 61.7483 108.738L61.7455 108.724L61.7419 108.71C59.48 100.081 53.6523 92.1506 48.4277 86.4003C45.8106 83.5198 43.3341 81.1748 41.5115 79.5494C40.6 78.7366 39.8515 78.1033 39.33 77.6726C39.1868 77.5542 39.0607 77.4512 38.9531 77.3639L75.339 40.978C75.4486 41.1004 75.5826 41.2492 75.7398 41.4219C76.2296 41.9598 76.9449 42.7302 77.8492 43.6627C79.6575 45.5273 82.2239 48.0423 85.2564 50.6436C91.3001 55.8279 99.2743 61.4253 106.82 62.8103C123.731 65.9143 149.139 75.2064 170.352 83.7404C180.951 88.0045 190.49 92.0742 197.38 95.0779C200.825 96.5797 203.607 97.815 205.528 98.6746C206.489 99.1045 207.234 99.4404 207.738 99.6688C207.991 99.7831 208.183 99.8704 208.312 99.9291L208.458 99.9956L208.495 100.012L208.504 100.017L208.506 100.018C208.507 100.018 208.507 100.018 208.715 99.5631L208.507 100.018L208.545 100.035L208.585 100.046L208.586 100.046L208.591 100.048L208.613 100.054C208.634 100.06 208.665 100.068 208.707 100.08C208.789 100.104 208.913 100.141 209.073 100.191C209.394 100.292 209.863 100.446 210.446 100.659C211.613 101.084 213.239 101.745 215.069 102.683C218.735 104.562 223.189 107.536 226.423 111.934C229.647 116.317 231.675 122.131 230.48 129.746C229.282 137.376 224.842 146.852 215.043 158.521L159.41 215.185C147.917 225.191 138.518 229.799 130.906 231.131C123.31 232.461 117.455 230.537 113.01 227.39C108.55 224.233 105.492 219.832 103.544 216.2C102.572 214.386 101.881 212.772 101.433 211.612C101.21 211.032 101.047 210.567 100.941 210.248C100.887 210.088 100.848 209.965 100.823 209.883C100.81 209.842 100.8 209.81 100.794 209.79L100.788 209.768L100.786 209.762L100.786 209.761L100.774 209.722L100.757 209.685L100.306 209.901Z" fill="#6EC057" stroke="black"/>
</svg>
