<svg width="439" height="468" viewBox="0 0 439 468" fill="none" xmlns="http://www.w3.org/2000/svg">
<path d="M99.3531 354.174C99.3531 354.174 36.9108 332.06 33.5358 296.367C30.1608 260.674 51.6039 231.683 51.6039 231.683C51.6039 231.683 116.064 146.626 123.843 100.894C131.621 55.1628 184.974 57.5 184.974 57.5C184.974 57.5 236.483 57.3078 239.466 89.0237C239.466 89.0237 324.446 83.0269 341.347 166.431C341.347 166.431 430.474 225 357.615 285.894L291.864 336.061C291.864 336.061 242.474 380.993 213.406 400.394C213.406 400.394 151.892 431.179 122.017 380.993C122.006 381.043 107.264 355.446 99.3531 354.174Z" fill="#F09737" stroke="black" stroke-miterlimit="10"/>
<path d="M228.827 114.424C228.827 114.424 290.997 152.797 302.697 170.745C313.504 187.32 293.728 136.467 293.728 136.467C293.728 136.467 335.195 103.954 351.634 112.302C368.074 120.65 350.593 89.5701 350.593 89.5701C350.593 89.5701 299.142 91.2762 279.187 113.475C279.151 113.459 236.075 105.49 228.827 114.424Z" fill="#619154" stroke="black" stroke-miterlimit="10"/>
</svg>
