<svg width="835" height="820" viewBox="0 0 835 820" fill="none" xmlns="http://www.w3.org/2000/svg">
<g filter="url(#filter0_d)">
<path d="M445 794.703C659.839 794.703 834 620.542 834 405.703C834 190.864 659.839 16.7031 445 16.7031C230.161 16.7031 56 190.864 56 405.703C56 620.542 230.161 794.703 445 794.703Z" fill="#EDEDED" stroke="#0F0909" stroke-miterlimit="10"/>
<path d="M444.327 653.126C581.347 653.126 692.424 542.049 692.424 405.029C692.424 268.008 581.347 156.932 444.327 156.932C307.307 156.932 196.23 268.008 196.23 405.029C196.23 542.049 307.307 653.126 444.327 653.126Z" fill="url(#paint0_radial)" stroke="#0F0909" stroke-miterlimit="10"/>
</g>
<defs>
<filter id="filter0_d" x="0.5" y="0.203125" width="834" height="819" filterUnits="userSpaceOnUse" color-interpolation-filters="sRGB">
<feFlood flood-opacity="0" result="BackgroundImageFix"/>
<feColorMatrix in="SourceAlpha" type="matrix" values="0 0 0 0 0 0 0 0 0 0 0 0 0 0 0 0 0 0 127 0"/>
<feOffset dx="-35" dy="4"/>
<feGaussianBlur stdDeviation="10"/>
<feColorMatrix type="matrix" values="0 0 0 0 0 0 0 0 0 0 0 0 0 0 0 0 0 0 0.06 0"/>
<feBlend mode="normal" in2="BackgroundImageFix" result="effect1_dropShadow"/>
<feBlend mode="normal" in="SourceGraphic" in2="effect1_dropShadow" result="shape"/>
</filter>
<radialGradient id="paint0_radial" cx="0" cy="0" r="1" gradientUnits="userSpaceOnUse" gradientTransform="translate(444.327 405.029) scale(248.097)">
<stop stop-color="white"/>
<stop offset="0.51" stop-color="#FDFDFD"/>
<stop offset="0.7" stop-color="#F6F6F6"/>
<stop offset="0.83" stop-color="#EBEBEB"/>
<stop offset="0.94" stop-color="#DADADA"/>
<stop offset="1" stop-color="#CCCCCC"/>
</radialGradient>
</defs>
</svg>
