<svg width="1790" height="7526" viewBox="0 0 1790 7526" fill="none" xmlns="http://www.w3.org/2000/svg">
<mask id="mask0" mask-type="alpha" maskUnits="userSpaceOnUse" x="0" y="0" width="1790" height="7526">
<rect width="1790" height="7526" fill="#C4C4C4"/>
</mask>
<g mask="url(#mask0)">
<path d="M0 -7H1790V7542H0V-7Z" fill="#D9CEB9"/>
<ellipse cx="1613.94" cy="3697.64" rx="22.407" ry="112.142" fill="#D9CEB9"/>
<ellipse cx="176.054" cy="499.019" rx="39.0522" ry="112.142" fill="#D9CEB9"/>
<ellipse cx="1612.67" cy="497.553" rx="39.0522" ry="112.142" fill="#D9CEB9"/>
<ellipse cx="1609.46" cy="2306.49" rx="19.206" ry="112.142" fill="#D9CEB9"/>
<ellipse cx="73.6225" cy="6221.94" rx="39.0522" ry="159.052" fill="#D9CEB9"/>
<ellipse cx="174.775" cy="3690.31" rx="18.5658" ry="112.142" fill="#D9CEB9"/>
<ellipse rx="31.7871" ry="111.712" transform="matrix(0.978802 0.204811 -0.157641 0.987497 774.712 2539.85)" fill="#D9CEB9"/>
<path d="M15 -3L20.7845 7541H37.4951C34.9242 7479.33 32.4819 7344.82 43.2796 7300.17C54.0772 7255.51 43.9223 7158.75 37.4951 7115.95V6878.31C35.5669 6785.27 32.8675 6591.86 37.4951 6562.51C43.2796 6525.83 45.2077 6233.96 37.4951 6202.86C29.7825 6171.76 37.4951 5912.58 37.4951 5899.82C37.4951 5887.06 44.565 5766.64 37.4951 5734.75C30.4252 5702.85 38.7805 5469.19 42.6368 5443.67C46.4931 5418.15 47.7786 5221.98 42.6368 5186.89C37.4951 5151.8 33.6388 4736.32 42.6368 4694.85C51.6349 4653.39 29.7825 4401.39 33.6388 4330.41C37.4951 4259.44 53.563 3820.84 40.7087 3766.61C30.4252 3723.23 36.4239 3607.12 40.7087 3554.48C37.7093 3481.65 33.5103 3329.28 40.7087 3302.48C47.9071 3275.69 43.708 2950.54 40.7087 2791.31C44.7792 2243.45 50.478 1141.52 40.7087 1116.64C30.9394 1091.76 36.6381 947.842 40.7087 878.994C44.3507 712.058 49.4496 372.446 40.7087 349.479C31.9677 326.512 37.0666 104.923 40.7087 -3H56.7766C53.9915 98.8094 50.0924 322.046 56.7766 400.516C63.4609 478.987 59.5617 781.969 56.7766 923.652C53.7773 1003.66 51.6349 1177.4 67.0601 1232.27C82.4853 1287.14 69.631 1722.98 61.2756 1934.04V2422.08C54.42 2551.54 45.8504 2832.3 66.4174 2919.7C92.126 3028.95 56.1339 3348.74 52.2776 3362.29C49.1925 3373.14 54.8485 3636.36 58.062 3766.61V4464.39C55.0627 4601.55 50.8636 4884.17 58.062 4917.35C65.2605 4950.52 61.0614 5412.84 58.062 5639.85C61.7041 5799.61 66.803 6173.99 58.062 6393.45C47.1359 6667.78 38.7805 6648.64 58.062 6981.18C77.3436 7313.72 68.3455 7419.79 63.2038 7466.84C59.0904 7504.48 58.062 7531.96 58.062 7541H90.1979C87.4128 7490.49 83.5136 7373.05 90.1979 7307.34C98.5532 7225.2 90.1979 7179.75 85.6989 7144.66C81.1999 7109.57 101.124 6946.09 90.1979 6871.93C79.2717 6797.76 110.765 6659.8 90.1979 6604.78C73.7443 6560.76 73.9157 6344.01 76.0581 6241.14V5734.75C85.9131 5641.97 102.667 5448.46 90.8406 5416.56C79.0146 5384.66 76.0581 5182.64 76.0581 5085.61C82.7397 4944.19 92.0938 4652.59 76.0581 4617.5C60.0224 4582.41 73.2329 4350.88 81.8426 4239.5L76.0581 3883.04V3450.01C88.0555 3297.17 108.451 2979.99 94.0542 2934.06C79.6573 2888.12 69.631 2688.44 66.4174 2594.34C73.273 2502.63 85.8274 2314.43 81.1999 2295.29C76.5723 2276.15 79.2717 1929.52 81.1999 1758.6L92.126 1201.97C80.9856 1186.02 62.0469 1117.6 75.4154 971.5C88.7839 825.405 80.9856 717.109 75.4154 681.223V365.428V-3H88.9125L101.767 2911.73C112.05 2987.22 127.604 3175.37 107.551 3324.02C87.4985 3472.66 85.4846 3603.39 86.9843 3650.18L124.905 7541H151.899L107.551 -3H133.903C128.975 91.3665 122.077 293.975 133.903 349.479C148.685 418.858 99.8387 468.301 121.048 581.54C142.258 694.78 146.757 895.741 133.903 944.386C123.619 983.302 129.618 1344.98 133.903 1520.95C142.301 1756.47 155.343 2242.82 140.33 2304.06C125.317 2365.31 134.074 2626.77 140.33 2749.84V3482.71C136.688 3685.8 134.288 4102.02 153.827 4142.21C178.25 4192.45 126.833 4268.21 140.33 4351.15C153.827 4434.08 153.827 4469.97 153.827 4582.41C153.827 4672.37 158.969 5171.74 161.539 5410.18C167.581 5594.66 176.04 5977.02 161.539 6030.61C143.414 6097.59 161.539 6268.25 161.539 6306.53C161.539 6344.81 195.603 6495.53 185.963 6562.51C178.25 6616.1 166.467 6891.6 161.539 7022.65L173.108 7541H197.532C201.816 7480.92 205.501 7304.47 185.963 7079.27C206.958 6883.09 241.365 6471.28 211.029 6393.45C173.108 6296.16 177.607 6085.63 194.318 5981.96C207.687 5899.02 194.318 5522.62 185.963 5344.79L175.037 4617.5C164.11 4532.17 148.814 4312.39 175.037 4115.9C164.11 4119.88 146.5 4034.56 163.468 3661.34C184.677 3194.83 151.899 3224.33 163.468 3025.76C175.037 2827.2 194.809 2642.98 163.468 2561.64C132.127 2480.3 213.112 1855.09 176.322 1776.14C139.532 1697.19 146.114 1075.97 153.827 1045.66C161.539 1015.36 189.844 673.249 153.827 581.54C125.013 508.174 156.818 430.288 176.322 400.516V-3" stroke="#F2E6D3" stroke-width="3"/>
<path d="M1772 -3L1766.24 7541H1749.61C1752.17 7479.33 1754.6 7344.82 1743.86 7300.17C1733.11 7255.51 1743.22 7158.75 1749.61 7115.95V6878.31C1751.53 6785.27 1754.22 6591.86 1749.61 6562.51C1743.86 6525.83 1741.94 6233.96 1749.61 6202.86C1757.29 6171.76 1749.61 5912.58 1749.61 5899.82C1749.61 5887.06 1742.58 5766.64 1749.61 5734.75C1756.65 5702.85 1748.33 5469.19 1744.5 5443.67C1740.66 5418.15 1739.38 5221.98 1744.5 5186.89C1749.61 5151.8 1753.45 4736.32 1744.5 4694.85C1735.54 4653.39 1757.29 4401.39 1753.45 4330.41C1749.61 4259.44 1733.62 3820.84 1746.41 3766.61C1756.65 3723.23 1750.68 3607.12 1746.41 3554.48C1749.4 3481.65 1753.58 3329.28 1746.41 3302.48C1739.25 3275.69 1743.43 2950.54 1746.41 2791.31C1742.36 2243.45 1736.69 1141.52 1746.41 1116.64C1756.14 1091.76 1750.47 947.842 1746.41 878.994C1742.79 712.058 1737.72 372.446 1746.41 349.479C1755.11 326.512 1750.04 104.923 1746.41 -3H1730.42C1733.2 98.8094 1737.08 322.046 1730.42 400.516C1723.77 478.987 1727.65 781.969 1730.42 923.652C1733.41 1003.66 1735.54 1177.4 1720.19 1232.27C1704.84 1287.14 1717.63 1722.98 1725.95 1934.04V2422.08C1732.77 2551.54 1741.3 2832.3 1720.83 2919.7C1695.24 3028.95 1731.06 3348.74 1734.9 3362.29C1737.97 3373.14 1732.34 3636.36 1729.14 3766.61V4464.39C1732.13 4601.55 1736.31 4884.17 1729.14 4917.35C1721.98 4950.52 1726.16 5412.84 1729.14 5639.85C1725.52 5799.61 1720.45 6173.99 1729.14 6393.45C1740.02 6667.78 1748.33 6648.64 1729.14 6981.18C1709.96 7313.72 1718.91 7419.79 1724.03 7466.84C1728.12 7504.48 1729.14 7531.96 1729.14 7541H1697.16C1699.94 7490.49 1703.82 7373.05 1697.16 7307.34C1688.85 7225.2 1697.16 7179.75 1701.64 7144.66C1706.12 7109.57 1686.29 6946.09 1697.16 6871.93C1708.04 6797.76 1676.7 6659.8 1697.16 6604.78C1713.54 6560.76 1713.37 6344.01 1711.24 6241.14V5734.75C1701.43 5641.97 1684.75 5448.46 1696.52 5416.56C1708.29 5384.66 1711.24 5182.64 1711.24 5085.61C1704.59 4944.19 1695.28 4652.59 1711.24 4617.5C1727.19 4582.41 1714.05 4350.88 1705.48 4239.5L1711.24 3883.04V3450.01C1699.3 3297.17 1679 2979.99 1693.33 2934.06C1707.65 2888.12 1717.63 2688.44 1720.83 2594.34C1714.01 2502.63 1701.51 2314.43 1706.12 2295.29C1710.72 2276.15 1708.04 1929.52 1706.12 1758.6L1695.24 1201.97C1706.33 1186.02 1725.18 1117.6 1711.88 971.5C1698.57 825.405 1706.33 717.109 1711.88 681.223V365.428V-3H1698.44L1685.65 2911.73C1675.42 2987.22 1659.94 3175.37 1679.89 3324.02C1699.85 3472.66 1701.85 3603.39 1700.36 3650.18L1662.62 7541H1635.76L1679.89 -3H1653.67C1658.57 91.3665 1665.44 293.975 1653.67 349.479C1638.96 418.858 1687.57 468.301 1666.46 581.54C1645.35 694.78 1640.88 895.741 1653.67 944.386C1663.9 983.302 1657.93 1344.98 1653.67 1520.95C1645.31 1756.47 1632.33 2242.82 1647.27 2304.06C1662.21 2365.31 1653.5 2626.77 1647.27 2749.84V3482.71C1650.9 3685.8 1653.29 4102.02 1633.84 4142.21C1609.53 4192.45 1660.7 4268.21 1647.27 4351.15C1633.84 4434.08 1633.84 4469.97 1633.84 4582.41C1633.84 4672.37 1628.72 5171.74 1626.17 5410.18C1620.15 5594.66 1611.73 5977.02 1626.17 6030.61C1644.2 6097.59 1626.17 6268.25 1626.17 6306.53C1626.17 6344.81 1592.26 6495.53 1601.86 6562.51C1609.53 6616.1 1621.26 6891.6 1626.17 7022.65L1614.65 7541H1590.35C1586.08 7480.92 1582.41 7304.47 1601.86 7079.27C1580.96 6883.09 1546.72 6471.28 1576.91 6393.45C1614.65 6296.16 1610.17 6085.63 1593.54 5981.96C1580.24 5899.02 1593.54 5522.62 1601.86 5344.79L1612.73 4617.5C1623.61 4532.17 1638.83 4312.39 1612.73 4115.9C1623.61 4119.88 1641.13 4034.56 1624.25 3661.34C1603.14 3194.83 1635.76 3224.33 1624.25 3025.76C1612.73 2827.2 1593.06 2642.98 1624.25 2561.64C1655.44 2480.3 1574.84 1855.09 1611.45 1776.14C1648.07 1697.19 1641.52 1075.97 1633.84 1045.66C1626.17 1015.36 1598 673.249 1633.84 581.54C1662.52 508.174 1630.86 430.288 1611.45 400.516V-3" stroke="#F2E6D3" stroke-width="3"/>
<ellipse cx="579.381" cy="4382.22" rx="69.7818" ry="112.142" fill="#D9CEB9"/>
<ellipse cx="526.884" cy="1462.85" rx="39.0522" ry="351.819" fill="#D9CEB9"/>
<path d="M361 -3L366.757 7542H383.387C380.828 7480.32 378.398 7345.8 389.144 7301.13C399.889 7256.47 389.783 7159.7 383.387 7116.9V6879.22C381.468 6786.17 378.782 6592.73 383.387 6563.38C389.144 6526.7 391.062 6234.78 383.387 6203.68C375.711 6172.57 383.387 5913.37 383.387 5900.6C383.387 5887.84 390.423 5767.41 383.387 5735.51C376.351 5703.6 384.666 5469.92 388.504 5444.39C392.342 5418.87 393.621 5222.67 388.504 5187.58C383.387 5152.48 379.549 4736.95 388.504 4695.48C397.459 4654 375.711 4401.97 379.549 4330.99C383.387 4260 399.378 3821.34 386.585 3767.11C376.351 3723.72 382.321 3607.59 386.585 3554.95C383.6 3482.11 379.421 3329.72 386.585 3302.92C393.749 3276.12 389.57 2950.93 386.585 2791.68C390.636 2243.75 396.307 1141.67 386.585 1116.79C376.863 1091.9 382.534 947.968 386.585 879.111C390.21 712.153 395.284 372.495 386.585 349.525C377.886 326.555 382.961 104.938 386.585 -3H402.576C399.804 98.8229 395.924 322.089 402.576 400.57C409.228 479.051 405.347 782.074 402.576 923.775C399.591 1003.8 397.459 1177.56 412.81 1232.43C428.161 1287.31 415.368 1723.2 407.053 1934.29V2422.41C400.23 2551.88 391.702 2832.68 412.17 2920.09C437.755 3029.36 401.936 3349.18 398.098 3362.74C395.028 3373.59 400.657 3636.84 403.855 3767.11V4464.98C400.87 4602.16 396.691 4884.82 403.855 4918C411.019 4951.18 406.84 5413.55 403.855 5640.6C407.48 5800.38 412.554 6174.81 403.855 6394.3C392.981 6668.66 384.666 6649.52 403.855 6982.11C423.044 7314.69 414.089 7420.77 408.972 7467.83C404.878 7505.47 403.855 7532.96 403.855 7542H435.836C433.065 7491.49 429.184 7374.03 435.836 7308.31C444.152 7226.16 435.836 7180.7 431.359 7145.61C426.882 7110.52 446.71 6947.01 435.836 6872.84C424.963 6798.67 456.304 6660.69 435.836 6605.65C419.462 6561.63 419.632 6344.85 421.765 6241.96V5735.51C431.572 5642.72 448.245 5449.18 436.476 5417.28C424.707 5385.37 421.765 5183.32 421.765 5086.29C428.414 4944.85 437.723 4653.21 421.765 4618.11C405.806 4583.02 418.953 4351.46 427.521 4240.07L421.765 3883.55V3450.47C433.704 3297.61 454.002 2980.39 439.674 2934.45C425.346 2888.51 415.368 2688.79 412.17 2594.68C418.993 2502.96 431.487 2314.73 426.882 2295.59C422.276 2276.45 424.963 1929.77 426.882 1758.83L437.755 1202.13C426.668 1186.17 407.821 1117.74 421.125 971.629C434.429 825.514 426.668 717.205 421.125 681.314V365.477V-3H434.557L447.35 2912.11C457.584 2987.62 473.063 3175.79 453.106 3324.46C433.15 3473.12 431.146 3603.87 432.638 3650.66L470.376 7542H497.241L453.106 -3H479.331C474.427 91.379 467.562 294.015 479.331 349.525C494.042 418.914 445.431 468.363 466.538 581.618C487.646 694.873 492.124 895.86 479.331 944.512C469.097 983.433 475.067 1345.16 479.331 1521.15C487.689 1756.7 500.668 2243.11 485.727 2304.37C470.786 2365.62 479.502 2627.12 485.727 2750.21V3483.17C482.103 3686.29 479.715 4102.56 499.159 4142.76C523.465 4193.01 472.295 4268.78 485.727 4351.73C499.159 4434.67 499.159 4470.56 499.159 4583.02C499.159 4672.99 504.276 5172.42 506.835 5410.9C512.848 5595.4 521.266 5977.81 506.835 6031.41C488.796 6098.4 506.835 6269.08 506.835 6307.36C506.835 6345.65 540.735 6496.39 531.141 6563.38C523.465 6616.98 511.739 6892.51 506.835 7023.58L518.348 7542H542.654C546.918 7481.92 550.585 7305.44 531.141 7080.21C527.5 6883.5 586.277 6472.14 556.086 6394.3C518.348 6297 522.826 6086.44 539.456 5982.75C552.76 5899.81 539.456 5523.35 531.141 5345.5L520.267 4618.11C509.393 4532.77 494.17 4312.96 520.267 4116.44C514 4090.5 491.868 4035.09 508.754 3661.83C529.862 3195.25 497.241 3224.76 508.754 3026.17C520.267 2827.57 539.944 2643.33 508.754 2561.98C477.564 2480.63 558.16 1855.34 521.546 1776.38C484.933 1697.42 491.484 1076.11 499.159 1045.8C506.835 1015.5 535.004 673.338 499.159 581.618C470.484 508.242 502.136 430.346 521.546 400.57V-3" stroke="#F2E6D3" stroke-width="3"/>
<path d="M735 7541L729.243 -3H712.613C715.172 58.6705 717.602 193.176 706.856 237.834C696.111 282.492 706.217 379.251 712.613 422.048V659.692C714.532 752.729 717.218 946.141 712.613 975.487C706.856 1012.17 704.938 1304.04 712.613 1335.14C720.289 1366.24 712.613 1625.42 712.613 1638.18C712.613 1650.94 705.577 1771.36 712.613 1803.25C719.649 1835.15 711.334 2068.81 707.496 2094.33C703.658 2119.85 702.379 2316.02 707.496 2351.11C712.613 2386.2 716.451 2801.68 707.496 2843.15C698.541 2884.61 720.289 3136.61 716.451 3207.59C712.613 3278.56 696.622 3717.16 709.415 3771.39C719.649 3814.77 713.679 3930.89 709.415 3983.52C712.4 4056.35 716.579 4208.72 709.415 4235.52C702.251 4262.31 706.43 4587.46 709.415 4746.69C705.364 5294.55 699.693 6396.48 709.415 6421.36C719.137 6446.24 713.466 6590.16 709.415 6659.01C705.79 6825.94 700.716 7165.55 709.415 7188.52C718.114 7211.49 713.039 7433.08 709.415 7541H693.424C696.196 7439.19 700.076 7215.95 693.424 7137.48C686.772 7059.01 690.653 6756.03 693.424 6614.35C696.409 6534.34 698.541 6360.6 683.19 6305.73C667.839 6250.86 680.632 5815.02 688.947 5603.96V5115.92C695.77 4986.46 704.298 4705.7 683.83 4618.3C658.245 4509.05 694.064 4189.26 697.902 4175.71C700.972 4164.86 695.343 3901.64 692.145 3771.39L692.145 3073.61C695.13 2936.45 699.309 2653.83 692.145 2620.65C684.981 2587.48 689.16 2125.16 692.145 1898.15C688.52 1738.39 683.446 1364.01 692.145 1144.55C703.019 870.222 711.334 889.361 692.145 556.819C672.956 224.277 681.911 118.214 687.028 71.1641C691.122 33.5238 692.145 6.03791 692.145 -3H660.164C662.935 47.506 666.816 164.946 660.164 230.657C651.848 312.795 660.164 358.251 664.641 393.339C669.118 428.428 649.29 591.907 660.164 666.071C671.037 740.235 639.696 878.197 660.164 933.222C676.538 977.242 676.368 1193.99 674.235 1296.86L674.235 1803.25C664.428 1896.03 647.755 2089.54 659.524 2121.44C671.293 2153.34 674.235 2355.36 674.235 2452.39C667.586 2593.81 658.277 2885.41 674.235 2920.5C690.194 2955.59 677.047 3187.12 668.479 3298.5L674.235 3654.96L674.235 4087.99C662.296 4240.83 641.998 4558.01 656.326 4603.94C670.654 4649.88 680.632 4849.56 683.83 4943.66C677.007 5035.37 664.513 5223.57 669.118 5242.71C673.724 5261.85 671.037 5608.48 669.118 5779.4L658.245 6336.03C669.332 6351.98 688.179 6420.41 674.875 6566.5C661.571 6712.6 669.332 6820.89 674.875 6856.78L674.875 7172.57V7541H661.443L648.65 4626.27C638.416 4550.78 622.937 4362.63 642.894 4213.98C662.85 4065.34 664.854 3934.61 663.362 3887.82L625.624 -3H598.759L642.894 7541H616.669C621.573 7446.63 628.438 7244.02 616.669 7188.52C601.958 7119.14 650.569 7069.7 629.462 6956.46C608.354 6843.22 603.876 6642.26 616.669 6593.61C626.903 6554.7 620.933 6193.02 616.669 6017.05C608.311 5781.53 595.332 5295.18 610.273 5233.94C625.214 5172.69 616.498 4911.23 610.273 4788.16L610.273 4055.29C613.897 3852.2 616.285 3435.98 596.841 3395.79C572.535 3345.55 623.705 3269.79 610.273 3186.85C596.841 3103.92 596.841 3068.03 596.841 2955.59C596.841 2865.63 591.724 2366.26 589.165 2127.82C583.152 1943.34 574.734 1560.98 589.165 1507.4C607.204 1440.41 589.165 1269.75 589.165 1231.47C589.165 1193.19 555.265 1042.47 564.859 975.487C572.535 921.898 584.261 646.401 589.165 515.351L577.652 -3H553.346C549.082 57.0755 545.415 233.527 564.859 458.731C543.965 654.907 509.723 1066.72 539.914 1144.55C577.652 1241.84 573.174 1452.37 556.544 1556.04C543.24 1638.98 556.544 2015.38 564.859 2193.21L575.733 2920.5C586.607 3005.83 601.83 3225.61 575.733 3422.1C586.607 3418.12 604.132 3503.44 587.246 3876.66C566.138 4343.17 598.759 4313.67 587.246 4512.24C575.733 4710.8 556.056 4895.02 587.246 4976.36C618.436 5057.7 537.84 5682.91 574.454 5761.86C611.067 5840.81 604.516 6462.03 596.841 6492.34C589.165 6522.64 560.996 6864.75 596.841 6956.46C625.516 7029.83 586.5 7088.5 574.454 7137.48V7541" stroke="#F2E6D3" stroke-width="3"/>
<path d="M1152 7542L1146.24 -3.00027H1129.61C1132.17 58.6784 1134.6 193.202 1123.86 237.865C1113.11 282.529 1123.22 379.301 1129.61 422.104V659.779C1131.53 752.829 1134.22 946.266 1129.61 975.617C1123.86 1012.3 1121.94 1304.21 1129.61 1335.32C1137.29 1366.43 1129.61 1625.64 1129.61 1638.4C1129.61 1651.16 1122.58 1771.59 1129.61 1803.49C1136.65 1835.4 1128.33 2069.08 1124.5 2094.61C1120.66 2120.13 1119.38 2316.33 1124.5 2351.42C1129.61 2386.52 1133.45 2802.05 1124.5 2843.52C1115.54 2885 1137.29 3137.03 1133.45 3208.01C1129.61 3279 1113.62 3717.66 1126.41 3771.89C1136.65 3815.28 1130.68 3931.41 1126.41 3984.05C1129.4 4056.89 1133.58 4209.28 1126.41 4236.08C1119.25 4262.88 1123.43 4588.07 1126.41 4747.32C1122.36 5295.25 1116.69 6397.33 1126.41 6422.21C1136.14 6447.1 1130.47 6591.03 1126.41 6659.89C1122.79 6826.85 1117.72 7166.5 1126.41 7189.47C1135.11 7212.44 1130.04 7434.06 1126.41 7542H1110.42C1113.2 7440.18 1117.08 7216.91 1110.42 7138.43C1103.77 7059.95 1107.65 6756.93 1110.42 6615.23C1113.41 6535.2 1115.54 6361.44 1100.19 6306.57C1084.84 6251.69 1097.63 5815.8 1105.95 5604.71V5116.59C1112.77 4987.12 1121.3 4706.32 1100.83 4618.91C1075.24 4509.64 1111.06 4189.82 1114.9 4176.26C1117.97 4165.41 1112.34 3902.16 1109.14 3771.89V3074.02C1112.13 2936.84 1116.31 2654.18 1109.14 2621C1101.98 2587.82 1106.16 2125.44 1109.14 1898.4C1105.52 1738.62 1100.45 1364.19 1109.14 1144.7C1120.02 870.338 1128.33 889.479 1109.14 556.893C1089.96 224.307 1098.91 118.23 1104.03 71.1736C1108.12 33.5284 1109.14 6.03885 1109.14 -3.00027H1077.16C1079.94 47.5124 1083.82 164.968 1077.16 230.687C1068.85 312.837 1077.16 358.298 1081.64 393.391C1086.12 428.484 1066.29 591.986 1077.16 666.16C1088.04 740.334 1056.7 878.313 1077.16 933.345C1093.54 977.371 1093.37 1194.15 1091.24 1297.04V1803.49C1081.43 1896.28 1064.75 2089.82 1076.52 2121.72C1088.29 2153.63 1091.24 2355.68 1091.24 2452.71C1084.59 2594.15 1075.28 2885.79 1091.24 2920.89C1107.19 2955.98 1094.05 3187.54 1085.48 3298.93L1091.24 3655.45V4088.53C1079.3 4241.39 1059 4558.61 1073.33 4604.55C1087.65 4650.49 1097.63 4850.21 1100.83 4944.32C1094.01 5036.04 1081.51 5224.27 1086.12 5243.41C1090.72 5262.55 1088.04 5609.23 1086.12 5780.17L1075.24 6336.87C1086.33 6352.83 1105.18 6421.26 1091.88 6567.37C1078.57 6713.49 1086.33 6821.8 1091.88 6857.69V7173.52V7542H1078.44L1065.65 4626.89C1055.42 4551.38 1039.94 4363.21 1059.89 4214.54C1079.85 4065.88 1081.85 3935.13 1080.36 3888.34L1042.62 -3.00027H1015.76L1059.89 7542H1033.67C1038.57 7447.62 1045.44 7244.99 1033.67 7189.47C1018.96 7120.09 1067.57 7070.64 1046.46 6957.38C1025.35 6844.13 1020.88 6643.14 1033.67 6594.49C1043.9 6555.57 1037.93 6193.84 1033.67 6017.85C1025.31 5782.3 1012.33 5295.89 1027.27 5234.63C1042.21 5173.38 1033.5 4911.88 1027.27 4788.79L1027.27 4055.83C1030.9 3852.71 1033.29 3436.44 1013.84 3396.24C989.535 3345.99 1040.7 3270.22 1027.27 3187.27C1013.84 3104.33 1013.84 3068.44 1013.84 2955.98C1013.84 2866.01 1008.72 2366.58 1006.17 2128.1C1000.15 1943.6 991.734 1561.19 1006.17 1507.59C1024.2 1440.6 1006.17 1269.92 1006.17 1231.64C1006.17 1193.35 972.265 1042.61 981.859 975.617C989.535 922.02 1001.26 646.487 1006.17 515.419L994.652 -3.00027H970.346C966.082 57.0832 962.415 233.559 981.859 458.792C960.965 654.994 926.723 1066.86 956.914 1144.7C994.652 1242 990.174 1452.56 973.544 1556.25C960.24 1639.19 973.544 2015.65 981.859 2193.5L992.733 2920.89C1003.61 3006.23 1018.83 3226.04 992.733 3422.56C1003.61 3418.57 1021.13 3503.91 1004.25 3877.17C983.138 4343.75 1015.76 4314.24 1004.25 4512.83C992.733 4711.43 973.056 4895.67 1004.25 4977.02C1035.44 5058.37 954.84 5683.66 991.454 5762.62C1028.07 5841.58 1021.52 6462.89 1013.84 6493.2C1006.17 6523.5 977.996 6865.66 1013.84 6957.38C1042.52 7030.76 1010.86 7108.65 991.454 7138.43V7542" stroke="#F2E6D3" stroke-width="3"/>
<path d="M1178 7542L1185.98 -3H1209.04C1205.49 58.6786 1202.12 193.202 1217.02 237.866C1231.92 282.53 1217.91 379.301 1209.04 422.104V659.78C1206.38 752.829 1202.65 946.267 1209.04 975.617C1217.02 1012.31 1219.68 1304.22 1209.04 1335.32C1198.4 1366.43 1209.04 1625.64 1209.04 1638.4C1209.04 1651.16 1218.79 1771.59 1209.04 1803.49C1199.28 1835.4 1210.81 2069.08 1216.13 2094.61C1221.45 2120.13 1223.23 2316.33 1216.13 2351.42C1209.04 2386.52 1203.72 2802.05 1216.13 2843.52C1228.55 2885 1198.4 3137.03 1203.72 3208.01C1209.04 3278.99 1231.21 3717.66 1213.47 3771.89C1199.28 3815.28 1207.56 3931.41 1213.47 3984.05C1209.33 4056.89 1203.54 4209.28 1213.47 4236.08C1223.41 4262.88 1217.61 4588.07 1213.47 4747.32C1219.09 5295.25 1226.95 6397.33 1213.47 6422.21C1199.99 6447.1 1207.86 6591.03 1213.47 6659.89C1218.5 6826.85 1225.53 7166.5 1213.47 7189.47C1201.41 7212.44 1208.45 7434.06 1213.47 7542H1235.64C1231.8 7440.18 1226.42 7216.91 1235.64 7138.43C1244.87 7059.95 1239.49 6756.93 1235.64 6615.23C1231.51 6535.2 1228.55 6361.44 1249.83 6306.57C1271.12 6251.69 1253.38 5815.8 1241.85 5604.71V5116.59C1232.39 4987.12 1220.57 4706.32 1248.95 4618.91C1284.42 4509.64 1234.76 4189.82 1229.44 4176.26C1225.18 4165.41 1232.98 3902.16 1237.42 3771.89V3074.02C1233.28 2936.84 1227.48 2654.18 1237.42 2621C1247.35 2587.82 1241.56 2125.45 1237.42 1898.4C1242.44 1738.62 1249.48 1364.19 1237.42 1144.7C1222.34 870.338 1210.81 889.479 1237.42 556.893C1264.02 224.307 1251.61 118.23 1244.51 71.1738C1238.84 33.5286 1237.42 6.03911 1237.42 -3H1281.76C1277.92 47.5127 1272.54 164.968 1281.76 230.688C1293.29 312.837 1281.76 358.299 1275.55 393.392C1269.34 428.485 1296.83 591.986 1281.76 666.16C1266.68 740.334 1310.14 878.313 1281.76 933.346C1259.06 977.371 1259.29 1194.15 1262.25 1297.04V1803.49C1275.85 1896.28 1298.96 2089.82 1282.65 2121.72C1266.33 2153.63 1262.25 2355.68 1262.25 2452.71C1271.47 2594.15 1284.37 2885.79 1262.25 2920.89C1240.12 2955.98 1258.35 3187.54 1270.23 3298.93L1262.25 3655.45V4088.53C1278.8 4241.39 1306.94 4558.61 1287.08 4604.55C1267.21 4650.49 1253.38 4850.21 1248.95 4944.32C1258.41 5036.04 1275.73 5224.27 1269.34 5243.41C1262.96 5262.55 1266.68 5609.23 1269.34 5780.17L1284.42 6336.87C1269.05 6352.83 1242.92 6421.26 1261.36 6567.37C1279.81 6713.49 1269.05 6821.8 1261.36 6857.69V7173.52V7542H1279.98L1297.72 4626.89C1311.91 4551.38 1333.37 4363.21 1305.7 4214.54C1278.03 4065.88 1275.26 3935.13 1277.32 3888.34L1329.65 -3H1366.89L1305.7 7542H1342.06C1335.26 7447.62 1325.75 7244.99 1342.06 7189.47C1362.46 7120.09 1295.06 7070.64 1324.33 6957.38C1353.59 6844.13 1359.8 6643.14 1342.06 6594.49C1327.87 6555.57 1336.15 6193.84 1342.06 6017.85C1353.65 5782.3 1371.65 5295.89 1350.93 5234.63C1330.22 5173.38 1342.3 4911.88 1350.93 4788.79L1350.93 4055.83C1345.91 3852.71 1355.9 3445.7 1382.86 3405.5C1416.56 3355.25 1350.93 3290.96 1369.55 3208.01C1388.18 3125.06 1369.55 3068.44 1369.55 2955.98C1369.55 2866.01 1376.65 2366.58 1380.2 2128.1C1388.53 1943.6 1400.2 1561.19 1380.2 1507.6C1355.19 1440.6 1380.2 1269.92 1380.2 1231.64C1380.2 1193.35 1427.2 1042.61 1413.9 975.617C1403.25 922.021 1387 646.487 1380.2 515.42L1396.16 -3H1429.86C1435.77 57.0835 1440.86 233.559 1413.9 458.792C1442.87 654.994 1490.34 1066.86 1448.48 1144.7C1396.16 1242 1402.37 1452.56 1425.42 1556.25C1443.87 1639.19 1425.42 2015.65 1413.9 2193.5L1398.82 2920.89C1383.74 3006.23 1407.32 3224.98 1443.5 3421.5C1415.5 3525 1359.44 3503.91 1382.86 3877.17C1412.12 4343.75 1366.89 4314.24 1382.86 4512.83C1398.82 4711.43 1426.1 4895.67 1382.86 4977.02C1339.61 5058.37 1451.36 5683.66 1400.59 5762.62C1349.83 5841.58 1358.91 6462.89 1369.55 6493.2C1380.2 6523.5 1419.25 6865.66 1369.55 6957.38C1329.8 7030.76 1387.5 7094.5 1400.59 7138.43V7542" stroke="#F2E6D3" stroke-width="3"/>
<path d="M335 -3L329.243 7541H312.613C315.172 7479.33 317.602 7344.82 306.856 7300.17C296.111 7255.51 306.217 7158.75 312.613 7115.95V6878.31C314.532 6785.27 317.218 6591.86 312.613 6562.51C306.856 6525.83 304.938 6233.96 312.613 6202.86C320.289 6171.76 312.613 5912.58 312.613 5899.82C312.613 5887.06 305.577 5766.64 312.613 5734.75C319.649 5702.85 311.334 5469.19 307.496 5443.67C303.658 5418.15 302.379 5221.98 307.496 5186.89C312.613 5151.8 316.451 4736.32 307.496 4694.85C298.541 4653.39 320.289 4401.39 316.451 4330.41C312.613 4259.44 296.622 3820.84 309.415 3766.61C319.649 3723.23 313.679 3607.12 309.415 3554.48C312.4 3481.65 316.579 3329.28 309.415 3302.48C302.251 3275.69 306.43 2950.54 309.415 2791.31C305.364 2243.45 299.693 1141.52 309.415 1116.64C319.137 1091.76 313.466 947.842 309.415 878.994C305.79 712.058 300.716 372.446 309.415 349.479C318.114 326.512 313.039 104.923 309.415 -3H293.424C296.196 98.8094 300.076 322.046 293.424 400.516C286.772 478.987 290.653 781.969 293.424 923.652C296.409 1003.66 298.541 1177.4 283.19 1232.27C267.839 1287.14 280.632 1722.98 288.947 1934.04V2422.08C295.77 2551.54 304.298 2832.3 283.83 2919.7C258.245 3028.95 294.064 3348.74 297.902 3362.29C300.972 3373.14 295.343 3636.36 292.145 3766.61V4464.39C295.13 4601.55 299.309 4884.17 292.145 4917.35C284.981 4950.52 289.16 5412.84 292.145 5639.85C288.52 5799.61 283.446 6173.99 292.145 6393.45C303.019 6667.78 311.334 6648.64 292.145 6981.18C272.956 7313.72 281.911 7419.79 287.028 7466.84C291.122 7504.48 292.145 7531.96 292.145 7541H260.164C262.935 7490.49 266.816 7373.05 260.164 7307.34C251.848 7225.2 260.164 7179.75 264.641 7144.66C269.118 7109.57 249.29 6946.09 260.164 6871.93C271.037 6797.76 239.696 6659.8 260.164 6604.78C276.538 6560.76 276.368 6344.01 274.235 6241.14V5734.75C264.428 5641.97 247.755 5448.46 259.524 5416.56C271.293 5384.66 274.235 5182.64 274.235 5085.61C267.586 4944.19 258.277 4652.59 274.235 4617.5C290.194 4582.41 277.047 4350.88 268.479 4239.5L274.235 3883.04V3450.01C262.296 3297.17 241.998 2979.99 256.326 2934.06C270.654 2888.12 280.632 2688.44 283.83 2594.34C277.007 2502.63 264.513 2314.43 269.118 2295.29C273.724 2276.15 271.037 1929.52 269.118 1758.6L258.245 1201.97C269.332 1186.02 288.179 1117.6 274.875 971.5C261.571 825.405 269.332 717.109 274.875 681.223V365.428V-3H261.443L248.65 2911.73C238.416 2987.22 222.937 3175.37 242.894 3324.02C262.85 3472.66 264.854 3603.39 263.362 3650.18L225.624 7541H198.759L242.894 -3H216.669C221.573 91.3665 228.438 293.975 216.669 349.479C201.958 418.858 250.569 468.301 229.462 581.54C208.354 694.78 203.876 895.741 216.669 944.386C226.903 983.302 220.933 1344.98 216.669 1520.95C208.311 1756.47 195.332 2242.82 210.273 2304.06C225.214 2365.31 216.498 2626.77 210.273 2749.84V3482.71C213.897 3685.8 216.285 4102.02 196.841 4142.21C172.535 4192.45 223.705 4268.21 210.273 4351.15C196.841 4434.08 196.841 4469.97 196.841 4582.41C196.841 4672.37 191.724 5171.74 189.165 5410.18C183.152 5594.66 174.734 5977.02 189.165 6030.61C207.204 6097.59 189.165 6268.25 189.165 6306.53C189.165 6344.81 155.265 6495.53 164.859 6562.51C172.535 6616.1 184.261 6891.6 189.165 7022.65L177.652 7541H153.346C149.082 7480.92 145.415 7304.47 164.859 7079.27C143.965 6883.09 109.723 6471.28 139.914 6393.45C177.652 6296.16 173.174 6085.63 156.544 5981.96C143.24 5899.02 156.544 5522.62 164.859 5344.79L175.733 4617.5C186.607 4532.17 201.83 4312.39 175.733 4115.9C186.607 4119.88 204.132 4034.56 187.246 3661.34C166.138 3194.83 198.759 3224.33 187.246 3025.76C175.733 2827.2 156.056 2642.98 187.246 2561.64C218.436 2480.3 137.84 1855.09 174.454 1776.14C211.067 1697.19 204.516 1075.97 196.841 1045.66C189.165 1015.36 160.996 673.249 196.841 581.54C225.516 508.174 193.864 430.288 174.454 400.516V-3" stroke="#F2E6D3" stroke-width="3"/>
<path d="M1448 -3L1453.76 7542H1470.39C1467.83 7480.32 1465.4 7345.8 1476.14 7301.13C1486.89 7256.47 1476.78 7159.7 1470.39 7116.9V6879.22C1468.47 6786.17 1465.78 6592.73 1470.39 6563.38C1476.14 6526.7 1478.06 6234.79 1470.39 6203.68C1462.71 6172.57 1470.39 5913.36 1470.39 5900.6C1470.39 5887.84 1477.42 5767.41 1470.39 5735.51C1463.35 5703.6 1471.67 5469.92 1475.5 5444.39C1479.34 5418.87 1480.62 5222.67 1475.5 5187.58C1470.39 5152.48 1466.55 4736.95 1475.5 4695.48C1484.46 4654 1462.71 4401.97 1466.55 4330.99C1470.39 4260 1486.38 3821.34 1473.59 3767.11C1463.35 3723.72 1469.32 3607.59 1473.59 3554.95C1470.6 3482.11 1466.42 3329.72 1473.59 3302.92C1480.75 3276.12 1476.57 2950.93 1473.59 2791.68C1477.64 2243.75 1483.31 1141.67 1473.59 1116.79C1463.86 1091.9 1469.53 947.968 1473.59 879.111C1477.21 712.153 1482.28 372.495 1473.59 349.525C1464.89 326.555 1469.96 104.938 1473.59 -3H1489.58C1486.8 98.8229 1482.92 322.089 1489.58 400.57C1496.23 479.051 1492.35 782.073 1489.58 923.775C1486.59 1003.8 1484.46 1177.56 1499.81 1232.43C1515.16 1287.31 1502.37 1723.2 1494.05 1934.29V2422.41C1487.23 2551.88 1478.7 2832.68 1499.17 2920.09C1524.76 3029.36 1488.94 3349.18 1485.1 3362.74C1482.03 3373.59 1487.66 3636.84 1490.86 3767.11V4464.98C1487.87 4602.16 1483.69 4884.82 1490.86 4918C1498.02 4951.18 1493.84 5413.56 1490.86 5640.6C1494.48 5800.38 1499.55 6174.81 1490.86 6394.3C1479.98 6668.66 1471.67 6649.52 1490.86 6982.11C1510.04 7314.69 1501.09 7420.77 1495.97 7467.83C1491.88 7505.47 1490.86 7532.96 1490.86 7542H1522.84C1520.06 7491.49 1516.18 7374.03 1522.84 7308.31C1531.15 7226.16 1522.84 7180.7 1518.36 7145.61C1513.88 7110.52 1533.71 6947.01 1522.84 6872.84C1511.96 6798.67 1543.3 6660.69 1522.84 6605.65C1506.46 6561.63 1506.63 6344.85 1508.76 6241.96V5735.51C1518.57 5642.72 1535.25 5449.18 1523.48 5417.28C1511.71 5385.37 1508.76 5183.32 1508.76 5086.29C1515.41 4944.85 1524.72 4653.21 1508.76 4618.11C1492.81 4583.02 1505.95 4351.46 1514.52 4240.07L1508.76 3883.55V3450.47C1520.7 3297.61 1541 2980.39 1526.67 2934.45C1512.35 2888.51 1502.37 2688.79 1499.17 2594.68C1505.99 2502.96 1518.49 2314.73 1513.88 2295.59C1509.28 2276.45 1511.96 1929.77 1513.88 1758.83L1524.76 1202.13C1513.67 1186.17 1494.82 1117.74 1508.12 971.629C1521.43 825.514 1513.67 717.205 1508.12 681.314V365.477V-3H1521.56L1534.35 2912.11C1544.58 2987.62 1560.06 3175.79 1540.11 3324.46C1520.15 3473.12 1518.15 3603.87 1519.64 3650.66L1557.38 7542H1584.24L1540.11 -3H1566.33C1561.43 91.379 1554.56 294.015 1566.33 349.525C1581.04 418.914 1532.43 468.363 1553.54 581.618C1574.65 694.873 1579.12 895.86 1566.33 944.512C1556.1 983.433 1562.07 1345.16 1566.33 1521.15C1574.69 1756.7 1587.67 2243.11 1572.73 2304.37C1557.79 2365.62 1566.5 2627.12 1572.73 2750.21V3483.17C1569.1 3686.29 1566.71 4102.56 1586.16 4142.76C1610.47 4193.01 1559.3 4268.78 1572.73 4351.73C1586.16 4434.67 1586.16 4470.56 1586.16 4583.02C1586.16 4672.99 1591.28 5172.42 1593.83 5410.9C1599.85 5595.4 1608.27 5977.81 1593.83 6031.41C1575.8 6098.4 1593.83 6269.08 1593.83 6307.36C1593.83 6345.65 1627.74 6496.39 1618.14 6563.38C1610.47 6616.98 1598.74 6892.51 1593.83 7023.58L1605.35 7542H1629.65C1633.92 7481.92 1637.59 7305.44 1618.14 7080.21C1639.04 6884.01 1673.28 6472.14 1643.09 6394.3C1605.35 6297 1609.83 6086.44 1626.46 5982.75C1639.76 5899.81 1626.46 5523.35 1618.14 5345.5L1607.27 4618.11C1596.39 4532.77 1581.17 4312.96 1607.27 4116.44C1596.39 4120.43 1578.87 4035.09 1595.75 3661.83C1616.86 3195.25 1584.24 3224.76 1595.75 3026.17C1607.27 2827.57 1626.94 2643.33 1595.75 2561.98C1564.56 2480.63 1645.16 1855.34 1608.55 1776.38C1571.93 1697.42 1578.48 1076.11 1586.16 1045.8C1593.83 1015.5 1622 673.338 1586.16 581.618C1557.48 508.242 1589.14 430.346 1608.55 400.57V-3" stroke="#F2E6D3" stroke-width="3"/>
<path d="M968 -3L960.213 7541H937.718C941.179 7479.33 944.467 7344.82 929.931 7300.17C915.396 7255.51 929.066 7158.75 937.718 7115.95V6878.31C940.314 6785.27 943.948 6591.86 937.718 6562.51C929.931 6525.83 927.336 6233.96 937.718 6202.86C948.1 6171.76 937.718 5912.58 937.718 5899.82C937.718 5887.06 928.201 5766.64 937.718 5734.75C947.235 5702.85 935.988 5469.19 930.797 5443.67C925.605 5418.15 923.875 5221.98 930.797 5186.89C937.718 5151.8 942.909 4736.32 930.797 4694.85C918.684 4653.39 948.1 4401.39 942.909 4330.41C937.718 4259.44 916.088 3820.84 933.392 3766.61C947.235 3723.23 939.16 3607.11 933.392 3554.48C937.43 3481.65 943.082 3329.28 933.392 3302.48C923.702 3275.69 929.355 2950.54 933.392 2791.31C927.913 2243.45 920.241 1141.52 933.392 1116.64C946.543 1091.76 938.872 947.842 933.392 878.994C928.489 712.059 921.625 372.446 933.392 349.479C945.159 326.512 938.295 104.923 933.392 -3H911.762C915.511 98.8094 920.76 322.046 911.762 400.516C902.764 478.987 908.013 781.969 911.762 923.652C915.8 1003.66 918.684 1177.4 897.919 1232.27C877.154 1287.14 894.458 1722.98 905.706 1934.04V2422.08C914.935 2551.54 926.471 2832.3 898.784 2919.7C864.176 3028.95 912.627 3348.74 917.819 3362.29C921.972 3373.14 914.358 3636.36 910.032 3766.61V4464.39C914.069 4601.55 919.722 4884.17 910.032 4917.35C900.342 4950.52 905.994 5412.84 910.032 5639.85C905.129 5799.61 898.265 6173.99 910.032 6393.45C924.74 6667.78 935.988 6648.64 910.032 6981.18C884.076 7313.72 896.189 7419.79 903.11 7466.84C908.648 7504.48 910.032 7531.96 910.032 7541H866.772C870.521 7490.49 875.77 7373.05 866.772 7307.34C855.525 7225.2 866.772 7179.75 872.828 7144.66C878.885 7109.57 852.064 6946.09 866.772 6871.93C881.48 6797.76 839.086 6659.8 866.772 6604.78C888.921 6560.76 888.69 6344.01 885.806 6241.14V5734.75C872.54 5641.97 849.987 5448.46 865.907 5416.56C881.826 5384.66 885.806 5182.64 885.806 5085.61C876.812 4944.19 864.22 4652.59 885.806 4617.5C907.393 4582.41 889.61 4350.88 878.02 4239.5L885.806 3883.04V3450.01C869.656 3297.17 842.2 2979.99 861.581 2934.06C880.961 2888.12 894.458 2688.44 898.784 2594.34C889.556 2502.63 872.655 2314.43 878.885 2295.29C885.114 2276.15 881.48 1929.52 878.885 1758.6L864.176 1201.97C879.173 1186.02 904.668 1117.59 886.672 971.5C868.675 825.405 879.173 717.109 886.672 681.223V365.428V-3H868.502L851.199 2911.73C837.355 2987.22 816.418 3175.37 843.412 3324.02C870.406 3472.66 873.117 3603.39 871.098 3650.18L820.051 7541H783.713L843.412 -3H807.939C814.572 91.3665 823.858 293.975 807.939 349.479C788.039 418.858 853.794 468.301 825.243 581.54C796.691 694.78 790.635 895.741 807.939 944.386C821.782 983.302 813.707 1344.98 807.939 1520.95C796.634 1756.47 779.077 2242.82 799.287 2304.06C819.497 2365.31 807.708 2626.77 799.287 2749.84V3482.71C804.19 3685.8 807.42 4102.02 781.118 4142.21C748.24 4192.45 817.456 4268.21 799.287 4351.15C781.118 4434.08 781.118 4469.97 781.118 4582.41C781.118 4672.37 774.196 5171.74 770.735 5410.18C762.602 5594.66 751.215 5977.02 770.735 6030.6C795.135 6097.59 770.735 6268.25 770.735 6306.53C770.735 6344.81 724.88 6495.53 737.858 6562.51C748.24 6616.1 764.102 6891.6 770.735 7022.65L755.162 7541H722.284C716.516 7480.92 711.556 7304.47 737.858 7079.27C709.595 6883.09 663.278 6471.28 704.115 6393.45C755.162 6296.16 749.105 6085.63 726.61 5981.96C708.614 5899.02 726.61 5522.62 737.858 5344.79L752.566 4617.5C767.275 4532.17 779.8 4309.49 744.5 4113C751 4080 790.981 4034.56 768.14 3661.34C739.588 3194.83 783.713 3224.33 768.14 3025.76C752.566 2827.2 725.95 2642.98 768.14 2561.64C810.329 2480.3 701.311 1855.09 750.836 1776.14C800.361 1697.19 791.5 1075.97 781.118 1045.66C770.735 1015.36 732.633 673.249 781.118 581.54C819.905 508.174 777.091 430.288 750.836 400.516V-3" stroke="#F2E6D3" stroke-width="3"/>
<ellipse cx="1423" cy="6321.5" rx="32" ry="80.5" fill="#D0C6B1" fill-opacity="0.49"/>
<ellipse cx="560" cy="5055.5" rx="32" ry="80.5" fill="#D0C6B1" fill-opacity="0.49"/>
<ellipse cx="1416" cy="3851.5" rx="32" ry="80.5" fill="#D0C6B1" fill-opacity="0.49"/>
<ellipse cx="168" cy="2459.5" rx="32" ry="80.5" fill="#D0C6B1" fill-opacity="0.49"/>
<ellipse cx="565" cy="7029.5" rx="32" ry="80.5" fill="#D0C6B1"/>
<ellipse cx="995.511" cy="6470.42" rx="27.5286" ry="68.8979" fill="#D0C6B1" fill-opacity="0.78"/>
</g>
</svg>
