<svg width="1790" height="7553" viewBox="0 0 1790 7553" fill="none" xmlns="http://www.w3.org/2000/svg">
<path d="M0 2H1790V7551H0V2Z" fill="#D9CEB9"/>
<ellipse cx="1613.94" cy="3706.64" rx="22.407" ry="112.142" fill="#D9CEB9"/>
<ellipse cx="176.054" cy="508.019" rx="39.0522" ry="112.142" fill="#D9CEB9"/>
<ellipse cx="1612.67" cy="506.553" rx="39.0522" ry="112.142" fill="#D9CEB9"/>
<ellipse cx="1609.46" cy="2315.49" rx="19.206" ry="112.142" fill="#D9CEB9"/>
<ellipse cx="73.6225" cy="6230.94" rx="39.0522" ry="159.052" fill="#D9CEB9"/>
<ellipse cx="174.775" cy="3699.31" rx="18.5658" ry="112.142" fill="#D9CEB9"/>
<ellipse rx="31.7871" ry="111.712" transform="matrix(0.978802 0.204811 -0.157641 0.987497 774.712 2548.85)" fill="#D9CEB9"/>
<path d="M15 2L20.7845 7550H37.4951C34.9242 7488.3 32.4819 7353.72 43.2796 7309.04C54.0772 7264.36 43.9223 7167.55 37.4951 7124.73V6886.96C35.5669 6793.87 32.8675 6600.36 37.4951 6570.99C43.2796 6534.29 45.2077 6242.27 37.4951 6211.15C29.7825 6180.03 37.4951 5920.72 37.4951 5907.95C37.4951 5895.18 44.565 5774.7 37.4951 5742.79C30.4252 5710.87 38.7805 5477.09 42.6368 5451.56C46.4931 5426.03 47.7786 5229.75 42.6368 5194.64C37.4951 5159.53 33.6388 4743.84 42.6368 4702.35C51.6349 4660.86 29.7825 4408.72 33.6388 4337.71C37.4951 4266.7 53.563 3827.86 40.7087 3773.61C30.4252 3730.2 36.4239 3614.03 40.7087 3561.37C37.7093 3488.5 33.5103 3336.05 40.7087 3309.24C47.9071 3282.43 43.708 2957.1 40.7087 2797.79C44.7792 2249.64 50.478 1147.13 40.7087 1122.23C30.9394 1097.34 36.6381 953.346 40.7087 884.462C44.3507 717.438 49.4496 377.645 40.7087 354.666C31.9677 331.686 37.0666 109.981 40.7087 2H56.7766C53.9915 103.863 50.0924 327.218 56.7766 405.73C63.4609 484.242 59.5617 787.386 56.7766 929.143C53.7773 1009.2 51.6349 1183.03 67.0601 1237.93C82.4853 1292.82 69.631 1728.89 61.2756 1940.06V2428.37C54.42 2557.89 45.8504 2838.8 66.4174 2926.25C92.126 3035.56 56.1339 3355.51 52.2776 3369.08C49.1925 3379.93 54.8485 3643.28 58.062 3773.61V4471.76C55.0627 4608.99 50.8636 4891.76 58.062 4924.96C65.2605 4958.15 61.0614 5420.71 58.062 5647.84C61.7041 5807.68 66.803 6182.26 58.062 6401.84C47.1359 6676.32 38.7805 6657.17 58.062 6989.88C77.3436 7322.6 68.3455 7428.72 63.2038 7475.8C59.0904 7513.46 58.062 7540.96 58.062 7550H90.1979C87.4128 7499.47 83.5136 7381.97 90.1979 7316.22C98.5532 7234.04 90.1979 7188.56 85.6989 7153.45C81.1999 7118.34 101.124 6954.78 90.1979 6880.57C79.2717 6806.37 110.765 6668.34 90.1979 6613.28C73.7443 6569.24 73.9157 6352.37 76.0581 6249.45V5742.79C85.9131 5649.97 102.667 5456.35 90.8406 5424.43C79.0146 5392.52 76.0581 5190.39 76.0581 5093.31C82.7397 4951.82 92.0938 4660.06 76.0581 4624.95C60.0224 4589.84 73.2329 4358.19 81.8426 4246.75L76.0581 3890.1V3456.85C88.0555 3303.92 108.451 2986.57 94.0542 2940.61C79.6573 2894.66 69.631 2694.86 66.4174 2600.71C73.273 2508.96 85.8274 2320.66 81.1999 2301.51C76.5723 2282.36 79.2717 1935.54 81.1999 1764.53L92.126 1207.61C80.9856 1191.65 62.0469 1123.19 75.4154 977.016C88.7839 830.844 80.9856 722.491 75.4154 686.586V370.623V2H88.9125L101.767 2918.27C112.05 2993.81 127.604 3182.05 107.551 3330.78C87.4985 3479.51 85.4846 3610.31 86.9843 3657.12L124.905 7550H151.899L107.551 2H133.903C128.975 96.4165 122.077 299.133 133.903 354.666C148.685 424.082 99.8387 473.551 121.048 586.85C142.258 700.15 146.757 901.217 133.903 949.888C123.619 988.825 129.618 1350.69 133.903 1526.76C142.301 1762.4 155.343 2249.01 140.33 2310.28C125.317 2371.56 134.074 2633.16 140.33 2756.3V3489.56C136.688 3692.75 134.288 4109.2 153.827 4149.41C178.25 4199.68 126.833 4275.48 140.33 4358.46C153.827 4441.44 153.827 4477.34 153.827 4589.84C153.827 4679.85 158.969 5179.48 161.539 5418.05C167.581 5602.63 176.04 5985.19 161.539 6038.8C143.414 6105.83 161.539 6276.57 161.539 6314.87C161.539 6353.17 195.603 6503.97 185.963 6570.99C178.25 6624.61 166.467 6900.25 161.539 7031.37L173.108 7550H197.532C201.816 7489.89 205.501 7313.35 185.963 7088.02C206.958 6891.74 241.365 6479.72 211.029 6401.84C173.108 6304.5 177.607 6093.86 194.318 5990.13C207.687 5907.15 194.318 5530.55 185.963 5352.62L175.037 4624.95C164.11 4539.58 148.814 4319.68 175.037 4123.08C164.11 4127.07 146.5 4041.7 163.468 3668.29C184.677 3201.52 151.899 3231.04 163.468 3032.37C175.037 2833.7 194.809 2649.39 163.468 2568C132.127 2486.62 213.112 1861.07 176.322 1782.08C139.532 1703.09 146.114 1081.54 153.827 1051.22C161.539 1020.9 189.844 678.607 153.827 586.85C125.013 513.445 156.818 435.518 176.322 405.73V2" stroke="#F2E6D3" stroke-width="3"/>
<path d="M1772 2L1766.24 7550H1749.61C1752.17 7488.3 1754.6 7353.72 1743.86 7309.04C1733.11 7264.36 1743.22 7167.55 1749.61 7124.73V6886.96C1751.53 6793.87 1754.22 6600.36 1749.61 6570.99C1743.86 6534.29 1741.94 6242.27 1749.61 6211.15C1757.29 6180.03 1749.61 5920.72 1749.61 5907.95C1749.61 5895.18 1742.58 5774.7 1749.61 5742.79C1756.65 5710.87 1748.33 5477.09 1744.5 5451.56C1740.66 5426.03 1739.38 5229.75 1744.5 5194.64C1749.61 5159.53 1753.45 4743.84 1744.5 4702.35C1735.54 4660.86 1757.29 4408.72 1753.45 4337.71C1749.61 4266.7 1733.62 3827.86 1746.41 3773.61C1756.65 3730.2 1750.68 3614.03 1746.41 3561.37C1749.4 3488.5 1753.58 3336.05 1746.41 3309.24C1739.25 3282.43 1743.43 2957.1 1746.41 2797.79C1742.36 2249.64 1736.69 1147.13 1746.41 1122.23C1756.14 1097.34 1750.47 953.346 1746.41 884.462C1742.79 717.438 1737.72 377.645 1746.41 354.666C1755.11 331.686 1750.04 109.981 1746.41 2H1730.42C1733.2 103.863 1737.08 327.218 1730.42 405.73C1723.77 484.242 1727.65 787.386 1730.42 929.143C1733.41 1009.2 1735.54 1183.03 1720.19 1237.93C1704.84 1292.82 1717.63 1728.89 1725.95 1940.06V2428.37C1732.77 2557.89 1741.3 2838.8 1720.83 2926.25C1695.24 3035.56 1731.06 3355.51 1734.9 3369.08C1737.97 3379.93 1732.34 3643.28 1729.14 3773.61V4471.76C1732.13 4608.99 1736.31 4891.76 1729.14 4924.96C1721.98 4958.15 1726.16 5420.71 1729.14 5647.84C1725.52 5807.68 1720.45 6182.26 1729.14 6401.84C1740.02 6676.32 1748.33 6657.17 1729.14 6989.88C1709.96 7322.6 1718.91 7428.72 1724.03 7475.8C1728.12 7513.46 1729.14 7540.96 1729.14 7550H1697.16C1699.94 7499.47 1703.82 7381.97 1697.16 7316.22C1688.85 7234.04 1697.16 7188.56 1701.64 7153.45C1706.12 7118.34 1686.29 6954.78 1697.16 6880.57C1708.04 6806.37 1676.7 6668.34 1697.16 6613.28C1713.54 6569.24 1713.37 6352.37 1711.24 6249.45V5742.79C1701.43 5649.97 1684.75 5456.35 1696.52 5424.43C1708.29 5392.52 1711.24 5190.39 1711.24 5093.31C1704.59 4951.82 1695.28 4660.06 1711.24 4624.95C1727.19 4589.84 1714.05 4358.19 1705.48 4246.75L1711.24 3890.1V3456.85C1699.3 3303.92 1679 2986.57 1693.33 2940.61C1707.65 2894.66 1717.63 2694.86 1720.83 2600.71C1714.01 2508.96 1701.51 2320.66 1706.12 2301.51C1710.72 2282.36 1708.04 1935.54 1706.12 1764.53L1695.24 1207.61C1706.33 1191.65 1725.18 1123.19 1711.88 977.016C1698.57 830.844 1706.33 722.491 1711.88 686.586V370.623V2H1698.44L1685.65 2918.27C1675.42 2993.81 1659.94 3182.05 1679.89 3330.78C1699.85 3479.51 1701.85 3610.31 1700.36 3657.12L1662.62 7550H1635.76L1679.89 2H1653.67C1658.57 96.4165 1665.44 299.133 1653.67 354.666C1638.96 424.082 1687.57 473.551 1666.46 586.85C1645.35 700.15 1640.88 901.217 1653.67 949.888C1663.9 988.825 1657.93 1350.69 1653.67 1526.76C1645.31 1762.4 1632.33 2249.01 1647.27 2310.28C1662.21 2371.56 1653.5 2633.16 1647.27 2756.3V3489.56C1650.9 3692.75 1653.29 4109.2 1633.84 4149.41C1609.53 4199.68 1660.7 4275.48 1647.27 4358.46C1633.84 4441.44 1633.84 4477.34 1633.84 4589.84C1633.84 4679.85 1628.72 5179.48 1626.17 5418.05C1620.15 5602.63 1611.73 5985.19 1626.17 6038.8C1644.2 6105.83 1626.17 6276.57 1626.17 6314.87C1626.17 6353.17 1592.26 6503.97 1601.86 6570.99C1609.53 6624.61 1621.26 6900.25 1626.17 7031.37L1614.65 7550H1590.35C1586.08 7489.89 1582.41 7313.35 1601.86 7088.02C1580.96 6891.74 1546.72 6479.72 1576.91 6401.84C1614.65 6304.5 1610.17 6093.86 1593.54 5990.13C1580.24 5907.15 1593.54 5530.55 1601.86 5352.62L1612.73 4624.95C1623.61 4539.58 1638.83 4319.68 1612.73 4123.08C1623.61 4127.07 1641.13 4041.7 1624.25 3668.29C1603.14 3201.52 1635.76 3231.04 1624.25 3032.37C1612.73 2833.7 1593.06 2649.39 1624.25 2568C1655.44 2486.62 1574.84 1861.07 1611.45 1782.08C1648.07 1703.09 1641.52 1081.54 1633.84 1051.22C1626.17 1020.9 1598 678.607 1633.84 586.85C1662.52 513.445 1630.86 435.518 1611.45 405.73V2" stroke="#F2E6D3" stroke-width="3"/>
<ellipse cx="579.381" cy="4391.22" rx="69.7818" ry="112.142" fill="#D9CEB9"/>
<ellipse cx="526.884" cy="1471.85" rx="39.0522" ry="351.819" fill="#D9CEB9"/>
<path d="M361 2L366.757 7551H383.387C380.828 7489.29 378.398 7354.69 389.144 7310.01C399.889 7265.32 389.783 7168.5 383.387 7125.67V6887.87C381.468 6794.77 378.782 6601.23 383.387 6571.86C389.144 6535.16 391.062 6243.09 383.387 6211.97C375.711 6180.85 383.387 5921.5 383.387 5908.73C383.387 5895.97 390.423 5775.47 383.387 5743.55C376.351 5711.63 384.666 5477.82 388.504 5452.28C392.342 5426.75 393.621 5230.44 388.504 5195.33C383.387 5160.22 379.549 4744.46 388.504 4702.97C397.459 4661.47 375.711 4409.31 379.549 4338.29C383.387 4267.26 399.378 3828.37 386.585 3774.11C376.351 3730.7 382.321 3614.51 386.585 3561.84C383.6 3488.96 379.421 3336.49 386.585 3309.67C393.749 3282.86 389.57 2957.49 386.585 2798.16C390.636 2249.94 396.307 1147.28 386.585 1122.38C376.863 1097.48 382.534 953.472 386.585 884.579C390.21 717.532 395.284 377.694 386.585 354.712C377.886 331.73 382.961 109.995 386.585 2H402.576C399.804 103.877 395.924 327.261 402.576 405.784C409.228 484.306 405.347 787.49 402.576 929.266C399.591 1009.33 397.459 1183.19 412.81 1238.09C428.161 1292.99 415.368 1729.12 407.053 1940.32V2428.69C400.23 2558.23 391.702 2839.18 412.17 2926.64C437.755 3035.96 401.936 3355.96 398.098 3369.52C395.028 3380.38 400.657 3643.77 403.855 3774.11V4472.35C400.87 4609.6 396.691 4892.41 403.855 4925.61C411.019 4958.8 406.84 5421.43 403.855 5648.59C407.48 5808.45 412.554 6183.08 403.855 6402.69C392.981 6677.2 384.666 6658.05 403.855 6990.81C423.044 7323.57 414.089 7429.71 408.972 7476.79C404.878 7514.45 403.855 7541.96 403.855 7551H435.836C433.065 7500.46 429.184 7382.94 435.836 7317.19C444.152 7235 435.836 7189.51 431.359 7154.4C426.882 7119.29 446.71 6955.7 435.836 6881.48C424.963 6807.27 456.304 6669.22 435.836 6614.16C419.462 6570.11 419.632 6353.21 421.765 6250.27V5743.55C431.572 5650.72 448.245 5457.07 436.476 5425.15C424.707 5393.23 421.765 5191.07 421.765 5093.98C428.414 4952.47 437.723 4660.67 421.765 4625.56C405.806 4590.45 418.953 4358.77 427.521 4247.31L421.765 3890.61V3457.3C433.704 3304.35 454.002 2986.97 439.674 2941C425.346 2895.04 415.368 2695.22 412.17 2601.06C418.993 2509.29 431.487 2320.96 426.882 2301.81C422.276 2282.66 424.963 1935.8 426.882 1764.76L437.755 1207.77C426.668 1191.81 407.821 1123.34 421.125 977.146C434.429 830.954 426.668 722.586 421.125 686.677V370.672V2H434.557L447.35 2918.66C457.584 2994.2 473.063 3182.47 453.106 3331.22C433.15 3479.97 431.146 3610.78 432.638 3657.6L470.376 7551H497.241L453.106 2H479.331C474.427 96.429 467.562 299.172 479.331 354.712C494.042 424.138 445.431 473.613 466.538 586.928C487.646 700.243 492.124 901.336 479.331 950.014C469.097 988.956 475.067 1350.87 479.331 1526.96C487.689 1762.64 500.668 2249.3 485.727 2310.59C470.786 2371.88 479.502 2633.51 485.727 2756.67V3490.02C482.103 3693.24 479.715 4109.74 499.159 4149.96C523.465 4200.23 472.295 4276.04 485.727 4359.03C499.159 4442.02 499.159 4477.93 499.159 4590.45C499.159 4680.46 504.276 5180.17 506.835 5418.77C512.848 5603.37 521.266 5985.98 506.835 6039.6C488.796 6106.64 506.835 6277.41 506.835 6315.71C506.835 6354.01 540.735 6504.83 531.141 6571.86C523.465 6625.49 511.739 6901.17 506.835 7032.31L518.348 7551H542.654C546.918 7490.88 550.585 7314.32 531.141 7088.96C552.035 6892.66 586.277 6480.57 556.086 6402.69C518.348 6305.33 522.826 6094.67 539.456 5990.93C552.76 5907.94 539.456 5531.28 531.141 5353.33L520.267 4625.56C509.393 4540.18 494.17 4320.25 520.267 4123.63C509.393 4127.62 491.868 4042.23 508.754 3668.77C529.862 3201.95 497.241 3231.47 508.754 3032.77C520.267 2834.07 539.944 2649.74 508.754 2568.34C477.564 2486.95 558.16 1861.32 521.546 1782.32C484.933 1703.32 491.484 1081.68 499.159 1051.36C506.835 1021.04 535.004 678.697 499.159 586.928C470.484 513.513 502.136 435.575 521.546 405.784V2" stroke="#F2E6D3" stroke-width="3"/>
<path d="M735 7550L729.243 2H712.613C715.172 63.7032 717.602 198.28 706.856 242.962C696.111 287.643 706.217 384.453 712.613 427.273V665.043C714.532 758.13 717.218 951.644 712.613 981.006C706.856 1017.71 704.938 1309.73 712.613 1340.85C720.289 1371.97 712.613 1631.28 712.613 1644.05C712.613 1656.82 705.577 1777.3 712.613 1809.21C719.649 1841.13 711.334 2074.91 707.496 2100.44C703.658 2125.97 702.379 2322.25 707.496 2357.36C712.613 2392.47 716.451 2808.16 707.496 2849.65C698.541 2891.14 720.289 3143.28 716.451 3214.29C712.613 3285.3 696.622 3724.14 709.415 3778.39C719.649 3821.8 713.679 3937.97 709.415 3990.63C712.4 4063.5 716.579 4215.95 709.415 4242.76C702.251 4269.57 706.43 4594.9 709.415 4754.21C705.364 5302.36 699.693 6404.87 709.415 6429.77C719.137 6454.66 713.466 6598.65 709.415 6667.54C705.79 6834.56 700.716 7174.36 709.415 7197.33C718.114 7220.31 713.039 7442.02 709.415 7550H693.424C696.196 7448.14 700.076 7224.78 693.424 7146.27C686.772 7067.76 690.653 6764.61 693.424 6622.86C696.409 6542.8 698.541 6368.97 683.19 6314.07C667.839 6259.18 680.632 5823.11 688.947 5611.94V5123.63C695.77 4994.11 704.298 4713.2 683.83 4625.75C658.245 4516.44 694.064 4196.49 697.902 4182.92C700.972 4172.07 695.343 3908.72 692.145 3778.39L692.145 3080.24C695.13 2943.01 699.309 2660.24 692.145 2627.04C684.981 2593.85 689.16 2131.29 692.145 1904.16C688.52 1744.32 683.446 1369.74 692.145 1150.16C703.019 875.685 711.334 894.834 692.145 562.116C672.956 229.397 681.911 123.279 687.028 76.2034C691.122 38.5432 692.145 11.0427 692.145 2H660.164C662.935 52.5328 666.816 170.035 660.164 235.781C651.848 317.963 660.164 363.442 664.641 398.549C669.118 433.656 649.29 597.223 660.164 671.426C671.037 745.63 639.696 883.664 660.164 938.718C676.538 982.761 676.368 1199.63 674.235 1302.55L674.235 1809.21C664.428 1902.03 647.755 2095.65 659.524 2127.57C671.293 2159.48 674.235 2361.61 674.235 2458.69C667.586 2600.18 658.277 2891.94 674.235 2927.05C690.194 2962.16 677.047 3193.81 668.479 3305.25L674.235 3661.9L674.235 4095.15C662.296 4248.08 641.998 4565.43 656.326 4611.39C670.654 4657.34 680.632 4857.14 683.83 4951.29C677.007 5043.04 664.513 5231.34 669.118 5250.49C673.724 5269.64 671.037 5616.46 669.118 5787.47L658.245 6344.39C669.332 6360.35 688.179 6428.81 674.875 6574.98C661.571 6721.16 669.332 6829.51 674.875 6865.41L674.875 7181.38V7550H661.443L648.65 4633.73C638.416 4558.19 622.937 4369.95 642.894 4221.22C662.85 4072.49 664.854 3941.69 663.362 3894.88L625.624 2H598.759L642.894 7550H616.669C621.573 7455.58 628.438 7252.87 616.669 7197.33C601.958 7127.92 650.569 7078.45 629.462 6965.15C608.354 6851.85 603.876 6650.78 616.669 6602.11C626.903 6563.17 620.933 6201.31 616.669 6025.24C608.311 5789.6 595.332 5302.99 610.273 5241.72C625.214 5180.44 616.498 4918.84 610.273 4795.7L610.273 4062.44C613.897 3859.25 616.285 3442.8 596.841 3402.59C572.535 3352.32 623.705 3276.52 610.273 3193.54C596.841 3110.56 596.841 3074.66 596.841 2962.16C596.841 2872.15 591.724 2372.52 589.165 2133.95C583.152 1949.37 574.734 1566.81 589.165 1513.2C607.204 1446.17 589.165 1275.43 589.165 1237.13C589.165 1198.83 555.265 1048.03 564.859 981.006C572.535 927.388 584.261 651.745 589.165 520.626L577.652 2H553.346C549.082 62.1074 545.415 238.653 564.859 463.976C543.965 660.256 509.723 1072.28 539.914 1150.16C577.652 1247.5 573.174 1458.14 556.544 1561.87C543.24 1644.85 556.544 2021.45 564.859 2199.38L575.733 2927.05C586.607 3012.42 601.83 3232.32 575.733 3428.92C586.607 3424.93 604.132 3510.3 587.246 3883.71C566.138 4350.48 598.759 4320.96 587.246 4519.63C575.733 4718.3 556.056 4902.61 587.246 4984C618.436 5065.38 537.84 5690.93 574.454 5769.92C611.067 5848.91 604.516 6470.46 596.841 6500.78C589.165 6531.1 560.996 6873.39 596.841 6965.15C625.516 7038.56 593.864 7116.48 574.454 7146.27V7550" stroke="#F2E6D3" stroke-width="3"/>
<path d="M1152 7551L1146.24 2.00028H1129.61C1132.17 63.7116 1134.6 198.306 1123.86 242.994C1113.11 287.681 1123.22 384.504 1129.61 427.33V665.131C1131.53 758.23 1134.22 951.77 1129.61 981.136C1123.86 1017.84 1121.94 1309.91 1129.61 1341.03C1137.29 1372.15 1129.61 1631.5 1129.61 1644.27C1129.61 1657.03 1122.58 1777.53 1129.61 1809.45C1136.65 1841.37 1128.33 2075.18 1124.5 2100.72C1120.66 2126.25 1119.38 2322.56 1124.5 2357.67C1129.61 2392.78 1133.45 2808.54 1124.5 2850.03C1115.54 2891.53 1137.29 3143.69 1133.45 3214.71C1129.61 3285.74 1113.62 3724.63 1126.41 3778.89C1136.65 3822.3 1130.68 3938.49 1126.41 3991.16C1129.4 4064.04 1133.58 4216.51 1126.41 4243.33C1119.25 4270.14 1123.43 4595.51 1126.41 4754.84C1122.36 5303.06 1116.69 6405.72 1126.41 6430.62C1136.14 6455.52 1130.47 6599.53 1126.41 6668.42C1122.79 6835.47 1117.72 7175.31 1126.41 7198.29C1135.11 7221.27 1130.04 7443.01 1126.41 7551H1110.42C1113.2 7449.12 1117.08 7225.74 1110.42 7147.22C1103.77 7068.69 1107.65 6765.51 1110.42 6623.73C1113.41 6543.67 1115.54 6369.81 1100.19 6314.91C1084.84 6260.01 1097.63 5823.88 1105.95 5612.68V5124.31C1112.77 4994.77 1121.3 4713.82 1100.83 4626.36C1075.24 4517.04 1111.06 4197.04 1114.9 4183.48C1117.97 4172.62 1112.34 3909.23 1109.14 3778.89V3080.65C1112.13 2943.4 1116.31 2660.59 1109.14 2627.39C1101.98 2594.2 1106.16 2131.57 1109.14 1904.41C1105.52 1744.55 1100.45 1369.92 1109.14 1150.31C1120.02 875.801 1128.33 894.953 1109.14 562.19C1089.96 229.428 1098.91 123.295 1104.03 76.2135C1108.12 38.5483 1109.14 11.0442 1109.14 2.00028H1077.16C1079.94 52.5397 1083.82 170.057 1077.16 235.812C1068.85 318.005 1077.16 363.49 1081.64 398.602C1086.12 433.714 1066.29 597.302 1077.16 671.515C1088.04 745.728 1056.7 883.781 1077.16 938.842C1093.54 982.891 1093.37 1199.79 1091.24 1302.73V1809.45C1081.43 1902.28 1064.75 2095.93 1076.52 2127.85C1088.29 2159.77 1091.24 2361.93 1091.24 2459.02C1084.59 2600.53 1075.28 2892.33 1091.24 2927.44C1107.19 2962.55 1094.05 3194.23 1085.48 3305.69L1091.24 3662.39V4095.7C1079.3 4248.65 1059 4566.03 1073.33 4612C1087.65 4657.96 1097.63 4857.78 1100.83 4951.94C1094.01 5043.71 1081.51 5232.04 1086.12 5251.19C1090.72 5270.34 1088.04 5617.2 1086.12 5788.24L1075.24 6345.23C1086.33 6361.19 1105.18 6429.66 1091.88 6575.85C1078.57 6722.05 1086.33 6830.41 1091.88 6866.32V7182.33V7551H1078.44L1065.65 4634.34C1055.42 4558.8 1039.94 4370.53 1059.89 4221.78C1079.85 4073.03 1081.85 3942.22 1080.36 3895.4L1042.62 2.00028H1015.76L1059.89 7551H1033.67C1038.57 7456.57 1045.44 7253.83 1033.67 7198.29C1018.96 7128.86 1067.57 7079.39 1046.46 6966.07C1025.35 6852.76 1020.88 6651.66 1033.67 6602.99C1043.9 6564.04 1037.93 6202.13 1033.67 6026.04C1025.31 5790.36 1012.33 5303.7 1027.27 5242.41C1042.21 5181.12 1033.5 4919.49 1027.27 4796.33L1027.27 4062.98C1030.9 3859.76 1033.29 3443.26 1013.84 3403.04C989.535 3352.77 1040.7 3276.96 1027.27 3193.97C1013.84 3110.98 1013.84 3075.07 1013.84 2962.55C1013.84 2872.54 1008.72 2372.83 1006.17 2134.23C1000.15 1949.63 991.734 1567.02 1006.17 1513.4C1024.2 1446.36 1006.17 1275.59 1006.17 1237.29C1006.17 1198.99 972.265 1048.17 981.859 981.136C989.535 927.511 1001.26 651.831 1006.17 520.695L994.652 2.00028H970.346C966.082 62.1156 962.415 238.685 981.859 464.037C960.965 660.343 926.723 1072.43 956.914 1150.31C994.652 1247.67 990.174 1458.33 973.544 1562.07C960.24 1645.06 973.544 2021.72 981.859 2199.67L992.733 2927.44C1003.61 3012.82 1018.83 3232.75 992.733 3429.37C1003.61 3425.38 1021.13 3510.77 1004.25 3884.23C983.138 4351.05 1015.76 4321.53 1004.25 4520.23C992.733 4718.93 973.056 4903.26 1004.25 4984.66C1035.44 5066.05 954.84 5691.68 991.454 5770.68C1028.07 5849.68 1021.52 6471.32 1013.84 6501.64C1006.17 6531.96 977.996 6874.3 1013.84 6966.07C1042.52 7039.49 1010.86 7117.42 991.454 7147.22V7551" stroke="#F2E6D3" stroke-width="3"/>
<path d="M1178 7551L1185.98 1.99968H1209.04C1205.49 63.711 1202.12 198.306 1217.02 242.993C1231.92 287.681 1217.91 384.504 1209.04 427.329V665.131C1206.38 758.23 1202.65 951.769 1209.04 981.135C1217.02 1017.84 1219.68 1309.91 1209.04 1341.03C1198.4 1372.15 1209.04 1631.5 1209.04 1644.27C1209.04 1657.03 1218.79 1777.53 1209.04 1809.45C1199.28 1841.37 1210.81 2075.18 1216.13 2100.72C1221.45 2126.25 1223.23 2322.56 1216.13 2357.67C1209.04 2392.78 1203.72 2808.54 1216.13 2850.03C1228.55 2891.53 1198.4 3143.69 1203.72 3214.71C1209.04 3285.73 1231.21 3724.63 1213.47 3778.89C1199.28 3822.3 1207.56 3938.49 1213.47 3991.16C1209.33 4064.04 1203.54 4216.51 1213.47 4243.32C1223.41 4270.14 1217.61 4595.51 1213.47 4754.84C1219.09 5303.06 1226.95 6405.72 1213.47 6430.62C1199.99 6455.52 1207.86 6599.53 1213.47 6668.42C1218.5 6835.47 1225.53 7175.31 1213.47 7198.29C1201.41 7221.27 1208.45 7443.01 1213.47 7551H1235.64C1231.8 7449.12 1226.42 7225.74 1235.64 7147.22C1244.87 7068.69 1239.49 6765.51 1235.64 6623.73C1231.51 6543.67 1228.55 6369.81 1249.83 6314.91C1271.12 6260.01 1253.38 5823.88 1241.85 5612.68V5124.31C1232.39 4994.77 1220.57 4713.82 1248.95 4626.36C1284.42 4517.04 1234.76 4197.04 1229.44 4183.48C1225.18 4172.62 1232.98 3909.23 1237.42 3778.89V3080.65C1233.28 2943.4 1227.48 2660.59 1237.42 2627.39C1247.35 2594.2 1241.56 2131.57 1237.42 1904.41C1242.44 1744.55 1249.48 1369.92 1237.42 1150.31C1222.34 875.8 1210.81 894.952 1237.42 562.19C1264.02 229.427 1251.61 123.294 1244.51 76.2126C1238.84 38.5474 1237.42 11.0436 1237.42 1.99968H1281.76C1277.92 52.5391 1272.54 170.057 1281.76 235.811C1293.29 318.004 1281.76 363.49 1275.55 398.601C1269.34 433.713 1296.83 597.301 1281.76 671.514C1266.68 745.728 1310.14 883.78 1281.76 938.842C1259.06 982.891 1259.29 1199.79 1262.25 1302.73V1809.45C1275.85 1902.28 1298.96 2095.93 1282.65 2127.85C1266.33 2159.77 1262.25 2361.93 1262.25 2459.02C1271.47 2600.53 1284.37 2892.33 1262.25 2927.44C1240.12 2962.55 1258.35 3194.23 1270.23 3305.68L1262.25 3662.39V4095.7C1278.8 4248.64 1306.94 4566.03 1287.08 4612C1267.21 4657.96 1253.38 4857.78 1248.95 4951.94C1258.41 5043.71 1275.73 5232.04 1269.34 5251.19C1262.96 5270.34 1266.68 5617.2 1269.34 5788.24L1284.42 6345.23C1269.05 6361.19 1242.92 6429.66 1261.36 6575.85C1279.81 6722.05 1269.05 6830.41 1261.36 6866.32V7182.33V7551H1279.98L1297.72 4634.34C1311.91 4558.8 1333.37 4370.52 1305.7 4221.78C1278.03 4073.03 1275.26 3942.22 1277.32 3895.4L1329.65 1.99968H1366.89L1305.7 7551H1342.06C1335.26 7456.57 1325.75 7253.83 1342.06 7198.29C1362.46 7128.86 1295.06 7079.39 1324.33 6966.07C1353.59 6852.76 1359.8 6651.66 1342.06 6602.99C1327.87 6564.04 1336.15 6202.13 1342.06 6026.04C1353.65 5790.36 1371.65 5303.7 1350.93 5242.41C1330.22 5181.12 1342.3 4919.49 1350.93 4796.33L1350.93 4062.98C1345.91 3859.76 1342.59 3443.26 1369.55 3403.04C1403.25 3352.77 1332.31 3276.96 1350.93 3193.97C1369.55 3110.97 1369.55 3075.07 1369.55 2962.55C1369.55 2872.53 1376.65 2372.83 1380.2 2134.23C1388.53 1949.63 1400.2 1567.02 1380.2 1513.4C1355.19 1446.36 1380.2 1275.59 1380.2 1237.29C1380.2 1198.99 1427.2 1048.17 1413.9 981.135C1403.25 927.51 1387 651.831 1380.2 520.694L1396.16 1.99968H1429.86C1435.77 62.115 1440.86 238.684 1413.9 464.037C1442.87 660.342 1490.34 1072.43 1448.48 1150.31C1396.16 1247.66 1402.37 1458.33 1425.42 1562.07C1443.87 1645.06 1425.42 2021.72 1413.9 2199.67L1398.82 2927.44C1383.74 3012.82 1362.64 3232.75 1398.82 3429.37C1383.74 3425.38 1359.44 3510.77 1382.86 3884.23C1412.12 4351.05 1366.89 4321.53 1382.86 4520.23C1398.82 4718.93 1426.1 4903.26 1382.86 4984.66C1339.61 5066.05 1451.36 5691.68 1400.59 5770.68C1349.83 5849.68 1358.91 6471.32 1369.55 6501.64C1380.2 6531.96 1419.25 6874.3 1369.55 6966.07C1329.8 7039.49 1373.68 7117.42 1400.59 7147.22V7551" stroke="#F2E6D3" stroke-width="3"/>
<path d="M335 2L329.243 7550H312.613C315.172 7488.3 317.602 7353.72 306.856 7309.04C296.111 7264.36 306.217 7167.55 312.613 7124.73V6886.96C314.532 6793.87 317.218 6600.36 312.613 6570.99C306.856 6534.29 304.938 6242.27 312.613 6211.15C320.289 6180.03 312.613 5920.72 312.613 5907.95C312.613 5895.18 305.577 5774.7 312.613 5742.79C319.649 5710.87 311.334 5477.09 307.496 5451.56C303.658 5426.03 302.379 5229.75 307.496 5194.64C312.613 5159.53 316.451 4743.84 307.496 4702.35C298.541 4660.86 320.289 4408.72 316.451 4337.71C312.613 4266.7 296.622 3827.86 309.415 3773.61C319.649 3730.2 313.679 3614.03 309.415 3561.37C312.4 3488.5 316.579 3336.05 309.415 3309.24C302.251 3282.43 306.43 2957.1 309.415 2797.79C305.364 2249.64 299.693 1147.13 309.415 1122.23C319.137 1097.34 313.466 953.346 309.415 884.462C305.79 717.438 300.716 377.645 309.415 354.666C318.114 331.686 313.039 109.981 309.415 2H293.424C296.196 103.863 300.076 327.218 293.424 405.73C286.772 484.242 290.653 787.386 293.424 929.143C296.409 1009.2 298.541 1183.03 283.19 1237.93C267.839 1292.82 280.632 1728.89 288.947 1940.06V2428.37C295.77 2557.89 304.298 2838.8 283.83 2926.25C258.245 3035.56 294.064 3355.51 297.902 3369.08C300.972 3379.93 295.343 3643.28 292.145 3773.61V4471.76C295.13 4608.99 299.309 4891.76 292.145 4924.96C284.981 4958.15 289.16 5420.71 292.145 5647.84C288.52 5807.68 283.446 6182.26 292.145 6401.84C303.019 6676.32 311.334 6657.17 292.145 6989.88C272.956 7322.6 281.911 7428.72 287.028 7475.8C291.122 7513.46 292.145 7540.96 292.145 7550H260.164C262.935 7499.47 266.816 7381.97 260.164 7316.22C251.848 7234.04 260.164 7188.56 264.641 7153.45C269.118 7118.34 249.29 6954.78 260.164 6880.57C271.037 6806.37 239.696 6668.34 260.164 6613.28C276.538 6569.24 276.368 6352.37 274.235 6249.45V5742.79C264.428 5649.97 247.755 5456.35 259.524 5424.43C271.293 5392.52 274.235 5190.39 274.235 5093.31C267.586 4951.82 258.277 4660.06 274.235 4624.95C290.194 4589.84 277.047 4358.19 268.479 4246.75L274.235 3890.1V3456.85C262.296 3303.92 241.998 2986.57 256.326 2940.61C270.654 2894.66 280.632 2694.86 283.83 2600.71C277.007 2508.96 264.513 2320.66 269.118 2301.51C273.724 2282.36 271.037 1935.54 269.118 1764.53L258.245 1207.61C269.332 1191.65 288.179 1123.19 274.875 977.016C261.571 830.844 269.332 722.491 274.875 686.586V370.623V2H261.443L248.65 2918.27C238.416 2993.81 222.937 3182.05 242.894 3330.78C262.85 3479.51 264.854 3610.31 263.362 3657.12L225.624 7550H198.759L242.894 2H216.669C221.573 96.4165 228.438 299.133 216.669 354.666C201.958 424.082 250.569 473.551 229.462 586.85C208.354 700.15 203.876 901.217 216.669 949.888C226.903 988.825 220.933 1350.69 216.669 1526.76C208.311 1762.4 195.332 2249.01 210.273 2310.28C225.214 2371.56 216.498 2633.16 210.273 2756.3V3489.56C213.897 3692.75 216.285 4109.2 196.841 4149.41C172.535 4199.68 223.705 4275.48 210.273 4358.46C196.841 4441.44 196.841 4477.34 196.841 4589.84C196.841 4679.85 191.724 5179.48 189.165 5418.05C183.152 5602.63 174.734 5985.19 189.165 6038.8C207.204 6105.83 189.165 6276.57 189.165 6314.87C189.165 6353.17 155.265 6503.97 164.859 6570.99C172.535 6624.61 184.261 6900.25 189.165 7031.37L177.652 7550H153.346C149.082 7489.89 145.415 7313.35 164.859 7088.02C143.965 6891.74 109.723 6479.72 139.914 6401.84C177.652 6304.5 173.174 6093.86 156.544 5990.13C143.24 5907.15 156.544 5530.55 164.859 5352.62L175.733 4624.95C186.607 4539.58 201.83 4319.68 175.733 4123.08C186.607 4127.07 204.132 4041.7 187.246 3668.29C166.138 3201.52 198.759 3231.04 187.246 3032.37C175.733 2833.7 156.056 2649.39 187.246 2568C218.436 2486.62 137.84 1861.07 174.454 1782.08C211.067 1703.09 204.516 1081.54 196.841 1051.22C189.165 1020.9 160.996 678.607 196.841 586.85C225.516 513.445 193.864 435.518 174.454 405.73V2" stroke="#F2E6D3" stroke-width="3"/>
<path d="M1448 2L1453.76 7551H1470.39C1467.83 7489.29 1465.4 7354.69 1476.14 7310.01C1486.89 7265.32 1476.78 7168.5 1470.39 7125.67V6887.87C1468.47 6794.77 1465.78 6601.23 1470.39 6571.86C1476.14 6535.16 1478.06 6243.09 1470.39 6211.97C1462.71 6180.85 1470.39 5921.5 1470.39 5908.73C1470.39 5895.97 1477.42 5775.47 1470.39 5743.55C1463.35 5711.63 1471.67 5477.82 1475.5 5452.28C1479.34 5426.75 1480.62 5230.44 1475.5 5195.33C1470.39 5160.22 1466.55 4744.46 1475.5 4702.97C1484.46 4661.47 1462.71 4409.31 1466.55 4338.29C1470.39 4267.26 1486.38 3828.37 1473.59 3774.11C1463.35 3730.7 1469.32 3614.51 1473.59 3561.84C1470.6 3488.96 1466.42 3336.49 1473.59 3309.67C1480.75 3282.86 1476.57 2957.49 1473.59 2798.16C1477.64 2249.94 1483.31 1147.28 1473.59 1122.38C1463.86 1097.48 1469.53 953.472 1473.59 884.579C1477.21 717.532 1482.28 377.694 1473.59 354.712C1464.89 331.73 1469.96 109.995 1473.59 2H1489.58C1486.8 103.877 1482.92 327.261 1489.58 405.784C1496.23 484.306 1492.35 787.49 1489.58 929.266C1486.59 1009.33 1484.46 1183.19 1499.81 1238.09C1515.16 1292.99 1502.37 1729.12 1494.05 1940.32V2428.69C1487.23 2558.23 1478.7 2839.18 1499.17 2926.64C1524.76 3035.96 1488.94 3355.96 1485.1 3369.52C1482.03 3380.38 1487.66 3643.77 1490.86 3774.11V4472.35C1487.87 4609.6 1483.69 4892.41 1490.86 4925.61C1498.02 4958.8 1493.84 5421.43 1490.86 5648.59C1494.48 5808.45 1499.55 6183.08 1490.86 6402.69C1479.98 6677.2 1471.67 6658.05 1490.86 6990.81C1510.04 7323.57 1501.09 7429.71 1495.97 7476.79C1491.88 7514.45 1490.86 7541.96 1490.86 7551H1522.84C1520.06 7500.46 1516.18 7382.94 1522.84 7317.19C1531.15 7235 1522.84 7189.51 1518.36 7154.4C1513.88 7119.29 1533.71 6955.7 1522.84 6881.48C1511.96 6807.27 1543.3 6669.22 1522.84 6614.16C1506.46 6570.11 1506.63 6353.21 1508.76 6250.27V5743.55C1518.57 5650.72 1535.25 5457.07 1523.48 5425.15C1511.71 5393.23 1508.76 5191.07 1508.76 5093.98C1515.41 4952.47 1524.72 4660.67 1508.76 4625.56C1492.81 4590.45 1505.95 4358.77 1514.52 4247.31L1508.76 3890.61V3457.3C1520.7 3304.35 1541 2986.97 1526.67 2941C1512.35 2895.04 1502.37 2695.22 1499.17 2601.06C1505.99 2509.29 1518.49 2320.96 1513.88 2301.81C1509.28 2282.66 1511.96 1935.8 1513.88 1764.76L1524.76 1207.77C1513.67 1191.81 1494.82 1123.34 1508.12 977.146C1521.43 830.954 1513.67 722.586 1508.12 686.677V370.672V2H1521.56L1534.35 2918.66C1544.58 2994.2 1560.06 3182.47 1540.11 3331.22C1520.15 3479.97 1518.15 3610.78 1519.64 3657.6L1557.38 7551H1584.24L1540.11 2H1566.33C1561.43 96.429 1554.56 299.172 1566.33 354.712C1581.04 424.138 1532.43 473.613 1553.54 586.928C1574.65 700.243 1579.12 901.336 1566.33 950.014C1556.1 988.956 1562.07 1350.87 1566.33 1526.96C1574.69 1762.64 1587.67 2249.3 1572.73 2310.59C1557.79 2371.88 1566.5 2633.51 1572.73 2756.67V3490.02C1569.1 3693.24 1566.71 4109.74 1586.16 4149.96C1610.47 4200.23 1559.3 4276.04 1572.73 4359.03C1586.16 4442.02 1586.16 4477.93 1586.16 4590.45C1586.16 4680.46 1591.28 5180.17 1593.83 5418.77C1599.85 5603.37 1608.27 5985.98 1593.83 6039.6C1575.8 6106.64 1593.83 6277.41 1593.83 6315.71C1593.83 6354.01 1627.74 6504.83 1618.14 6571.86C1610.47 6625.49 1598.74 6901.17 1593.83 7032.31L1605.35 7551H1629.65C1633.92 7490.88 1637.59 7314.32 1618.14 7088.96C1639.04 6892.66 1673.28 6480.57 1643.09 6402.69C1605.35 6305.33 1609.83 6094.67 1626.46 5990.93C1639.76 5907.94 1626.46 5531.28 1618.14 5353.33L1607.27 4625.56C1596.39 4540.18 1581.17 4320.25 1607.27 4123.63C1596.39 4127.62 1578.87 4042.23 1595.75 3668.77C1616.86 3201.95 1584.24 3231.47 1595.75 3032.77C1607.27 2834.07 1626.94 2649.74 1595.75 2568.34C1564.56 2486.95 1645.16 1861.32 1608.55 1782.32C1571.93 1703.32 1578.48 1081.68 1586.16 1051.36C1593.83 1021.04 1622 678.697 1586.16 586.928C1557.48 513.513 1589.14 435.575 1608.55 405.784V2" stroke="#F2E6D3" stroke-width="3"/>
<path d="M968 2L960.213 7550H937.718C941.179 7488.3 944.467 7353.72 929.931 7309.04C915.396 7264.36 929.066 7167.55 937.718 7124.73V6886.96C940.314 6793.87 943.948 6600.36 937.718 6570.99C929.931 6534.29 927.336 6242.27 937.718 6211.15C948.1 6180.03 937.718 5920.72 937.718 5907.95C937.718 5895.18 928.201 5774.7 937.718 5742.79C947.235 5710.87 935.988 5477.09 930.797 5451.56C925.605 5426.03 923.875 5229.75 930.797 5194.64C937.718 5159.53 942.909 4743.84 930.797 4702.35C918.684 4660.86 948.1 4408.72 942.909 4337.71C937.718 4266.7 916.088 3827.86 933.392 3773.61C947.235 3730.2 939.16 3614.03 933.392 3561.37C937.43 3488.5 943.082 3336.05 933.392 3309.24C923.702 3282.43 929.355 2957.1 933.392 2797.79C927.913 2249.64 920.241 1147.13 933.392 1122.23C946.543 1097.34 938.872 953.346 933.392 884.462C928.489 717.438 921.625 377.645 933.392 354.666C945.159 331.686 938.295 109.981 933.392 2H911.762C915.511 103.863 920.76 327.218 911.762 405.73C902.764 484.242 908.013 787.386 911.762 929.143C915.8 1009.2 918.684 1183.03 897.919 1237.93C877.154 1292.82 894.458 1728.89 905.706 1940.06V2428.37C914.935 2557.89 926.471 2838.8 898.784 2926.25C864.176 3035.56 912.627 3355.51 917.819 3369.08C921.972 3379.93 914.358 3643.28 910.032 3773.61V4471.76C914.069 4608.99 919.722 4891.76 910.032 4924.96C900.342 4958.15 905.994 5420.71 910.032 5647.84C905.129 5807.68 898.265 6182.26 910.032 6401.84C924.74 6676.32 935.988 6657.17 910.032 6989.88C884.076 7322.6 896.189 7428.72 903.11 7475.8C908.648 7513.46 910.032 7540.96 910.032 7550H866.772C870.521 7499.47 875.77 7381.97 866.772 7316.22C855.525 7234.04 866.772 7188.56 872.828 7153.45C878.885 7118.34 852.064 6954.78 866.772 6880.57C881.48 6806.37 839.086 6668.34 866.772 6613.28C888.921 6569.24 888.69 6352.37 885.806 6249.45V5742.79C872.54 5649.97 849.987 5456.35 865.907 5424.43C881.826 5392.52 885.806 5190.39 885.806 5093.31C876.812 4951.82 864.22 4660.06 885.806 4624.95C907.393 4589.84 889.61 4358.19 878.02 4246.75L885.806 3890.1V3456.85C869.656 3303.92 842.2 2986.57 861.581 2940.61C880.961 2894.66 894.458 2694.86 898.784 2600.71C889.556 2508.96 872.655 2320.66 878.885 2301.51C885.114 2282.36 881.48 1935.54 878.885 1764.53L864.176 1207.61C879.173 1191.65 904.668 1123.19 886.672 977.016C868.675 830.844 879.173 722.491 886.672 686.586V370.623V2H868.502L851.199 2918.27C837.355 2993.81 816.418 3182.05 843.412 3330.78C870.406 3479.51 873.117 3610.31 871.098 3657.12L820.051 7550H783.713L843.412 2H807.939C814.572 96.4165 823.858 299.133 807.939 354.666C788.039 424.082 853.794 473.551 825.243 586.85C796.691 700.15 790.635 901.217 807.939 949.888C821.782 988.825 813.707 1350.69 807.939 1526.76C796.634 1762.4 779.077 2249.01 799.287 2310.28C819.497 2371.56 807.708 2633.16 799.287 2756.3V3489.56C804.19 3692.75 807.42 4109.2 781.118 4149.41C748.24 4199.68 817.456 4275.48 799.287 4358.46C781.118 4441.44 781.118 4477.34 781.118 4589.84C781.118 4679.85 774.196 5179.48 770.735 5418.05C762.602 5602.63 751.215 5985.19 770.735 6038.8C795.135 6105.83 770.735 6276.57 770.735 6314.87C770.735 6353.17 724.88 6503.97 737.858 6570.99C748.24 6624.61 764.102 6900.25 770.735 7031.37L755.162 7550H722.284C716.516 7489.89 711.556 7313.35 737.858 7088.02C709.595 6891.74 663.278 6479.72 704.115 6401.84C755.162 6304.5 749.105 6093.86 726.61 5990.13C708.614 5907.15 726.61 5530.55 737.858 5352.62L752.566 4624.95C767.275 4539.58 787.866 4319.68 752.566 4123.08C767.275 4127.07 790.981 4041.7 768.14 3668.29C739.588 3201.52 783.713 3231.04 768.14 3032.37C752.566 2833.7 725.95 2649.39 768.14 2568C810.329 2486.62 701.311 1861.07 750.836 1782.08C800.361 1703.09 791.5 1081.54 781.118 1051.22C770.735 1020.9 732.633 678.607 781.118 586.85C819.905 513.445 777.091 435.518 750.836 405.73V2" stroke="#F2E6D3" stroke-width="3"/>
<ellipse cx="1405.24" cy="6491.14" rx="46.7346" ry="80.6252" fill="#D9CEB9"/>
<ellipse cx="995.511" cy="6479.42" rx="27.5286" ry="68.8979" fill="#D9CEB9"/>
</svg>
