<svg width="1790" height="7551" viewBox="0 0 1790 7551" fill="none" xmlns="http://www.w3.org/2000/svg">
<path d="M0 0H1790V7549H0V0Z" fill="#D9CEB9"/>
<ellipse cx="1613.94" cy="3704.64" rx="22.407" ry="112.142" fill="#D9CEB9"/>
<ellipse cx="176.054" cy="506.019" rx="39.0522" ry="112.142" fill="#D9CEB9"/>
<ellipse cx="1612.67" cy="504.553" rx="39.0522" ry="112.142" fill="#D9CEB9"/>
<ellipse cx="1609.46" cy="2313.49" rx="19.206" ry="112.142" fill="#D9CEB9"/>
<ellipse cx="73.6225" cy="6228.94" rx="39.0522" ry="159.052" fill="#D9CEB9"/>
<ellipse cx="174.775" cy="3697.31" rx="18.5658" ry="112.142" fill="#D9CEB9"/>
<ellipse rx="31.7871" ry="111.712" transform="matrix(0.978802 0.204811 -0.157641 0.987497 774.712 2546.85)" fill="#D9CEB9"/>
<path d="M15 4L20.7845 7548H37.4951C34.9242 7486.33 32.4819 7351.82 43.2796 7307.17C54.0772 7262.51 43.9223 7165.75 37.4951 7122.95V6885.31C35.5669 6792.27 32.8675 6598.86 37.4951 6569.51C43.2796 6532.83 45.2077 6240.96 37.4951 6209.86C29.7825 6178.76 37.4951 5919.58 37.4951 5906.82C37.4951 5894.06 44.565 5773.64 37.4951 5741.75C30.4252 5709.85 38.7805 5476.19 42.6368 5450.67C46.4931 5425.15 47.7786 5228.98 42.6368 5193.89C37.4951 5158.8 33.6388 4743.32 42.6368 4701.85C51.6349 4660.39 29.7825 4408.39 33.6388 4337.41C37.4951 4266.44 53.563 3827.84 40.7087 3773.61C30.4252 3730.23 36.4239 3614.12 40.7087 3561.48C37.7093 3488.65 33.5103 3336.28 40.7087 3309.48C47.9071 3282.69 43.708 2957.54 40.7087 2798.31C44.7792 2250.45 50.478 1148.52 40.7087 1123.64C30.9394 1098.76 36.6381 954.842 40.7087 885.994C44.3507 719.058 49.4496 379.446 40.7087 356.479C31.9677 333.512 37.0666 111.923 40.7087 4H56.7766C53.9915 105.809 50.0924 329.046 56.7766 407.516C63.4609 485.987 59.5617 788.969 56.7766 930.652C53.7773 1010.66 51.6349 1184.4 67.0601 1239.27C82.4853 1294.14 69.631 1729.98 61.2756 1941.04V2429.08C54.42 2558.54 45.8504 2839.3 66.4174 2926.7C92.126 3035.95 56.1339 3355.74 52.2776 3369.29C49.1925 3380.14 54.8485 3643.36 58.062 3773.61V4471.39C55.0627 4608.55 50.8636 4891.17 58.062 4924.35C65.2605 4957.52 61.0614 5419.84 58.062 5646.85C61.7041 5806.61 66.803 6180.99 58.062 6400.45C47.1359 6674.78 38.7805 6655.64 58.062 6988.18C77.3436 7320.72 68.3455 7426.79 63.2038 7473.84C59.0904 7511.48 58.062 7538.96 58.062 7548H90.1979C87.4128 7497.49 83.5136 7380.05 90.1979 7314.34C98.5532 7232.2 90.1979 7186.75 85.6989 7151.66C81.1999 7116.57 101.124 6953.09 90.1979 6878.93C79.2717 6804.76 110.765 6666.8 90.1979 6611.78C73.7443 6567.76 73.9157 6351.01 76.0581 6248.14V5741.75C85.9131 5648.97 102.667 5455.46 90.8406 5423.56C79.0146 5391.66 76.0581 5189.64 76.0581 5092.61C82.7397 4951.19 92.0938 4659.59 76.0581 4624.5C60.0224 4589.41 73.2329 4357.88 81.8426 4246.5L76.0581 3890.04V3457.01C88.0555 3304.17 108.451 2986.99 94.0542 2941.06C79.6573 2895.12 69.631 2695.44 66.4174 2601.34C73.273 2509.63 85.8274 2321.43 81.1999 2302.29C76.5723 2283.15 79.2717 1936.52 81.1999 1765.6L92.126 1208.97C80.9856 1193.02 62.0469 1124.6 75.4154 978.5C88.7839 832.405 80.9856 724.109 75.4154 688.223V372.428V4H88.9125L101.767 2918.73C112.05 2994.22 127.604 3182.37 107.551 3331.02C87.4985 3479.66 85.4846 3610.39 86.9843 3657.18L124.905 7548H151.899L107.551 4H133.903C128.975 98.3665 122.077 300.975 133.903 356.479C148.685 425.858 99.8387 475.301 121.048 588.54C142.258 701.78 146.757 902.741 133.903 951.386C123.619 990.302 129.618 1351.98 133.903 1527.95C142.301 1763.47 155.343 2249.82 140.33 2311.06C125.317 2372.31 134.074 2633.77 140.33 2756.84V3489.71C136.688 3692.8 134.288 4109.02 153.827 4149.21C178.25 4199.45 126.833 4275.21 140.33 4358.15C153.827 4441.08 153.827 4476.97 153.827 4589.41C153.827 4679.37 158.969 5178.74 161.539 5417.18C167.581 5601.66 176.04 5984.02 161.539 6037.61C143.414 6104.59 161.539 6275.25 161.539 6313.53C161.539 6351.81 195.603 6502.53 185.963 6569.51C178.25 6623.1 166.467 6898.6 161.539 7029.65L173.108 7548H197.532C201.816 7487.92 205.501 7311.47 185.963 7086.27C206.958 6890.09 241.365 6478.28 211.029 6400.45C173.108 6303.16 177.607 6092.63 194.318 5988.96C207.687 5906.02 194.318 5529.62 185.963 5351.79L175.037 4624.5C164.11 4539.17 148.814 4319.39 175.037 4122.9C164.11 4126.88 146.5 4041.56 163.468 3668.34C184.677 3201.83 151.899 3231.33 163.468 3032.76C175.037 2834.2 194.809 2649.98 163.468 2568.64C132.127 2487.3 213.112 1862.09 176.322 1783.14C139.532 1704.19 146.114 1082.97 153.827 1052.66C161.539 1022.36 189.844 680.249 153.827 588.54C125.013 515.174 156.818 437.288 176.322 407.516V4" stroke="#F2E6D3" stroke-width="3"/>
<path d="M1772 4L1766.24 7548H1749.61C1752.17 7486.33 1754.6 7351.82 1743.86 7307.17C1733.11 7262.51 1743.22 7165.75 1749.61 7122.95V6885.31C1751.53 6792.27 1754.22 6598.86 1749.61 6569.51C1743.86 6532.83 1741.94 6240.96 1749.61 6209.86C1757.29 6178.76 1749.61 5919.58 1749.61 5906.82C1749.61 5894.06 1742.58 5773.64 1749.61 5741.75C1756.65 5709.85 1748.33 5476.19 1744.5 5450.67C1740.66 5425.15 1739.38 5228.98 1744.5 5193.89C1749.61 5158.8 1753.45 4743.32 1744.5 4701.85C1735.54 4660.39 1757.29 4408.39 1753.45 4337.41C1749.61 4266.44 1733.62 3827.84 1746.41 3773.61C1756.65 3730.23 1750.68 3614.12 1746.41 3561.48C1749.4 3488.65 1753.58 3336.28 1746.41 3309.48C1739.25 3282.69 1743.43 2957.54 1746.41 2798.31C1742.36 2250.45 1736.69 1148.52 1746.41 1123.64C1756.14 1098.76 1750.47 954.842 1746.41 885.994C1742.79 719.058 1737.72 379.446 1746.41 356.479C1755.11 333.512 1750.04 111.923 1746.41 4H1730.42C1733.2 105.809 1737.08 329.046 1730.42 407.516C1723.77 485.987 1727.65 788.969 1730.42 930.652C1733.41 1010.66 1735.54 1184.4 1720.19 1239.27C1704.84 1294.14 1717.63 1729.98 1725.95 1941.04V2429.08C1732.77 2558.54 1741.3 2839.3 1720.83 2926.7C1695.24 3035.95 1731.06 3355.74 1734.9 3369.29C1737.97 3380.14 1732.34 3643.36 1729.14 3773.61V4471.39C1732.13 4608.55 1736.31 4891.17 1729.14 4924.35C1721.98 4957.52 1726.16 5419.84 1729.14 5646.85C1725.52 5806.61 1720.45 6180.99 1729.14 6400.45C1740.02 6674.78 1748.33 6655.64 1729.14 6988.18C1709.96 7320.72 1718.91 7426.79 1724.03 7473.84C1728.12 7511.48 1729.14 7538.96 1729.14 7548H1697.16C1699.94 7497.49 1703.82 7380.05 1697.16 7314.34C1688.85 7232.2 1697.16 7186.75 1701.64 7151.66C1706.12 7116.57 1686.29 6953.09 1697.16 6878.93C1708.04 6804.76 1676.7 6666.8 1697.16 6611.78C1713.54 6567.76 1713.37 6351.01 1711.24 6248.14V5741.75C1701.43 5648.97 1684.75 5455.46 1696.52 5423.56C1708.29 5391.66 1711.24 5189.64 1711.24 5092.61C1704.59 4951.19 1695.28 4659.59 1711.24 4624.5C1727.19 4589.41 1714.05 4357.88 1705.48 4246.5L1711.24 3890.04V3457.01C1699.3 3304.17 1679 2986.99 1693.33 2941.06C1707.65 2895.12 1717.63 2695.44 1720.83 2601.34C1714.01 2509.63 1701.51 2321.43 1706.12 2302.29C1710.72 2283.15 1708.04 1936.52 1706.12 1765.6L1695.24 1208.97C1706.33 1193.02 1725.18 1124.6 1711.88 978.5C1698.57 832.405 1706.33 724.109 1711.88 688.223V372.428V4H1698.44L1685.65 2918.73C1675.42 2994.22 1659.94 3182.37 1679.89 3331.02C1699.85 3479.66 1701.85 3610.39 1700.36 3657.18L1662.62 7548H1635.76L1679.89 4H1653.67C1658.57 98.3665 1665.44 300.975 1653.67 356.479C1638.96 425.858 1687.57 475.301 1666.46 588.54C1645.35 701.78 1640.88 902.741 1653.67 951.386C1663.9 990.302 1657.93 1351.98 1653.67 1527.95C1645.31 1763.47 1632.33 2249.82 1647.27 2311.06C1662.21 2372.31 1653.5 2633.77 1647.27 2756.84V3489.71C1650.9 3692.8 1653.29 4109.02 1633.84 4149.21C1609.53 4199.45 1660.7 4275.21 1647.27 4358.15C1633.84 4441.08 1633.84 4476.97 1633.84 4589.41C1633.84 4679.37 1628.72 5178.74 1626.17 5417.18C1620.15 5601.66 1611.73 5984.02 1626.17 6037.61C1644.2 6104.59 1626.17 6275.25 1626.17 6313.53C1626.17 6351.81 1592.26 6502.53 1601.86 6569.51C1609.53 6623.1 1621.26 6898.6 1626.17 7029.65L1614.65 7548H1590.35C1586.08 7487.92 1582.41 7311.47 1601.86 7086.27C1580.96 6890.09 1546.72 6478.28 1576.91 6400.45C1614.65 6303.16 1610.17 6092.63 1593.54 5988.96C1580.24 5906.02 1593.54 5529.62 1601.86 5351.79L1612.73 4624.5C1623.61 4539.17 1638.83 4319.39 1612.73 4122.9C1623.61 4126.88 1641.13 4041.56 1624.25 3668.34C1603.14 3201.83 1635.76 3231.33 1624.25 3032.76C1612.73 2834.2 1593.06 2649.98 1624.25 2568.64C1655.44 2487.3 1574.84 1862.09 1611.45 1783.14C1648.07 1704.19 1641.52 1082.97 1633.84 1052.66C1626.17 1022.36 1598 680.249 1633.84 588.54C1662.52 515.174 1630.86 437.288 1611.45 407.516V4" stroke="#F2E6D3" stroke-width="3"/>
<ellipse cx="579.381" cy="4389.22" rx="69.7818" ry="112.142" fill="#D9CEB9"/>
<ellipse cx="526.884" cy="1469.85" rx="39.0522" ry="351.819" fill="#D9CEB9"/>
<path d="M361 4L366.757 7549H383.387C380.828 7487.32 378.398 7352.8 389.144 7308.13C399.889 7263.47 389.783 7166.7 383.387 7123.9V6886.22C381.468 6793.17 378.782 6599.73 383.387 6570.38C389.144 6533.7 391.062 6241.79 383.387 6210.68C375.711 6179.57 383.387 5920.36 383.387 5907.6C383.387 5894.84 390.423 5774.41 383.387 5742.51C376.351 5710.6 384.666 5476.92 388.504 5451.39C392.342 5425.87 393.621 5229.67 388.504 5194.58C383.387 5159.48 379.549 4743.95 388.504 4702.48C397.459 4661 375.711 4408.97 379.549 4337.99C383.387 4267 399.378 3828.34 386.585 3774.11C376.351 3730.72 382.321 3614.59 386.585 3561.95C383.6 3489.11 379.421 3336.72 386.585 3309.92C393.749 3283.12 389.57 2957.93 386.585 2798.68C390.636 2250.75 396.307 1148.67 386.585 1123.79C376.863 1098.9 382.534 954.968 386.585 886.111C390.21 719.153 395.284 379.495 386.585 356.525C377.886 333.555 382.961 111.938 386.585 4H402.576C399.804 105.823 395.924 329.089 402.576 407.57C409.228 486.051 405.347 789.073 402.576 930.775C399.591 1010.8 397.459 1184.56 412.81 1239.43C428.161 1294.31 415.368 1730.2 407.053 1941.29V2429.41C400.23 2558.88 391.702 2839.68 412.17 2927.09C437.755 3036.36 401.936 3356.18 398.098 3369.74C395.028 3380.59 400.657 3643.84 403.855 3774.11V4471.98C400.87 4609.16 396.691 4891.82 403.855 4925C411.019 4958.18 406.84 5420.56 403.855 5647.6C407.48 5807.38 412.554 6181.81 403.855 6401.3C392.981 6675.66 384.666 6656.52 403.855 6989.11C423.044 7321.69 414.089 7427.77 408.972 7474.83C404.878 7512.47 403.855 7539.96 403.855 7549H435.836C433.065 7498.49 429.184 7381.03 435.836 7315.31C444.152 7233.16 435.836 7187.7 431.359 7152.61C426.882 7117.52 446.71 6954.01 435.836 6879.84C424.963 6805.67 456.304 6667.69 435.836 6612.65C419.462 6568.63 419.632 6351.85 421.765 6248.96V5742.51C431.572 5649.72 448.245 5456.18 436.476 5424.28C424.707 5392.37 421.765 5190.32 421.765 5093.29C428.414 4951.85 437.723 4660.21 421.765 4625.11C405.806 4590.02 418.953 4358.46 427.521 4247.07L421.765 3890.55V3457.47C433.704 3304.61 454.002 2987.39 439.674 2941.45C425.346 2895.51 415.368 2695.79 412.17 2601.68C418.993 2509.96 431.487 2321.73 426.882 2302.59C422.276 2283.45 424.963 1936.77 426.882 1765.83L437.755 1209.13C426.668 1193.17 407.821 1124.74 421.125 978.629C434.429 832.514 426.668 724.205 421.125 688.314V372.477V4H434.557L447.35 2919.11C457.584 2994.62 473.063 3182.79 453.106 3331.46C433.15 3480.12 431.146 3610.87 432.638 3657.66L470.376 7549H497.241L453.106 4H479.331C474.427 98.379 467.562 301.015 479.331 356.525C494.042 425.914 445.431 475.363 466.538 588.618C487.646 701.873 492.124 902.86 479.331 951.512C469.097 990.433 475.067 1352.16 479.331 1528.15C487.689 1763.7 500.668 2250.11 485.727 2311.37C470.786 2372.62 479.502 2634.12 485.727 2757.21V3490.17C482.103 3693.29 479.715 4109.56 499.159 4149.76C523.465 4200.01 472.295 4275.78 485.727 4358.73C499.159 4441.67 499.159 4477.56 499.159 4590.02C499.159 4679.99 504.276 5179.42 506.835 5417.9C512.848 5602.4 521.266 5984.81 506.835 6038.41C488.796 6105.4 506.835 6276.08 506.835 6314.36C506.835 6352.65 540.735 6503.39 531.141 6570.38C523.465 6623.98 511.739 6899.51 506.835 7030.58L518.348 7549H542.654C546.918 7488.92 550.585 7312.44 531.141 7087.21C552.035 6891.01 586.277 6479.14 556.086 6401.3C518.348 6304 522.826 6093.44 539.456 5989.75C552.76 5906.81 539.456 5530.35 531.141 5352.5L520.267 4625.11C509.393 4539.77 494.17 4319.96 520.267 4123.44C509.393 4127.43 491.868 4042.09 508.754 3668.83C529.862 3202.25 497.241 3231.76 508.754 3033.17C520.267 2834.57 539.944 2650.33 508.754 2568.98C477.564 2487.63 558.16 1862.34 521.546 1783.38C484.933 1704.42 491.484 1083.11 499.159 1052.8C506.835 1022.5 535.004 680.338 499.159 588.618C470.484 515.242 502.136 437.346 521.546 407.57V4" stroke="#F2E6D3" stroke-width="3"/>
<path d="M735 7548L729.243 4.00002H712.613C715.172 65.6705 717.602 200.176 706.856 244.834C696.111 289.492 706.217 386.251 712.613 429.048V666.692C714.532 759.729 717.218 953.14 712.613 982.487C706.856 1019.17 704.938 1311.04 712.613 1342.14C720.289 1373.24 712.613 1632.42 712.613 1645.18C712.613 1657.94 705.577 1778.36 712.613 1810.25C719.649 1842.15 711.334 2075.81 707.496 2101.33C703.658 2126.85 702.379 2323.02 707.496 2358.11C712.613 2393.2 716.451 2808.68 707.496 2850.15C698.541 2891.61 720.289 3143.61 716.451 3214.59C712.613 3285.56 696.622 3724.16 709.415 3778.39C719.649 3821.77 713.679 3937.88 709.415 3990.52C712.4 4063.35 716.579 4215.72 709.415 4242.52C702.251 4269.31 706.43 4594.46 709.415 4753.69C705.364 5301.55 699.693 6403.48 709.415 6428.36C719.137 6453.24 713.466 6597.16 709.415 6666.01C705.79 6832.94 700.716 7172.55 709.415 7195.52C718.114 7218.49 713.039 7440.08 709.415 7548H693.424C696.196 7446.19 700.076 7222.95 693.424 7144.48C686.772 7066.01 690.653 6763.03 693.424 6621.35C696.409 6541.34 698.541 6367.6 683.19 6312.73C667.839 6257.86 680.632 5822.02 688.947 5610.96V5122.92C695.77 4993.46 704.298 4712.7 683.83 4625.3C658.245 4516.05 694.064 4196.26 697.902 4182.71C700.972 4171.86 695.343 3908.64 692.145 3778.39L692.145 3080.61C695.13 2943.45 699.309 2660.83 692.145 2627.65C684.981 2594.48 689.16 2132.16 692.145 1905.15C688.52 1745.39 683.446 1371.01 692.145 1151.55C703.019 877.222 711.334 896.361 692.145 563.819C672.956 231.277 681.911 125.214 687.028 78.1641C691.122 40.5238 692.145 13.0379 692.145 4.00002H660.164C662.935 54.506 666.816 171.946 660.164 237.657C651.848 319.795 660.164 365.251 664.641 400.339C669.118 435.428 649.29 598.907 660.164 673.071C671.037 747.236 639.696 885.197 660.164 940.222C676.538 984.242 676.368 1200.99 674.235 1303.86L674.235 1810.25C664.428 1903.03 647.755 2096.54 659.524 2128.44C671.293 2160.34 674.235 2362.36 674.235 2459.39C667.586 2600.81 658.277 2892.41 674.235 2927.5C690.194 2962.59 677.047 3194.12 668.479 3305.5L674.235 3661.96L674.235 4094.99C662.296 4247.83 641.998 4565.01 656.326 4610.94C670.654 4656.88 680.632 4856.56 683.83 4950.66C677.007 5042.37 664.513 5230.57 669.118 5249.71C673.724 5268.85 671.037 5615.48 669.118 5786.4L658.245 6343.03C669.332 6358.98 688.179 6427.4 674.875 6573.5C661.571 6719.6 669.332 6827.89 674.875 6863.78L674.875 7179.57V7548H661.443L648.65 4633.27C638.416 4557.78 622.937 4369.63 642.894 4220.98C662.85 4072.34 664.854 3941.61 663.362 3894.82L625.624 4.00002H598.759L642.894 7548H616.669C621.573 7453.63 628.438 7251.02 616.669 7195.52C601.958 7126.14 650.569 7076.7 629.462 6963.46C608.354 6850.22 603.876 6649.26 616.669 6600.61C626.903 6561.7 620.933 6200.02 616.669 6024.05C608.311 5788.53 595.332 5302.18 610.273 5240.94C625.214 5179.69 616.498 4918.23 610.273 4795.16L610.273 4062.29C613.897 3859.2 616.285 3442.98 596.841 3402.79C572.535 3352.55 623.705 3276.79 610.273 3193.85C596.841 3110.92 596.841 3075.03 596.841 2962.59C596.841 2872.63 591.724 2373.26 589.165 2134.82C583.152 1950.34 574.734 1567.98 589.165 1514.39C607.204 1447.41 589.165 1276.75 589.165 1238.47C589.165 1200.19 555.265 1049.47 564.859 982.487C572.535 928.898 584.261 653.401 589.165 522.351L577.652 4.00002H553.346C549.082 64.0756 545.415 240.528 564.859 465.731C543.965 661.907 509.723 1073.72 539.914 1151.55C577.652 1248.84 573.174 1459.37 556.544 1563.04C543.24 1645.98 556.544 2022.38 564.859 2200.21L575.733 2927.5C586.607 3012.83 601.83 3232.61 575.733 3429.1C586.607 3425.12 604.132 3510.44 587.246 3883.66C566.138 4350.17 598.759 4320.67 587.246 4519.24C575.733 4717.8 556.056 4902.02 587.246 4983.36C618.436 5064.7 537.84 5689.91 574.454 5768.86C611.067 5847.81 604.516 6469.03 596.841 6499.34C589.165 6529.64 560.996 6871.75 596.841 6963.46C625.516 7036.83 593.864 7114.71 574.454 7144.48V7548" stroke="#F2E6D3" stroke-width="3"/>
<path d="M1152 7549L1146.24 3.99973H1129.61C1132.17 65.6784 1134.6 200.202 1123.86 244.865C1113.11 289.529 1123.22 386.301 1129.61 429.104V666.779C1131.53 759.829 1134.22 953.266 1129.61 982.617C1123.86 1019.3 1121.94 1311.21 1129.61 1342.32C1137.29 1373.43 1129.61 1632.64 1129.61 1645.4C1129.61 1658.16 1122.58 1778.59 1129.61 1810.49C1136.65 1842.4 1128.33 2076.08 1124.5 2101.61C1120.66 2127.13 1119.38 2323.33 1124.5 2358.42C1129.61 2393.52 1133.45 2809.05 1124.5 2850.52C1115.54 2892 1137.29 3144.03 1133.45 3215.01C1129.61 3286 1113.62 3724.66 1126.41 3778.89C1136.65 3822.28 1130.68 3938.41 1126.41 3991.05C1129.4 4063.89 1133.58 4216.28 1126.41 4243.08C1119.25 4269.88 1123.43 4595.07 1126.41 4754.32C1122.36 5302.25 1116.69 6404.33 1126.41 6429.21C1136.14 6454.1 1130.47 6598.03 1126.41 6666.89C1122.79 6833.85 1117.72 7173.5 1126.41 7196.47C1135.11 7219.44 1130.04 7441.06 1126.41 7549H1110.42C1113.2 7447.18 1117.08 7223.91 1110.42 7145.43C1103.77 7066.95 1107.65 6763.93 1110.42 6622.23C1113.41 6542.2 1115.54 6368.44 1100.19 6313.57C1084.84 6258.69 1097.63 5822.8 1105.95 5611.71V5123.59C1112.77 4994.12 1121.3 4713.32 1100.83 4625.91C1075.24 4516.64 1111.06 4196.82 1114.9 4183.26C1117.97 4172.41 1112.34 3909.16 1109.14 3778.89V3081.02C1112.13 2943.84 1116.31 2661.18 1109.14 2628C1101.98 2594.82 1106.16 2132.44 1109.14 1905.4C1105.52 1745.62 1100.45 1371.19 1109.14 1151.7C1120.02 877.338 1128.33 896.479 1109.14 563.893C1089.96 231.307 1098.91 125.23 1104.03 78.1736C1108.12 40.5284 1109.14 13.0388 1109.14 3.99973H1077.16C1079.94 54.5124 1083.82 171.968 1077.16 237.687C1068.85 319.837 1077.16 365.298 1081.64 400.391C1086.12 435.484 1066.29 598.986 1077.16 673.16C1088.04 747.334 1056.7 885.313 1077.16 940.345C1093.54 984.371 1093.37 1201.15 1091.24 1304.04V1810.49C1081.43 1903.28 1064.75 2096.82 1076.52 2128.72C1088.29 2160.63 1091.24 2362.68 1091.24 2459.71C1084.59 2601.15 1075.28 2892.79 1091.24 2927.89C1107.19 2962.98 1094.05 3194.54 1085.48 3305.93L1091.24 3662.45V4095.53C1079.3 4248.39 1059 4565.61 1073.33 4611.55C1087.65 4657.49 1097.63 4857.21 1100.83 4951.32C1094.01 5043.04 1081.51 5231.27 1086.12 5250.41C1090.72 5269.55 1088.04 5616.23 1086.12 5787.17L1075.24 6343.87C1086.33 6359.83 1105.18 6428.26 1091.88 6574.37C1078.57 6720.49 1086.33 6828.8 1091.88 6864.69V7180.52V7549H1078.44L1065.65 4633.89C1055.42 4558.38 1039.94 4370.21 1059.89 4221.54C1079.85 4072.88 1081.85 3942.13 1080.36 3895.34L1042.62 3.99973H1015.76L1059.89 7549H1033.67C1038.57 7454.62 1045.44 7251.99 1033.67 7196.47C1018.96 7127.09 1067.57 7077.64 1046.46 6964.38C1025.35 6851.13 1020.88 6650.14 1033.67 6601.49C1043.9 6562.57 1037.93 6200.84 1033.67 6024.85C1025.31 5789.3 1012.33 5302.89 1027.27 5241.63C1042.21 5180.38 1033.5 4918.88 1027.27 4795.79L1027.27 4062.83C1030.9 3859.71 1033.29 3443.44 1013.84 3403.24C989.535 3352.99 1040.7 3277.22 1027.27 3194.27C1013.84 3111.33 1013.84 3075.44 1013.84 2962.98C1013.84 2873.01 1008.72 2373.58 1006.17 2135.1C1000.15 1950.6 991.734 1568.19 1006.17 1514.59C1024.2 1447.6 1006.17 1276.92 1006.17 1238.64C1006.17 1200.35 972.265 1049.61 981.859 982.617C989.535 929.02 1001.26 653.487 1006.17 522.419L994.652 3.99973H970.346C966.082 64.0832 962.415 240.559 981.859 465.792C960.965 661.994 926.723 1073.86 956.914 1151.7C994.652 1249 990.174 1459.56 973.544 1563.25C960.24 1646.19 973.544 2022.65 981.859 2200.5L992.733 2927.89C1003.61 3013.23 1018.83 3233.04 992.733 3429.56C1003.61 3425.57 1021.13 3510.91 1004.25 3884.17C983.138 4350.75 1015.76 4321.24 1004.25 4519.83C992.733 4718.43 973.056 4902.67 1004.25 4984.02C1035.44 5065.37 954.84 5690.66 991.454 5769.62C1028.07 5848.58 1021.52 6469.89 1013.84 6500.2C1006.17 6530.5 977.996 6872.66 1013.84 6964.38C1042.52 7037.76 1010.86 7115.65 991.454 7145.43V7549" stroke="#F2E6D3" stroke-width="3"/>
<path d="M1178 7549L1185.98 4.00002H1209.04C1205.49 65.6787 1202.12 200.202 1217.02 244.866C1231.92 289.53 1217.91 386.301 1209.04 429.104V666.78C1206.38 759.829 1202.65 953.266 1209.04 982.617C1217.02 1019.31 1219.68 1311.22 1209.04 1342.32C1198.4 1373.43 1209.04 1632.64 1209.04 1645.4C1209.04 1658.16 1218.79 1778.59 1209.04 1810.49C1199.28 1842.4 1210.81 2076.08 1216.13 2101.61C1221.45 2127.13 1223.23 2323.33 1216.13 2358.42C1209.04 2393.52 1203.72 2809.05 1216.13 2850.52C1228.55 2892 1198.4 3144.03 1203.72 3215.01C1209.04 3286 1231.21 3724.66 1213.47 3778.89C1199.28 3822.28 1207.56 3938.41 1213.47 3991.05C1209.33 4063.89 1203.54 4216.28 1213.47 4243.08C1223.41 4269.88 1217.61 4595.07 1213.47 4754.32C1219.09 5302.25 1226.95 6404.33 1213.47 6429.21C1199.99 6454.1 1207.86 6598.03 1213.47 6666.89C1218.5 6833.85 1225.53 7173.5 1213.47 7196.47C1201.41 7219.44 1208.45 7441.06 1213.47 7549H1235.64C1231.8 7447.18 1226.42 7223.91 1235.64 7145.43C1244.87 7066.95 1239.49 6763.93 1235.64 6622.23C1231.51 6542.2 1228.55 6368.44 1249.83 6313.57C1271.12 6258.69 1253.38 5822.8 1241.85 5611.71V5123.59C1232.39 4994.12 1220.57 4713.32 1248.95 4625.91C1284.42 4516.64 1234.76 4196.82 1229.44 4183.26C1225.18 4172.41 1232.98 3909.16 1237.42 3778.89V3081.02C1233.28 2943.84 1227.48 2661.18 1237.42 2628C1247.35 2594.82 1241.56 2132.45 1237.42 1905.4C1242.44 1745.62 1249.48 1371.19 1237.42 1151.7C1222.34 877.337 1210.81 896.479 1237.42 563.893C1264.02 231.307 1251.61 125.23 1244.51 78.1736C1238.84 40.5283 1237.42 13.0391 1237.42 4.00002H1281.76C1277.92 54.5127 1272.54 171.968 1281.76 237.688C1293.29 319.837 1281.76 365.298 1275.55 400.391C1269.34 435.484 1296.83 598.986 1281.76 673.16C1266.68 747.334 1310.14 885.314 1281.76 940.346C1259.06 984.372 1259.29 1201.15 1262.25 1304.04V1810.49C1275.85 1903.28 1298.96 2096.82 1282.65 2128.72C1266.33 2160.63 1262.25 2362.68 1262.25 2459.71C1271.47 2601.15 1284.37 2892.79 1262.25 2927.89C1240.12 2962.98 1258.35 3194.54 1270.23 3305.93L1262.25 3662.45V4095.53C1278.8 4248.39 1306.94 4565.61 1287.08 4611.55C1267.21 4657.49 1253.38 4857.21 1248.95 4951.32C1258.41 5043.04 1275.73 5231.27 1269.34 5250.41C1262.96 5269.55 1266.68 5616.23 1269.34 5787.17L1284.42 6343.87C1269.05 6359.83 1242.92 6428.26 1261.36 6574.37C1279.81 6720.49 1269.05 6828.8 1261.36 6864.69V7180.52V7549H1279.98L1297.72 4633.89C1311.91 4558.38 1333.37 4370.21 1305.7 4221.54C1278.03 4072.88 1275.26 3942.13 1277.32 3895.34L1329.65 4.00002H1366.89L1305.7 7549H1342.06C1335.26 7454.62 1325.75 7251.99 1342.06 7196.47C1362.46 7127.09 1295.06 7077.64 1324.33 6964.38C1353.59 6851.13 1359.8 6650.14 1342.06 6601.49C1327.87 6562.57 1336.15 6200.84 1342.06 6024.85C1353.65 5789.3 1371.65 5302.89 1350.93 5241.63C1330.22 5180.38 1342.3 4918.88 1350.93 4795.79L1350.93 4062.83C1345.91 3859.71 1342.59 3443.44 1369.55 3403.24C1403.25 3352.99 1332.31 3277.22 1350.93 3194.27C1369.55 3111.33 1369.55 3075.44 1369.55 2962.98C1369.55 2873.01 1376.65 2373.58 1380.2 2135.1C1388.53 1950.6 1400.2 1568.19 1380.2 1514.6C1355.19 1447.6 1380.2 1276.92 1380.2 1238.64C1380.2 1200.35 1427.2 1049.61 1413.9 982.617C1403.25 929.02 1387 653.487 1380.2 522.42L1396.16 4.00002H1429.86C1435.77 64.0835 1440.86 240.559 1413.9 465.792C1442.87 661.994 1490.34 1073.86 1448.48 1151.7C1396.16 1249 1402.37 1459.56 1425.42 1563.25C1443.87 1646.19 1425.42 2022.65 1413.9 2200.5L1398.82 2927.89C1383.74 3013.23 1362.64 3233.04 1398.82 3429.56C1383.74 3425.57 1359.44 3510.91 1382.86 3884.17C1412.12 4350.75 1366.89 4321.24 1382.86 4519.83C1398.82 4718.43 1426.1 4902.67 1382.86 4984.02C1339.61 5065.37 1451.36 5690.66 1400.59 5769.62C1349.83 5848.58 1358.91 6469.89 1369.55 6500.2C1380.2 6530.5 1419.25 6872.66 1369.55 6964.38C1329.8 7037.76 1373.68 7115.65 1400.59 7145.43V7549" stroke="#F2E6D3" stroke-width="3"/>
<path d="M335 4L329.243 7548H312.613C315.172 7486.33 317.602 7351.82 306.856 7307.17C296.111 7262.51 306.217 7165.75 312.613 7122.95V6885.31C314.532 6792.27 317.218 6598.86 312.613 6569.51C306.856 6532.83 304.938 6240.96 312.613 6209.86C320.289 6178.76 312.613 5919.58 312.613 5906.82C312.613 5894.06 305.577 5773.64 312.613 5741.75C319.649 5709.85 311.334 5476.19 307.496 5450.67C303.658 5425.15 302.379 5228.98 307.496 5193.89C312.613 5158.8 316.451 4743.32 307.496 4701.85C298.541 4660.39 320.289 4408.39 316.451 4337.41C312.613 4266.44 296.622 3827.84 309.415 3773.61C319.649 3730.23 313.679 3614.12 309.415 3561.48C312.4 3488.65 316.579 3336.28 309.415 3309.48C302.251 3282.69 306.43 2957.54 309.415 2798.31C305.364 2250.45 299.693 1148.52 309.415 1123.64C319.137 1098.76 313.466 954.842 309.415 885.994C305.79 719.058 300.716 379.446 309.415 356.479C318.114 333.512 313.039 111.923 309.415 4H293.424C296.196 105.809 300.076 329.046 293.424 407.516C286.772 485.987 290.653 788.969 293.424 930.652C296.409 1010.66 298.541 1184.4 283.19 1239.27C267.839 1294.14 280.632 1729.98 288.947 1941.04V2429.08C295.77 2558.54 304.298 2839.3 283.83 2926.7C258.245 3035.95 294.064 3355.74 297.902 3369.29C300.972 3380.14 295.343 3643.36 292.145 3773.61V4471.39C295.13 4608.55 299.309 4891.17 292.145 4924.35C284.981 4957.52 289.16 5419.84 292.145 5646.85C288.52 5806.61 283.446 6180.99 292.145 6400.45C303.019 6674.78 311.334 6655.64 292.145 6988.18C272.956 7320.72 281.911 7426.79 287.028 7473.84C291.122 7511.48 292.145 7538.96 292.145 7548H260.164C262.935 7497.49 266.816 7380.05 260.164 7314.34C251.848 7232.2 260.164 7186.75 264.641 7151.66C269.118 7116.57 249.29 6953.09 260.164 6878.93C271.037 6804.76 239.696 6666.8 260.164 6611.78C276.538 6567.76 276.368 6351.01 274.235 6248.14V5741.75C264.428 5648.97 247.755 5455.46 259.524 5423.56C271.293 5391.66 274.235 5189.64 274.235 5092.61C267.586 4951.19 258.277 4659.59 274.235 4624.5C290.194 4589.41 277.047 4357.88 268.479 4246.5L274.235 3890.04V3457.01C262.296 3304.17 241.998 2986.99 256.326 2941.06C270.654 2895.12 280.632 2695.44 283.83 2601.34C277.007 2509.63 264.513 2321.43 269.118 2302.29C273.724 2283.15 271.037 1936.52 269.118 1765.6L258.245 1208.97C269.332 1193.02 288.179 1124.6 274.875 978.5C261.571 832.405 269.332 724.109 274.875 688.223V372.428V4H261.443L248.65 2918.73C238.416 2994.22 222.937 3182.37 242.894 3331.02C262.85 3479.66 264.854 3610.39 263.362 3657.18L225.624 7548H198.759L242.894 4H216.669C221.573 98.3665 228.438 300.975 216.669 356.479C201.958 425.858 250.569 475.301 229.462 588.54C208.354 701.78 203.876 902.741 216.669 951.386C226.903 990.302 220.933 1351.98 216.669 1527.95C208.311 1763.47 195.332 2249.82 210.273 2311.06C225.214 2372.31 216.498 2633.77 210.273 2756.84V3489.71C213.897 3692.8 216.285 4109.02 196.841 4149.21C172.535 4199.45 223.705 4275.21 210.273 4358.15C196.841 4441.08 196.841 4476.97 196.841 4589.41C196.841 4679.37 191.724 5178.74 189.165 5417.18C183.152 5601.66 174.734 5984.02 189.165 6037.61C207.204 6104.59 189.165 6275.25 189.165 6313.53C189.165 6351.81 155.265 6502.53 164.859 6569.51C172.535 6623.1 184.261 6898.6 189.165 7029.65L177.652 7548H153.346C149.082 7487.92 145.415 7311.47 164.859 7086.27C143.965 6890.09 109.723 6478.28 139.914 6400.45C177.652 6303.16 173.174 6092.63 156.544 5988.96C143.24 5906.02 156.544 5529.62 164.859 5351.79L175.733 4624.5C186.607 4539.17 201.83 4319.39 175.733 4122.9C186.607 4126.88 204.132 4041.56 187.246 3668.34C166.138 3201.83 198.759 3231.33 187.246 3032.76C175.733 2834.2 156.056 2649.98 187.246 2568.64C218.436 2487.3 137.84 1862.09 174.454 1783.14C211.067 1704.19 204.516 1082.97 196.841 1052.66C189.165 1022.36 160.996 680.249 196.841 588.54C225.516 515.174 193.864 437.288 174.454 407.516V4" stroke="#F2E6D3" stroke-width="3"/>
<path d="M1448 4L1453.76 7549H1470.39C1467.83 7487.32 1465.4 7352.8 1476.14 7308.13C1486.89 7263.47 1476.78 7166.7 1470.39 7123.9V6886.22C1468.47 6793.17 1465.78 6599.73 1470.39 6570.38C1476.14 6533.7 1478.06 6241.79 1470.39 6210.68C1462.71 6179.57 1470.39 5920.36 1470.39 5907.6C1470.39 5894.84 1477.42 5774.41 1470.39 5742.51C1463.35 5710.6 1471.67 5476.92 1475.5 5451.39C1479.34 5425.87 1480.62 5229.67 1475.5 5194.58C1470.39 5159.48 1466.55 4743.95 1475.5 4702.48C1484.46 4661 1462.71 4408.97 1466.55 4337.99C1470.39 4267 1486.38 3828.34 1473.59 3774.11C1463.35 3730.72 1469.32 3614.59 1473.59 3561.95C1470.6 3489.11 1466.42 3336.72 1473.59 3309.92C1480.75 3283.12 1476.57 2957.93 1473.59 2798.68C1477.64 2250.75 1483.31 1148.67 1473.59 1123.79C1463.86 1098.9 1469.53 954.968 1473.59 886.111C1477.21 719.153 1482.28 379.495 1473.59 356.525C1464.89 333.555 1469.96 111.938 1473.59 4H1489.58C1486.8 105.823 1482.92 329.089 1489.58 407.57C1496.23 486.051 1492.35 789.073 1489.58 930.775C1486.59 1010.8 1484.46 1184.56 1499.81 1239.43C1515.16 1294.31 1502.37 1730.2 1494.05 1941.29V2429.41C1487.23 2558.88 1478.7 2839.68 1499.17 2927.09C1524.76 3036.36 1488.94 3356.18 1485.1 3369.74C1482.03 3380.59 1487.66 3643.84 1490.86 3774.11V4471.98C1487.87 4609.16 1483.69 4891.82 1490.86 4925C1498.02 4958.18 1493.84 5420.56 1490.86 5647.6C1494.48 5807.38 1499.55 6181.81 1490.86 6401.3C1479.98 6675.66 1471.67 6656.52 1490.86 6989.11C1510.04 7321.69 1501.09 7427.77 1495.97 7474.83C1491.88 7512.47 1490.86 7539.96 1490.86 7549H1522.84C1520.06 7498.49 1516.18 7381.03 1522.84 7315.31C1531.15 7233.16 1522.84 7187.7 1518.36 7152.61C1513.88 7117.52 1533.71 6954.01 1522.84 6879.84C1511.96 6805.67 1543.3 6667.69 1522.84 6612.65C1506.46 6568.63 1506.63 6351.85 1508.76 6248.96V5742.51C1518.57 5649.72 1535.25 5456.18 1523.48 5424.28C1511.71 5392.37 1508.76 5190.32 1508.76 5093.29C1515.41 4951.85 1524.72 4660.21 1508.76 4625.11C1492.81 4590.02 1505.95 4358.46 1514.52 4247.07L1508.76 3890.55V3457.47C1520.7 3304.61 1541 2987.39 1526.67 2941.45C1512.35 2895.51 1502.37 2695.79 1499.17 2601.68C1505.99 2509.96 1518.49 2321.73 1513.88 2302.59C1509.28 2283.45 1511.96 1936.77 1513.88 1765.83L1524.76 1209.13C1513.67 1193.17 1494.82 1124.74 1508.12 978.629C1521.43 832.514 1513.67 724.205 1508.12 688.314V372.477V4H1521.56L1534.35 2919.11C1544.58 2994.62 1560.06 3182.79 1540.11 3331.46C1520.15 3480.12 1518.15 3610.87 1519.64 3657.66L1557.38 7549H1584.24L1540.11 4H1566.33C1561.43 98.379 1554.56 301.015 1566.33 356.525C1581.04 425.914 1532.43 475.363 1553.54 588.618C1574.65 701.873 1579.12 902.86 1566.33 951.512C1556.1 990.433 1562.07 1352.16 1566.33 1528.15C1574.69 1763.7 1587.67 2250.11 1572.73 2311.37C1557.79 2372.62 1566.5 2634.12 1572.73 2757.21V3490.17C1569.1 3693.29 1566.71 4109.56 1586.16 4149.76C1610.47 4200.01 1559.3 4275.78 1572.73 4358.73C1586.16 4441.67 1586.16 4477.56 1586.16 4590.02C1586.16 4679.99 1591.28 5179.42 1593.83 5417.9C1599.85 5602.4 1608.27 5984.81 1593.83 6038.41C1575.8 6105.4 1593.83 6276.08 1593.83 6314.36C1593.83 6352.65 1627.74 6503.39 1618.14 6570.38C1610.47 6623.98 1598.74 6899.51 1593.83 7030.58L1605.35 7549H1629.65C1633.92 7488.92 1637.59 7312.44 1618.14 7087.21C1639.04 6891.01 1673.28 6479.14 1643.09 6401.3C1605.35 6304 1609.83 6093.44 1626.46 5989.75C1639.76 5906.81 1626.46 5530.35 1618.14 5352.5L1607.27 4625.11C1596.39 4539.77 1581.17 4319.96 1607.27 4123.44C1596.39 4127.43 1578.87 4042.09 1595.75 3668.83C1616.86 3202.25 1584.24 3231.76 1595.75 3033.17C1607.27 2834.57 1626.94 2650.33 1595.75 2568.98C1564.56 2487.63 1645.16 1862.34 1608.55 1783.38C1571.93 1704.42 1578.48 1083.11 1586.16 1052.8C1593.83 1022.5 1622 680.338 1586.16 588.618C1557.48 515.242 1589.14 437.346 1608.55 407.57V4" stroke="#F2E6D3" stroke-width="3"/>
<path d="M968 4L960.213 7548H937.718C941.179 7486.33 944.467 7351.82 929.931 7307.17C915.396 7262.51 929.066 7165.75 937.718 7122.95V6885.31C940.314 6792.27 943.948 6598.86 937.718 6569.51C929.931 6532.83 927.336 6240.96 937.718 6209.86C948.1 6178.76 937.718 5919.58 937.718 5906.82C937.718 5894.06 928.201 5773.64 937.718 5741.75C947.235 5709.85 935.988 5476.19 930.797 5450.67C925.605 5425.15 923.875 5228.98 930.797 5193.89C937.718 5158.8 942.909 4743.32 930.797 4701.85C918.684 4660.39 948.1 4408.39 942.909 4337.41C937.718 4266.44 916.088 3827.84 933.392 3773.61C947.235 3730.23 939.16 3614.12 933.392 3561.48C937.43 3488.65 943.082 3336.28 933.392 3309.48C923.702 3282.69 929.355 2957.54 933.392 2798.31C927.913 2250.45 920.241 1148.52 933.392 1123.64C946.543 1098.76 938.872 954.842 933.392 885.994C928.489 719.058 921.625 379.446 933.392 356.479C945.159 333.512 938.295 111.923 933.392 4H911.762C915.511 105.809 920.76 329.046 911.762 407.516C902.764 485.987 908.013 788.969 911.762 930.652C915.8 1010.66 918.684 1184.4 897.919 1239.27C877.154 1294.14 894.458 1729.98 905.706 1941.04V2429.08C914.935 2558.54 926.471 2839.3 898.784 2926.7C864.176 3035.95 912.627 3355.74 917.819 3369.29C921.972 3380.14 914.358 3643.36 910.032 3773.61V4471.39C914.069 4608.55 919.722 4891.17 910.032 4924.35C900.342 4957.52 905.994 5419.84 910.032 5646.85C905.129 5806.61 898.265 6180.99 910.032 6400.45C924.74 6674.78 935.988 6655.64 910.032 6988.18C884.076 7320.72 896.189 7426.79 903.11 7473.84C908.648 7511.48 910.032 7538.96 910.032 7548H866.772C870.521 7497.49 875.77 7380.05 866.772 7314.34C855.525 7232.2 866.772 7186.75 872.828 7151.66C878.885 7116.57 852.064 6953.09 866.772 6878.93C881.48 6804.76 839.086 6666.8 866.772 6611.78C888.921 6567.76 888.69 6351.01 885.806 6248.14V5741.75C872.54 5648.97 849.987 5455.46 865.907 5423.56C881.826 5391.66 885.806 5189.64 885.806 5092.61C876.812 4951.19 864.22 4659.59 885.806 4624.5C907.393 4589.41 889.61 4357.88 878.02 4246.5L885.806 3890.04V3457.01C869.656 3304.17 842.2 2986.99 861.581 2941.06C880.961 2895.12 894.458 2695.44 898.784 2601.34C889.556 2509.63 872.655 2321.43 878.885 2302.29C885.114 2283.15 881.48 1936.52 878.885 1765.6L864.176 1208.97C879.173 1193.02 904.668 1124.6 886.672 978.5C868.675 832.405 879.173 724.109 886.672 688.223V372.428V4H868.502L851.199 2918.73C837.355 2994.22 816.418 3182.37 843.412 3331.02C870.406 3479.66 873.117 3610.39 871.098 3657.18L820.051 7548H783.713L843.412 4H807.939C814.572 98.3665 823.858 300.975 807.939 356.479C788.039 425.858 853.794 475.301 825.243 588.54C796.691 701.78 790.635 902.741 807.939 951.386C821.782 990.302 813.707 1351.98 807.939 1527.95C796.634 1763.47 779.077 2249.82 799.287 2311.06C819.497 2372.31 807.708 2633.77 799.287 2756.84V3489.71C804.19 3692.8 807.42 4109.02 781.118 4149.21C748.24 4199.45 817.456 4275.21 799.287 4358.15C781.118 4441.08 781.118 4476.97 781.118 4589.41C781.118 4679.37 774.196 5178.74 770.735 5417.18C762.602 5601.66 751.215 5984.02 770.735 6037.61C795.135 6104.59 770.735 6275.25 770.735 6313.53C770.735 6351.81 724.88 6502.53 737.858 6569.51C748.24 6623.1 764.102 6898.6 770.735 7029.65L755.162 7548H722.284C716.516 7487.92 711.556 7311.47 737.858 7086.27C709.595 6890.09 663.278 6478.28 704.115 6400.45C755.162 6303.16 749.105 6092.63 726.61 5988.96C708.614 5906.02 726.61 5529.62 737.858 5351.79L752.566 4624.5C767.275 4539.17 787.866 4319.39 752.566 4122.9C767.275 4126.88 790.981 4041.56 768.14 3668.34C739.588 3201.83 783.713 3231.33 768.14 3032.76C752.566 2834.2 725.95 2649.98 768.14 2568.64C810.329 2487.3 701.311 1862.09 750.836 1783.14C800.361 1704.19 791.5 1082.97 781.118 1052.66C770.735 1022.36 732.633 680.249 781.118 588.54C819.905 515.174 777.091 437.288 750.836 407.516V4" stroke="#F2E6D3" stroke-width="3"/>
<ellipse cx="1405.24" cy="6489.14" rx="46.7346" ry="80.6252" fill="#D9CEB9"/>
<ellipse cx="995.511" cy="6477.42" rx="27.5286" ry="68.8979" fill="#D9CEB9"/>
</svg>
