<svg width="159" height="246" viewBox="0 0 159 246" fill="none" xmlns="http://www.w3.org/2000/svg">
<path d="M2.94267 188.91C1.34587 193.998 0.723344 199.38 1.11257 204.733C1.5018 210.085 2.89473 215.298 5.2075 220.057C9.81348 229.397 17.264 236.754 26.3124 240.897C34.1845 244.627 44.9242 247.768 53.874 243.272C53.874 243.272 60.705 240.906 68.988 232.72C68.988 232.72 85.9651 210.987 77.4629 187.232C77.4629 187.232 76.3761 180.419 67.2894 169.975C66.778 169.386 57.4173 162.554 56.7415 162.22C49.1342 158.529 36.3854 158.49 20.4129 166.608C11.9381 170.917 5.81024 179.3 2.94267 188.91Z" fill="#7F1C80" stroke="black" stroke-miterlimit="10"/>
<path d="M87.3085 137.003C81.0071 148.026 70.7058 174.746 100.213 198.844C100.213 198.844 129.683 216.071 141.564 198.746C141.564 198.746 162.568 180.517 157.089 152.551C157.089 152.551 152.404 134.882 132.075 123.005C131.5 122.671 130.906 122.337 130.358 121.945C128.34 120.541 118.331 115.328 94.9797 129.199C91.8381 131.044 89.1951 133.732 87.3085 137.003Z" fill="#7F1C80" stroke="black" stroke-miterlimit="10"/>
<path d="M13.5546 158.42C13.5546 158.42 19.5 176.189 26.5 177.689C27.5 177.189 29.0887 177.189 29.6222 175.215C29.6723 174.33 29.4873 173.449 29.0887 172.673C25.3262 164.938 11.7372 135.096 15.6915 116.132C15.6915 116.132 22.9974 65.2744 29.1801 62.5847C29.1801 62.5847 34.3493 65.4524 41.5 74.6894C48.6507 83.9263 74.032 101.999 81 105.189C86.0411 107.477 92.3881 113.271 97 118.189C98.4603 119.755 100.703 126.706 101.664 128.667L102.641 130.63C103.39 132.212 104.638 133.457 106.162 134.142C107.686 134.827 109.386 134.908 110.961 134.37C112.55 133.781 113.563 132.593 112.577 130.277C110.056 124.387 104.65 106.09 82.1479 96.6761C82.1479 96.6761 56.0384 84.4649 47.0065 69.8486L32.5134 50.236L40.4311 45.7501C40.4311 45.7501 64.5 68.1894 87 64.1894C87 64.1894 111.855 58.5209 114.604 39.6444L123.837 9.45003C123.837 9.45003 111 9.92865 102.5 7.68964C102.5 7.68964 88.5 -5.31065 62.7963 4.93461C62.7963 4.93461 36.2211 18.7655 39.6092 40.204L30.8056 45.1807L28.2394 43.0114L20.9335 47.1636L22.4312 55.576C22.4312 55.576 12.2304 75.4046 9.96554 96.0184C7.70071 116.632 4.9062 140.77 13.5546 158.42Z" fill="#619154" stroke="black" stroke-miterlimit="10"/>
</svg>
